<svg fill="#FFFFFF" xmlns="http://www.w3.org/2000/svg"  viewBox="0 0 64 64"><path d="M 18.505859 9.4140625 C 15.577379 9.4140625 13.181641 11.809801 13.181641 14.738281 L 13.181641 50.154297 C 13.181641 53.082777 15.577379 55.478516 18.505859 55.478516 L 46.642578 55.478516 C 49.571058 55.478516 51.966797 53.082777 51.966797 50.154297 L 51.966797 41 A 1.0001 1.0001 0 0 0 50.966797 40 L 21.701172 40 L 24.845703 34.339844 C 25.293599 33.561836 25.57735 32.809568 25.742188 32.095703 C 26.26482 31.589233 26.75353 30.953312 27.181641 30.177734 L 29.136719 26.771484 L 36.21875 35.625 A 1.0001 1.0001 0 0 0 37.707031 35.707031 L 42 31.414062 L 48.292969 37.707031 A 1.0001 1.0001 0 1 0 49.707031 36.292969 L 42.707031 29.292969 A 1.0001 1.0001 0 0 0 41.292969 29.292969 L 37.083984 33.501953 L 29.78125 24.375 A 1.0001 1.0001 0 0 0 28.132812 24.501953 L 25.548828 29.007812 C 25.295729 28.355367 24.953997 27.77212 24.457031 27.361328 C 23.671944 26.712374 22.684304 26.397194 21.708984 26.484375 C 20.734523 26.571475 19.762005 27.104254 19.175781 28.042969 C 18.519917 29.080199 18.413782 30.262154 18.767578 31.238281 C 19.121819 32.215637 19.893094 32.98449 20.865234 33.375 C 21.52286 33.639169 22.269169 33.634667 23.027344 33.496094 L 19.125 40.513672 A 1.0001 1.0001 0 0 0 20 42 L 49.966797 42 L 49.966797 50.154297 C 49.966797 52.001817 48.490098 53.478516 46.642578 53.478516 L 18.505859 53.478516 C 16.65834 53.478516 15.181641 52.001817 15.181641 50.154297 L 15.181641 14.738281 C 15.181641 12.890761 16.65834 11.414063 18.505859 11.414062 L 36.712891 11.414062 L 48.449219 24.03125 L 39.064453 24.03125 C 38.283048 24.03125 37.669922 23.420077 37.669922 22.638672 L 37.669922 16.798828 A 1.0001 1.0001 0 1 0 35.669922 16.798828 L 35.669922 22.638672 C 35.669922 24.501267 37.201858 26.03125 39.064453 26.03125 L 50.744141 26.03125 A 1.0001 1.0001 0 0 0 51.476562 24.351562 L 37.880859 9.734375 A 1.0001 1.0001 0 0 0 37.148438 9.4140625 L 18.505859 9.4140625 z M 21.886719 28.476562 C 22.305618 28.439122 22.793853 28.581798 23.181641 28.902344 C 23.664497 29.301474 23.867383 30.10522 23.761719 31.146484 C 22.9413 31.701719 22.172595 31.744993 21.611328 31.519531 C 21.143344 31.331541 20.795775 30.968535 20.646484 30.556641 C 20.497194 30.144747 20.503762 29.682707 20.867188 29.109375 A 1.0001 1.0001 0 0 0 20.871094 29.103516 C 21.130536 28.687273 21.467819 28.514007 21.886719 28.476562 z"/></svg>
