<svg xmlns="http://www.w3.org/2000/svg" xmlns:xlink="http://www.w3.org/1999/xlink" width="500" zoomAndPan="magnify" viewBox="0 0 375 374.999991" height="500" preserveAspectRatio="xMidYMid meet" version="1.0"><defs><clipPath id="a746c16172"><path d="M 0 52.839844 L 375 52.839844 L 375 130 L 0 130 Z M 0 52.839844 " clip-rule="nonzero"/></clipPath><clipPath id="c03d7a51e2"><path d="M 122 245 L 219 245 L 219 322.089844 L 122 322.089844 Z M 122 245 " clip-rule="nonzero"/></clipPath></defs><g clip-path="url(#a746c16172)"><path fill="#ff462b" d="M 20.265625 63.167969 C 22.394531 56.984375 28.160156 52.839844 34.632812 52.839844 L 366.964844 52.839844 C 372.199219 52.839844 375.867188 58.0625 374.148438 63.0625 L 354.730469 119.445312 C 352.605469 125.625 346.839844 129.769531 340.367188 129.769531 L 8.035156 129.769531 C 2.800781 129.769531 -0.871094 124.546875 0.851562 119.546875 Z M 20.265625 63.167969 " fill-opacity="1" fill-rule="nonzero"/></g><path fill="#ff462b" d="M 98.898438 159.257812 C 101.027344 153.109375 106.71875 149.003906 113.101562 149.003906 L 244.066406 149.003906 C 249.265625 149.003906 252.902344 154.253906 251.167969 159.261719 L 231.625 215.675781 C 229.496094 221.820312 223.804688 225.929688 217.421875 225.929688 L 86.457031 225.929688 C 81.257812 225.929688 77.621094 220.679688 79.355469 215.671875 Z M 98.898438 159.257812 " fill-opacity="1" fill-rule="nonzero"/><g clip-path="url(#c03d7a51e2)"><path fill="#ff462b" d="M 142.605469 255.382812 C 144.714844 249.253906 150.316406 245.164062 156.597656 245.164062 L 211.246094 245.164062 C 216.378906 245.164062 219.964844 250.429688 218.242188 255.4375 L 198.816406 311.871094 C 196.707031 318 191.105469 322.089844 184.824219 322.089844 L 130.175781 322.089844 C 125.042969 322.089844 121.457031 316.824219 123.179688 311.816406 Z M 142.605469 255.382812 " fill-opacity="1" fill-rule="nonzero"/></g></svg>