<svg width="49" height="48" viewBox="0 0 49 48" fill="none" xmlns="http://www.w3.org/2000/svg">
<path d="M43.5949 16.6195C43.9249 15.0295 43.6549 13.3795 42.8449 11.9395C41.8849 10.2595 40.2949 8.99954 38.4349 8.42954C38.2549 5.60954 36.4549 3.23954 33.5449 2.15954C30.3949 0.989543 27.0349 1.67954 24.8449 3.80954C22.6549 1.67954 19.2649 0.989543 16.1149 2.15954C13.2349 3.23954 11.4049 5.60954 11.2549 8.39954C9.39494 8.99954 7.80494 10.2295 6.84494 11.9095C6.00494 13.3795 5.76494 15.0295 6.09494 16.5895C4.05494 18.0295 2.76494 20.5195 2.49494 23.4895C2.22494 26.7295 3.27494 29.7295 5.28494 31.5895C4.77494 33.6895 5.10494 35.9695 6.30494 37.9195C7.62494 40.0795 9.69494 41.4595 12.0049 41.6995C13.0849 44.0095 15.2449 45.6595 17.9149 46.1695C20.4049 46.6495 22.9249 46.0495 24.8149 44.5195C26.2549 45.6895 28.1149 46.3195 30.0349 46.3195C30.5749 46.3195 31.1449 46.2595 31.7149 46.1695C34.4149 45.6595 36.5749 44.0095 37.6549 41.6995C39.7849 41.4595 41.7649 40.2295 43.0849 38.3395C44.4949 36.2995 44.9449 33.8395 44.3749 31.5595C45.4849 30.5095 46.3249 29.0695 46.8049 27.4195C48.0649 23.5195 46.5349 18.6895 43.5949 16.5595V16.6195ZM18.4849 43.2895C16.5349 42.8995 15.0349 41.6395 14.4649 39.8695C14.2549 39.2395 13.6249 38.7595 12.9949 38.8195C12.7849 38.8195 12.6049 38.8195 12.3949 38.7895C10.9549 38.6695 9.66494 37.7995 8.82494 36.4195C7.92494 34.9495 7.77494 33.1795 8.37494 31.7095C8.64494 31.0495 8.43494 30.2695 7.83494 29.8795C6.51494 29.0095 5.70494 27.3295 5.49494 25.3795H11.0749C11.3749 25.3795 11.6749 25.2895 11.9149 25.1095L15.1249 22.9495H20.1649C21.0049 22.9495 21.6649 22.2895 21.6649 21.4495C21.6649 20.6095 21.0049 19.9495 20.1649 19.9495H14.6749C14.3749 19.9495 14.0749 20.0395 13.8349 20.2195L10.6249 22.3795H5.73494C6.18494 20.6395 7.14494 19.2895 8.46494 18.6895C9.21494 18.3595 9.54494 17.4895 9.21494 16.7395C8.73494 15.6595 8.82494 14.4595 9.42494 13.4095C10.1449 12.1495 11.4649 11.3095 12.9649 11.0995C13.7749 10.9795 14.3449 10.2595 14.2549 9.41954C13.8949 6.41954 16.3849 5.24954 17.1349 4.97954C19.0849 4.25954 21.8749 4.49954 23.3449 6.71954C23.4049 6.77954 23.4649 6.80954 23.5249 6.86954V10.4695H20.1649C19.3249 10.4695 18.6649 11.1295 18.6649 11.9695C18.6649 12.8095 19.3249 13.4695 20.1649 13.4695H23.5249V31.2895H16.3849C15.5449 31.2895 14.8849 31.9495 14.8849 32.7895C14.8849 33.6295 15.5449 34.2895 16.3849 34.2895H23.5249V41.6695C22.2949 43.0495 20.3749 43.6795 18.4549 43.2895H18.4849ZM44.0149 26.4295C44.0149 26.4295 43.9549 26.5795 43.9249 26.6395C43.5049 28.0495 42.7549 29.1895 41.7949 29.8795C41.1949 30.2695 40.9849 31.0495 41.2549 31.6795C41.9149 33.2395 41.6749 35.1595 40.6249 36.6595C39.9649 37.6195 39.0949 38.2495 38.1049 38.5495V35.2495C38.1049 34.4095 37.4449 33.7495 36.6049 33.7495C35.7649 33.7495 35.1049 34.4095 35.1049 35.2495V39.9595C34.5049 41.6395 33.0349 42.8695 31.1449 43.2295C29.4049 43.5595 27.7549 43.0795 26.5549 41.9995V22.2895H33.0649V22.7095C31.2949 23.3395 29.9749 25.0195 29.9749 26.9995C29.9749 29.5195 32.0149 31.5595 34.5649 31.5595C37.1149 31.5595 39.1549 29.5195 39.1549 26.9995C39.1549 24.9895 37.8649 23.3095 36.0649 22.7095V20.7895C36.0649 19.9495 35.4049 19.2895 34.5649 19.2895H26.5549V16.6195H29.5549C30.3949 16.6195 31.0549 15.9595 31.0549 15.1195C31.0549 14.2795 30.3949 13.6195 29.5549 13.6195H26.5549V6.35954C28.0849 4.43954 30.6649 4.22954 32.5249 4.91954C33.3049 5.21954 35.7949 6.35954 35.4349 9.35954C35.4349 9.38954 35.4349 9.41954 35.4349 9.44954C35.4349 9.47954 35.4349 9.50954 35.4349 9.53954V14.2495C35.4349 15.0895 36.0949 15.7495 36.9349 15.7495C37.7749 15.7495 38.4349 15.0895 38.4349 14.2495V11.6095C39.1849 12.0295 39.8449 12.5995 40.2649 13.3495C40.8649 14.3995 40.9249 15.5695 40.4749 16.6495C40.3249 17.0095 40.3249 17.4295 40.4749 17.8195C40.6249 18.1795 40.9249 18.4795 41.2849 18.6295C43.5349 19.5595 44.9449 23.6095 44.0749 26.3395L44.0149 26.4295ZM34.5649 25.4995C35.4349 25.4995 36.1549 26.2195 36.1549 27.0895C36.1549 27.9595 35.4349 28.6495 34.5649 28.6495C33.6949 28.6495 32.9749 27.9295 32.9749 27.0895C32.9749 26.2495 33.6949 25.4995 34.5649 25.4995Z" fill="white"/>
</svg>
