<svg width="49" height="48" viewBox="0 0 49 48" fill="none" xmlns="http://www.w3.org/2000/svg">
<path d="M44.8258 11.6704C44.6758 11.4604 44.4658 11.2804 44.2258 11.1904L25.2358 3.66035C24.8758 3.51035 24.4858 3.51035 24.1258 3.66035L5.10578 11.1604C4.86578 11.2504 4.65578 11.4304 4.50578 11.6404C4.47578 11.7004 4.44578 11.7304 4.41578 11.7904C4.29578 12.0004 4.17578 12.2704 4.17578 12.5404V35.4004C4.17578 36.0304 4.53578 36.5704 5.13578 36.7804L24.0958 44.2804H24.1258C24.3058 44.3704 24.4858 44.4004 24.6658 44.4004C24.8458 44.4004 25.0258 44.3704 25.2058 44.2804H25.2358L44.1958 36.7804C44.7658 36.5404 45.1558 36.0004 45.1558 35.4004V12.5404C45.1558 12.2704 45.0658 12.0004 44.9158 11.7904C44.8858 11.7304 44.8558 11.7004 44.8258 11.6404V11.6704ZM24.6658 6.66035L39.5758 12.5704L34.9558 14.4004C34.9558 14.4004 34.7758 14.2504 34.6858 14.2204L20.1358 8.46035L24.6958 6.66035H24.6658ZM16.0558 10.0804L30.9658 15.9904L24.6658 18.4804L9.75578 12.5704L16.0558 10.0804ZM7.17578 14.7904L23.1658 21.1204V40.7704L7.17578 34.4404V14.7904ZM26.1658 40.7704V21.1204L42.1558 14.7904V34.4404L26.1658 40.7704Z" fill="white"/>
</svg>
