<svg width="49" height="48" viewBox="0 0 49 48" fill="none" xmlns="http://www.w3.org/2000/svg">
<path d="M10.016 20.4504L15.316 22.7004C15.916 21.5004 16.5577 20.3171 17.241 19.1504C17.9243 17.9837 18.6493 16.8671 19.416 15.8004L15.466 15.0004L10.016 20.4504ZM17.716 24.5004L24.366 31.1504C26.266 30.2837 28.0493 29.3004 29.716 28.2004C31.3827 27.1004 32.7327 26.0337 33.766 25.0004C36.466 22.3004 38.4493 19.5337 39.716 16.7004C40.9827 13.8671 41.666 10.6671 41.766 7.10039C38.1993 7.20039 34.9993 7.88372 32.166 9.15038C29.3327 10.4171 26.566 12.4004 23.866 15.1004C22.8327 16.1337 21.766 17.4837 20.666 19.1504C19.566 20.8171 18.5827 22.6004 17.716 24.5004ZM29.166 19.7004C28.4993 19.0337 28.166 18.2087 28.166 17.2254C28.166 16.2421 28.4993 15.4171 29.166 14.7504C29.8327 14.0837 30.6577 13.7504 31.641 13.7504C32.6243 13.7504 33.4493 14.0837 34.116 14.7504C34.7827 15.4171 35.116 16.2421 35.116 17.2254C35.116 18.2087 34.7827 19.0337 34.116 19.7004C33.4493 20.3671 32.6243 20.7004 31.641 20.7004C30.6577 20.7004 29.8327 20.3671 29.166 19.7004ZM28.416 38.8504L33.866 33.4004L33.066 29.4504C31.9993 30.2171 30.8827 30.9421 29.716 31.6254C28.5493 32.3087 27.366 32.9504 26.166 33.5504L28.416 38.8504ZM44.716 4.15039C45.016 8.68372 44.4493 12.8171 43.016 16.5504C41.5827 20.2837 39.216 23.8004 35.916 27.1004L35.816 27.2004L35.716 27.3004L36.816 32.8004C36.916 33.3004 36.891 33.7837 36.741 34.2504C36.591 34.7171 36.3327 35.1337 35.966 35.5004L27.416 44.1004L23.166 34.2004L14.666 25.7004L4.76602 21.4504L13.366 12.9004C13.7327 12.5337 14.1493 12.2754 14.616 12.1254C15.0827 11.9754 15.566 11.9504 16.066 12.0504L21.566 13.1504C21.5993 13.1171 21.6327 13.0921 21.666 13.0754C21.6993 13.0587 21.7327 13.0337 21.766 13.0004C25.066 9.70039 28.5827 7.32539 32.316 5.87539C36.0493 4.42539 40.1827 3.85039 44.716 4.15039ZM8.11602 31.7504C9.28268 30.5837 10.7077 29.9921 12.391 29.9754C14.0743 29.9587 15.4993 30.5337 16.666 31.7004C17.8327 32.8671 18.4077 34.2921 18.391 35.9754C18.3743 37.6587 17.7827 39.0837 16.616 40.2504C15.7493 41.1171 14.4077 41.8337 12.591 42.4004C10.7743 42.9671 8.04935 43.5004 4.41602 44.0004C4.91602 40.3671 5.44102 37.6337 5.99102 35.8004C6.54102 33.9671 7.24935 32.6171 8.11602 31.7504ZM10.216 33.9004C9.74935 34.4004 9.33268 35.1837 8.96602 36.2504C8.59935 37.3171 8.28268 38.6837 8.01602 40.3504C9.68268 40.0837 11.0493 39.7671 12.116 39.4004C13.1827 39.0337 13.966 38.6171 14.466 38.1504C15.0993 37.5837 15.4243 36.8754 15.441 36.0254C15.4577 35.1754 15.166 34.4337 14.566 33.8004C13.9327 33.2004 13.191 32.9087 12.341 32.9254C11.491 32.9421 10.7827 33.2671 10.216 33.9004Z" fill="white"/>
</svg>
