<svg width="48" height="48" viewBox="0 0 48 48" fill="none" xmlns="http://www.w3.org/2000/svg">
<path d="M43.3795 2.91016H4.61953C3.44953 2.91016 2.51953 3.84016 2.51953 5.01016V43.8002C2.51953 44.9702 3.44953 45.9002 4.61953 45.9002H43.4095C44.5795 45.9002 45.5095 44.9702 45.5095 43.8002V5.04016C45.5095 3.87016 44.5795 2.94016 43.4095 2.94016L43.3795 2.91016ZM42.4795 42.9002H5.48953V5.91016H42.4795V42.9002Z" fill="white"/>
<path d="M13.7695 37.3205C14.6095 37.3205 15.2695 36.6605 15.2695 35.8205V25.9805C15.2695 25.1405 14.6095 24.4805 13.7695 24.4805C12.9295 24.4805 12.2695 25.1405 12.2695 25.9805V35.8205C12.2695 36.6605 12.9295 37.3205 13.7695 37.3205Z" fill="white"/>
<path d="M34.2305 37.3195C35.0705 37.3195 35.7305 36.6595 35.7305 35.8195V13.0195C35.7305 12.1795 35.0705 11.5195 34.2305 11.5195C33.3905 11.5195 32.7305 12.1795 32.7305 13.0195V35.8195C32.7305 36.6595 33.3905 37.3195 34.2305 37.3195Z" fill="white"/>
<path d="M23.8496 37.3201C24.6896 37.3201 25.3496 36.6601 25.3496 35.8201V31.0801C25.3496 30.2401 24.6896 29.5801 23.8496 29.5801C23.0096 29.5801 22.3496 30.2401 22.3496 31.0801V35.8201C22.3496 36.6601 23.0096 37.3201 23.8496 37.3201Z" fill="white"/>
<path d="M23.8496 25.7097C24.6896 25.7097 25.3496 25.0497 25.3496 24.2097V19.4697C25.3496 18.6297 24.6896 17.9697 23.8496 17.9697C23.0096 17.9697 22.3496 18.6297 22.3496 19.4697V24.2097C22.3496 25.0497 23.0096 25.7097 23.8496 25.7097Z" fill="white"/>
</svg>
