<svg xmlns="http://www.w3.org/2000/svg" xmlns:xlink="http://www.w3.org/1999/xlink" width="1020" zoomAndPan="magnify" viewBox="0 0 765 765.749999" height="1021" preserveAspectRatio="xMidYMid meet" version="1.0"><defs><clipPath id="50eb3e3793"><path d="M 0.125 108.136719 L 764.875 108.136719 L 764.875 266 L 0.125 266 Z M 0.125 108.136719 " clip-rule="nonzero"/></clipPath><clipPath id="73a01fba35"><path d="M 250 500 L 447 500 L 447 657.707031 L 250 657.707031 Z M 250 500 " clip-rule="nonzero"/></clipPath></defs><g clip-path="url(#50eb3e3793)"><path fill="#ff462b" d="M 41.453125 129.210938 C 45.792969 116.589844 57.550781 108.136719 70.75 108.136719 L 748.492188 108.136719 C 759.167969 108.136719 766.652344 118.796875 763.140625 129 L 723.546875 244.078125 C 719.207031 256.699219 707.449219 265.15625 694.25 265.15625 L 16.507812 265.15625 C 5.832031 265.15625 -1.652344 254.492188 1.855469 244.289062 Z M 41.453125 129.210938 " fill-opacity="1" fill-rule="nonzero"/></g><path fill="#ff462b" d="M 201.808594 325.34375 C 206.148438 312.796875 217.757812 304.410156 230.773438 304.410156 L 497.855469 304.410156 C 508.460938 304.410156 515.878906 315.132812 512.34375 325.351562 L 472.488281 440.5 C 468.148438 453.046875 456.542969 461.429688 443.523438 461.429688 L 176.4375 461.429688 C 165.835938 461.429688 158.417969 450.710938 161.957031 440.492188 Z M 201.808594 325.34375 " fill-opacity="1" fill-rule="nonzero"/><g clip-path="url(#73a01fba35)"><path fill="#ff462b" d="M 290.941406 521.542969 C 295.242188 509.039062 306.671875 500.6875 319.480469 500.6875 L 430.925781 500.6875 C 441.394531 500.6875 448.710938 511.4375 445.195312 521.660156 L 405.578125 636.847656 C 401.277344 649.355469 389.851562 657.707031 377.042969 657.707031 L 265.597656 657.707031 C 255.125 657.707031 247.8125 646.957031 251.328125 636.730469 Z M 290.941406 521.542969 " fill-opacity="1" fill-rule="nonzero"/></g></svg>