<svg xmlns="http://www.w3.org/2000/svg" xmlns:xlink="http://www.w3.org/1999/xlink" width="1784" zoomAndPan="magnify" viewBox="0 0 1338 398.999991" height="532" preserveAspectRatio="xMidYMid meet" version="1.0"><defs><clipPath id="a618e20844"><path d="M 1010 150 L 1172 150 L 1172 379.4375 L 1010 379.4375 Z M 1010 150 " clip-rule="nonzero"/></clipPath><clipPath id="df9115ece9"><path d="M 1171 152 L 1338 152 L 1338 379.4375 L 1171 379.4375 Z M 1171 152 " clip-rule="nonzero"/></clipPath><clipPath id="a2c81af6d8"><path d="M 0 19.4375 L 491 19.4375 L 491 121 L 0 121 Z M 0 19.4375 " clip-rule="nonzero"/></clipPath></defs><path fill="#0c0d0d" d="M 602.910156 136.332031 L 602.910156 98.050781 L 783.230469 98.050781 L 783.230469 136.332031 L 716.011719 136.332031 L 716.011719 317.667969 L 670.128906 317.667969 L 670.128906 136.332031 Z M 602.910156 136.332031 " fill-opacity="1" fill-rule="nonzero"/><path fill="#0c0d0d" d="M 824.542969 320.777344 C 814.035156 320.777344 804.671875 318.957031 796.453125 315.308594 C 788.234375 311.59375 781.730469 306.125 776.945312 298.902344 C 772.226562 291.609375 769.867188 282.53125 769.867188 271.664062 C 769.867188 262.511719 771.546875 254.828125 774.90625 248.609375 C 778.265625 242.390625 782.839844 237.386719 788.628906 233.597656 C 794.417969 229.808594 800.992188 226.949219 808.355469 225.015625 C 815.789062 223.085938 823.578125 221.726562 831.722656 220.941406 C 841.300781 219.941406 849.019531 219.011719 854.882812 218.152344 C 860.742188 217.226562 864.992188 215.867188 867.640625 214.078125 C 870.28125 212.292969 871.605469 209.648438 871.605469 206.144531 L 871.605469 205.5 C 871.605469 198.707031 869.460938 193.453125 865.171875 189.738281 C 860.957031 186.019531 854.953125 184.160156 847.164062 184.160156 C 838.941406 184.160156 832.402344 185.984375 827.542969 189.628906 C 822.683594 193.203125 819.46875 197.707031 817.894531 203.140625 L 775.65625 199.710938 C 777.800781 189.703125 782.015625 181.050781 788.304688 173.757812 C 794.597656 166.394531 802.707031 160.746094 812.640625 156.816406 C 822.648438 152.8125 834.226562 150.808594 847.375 150.808594 C 856.523438 150.808594 865.28125 151.882812 873.640625 154.027344 C 882.074219 156.171875 889.542969 159.496094 896.046875 164 C 902.621094 168.503906 907.804688 174.292969 911.59375 181.375 C 915.378906 188.378906 917.273438 196.777344 917.273438 206.574219 L 917.273438 317.667969 L 873.964844 317.667969 L 873.964844 294.828125 L 872.675781 294.828125 C 870.03125 299.976562 866.496094 304.515625 862.0625 308.445312 C 857.632812 312.304688 852.308594 315.34375 846.089844 317.5625 C 839.871094 319.707031 832.691406 320.777344 824.542969 320.777344 Z M 837.621094 289.25 C 844.339844 289.25 850.269531 287.929688 855.417969 285.285156 C 860.5625 282.566406 864.601562 278.921875 867.53125 274.347656 C 870.460938 269.769531 871.925781 264.585938 871.925781 258.796875 L 871.925781 241.316406 C 870.496094 242.246094 868.53125 243.105469 866.03125 243.890625 C 863.601562 244.605469 860.847656 245.285156 857.777344 245.925781 C 854.703125 246.5 851.628906 247.035156 848.554688 247.535156 C 845.484375 247.964844 842.695312 248.359375 840.195312 248.714844 C 834.832031 249.503906 830.152344 250.753906 826.148438 252.46875 C 822.148438 254.183594 819.039062 256.507812 816.824219 259.441406 C 814.605469 262.300781 813.5 265.875 813.5 270.164062 C 813.5 276.382812 815.75 281.136719 820.253906 284.425781 C 824.828125 287.644531 830.617188 289.25 837.621094 289.25 Z M 837.621094 289.25 " fill-opacity="1" fill-rule="nonzero"/><path fill="#0c0d0d" d="M 940.628906 317.667969 L 940.628906 152.953125 L 986.300781 152.953125 L 986.300781 317.667969 Z M 963.570312 131.722656 C 956.78125 131.722656 950.957031 129.46875 946.097656 124.964844 C 941.308594 120.390625 938.914062 114.921875 938.914062 108.558594 C 938.914062 102.269531 941.308594 96.871094 946.097656 92.367188 C 950.957031 87.792969 956.78125 85.503906 963.570312 85.503906 C 970.363281 85.503906 976.148438 87.792969 980.941406 92.367188 C 985.800781 96.871094 988.226562 102.269531 988.226562 108.558594 C 988.226562 114.921875 985.800781 120.390625 980.941406 124.964844 C 976.148438 129.46875 970.363281 131.722656 963.570312 131.722656 Z M 963.570312 131.722656 " fill-opacity="1" fill-rule="nonzero"/><g clip-path="url(#a618e20844)"><path fill="#0c0d0d" d="M 1010.808594 379.4375 L 1010.808594 152.953125 L 1055.832031 152.953125 L 1055.832031 180.621094 L 1057.871094 180.621094 C 1059.871094 176.1875 1062.765625 171.683594 1066.554688 167.109375 C 1070.414062 162.464844 1075.414062 158.601562 1081.5625 155.527344 C 1087.78125 152.382812 1095.5 150.808594 1104.71875 150.808594 C 1116.726562 150.808594 1127.804688 153.957031 1137.953125 160.246094 C 1148.101562 166.464844 1156.210938 175.867188 1162.289062 188.449219 C 1168.363281 200.960938 1171.398438 216.652344 1171.398438 235.527344 C 1171.398438 253.898438 1168.433594 269.414062 1162.503906 282.066406 C 1156.640625 294.648438 1148.636719 304.191406 1138.488281 310.699219 C 1128.410156 317.132812 1117.121094 320.347656 1104.613281 320.347656 C 1095.75 320.347656 1088.207031 318.882812 1081.992188 315.953125 C 1075.84375 313.023438 1070.804688 309.339844 1066.875 304.910156 C 1062.945312 300.402344 1059.941406 295.863281 1057.871094 291.289062 L 1056.476562 291.289062 L 1056.476562 379.4375 Z M 1055.511719 235.3125 C 1055.511719 245.105469 1056.867188 253.648438 1059.585938 260.941406 C 1062.300781 268.234375 1066.230469 273.917969 1071.378906 277.992188 C 1076.523438 281.996094 1082.777344 283.996094 1090.140625 283.996094 C 1097.570312 283.996094 1103.859375 281.957031 1109.007812 277.882812 C 1114.152344 273.738281 1118.046875 268.019531 1120.691406 260.726562 C 1123.410156 253.363281 1124.765625 244.890625 1124.765625 235.3125 C 1124.765625 225.804688 1123.445312 217.4375 1120.800781 210.21875 C 1118.15625 203 1114.261719 197.351562 1109.113281 193.277344 C 1103.96875 189.199219 1097.644531 187.164062 1090.140625 187.164062 C 1082.707031 187.164062 1076.417969 189.128906 1071.269531 193.0625 C 1066.195312 196.992188 1062.300781 202.570312 1059.585938 209.789062 C 1056.867188 217.011719 1055.511719 225.519531 1055.511719 235.3125 Z M 1055.511719 235.3125 " fill-opacity="1" fill-rule="nonzero"/></g><g clip-path="url(#df9115ece9)"><path fill="#0c0d0d" d="M 1212.660156 379.4375 C 1206.871094 379.4375 1201.4375 378.972656 1196.363281 378.042969 C 1191.363281 377.183594 1187.214844 376.078125 1183.929688 374.71875 L 1194.21875 340.617188 C 1199.582031 342.261719 1204.402344 343.15625 1208.691406 343.296875 C 1213.050781 343.441406 1216.804688 342.441406 1219.949219 340.292969 C 1223.164062 338.152344 1225.773438 334.503906 1227.773438 329.355469 L 1230.453125 322.386719 L 1171.386719 152.953125 L 1219.414062 152.953125 L 1253.503906 273.917969 L 1255.21875 273.917969 L 1289.632812 152.953125 L 1337.980469 152.953125 L 1273.980469 335.46875 C 1270.90625 344.335938 1266.726562 352.054688 1261.4375 358.632812 C 1256.21875 365.28125 1249.609375 370.394531 1241.605469 373.96875 C 1233.601562 377.613281 1223.953125 379.4375 1212.660156 379.4375 Z M 1212.660156 379.4375 " fill-opacity="1" fill-rule="nonzero"/></g><g clip-path="url(#a2c81af6d8)"><path fill="#ff462b" d="M 26.058594 32.984375 C 28.851562 24.871094 36.414062 19.4375 44.910156 19.4375 L 480.976562 19.4375 C 487.84375 19.4375 492.660156 26.289062 490.402344 32.847656 L 464.925781 106.820312 C 462.132812 114.929688 454.570312 120.367188 446.074219 120.367188 L 10.007812 120.367188 C 3.136719 120.367188 -1.675781 113.515625 0.582031 106.953125 Z M 26.058594 32.984375 " fill-opacity="1" fill-rule="nonzero"/></g><path fill="#ff462b" d="M 129.230469 159.054688 C 132.027344 150.992188 139.496094 145.601562 147.871094 145.601562 L 319.714844 145.601562 C 326.535156 145.601562 331.308594 152.492188 329.03125 159.058594 L 303.390625 233.078125 C 300.597656 241.140625 293.128906 246.53125 284.753906 246.53125 L 112.910156 246.53125 C 106.085938 246.53125 101.316406 239.640625 103.589844 233.074219 Z M 129.230469 159.054688 " fill-opacity="1" fill-rule="nonzero"/><path fill="#ff462b" d="M 186.582031 285.171875 C 189.347656 277.132812 196.703125 271.765625 204.945312 271.765625 L 276.648438 271.765625 C 283.386719 271.765625 288.089844 278.675781 285.828125 285.246094 L 260.339844 359.289062 C 257.574219 367.328125 250.222656 372.695312 241.980469 372.695312 L 170.277344 372.695312 C 163.535156 372.695312 158.832031 365.785156 161.09375 359.214844 Z M 186.582031 285.171875 " fill-opacity="1" fill-rule="nonzero"/></svg>