<svg width="364" height="262" viewBox="0 0 364 262" fill="none" xmlns="http://www.w3.org/2000/svg">
<path d="M19.3058 10.0475C21.3771 4.03138 26.9852 0 33.283 0H356.594C361.686 0 365.257 5.0826 363.582 9.94761L344.694 64.8093C342.623 70.8254 337.015 74.8568 330.717 74.8568H7.40631C2.31349 74.8568 -1.25723 69.7742 0.417721 64.9092L19.3058 10.0475Z" fill="#FF462B"/>
<path d="M95.8026 103.551C97.8738 97.5703 103.411 93.5722 109.621 93.5722H237.03C242.089 93.5722 245.627 98.6829 243.94 103.554L224.928 158.45C222.857 164.431 217.321 168.429 211.11 168.429H83.7006C78.6418 168.429 75.1042 163.318 76.7912 158.447L95.8026 103.551Z" fill="#FF462B"/>
<path d="M138.323 197.087C140.375 191.125 145.826 187.143 151.937 187.143H205.101C210.096 187.143 213.585 192.268 211.908 197.142L193.01 252.056C190.958 258.019 185.507 262 179.396 262H126.233C121.237 262 117.748 256.875 119.426 252.001L138.323 197.087Z" fill="#FF462B"/>
</svg>
