<svg version="1.1" viewBox="0.0 0.0 747.4094488188977 329.93700787401576" fill="none" stroke="none" stroke-linecap="square" stroke-miterlimit="10" xmlns:xlink="http://www.w3.org/1999/xlink" xmlns="http://www.w3.org/2000/svg"><clipPath id="p.0"><path d="m0 0l747.4094 0l0 329.937l-747.4094 0l0 -329.937z" clip-rule="nonzero"/></clipPath><g clip-path="url(#p.0)"><path fill="#000000" fill-opacity="0.0" d="m0 0l747.4094 0l0 329.937l-747.4094 0z" fill-rule="evenodd"/><path fill="#000000" fill-opacity="0.0" d="m4.8007336 2.6430447l734.4882 0l0 323.40158l-734.4882 0z" fill-rule="evenodd"/><path stroke="#4a86e8" stroke-width="2.0" stroke-linejoin="round" stroke-linecap="butt" d="m4.8007336 2.6430447l734.4882 0l0 323.40158l-734.4882 0z" fill-rule="evenodd"/><path fill="#283282" d="m179.43832 54.44357l102.70865 0l0 71.99446l-14.399231 14.399231l-88.30942 0z" fill-rule="evenodd"/><path fill="#1f2767" d="m267.74774 140.83727l2.8798523 -11.519379l11.519379 -2.8798523z" fill-rule="evenodd"/><path fill="#000000" fill-opacity="0.0" d="m267.74774 140.83727l2.8798523 -11.519379l11.519379 -2.8798523l-14.399231 14.399231l-88.30942 0l0 -86.39369l102.70865 0l0 71.99446" fill-rule="evenodd"/><path fill="#ffffff" d="m213.80464 83.7408l1.859375 0.578125q-0.421875 1.5625 -1.421875 2.328125q-1.0 0.75 -2.53125 0.75q-1.90625 0 -3.140625 -1.296875q-1.21875 -1.296875 -1.21875 -3.546875q0 -2.375 1.234375 -3.6875q1.234375 -1.328125 3.234375 -1.328125q1.75 0 2.84375 1.03125q0.65625 0.609375 0.984375 1.765625l-1.90625 0.453125q-0.171875 -0.75 -0.71875 -1.171875q-0.53125 -0.4375 -1.296875 -0.4375q-1.0625 0 -1.734375 0.765625q-0.65625 0.765625 -0.65625 2.46875q0 1.8125 0.65625 2.578125q0.65625 0.765625 1.6875 0.765625q0.78125 0 1.328125 -0.484375q0.546875 -0.484375 0.796875 -1.53125zm8.047028 3.5l0 -1.03125q-0.375 0.546875 -1.0 0.875q-0.609375 0.3125 -1.28125 0.3125q-0.703125 0 -1.265625 -0.296875q-0.546875 -0.3125 -0.796875 -0.859375q-0.234375 -0.5625 -0.234375 -1.53125l0 -4.375l1.828125 0l0 3.171875q0 1.453125 0.09375 1.78125q0.109375 0.328125 0.375 0.53125q0.265625 0.1875 0.671875 0.1875q0.46875 0 0.84375 -0.25q0.375 -0.265625 0.5 -0.640625q0.140625 -0.390625 0.140625 -1.875l0 -2.90625l1.828125 0l0 6.90625l-1.703125 0zm5.3444824 0l-1.828125 0l0 -6.90625l1.703125 0l0 0.984375q0.4375 -0.703125 0.78125 -0.921875q0.34375 -0.21875 0.796875 -0.21875q0.625 0 1.203125 0.34375l-0.5625 1.59375q-0.46875 -0.296875 -0.859375 -0.296875q-0.390625 0 -0.65625 0.21875q-0.265625 0.203125 -0.421875 0.765625q-0.15625 0.546875 -0.15625 2.296875l0 2.140625zm5.186783 0l-1.828125 0l0 -6.90625l1.703125 0l0 0.984375q0.4375 -0.703125 0.78125 -0.921875q0.34375 -0.21875 0.796875 -0.21875q0.625 0 1.203125 0.34375l-0.5625 1.59375q-0.46875 -0.296875 -0.859375 -0.296875q-0.390625 0 -0.65625 0.21875q-0.265625 0.203125 -0.421875 0.765625q-0.15625 0.546875 -0.15625 2.296875l0 2.140625zm7.436783 -2.203125l1.828125 0.3125q-0.34375 1.0 -1.109375 1.53125q-0.765625 0.515625 -1.890625 0.515625q-1.8125 0 -2.671875 -1.171875q-0.6875 -0.953125 -0.6875 -2.390625q0 -1.71875 0.890625 -2.6875q0.90625 -0.96875 2.28125 -0.96875q1.546875 0 2.4375 1.015625q0.890625 1.015625 0.84375 3.125l-4.578125 0q0.015625 0.8125 0.4375 1.265625q0.421875 0.453125 1.0625 0.453125q0.421875 0 0.71875 -0.234375q0.296875 -0.234375 0.4375 -0.765625zm0.109375 -1.84375q-0.015625 -0.796875 -0.40625 -1.203125q-0.390625 -0.421875 -0.953125 -0.421875q-0.59375 0 -0.984375 0.4375q-0.390625 0.4375 -0.390625 1.1875l2.734375 0zm9.599976 4.046875l-1.828125 0l0 -3.53125q0 -1.109375 -0.125 -1.4375q-0.109375 -0.328125 -0.375 -0.515625q-0.265625 -0.1875 -0.640625 -0.1875q-0.46875 0 -0.859375 0.265625q-0.375 0.265625 -0.515625 0.703125q-0.140625 0.421875 -0.140625 1.578125l0 3.125l-1.828125 0l0 -6.90625l1.703125 0l0 1.015625q0.90625 -1.171875 2.28125 -1.171875q0.609375 0 1.109375 0.21875q0.5 0.21875 0.75 0.5625q0.265625 0.328125 0.359375 0.765625q0.109375 0.421875 0.109375 1.21875l0 4.296875zm5.0163574 -6.90625l0 1.453125l-1.25 0l0 2.78125q0 0.84375 0.03125 0.984375q0.046875 0.140625 0.171875 0.234375q0.125 0.09375 0.3125 0.09375q0.25 0 0.734375 -0.171875l0.15625 1.421875q-0.640625 0.265625 -1.453125 0.265625q-0.484375 0 -0.890625 -0.15625q-0.390625 -0.171875 -0.578125 -0.4375q-0.1875 -0.265625 -0.265625 -0.71875q-0.046875 -0.3125 -0.046875 -1.28125l0 -3.015625l-0.84375 0l0 -1.453125l0.84375 0l0 -1.375l1.828125 -1.078125l0 2.453125l1.25 0z" fill-rule="nonzero"/><path fill="#ffffff" d="m211.2485 96.33455l1.6875 0l0 0.9375q0.90625 -1.09375 2.15625 -1.09375q0.671875 0 1.15625 0.28125q0.484375 0.265625 0.796875 0.8125q0.453125 -0.546875 0.984375 -0.8125q0.53125 -0.28125 1.125 -0.28125q0.765625 0 1.28125 0.3125q0.53125 0.296875 0.796875 0.90625q0.1875 0.4375 0.1875 1.421875l0 4.421875l-1.828125 0l0 -3.953125q0 -1.03125 -0.1875 -1.328125q-0.25 -0.390625 -0.78125 -0.390625q-0.390625 0 -0.734375 0.234375q-0.328125 0.234375 -0.484375 0.6875q-0.140625 0.453125 -0.140625 1.4375l0 3.3125l-1.828125 0l0 -3.78125q0 -1.015625 -0.109375 -1.296875q-0.09375 -0.296875 -0.296875 -0.4375q-0.203125 -0.15625 -0.546875 -0.15625q-0.421875 0 -0.765625 0.234375q-0.34375 0.21875 -0.484375 0.65625q-0.140625 0.421875 -0.140625 1.421875l0 3.359375l-1.84375 0l0 -6.90625zm11.569595 3.359375q0 -0.921875 0.453125 -1.765625q0.453125 -0.859375 1.265625 -1.296875q0.828125 -0.453125 1.84375 -0.453125q1.5625 0 2.5625 1.015625q1.015625 1.015625 1.015625 2.578125q0 1.5625 -1.015625 2.59375q-1.015625 1.03125 -2.546875 1.03125q-0.953125 0 -1.8125 -0.421875q-0.859375 -0.4375 -1.3125 -1.265625q-0.453125 -0.828125 -0.453125 -2.015625zm1.875 0.09375q0 1.03125 0.484375 1.578125q0.5 0.546875 1.203125 0.546875q0.71875 0 1.203125 -0.546875q0.484375 -0.546875 0.484375 -1.59375q0 -1.015625 -0.484375 -1.5625q-0.484375 -0.546875 -1.203125 -0.546875q-0.703125 0 -1.203125 0.546875q-0.484375 0.546875 -0.484375 1.578125zm12.985107 3.453125l-1.828125 0l0 -3.53125q0 -1.109375 -0.125 -1.4375q-0.109375 -0.328125 -0.375 -0.515625q-0.265625 -0.1875 -0.640625 -0.1875q-0.46875 0 -0.859375 0.265625q-0.375 0.265625 -0.515625 0.703125q-0.140625 0.421875 -0.140625 1.578125l0 3.125l-1.828125 0l0 -6.90625l1.703125 0l0 1.015625q0.90625 -1.171875 2.28125 -1.171875q0.609375 0 1.109375 0.21875q0.5 0.21875 0.75 0.5625q0.265625 0.328125 0.359375 0.765625q0.109375 0.421875 0.109375 1.21875l0 4.296875zm5.0163574 -6.90625l0 1.453125l-1.25 0l0 2.78125q0 0.84375 0.03125 0.984375q0.046875 0.140625 0.171875 0.234375q0.125 0.09375 0.3125 0.09375q0.25 0 0.734375 -0.171875l0.15625 1.421875q-0.640625 0.265625 -1.453125 0.265625q-0.484375 0 -0.890625 -0.15625q-0.390625 -0.171875 -0.578125 -0.4375q-0.1875 -0.265625 -0.265625 -0.71875q-0.046875 -0.3125 -0.046875 -1.28125l0 -3.015625l-0.84375 0l0 -1.453125l0.84375 0l0 -1.375l1.828125 -1.078125l0 2.453125l1.25 0zm3.0946198 -2.640625l0 3.515625q0.875 -1.03125 2.109375 -1.03125q0.640625 0 1.140625 0.234375q0.515625 0.234375 0.765625 0.59375q0.25 0.359375 0.34375 0.8125q0.109375 0.4375 0.109375 1.375l0 4.046875l-1.828125 0l0 -3.65625q0 -1.078125 -0.109375 -1.375q-0.109375 -0.296875 -0.375 -0.46875q-0.265625 -0.171875 -0.65625 -0.171875q-0.453125 0 -0.8125 0.234375q-0.359375 0.21875 -0.53125 0.671875q-0.15625 0.4375 -0.15625 1.296875l0 3.46875l-1.828125 0l0 -9.546875l1.828125 0z" fill-rule="nonzero"/><path fill="#283282" d="m44.682415 191.18898l102.3622 0l0 72.020706l-14.40448 14.40448l-87.95772 0z" fill-rule="evenodd"/><path fill="#1f2767" d="m132.64014 277.61417l2.88089 -11.52359l11.52359 -2.88089z" fill-rule="evenodd"/><path fill="#000000" fill-opacity="0.0" d="m132.64014 277.61417l2.88089 -11.52359l11.52359 -2.88089l-14.40448 14.40448l-87.95772 0l0 -86.425186l102.3622 0l0 72.020706" fill-rule="evenodd"/><path fill="#ffffff" d="m75.28696 223.99933l0 -7.921875l-2.84375 0l0 -1.625l7.59375 0l0 1.625l-2.828125 0l0 7.921875l-1.921875 0zm6.9838104 0l-1.828125 0l0 -6.90625l1.703125 0l0 0.984375q0.4375 -0.703125 0.78125 -0.921875q0.34375 -0.21875 0.796875 -0.21875q0.625 0 1.203125 0.34375l-0.5625 1.59375q-0.46875 -0.296875 -0.859375 -0.296875q-0.390625 0 -0.65625 0.21875q-0.265625 0.203125 -0.421875 0.765625q-0.15625 0.546875 -0.15625 2.296875l0 2.140625zm4.811783 -4.796875l-1.671875 -0.3125q0.28125 -1.0 0.96875 -1.46875q0.6875 -0.484375 2.03125 -0.484375q1.21875 0 1.8125 0.296875q0.609375 0.28125 0.84375 0.734375q0.25 0.4375 0.25 1.625l-0.015625 2.140625q0 0.90625 0.078125 1.34375q0.09375 0.421875 0.34375 0.921875l-1.8125 0q-0.078125 -0.1875 -0.171875 -0.546875q-0.046875 -0.15625 -0.078125 -0.203125q-0.46875 0.453125 -1.0 0.6875q-0.53125 0.21875 -1.140625 0.21875q-1.0625 0 -1.6875 -0.578125q-0.609375 -0.578125 -0.609375 -1.46875q0 -0.578125 0.28125 -1.03125q0.28125 -0.46875 0.78125 -0.703125q0.515625 -0.25 1.46875 -0.4375q1.28125 -0.234375 1.765625 -0.453125l0 -0.171875q0 -0.53125 -0.265625 -0.75q-0.25 -0.234375 -0.96875 -0.234375q-0.484375 0 -0.765625 0.203125q-0.265625 0.1875 -0.4375 0.671875zm2.4375 1.484375q-0.34375 0.109375 -1.109375 0.28125q-0.765625 0.15625 -1.0 0.3125q-0.359375 0.25 -0.359375 0.640625q0 0.390625 0.28125 0.671875q0.296875 0.28125 0.734375 0.28125q0.5 0 0.953125 -0.328125q0.328125 -0.25 0.4375 -0.609375q0.0625 -0.234375 0.0625 -0.890625l0 -0.359375zm3.5999756 -4.53125l0 -1.703125l1.828125 0l0 1.703125l-1.828125 0zm0 7.84375l0 -6.90625l1.828125 0l0 6.90625l-1.828125 0zm9.999863 0l-1.828125 0l0 -3.53125q0 -1.109375 -0.125 -1.4375q-0.109375 -0.328125 -0.375 -0.515625q-0.265625 -0.1875 -0.640625 -0.1875q-0.46875 0 -0.859375 0.265625q-0.375 0.265625 -0.515625 0.703125q-0.140625 0.421875 -0.140625 1.578125l0 3.125l-1.828125 0l0 -6.90625l1.703125 0l0 1.015625q0.90625 -1.171875 2.28125 -1.171875q0.609375 0 1.109375 0.21875q0.5 0.21875 0.75 0.5625q0.265625 0.328125 0.359375 0.765625q0.109375 0.421875 0.109375 1.21875l0 4.296875zm5.844475 -2.203125l1.828125 0.3125q-0.34375 1.0 -1.109375 1.53125q-0.765625 0.515625 -1.8906174 0.515625q-1.8125 0 -2.671875 -1.171875q-0.6875 -0.953125 -0.6875 -2.390625q0 -1.71875 0.890625 -2.6875q0.90625 -0.96875 2.28125 -0.96875q1.5468674 0 2.4374924 1.015625q0.890625 1.015625 0.84375 3.125l-4.5781174 0q0.015625 0.8125 0.4375 1.265625q0.421875 0.453125 1.0625 0.453125q0.421875 0 0.71875 -0.234375q0.29686737 -0.234375 0.43749237 -0.765625zm0.109375 -1.84375q-0.015625 -0.796875 -0.40624237 -1.203125q-0.390625 -0.421875 -0.953125 -0.421875q-0.59375 0 -0.984375 0.4375q-0.390625 0.4375 -0.390625 1.1875l2.7343674 0zm9.646851 4.046875l-1.703125 0l0 -1.015625q-0.421875 0.59375 -1.0 0.890625q-0.578125 0.28125 -1.15625 0.28125q-1.1875 0 -2.046875 -0.953125q-0.84375 -0.96875 -0.84375 -2.6875q0 -1.75 0.828125 -2.65625q0.828125 -0.921875 2.09375 -0.921875q1.15625 0 2.0 0.953125l0 -3.4375l1.828125 0l0 9.546875zm-4.875 -3.609375q0 1.109375 0.296875 1.609375q0.4375 0.71875 1.234375 0.71875q0.640625 0 1.078125 -0.53125q0.4375 -0.546875 0.4375 -1.609375q0 -1.203125 -0.4375 -1.71875q-0.421875 -0.53125 -1.09375 -0.53125q-0.640625 0 -1.078125 0.515625q-0.4375 0.515625 -0.4375 1.546875z" fill-rule="nonzero"/><path fill="#ffffff" d="m77.051506 233.09308l1.6875 0l0 0.9375q0.90625 -1.09375 2.15625 -1.09375q0.671875 0 1.15625 0.28125q0.484375 0.265625 0.796875 0.8125q0.453125 -0.546875 0.984375 -0.8125q0.53125 -0.28125 1.125 -0.28125q0.765625 0 1.28125 0.3125q0.53125 0.296875 0.796875 0.90625q0.1875 0.4375 0.1875 1.421875l0 4.421875l-1.828125 0l0 -3.953125q0 -1.03125 -0.1875 -1.328125q-0.25 -0.390625 -0.78125 -0.390625q-0.390625 0 -0.734375 0.234375q-0.328125 0.234375 -0.484375 0.6875q-0.140625 0.453125 -0.140625 1.4375l0 3.3125l-1.828125 0l0 -3.78125q0 -1.015625 -0.109375 -1.296875q-0.09375 -0.296875 -0.296875 -0.4375q-0.203125 -0.15625 -0.546875 -0.15625q-0.421875 0 -0.765625 0.234375q-0.34375 0.21875 -0.484375 0.65625q-0.140625 0.421875 -0.140625 1.421875l0 3.359375l-1.84375 0l0 -6.90625zm11.569595 3.359375q0 -0.921875 0.453125 -1.765625q0.453125 -0.859375 1.265625 -1.296875q0.828125 -0.453125 1.84375 -0.453125q1.5625 0 2.5625 1.015625q1.015625 1.015625 1.015625 2.578125q0 1.5625 -1.015625 2.59375q-1.015625 1.03125 -2.546875 1.03125q-0.953125 0 -1.8125 -0.421875q-0.859375 -0.4375 -1.3125 -1.265625q-0.453125 -0.828125 -0.453125 -2.015625zm1.875 0.09375q0 1.03125 0.484375 1.578125q0.5 0.546875 1.203125 0.546875q0.71875 0 1.203125 -0.546875q0.484375 -0.546875 0.484375 -1.59375q0 -1.015625 -0.484375 -1.5625q-0.484375 -0.546875 -1.203125 -0.546875q-0.703125 0 -1.203125 0.546875q-0.484375 0.546875 -0.484375 1.578125zm13.031982 3.453125l-1.703125 0l0 -1.015625q-0.421875 0.59375 -1.0 0.890625q-0.578125 0.28125 -1.15625 0.28125q-1.1875 0 -2.046875 -0.953125q-0.84375 -0.96875 -0.84375 -2.6875q0 -1.75 0.828125 -2.65625q0.828125 -0.921875 2.09375 -0.921875q1.15625 0 2.0 0.953125l0 -3.4375l1.828125 0l0 9.546875zm-4.875 -3.609375q0 1.109375 0.296875 1.609375q0.4375 0.71875 1.234375 0.71875q0.640625 0 1.078125 -0.53125q0.4375 -0.546875 0.4375 -1.609375q0 -1.203125 -0.4375 -1.71875q-0.421875 -0.53125 -1.09375 -0.53125q-0.640625 0 -1.078125 0.515625q-0.4375 0.515625 -0.4375 1.546875zm10.672607 1.40625l1.828125 0.3125q-0.34375 1.0 -1.109375 1.53125q-0.765625 0.515625 -1.890625 0.515625q-1.8125 0 -2.671875 -1.171875q-0.6875 -0.953125 -0.6875 -2.390625q0 -1.71875 0.890625 -2.6875q0.90625 -0.96875 2.28125 -0.96875q1.546875 0 2.4375 1.015625q0.890625 1.015625 0.84375 3.125l-4.578125 0q0.015625 0.8125 0.4375 1.265625q0.421875 0.453125 1.0625 0.453125q0.421875 0 0.71875 -0.234375q0.296875 -0.234375 0.4375 -0.765625zm0.109375 -1.84375q-0.015625 -0.796875 -0.40625 -1.203125q-0.390625 -0.421875 -0.953125 -0.421875q-0.59375 0 -0.984375 0.4375q-0.390625 0.4375 -0.390625 1.1875l2.734375 0zm3.3031006 4.046875l0 -9.546875l1.828125 0l0 9.546875l-1.828125 0z" fill-rule="nonzero"/><path fill="#ff462b" d="m164.19423 234.40158l66.59842 -57.95276l66.598434 57.95276l-66.598434 57.95276z" fill-rule="evenodd"/><path fill="#000000" d="m209.481 232.29532l1.703125 0l0 1.015625q0.328125 -0.53125 0.890625 -0.84375q0.578125 -0.328125 1.265625 -0.328125q1.203125 0 2.03125 0.9375q0.84375 0.9375 0.84375 2.625q0 1.734375 -0.84375 2.703125q-0.84375 0.953125 -2.046875 0.953125q-0.578125 0 -1.046875 -0.21875q-0.453125 -0.234375 -0.96875 -0.796875l0 3.484375l-1.828125 0l0 -9.53125zm1.8125 3.328125q0 1.171875 0.453125 1.734375q0.46875 0.546875 1.125 0.546875q0.640625 0 1.0625 -0.5q0.421875 -0.515625 0.421875 -1.6875q0 -1.078125 -0.4375 -1.609375q-0.4375 -0.53125 -1.078125 -0.53125q-0.671875 0 -1.109375 0.515625q-0.4375 0.515625 -0.4375 1.53125zm8.125732 3.578125l-1.828125 0l0 -6.90625l1.703125 0l0 0.984375q0.4375 -0.703125 0.78125 -0.921875q0.34375 -0.21875 0.796875 -0.21875q0.625 0 1.203125 0.34375l-0.5625 1.59375q-0.46875 -0.296875 -0.859375 -0.296875q-0.390625 0 -0.65625 0.21875q-0.265625 0.203125 -0.421875 0.765625q-0.15625 0.546875 -0.15625 2.296875l0 2.140625zm7.436783 -2.203125l1.828125 0.3125q-0.34375 1.0 -1.109375 1.53125q-0.765625 0.515625 -1.890625 0.515625q-1.8125 0 -2.671875 -1.171875q-0.6875 -0.953125 -0.6875 -2.390625q0 -1.71875 0.890625 -2.6875q0.90625 -0.96875 2.28125 -0.96875q1.546875 0 2.4375 1.015625q0.890625 1.015625 0.84375 3.125l-4.578125 0q0.015625 0.8125 0.4375 1.265625q0.421875 0.453125 1.0625 0.453125q0.421875 0 0.71875 -0.234375q0.296875 -0.234375 0.4375 -0.765625zm0.109375 -1.84375q-0.015625 -0.796875 -0.40625 -1.203125q-0.390625 -0.421875 -0.953125 -0.421875q-0.59375 0 -0.984375 0.4375q-0.390625 0.4375 -0.390625 1.1875l2.734375 0zm9.646851 4.046875l-1.703125 0l0 -1.015625q-0.421875 0.59375 -1.0 0.890625q-0.578125 0.28125 -1.15625 0.28125q-1.1875 0 -2.046875 -0.953125q-0.84375 -0.96875 -0.84375 -2.6875q0 -1.75 0.828125 -2.65625q0.828125 -0.921875 2.09375 -0.921875q1.15625 0 2.0 0.953125l0 -3.4375l1.828125 0l0 9.546875zm-4.875 -3.609375q0 1.109375 0.296875 1.609375q0.4375 0.71875 1.234375 0.71875q0.640625 0 1.078125 -0.53125q0.4375 -0.546875 0.4375 -1.609375q0 -1.203125 -0.4375 -1.71875q-0.421875 -0.53125 -1.09375 -0.53125q-0.640625 0 -1.078125 0.515625q-0.4375 0.515625 -0.4375 1.546875zm6.6726074 -4.234375l0 -1.703125l1.828125 0l0 1.703125l-1.828125 0zm0 7.84375l0 -6.90625l1.828125 0l0 6.90625l-1.828125 0zm9.734238 -4.875l-1.796875 0.328125q-0.09375 -0.53125 -0.421875 -0.796875q-0.328125 -0.28125 -0.828125 -0.28125q-0.6875 0 -1.09375 0.46875q-0.40625 0.46875 -0.40625 1.578125q0 1.234375 0.40625 1.75q0.421875 0.5 1.109375 0.5q0.53125 0 0.859375 -0.296875q0.328125 -0.296875 0.46875 -1.03125l1.796875 0.3125q-0.28125 1.234375 -1.078125 1.875q-0.796875 0.625 -2.125 0.625q-1.515625 0 -2.421875 -0.953125q-0.90625 -0.953125 -0.90625 -2.65625q0 -1.703125 0.90625 -2.65625q0.90625 -0.953125 2.453125 -0.953125q1.265625 0 2.0 0.546875q0.75 0.53125 1.078125 1.640625zm4.5531006 -2.03125l0 1.453125l-1.25 0l0 2.78125q0 0.84375 0.03125 0.984375q0.046875 0.140625 0.171875 0.234375q0.125 0.09375 0.3125 0.09375q0.25 0 0.734375 -0.171875l0.15625 1.421875q-0.640625 0.265625 -1.453125 0.265625q-0.484375 0 -0.890625 -0.15625q-0.390625 -0.171875 -0.578125 -0.4375q-0.1875 -0.265625 -0.265625 -0.71875q-0.046875 -0.3125 -0.046875 -1.28125l0 -3.015625l-0.84375 0l0 -1.453125l0.84375 0l0 -1.375l1.828125 -1.078125l0 2.453125l1.25 0z" fill-rule="nonzero"/><path fill="#000000" fill-opacity="0.0" d="m297.39108 234.40158l18.86615 0" fill-rule="evenodd"/><path stroke="#08a87d" stroke-width="2.0" stroke-linejoin="round" stroke-linecap="butt" d="m297.39108 234.40158l6.86615 0" fill-rule="evenodd"/><path fill="#08a87d" stroke="#08a87d" stroke-width="2.0" stroke-linecap="butt" d="m304.25723 237.70503l9.076172 -3.3034515l-9.076172 -3.3034668z" fill-rule="evenodd"/><path fill="#283282" d="m316.25055 191.18898l105.322845 0l0 72.020706l-14.40448 14.40448l-90.918365 0z" fill-rule="evenodd"/><path fill="#1f2767" d="m407.1689 277.61417l2.88089 -11.52359l11.52359 -2.88089z" fill-rule="evenodd"/><path fill="#000000" fill-opacity="0.0" d="m407.1689 277.61417l2.88089 -11.52359l11.52359 -2.88089l-14.40448 14.40448l-90.918365 0l0 -86.425186l105.322845 0l0 72.020706" fill-rule="evenodd"/><path fill="#ffffff" d="m351.98126 220.88995l1.875 -0.171875q0.171875 0.9375 0.6875 1.390625q0.515625 0.4375 1.390625 0.4375q0.9375 0 1.40625 -0.390625q0.46875 -0.40625 0.46875 -0.921875q0 -0.34375 -0.203125 -0.578125q-0.1875 -0.234375 -0.6875 -0.421875q-0.34375 -0.109375 -1.546875 -0.40625q-1.546875 -0.390625 -2.171875 -0.953125q-0.875 -0.78125 -0.875 -1.921875q0 -0.71875 0.40625 -1.359375q0.421875 -0.640625 1.1875 -0.96875q0.78125 -0.328125 1.890625 -0.328125q1.796875 0 2.703125 0.796875q0.90625 0.78125 0.953125 2.09375l-1.921875 0.078125q-0.125 -0.734375 -0.53125 -1.046875q-0.40625 -0.328125 -1.234375 -0.328125q-0.828125 0 -1.3125 0.34375q-0.296875 0.21875 -0.296875 0.59375q0 0.34375 0.28125 0.578125q0.359375 0.3125 1.765625 0.640625q1.40625 0.328125 2.078125 0.6875q0.6875 0.359375 1.0625 0.96875q0.375 0.609375 0.375 1.515625q0 0.828125 -0.453125 1.546875q-0.453125 0.703125 -1.296875 1.0625q-0.828125 0.34375 -2.0625 0.34375q-1.8125 0 -2.78125 -0.828125q-0.96875 -0.84375 -1.15625 -2.453125zm10.7335205 -1.6875l-1.671875 -0.3125q0.28125 -1.0 0.96875 -1.46875q0.6875 -0.484375 2.03125 -0.484375q1.21875 0 1.8125 0.296875q0.609375 0.28125 0.84375 0.734375q0.25 0.4375 0.25 1.625l-0.015625 2.140625q0 0.90625 0.078125 1.34375q0.09375 0.421875 0.34375 0.921875l-1.8125 0q-0.078125 -0.1875 -0.171875 -0.546875q-0.046875 -0.15625 -0.078125 -0.203125q-0.46875 0.453125 -1.0 0.6875q-0.53125 0.21875 -1.140625 0.21875q-1.0625 0 -1.6875 -0.578125q-0.609375 -0.578125 -0.609375 -1.46875q0 -0.578125 0.28125 -1.03125q0.28125 -0.46875 0.78125 -0.703125q0.515625 -0.25 1.46875 -0.4375q1.28125 -0.234375 1.765625 -0.453125l0 -0.171875q0 -0.53125 -0.265625 -0.75q-0.25 -0.234375 -0.96875 -0.234375q-0.484375 0 -0.765625 0.203125q-0.265625 0.1875 -0.4375 0.671875zm2.4375 1.484375q-0.34375 0.109375 -1.109375 0.28125q-0.765625 0.15625 -1.0 0.3125q-0.359375 0.25 -0.359375 0.640625q0 0.390625 0.28125 0.671875q0.296875 0.28125 0.734375 0.28125q0.5 0 0.953125 -0.328125q0.328125 -0.25 0.4375 -0.609375q0.0625 -0.234375 0.0625 -0.890625l0 -0.359375zm3.5999756 3.3125l0 -9.546875l1.828125 0l0 9.546875l-1.828125 0zm7.7029724 -2.203125l1.828125 0.3125q-0.34375 1.0 -1.109375 1.53125q-0.765625 0.515625 -1.890625 0.515625q-1.8125 0 -2.671875 -1.171875q-0.6875 -0.953125 -0.6875 -2.390625q0 -1.71875 0.890625 -2.6875q0.90625 -0.96875 2.28125 -0.96875q1.546875 0 2.4375 1.015625q0.890625 1.015625 0.84375 3.125l-4.578125 0q0.015625 0.8125 0.4375 1.265625q0.421875 0.453125 1.0625 0.453125q0.421875 0 0.71875 -0.234375q0.296875 -0.234375 0.4375 -0.765625zm0.109375 -1.84375q-0.015625 -0.796875 -0.40625 -1.203125q-0.390625 -0.421875 -0.953125 -0.421875q-0.59375 0 -0.984375 0.4375q-0.390625 0.4375 -0.390625 1.1875l2.734375 0zm2.6624756 2.078125l1.828125 -0.28125q0.125 0.53125 0.484375 0.8125q0.359375 0.265625 1.0 0.265625q0.703125 0 1.0625 -0.25q0.25 -0.1875 0.25 -0.484375q0 -0.21875 -0.140625 -0.359375q-0.125 -0.125 -0.609375 -0.234375q-2.203125 -0.484375 -2.796875 -0.890625q-0.828125 -0.5625 -0.828125 -1.5625q0 -0.890625 0.703125 -1.5q0.71875 -0.609375 2.203125 -0.609375q1.421875 0 2.109375 0.46875q0.703125 0.453125 0.953125 1.359375l-1.71875 0.3125q-0.109375 -0.40625 -0.421875 -0.609375q-0.3125 -0.21875 -0.890625 -0.21875q-0.71875 0 -1.03125 0.203125q-0.203125 0.140625 -0.203125 0.359375q0 0.203125 0.1875 0.34375q0.234375 0.171875 1.6875 0.515625q1.46875 0.328125 2.0625 0.8125q0.5625 0.484375 0.5625 1.359375q0 0.953125 -0.796875 1.640625q-0.78125 0.671875 -2.34375 0.671875q-1.40625 0 -2.234375 -0.5625q-0.828125 -0.578125 -1.078125 -1.5625z" fill-rule="nonzero"/><path fill="#ffffff" d="m333.90125 233.09308l1.703125 0l0 1.015625q0.328125 -0.53125 0.890625 -0.84375q0.578125 -0.328125 1.265625 -0.328125q1.203125 0 2.03125 0.9375q0.84375 0.9375 0.84375 2.625q0 1.734375 -0.84375 2.703125q-0.84375 0.953125 -2.046875 0.953125q-0.578125 0 -1.046875 -0.21875q-0.453125 -0.234375 -0.96875 -0.796875l0 3.484375l-1.828125 0l0 -9.53125zm1.8125 3.328125q0 1.171875 0.453125 1.734375q0.46875 0.546875 1.125 0.546875q0.640625 0 1.0625 -0.5q0.421875 -0.515625 0.421875 -1.6875q0 -1.078125 -0.4375 -1.609375q-0.4375 -0.53125 -1.078125 -0.53125q-0.671875 0 -1.109375 0.515625q-0.4375 0.515625 -0.4375 1.53125zm8.125732 3.578125l-1.828125 0l0 -6.90625l1.703125 0l0 0.984375q0.4375 -0.703125 0.78125 -0.921875q0.34375 -0.21875 0.796875 -0.21875q0.625 0 1.203125 0.34375l-0.5625 1.59375q-0.46875 -0.296875 -0.859375 -0.296875q-0.390625 0 -0.65625 0.21875q-0.265625 0.203125 -0.421875 0.765625q-0.15625 0.546875 -0.15625 2.296875l0 2.140625zm7.4367676 -2.203125l1.828125 0.3125q-0.34375 1.0 -1.109375 1.53125q-0.765625 0.515625 -1.890625 0.515625q-1.8125 0 -2.671875 -1.171875q-0.6875 -0.953125 -0.6875 -2.390625q0 -1.71875 0.890625 -2.6875q0.90625 -0.96875 2.28125 -0.96875q1.546875 0 2.4375 1.015625q0.890625 1.015625 0.84375 3.125l-4.578125 0q0.015625 0.8125 0.4375 1.265625q0.421875 0.453125 1.0625 0.453125q0.421875 0 0.71875 -0.234375q0.296875 -0.234375 0.4375 -0.765625zm0.109375 -1.84375q-0.015625 -0.796875 -0.40625 -1.203125q-0.390625 -0.421875 -0.953125 -0.421875q-0.59375 0 -0.984375 0.4375q-0.390625 0.4375 -0.390625 1.1875l2.734375 0zm9.646851 4.046875l-1.703125 0l0 -1.015625q-0.421875 0.59375 -1.0 0.890625q-0.578125 0.28125 -1.15625 0.28125q-1.1875 0 -2.046875 -0.953125q-0.84375 -0.96875 -0.84375 -2.6875q0 -1.75 0.828125 -2.65625q0.828125 -0.921875 2.09375 -0.921875q1.15625 0 2.0 0.953125l0 -3.4375l1.828125 0l0 9.546875zm-4.875 -3.609375q0 1.109375 0.296875 1.609375q0.4375 0.71875 1.234375 0.71875q0.640625 0 1.078125 -0.53125q0.4375 -0.546875 0.4375 -1.609375q0 -1.203125 -0.4375 -1.71875q-0.421875 -0.53125 -1.09375 -0.53125q-0.640625 0 -1.078125 0.515625q-0.4375 0.515625 -0.4375 1.546875zm6.6726074 -4.234375l0 -1.703125l1.828125 0l0 1.703125l-1.828125 0zm0 7.84375l0 -6.90625l1.828125 0l0 6.90625l-1.828125 0zm9.734253 -4.875l-1.796875 0.328125q-0.09375 -0.53125 -0.421875 -0.796875q-0.328125 -0.28125 -0.828125 -0.28125q-0.6875 0 -1.09375 0.46875q-0.40625 0.46875 -0.40625 1.578125q0 1.234375 0.40625 1.75q0.421875 0.5 1.109375 0.5q0.53125 0 0.859375 -0.296875q0.328125 -0.296875 0.46875 -1.03125l1.796875 0.3125q-0.28125 1.234375 -1.078125 1.875q-0.796875 0.625 -2.125 0.625q-1.515625 0 -2.421875 -0.953125q-0.90625 -0.953125 -0.90625 -2.65625q0 -1.703125 0.90625 -2.65625q0.90625 -0.953125 2.453125 -0.953125q1.265625 0 2.0 0.546875q0.75 0.53125 1.078125 1.640625zm4.5531006 -2.03125l0 1.453125l-1.25 0l0 2.78125q0 0.84375 0.03125 0.984375q0.046875 0.140625 0.171875 0.234375q0.125 0.09375 0.3125 0.09375q0.25 0 0.734375 -0.171875l0.15625 1.421875q-0.640625 0.265625 -1.453125 0.265625q-0.484375 0 -0.890625 -0.15625q-0.390625 -0.171875 -0.578125 -0.4375q-0.1875 -0.265625 -0.265625 -0.71875q-0.046875 -0.3125 -0.046875 -1.28125l0 -3.015625l-0.84375 0l0 -1.453125l0.84375 0l0 -1.375l1.828125 -1.078125l0 2.453125l1.25 0zm1.2664795 -0.9375l0 -1.703125l1.828125 0l0 1.703125l-1.828125 0zm0 7.84375l0 -6.90625l1.828125 0l0 6.90625l-1.828125 0zm3.281128 -3.546875q0 -0.921875 0.453125 -1.765625q0.453125 -0.859375 1.265625 -1.296875q0.828125 -0.453125 1.84375 -0.453125q1.5625 0 2.5625 1.015625q1.015625 1.015625 1.015625 2.578125q0 1.5625 -1.015625 2.59375q-1.015625 1.03125 -2.546875 1.03125q-0.953125 0 -1.8125 -0.421875q-0.859375 -0.4375 -1.3125 -1.265625q-0.453125 -0.828125 -0.453125 -2.015625zm1.875 0.09375q0 1.03125 0.484375 1.578125q0.5 0.546875 1.203125 0.546875q0.71875 0 1.203125 -0.546875q0.484375 -0.546875 0.484375 -1.59375q0 -1.015625 -0.484375 -1.5625q-0.484375 -0.546875 -1.203125 -0.546875q-0.703125 0 -1.203125 0.546875q-0.484375 0.546875 -0.484375 1.578125zm12.985107 3.453125l-1.828125 0l0 -3.53125q0 -1.109375 -0.125 -1.4375q-0.109375 -0.328125 -0.375 -0.515625q-0.265625 -0.1875 -0.640625 -0.1875q-0.46875 0 -0.859375 0.265625q-0.375 0.265625 -0.515625 0.703125q-0.140625 0.421875 -0.140625 1.578125l0 3.125l-1.828125 0l0 -6.90625l1.703125 0l0 1.015625q0.90625 -1.171875 2.28125 -1.171875q0.609375 0 1.109375 0.21875q0.5 0.21875 0.75 0.5625q0.265625 0.328125 0.359375 0.765625q0.109375 0.421875 0.109375 1.21875l0 4.296875zm1.2038574 -1.96875l1.828125 -0.28125q0.125 0.53125 0.484375 0.8125q0.359375 0.265625 1.0 0.265625q0.703125 0 1.0625 -0.25q0.25 -0.1875 0.25 -0.484375q0 -0.21875 -0.140625 -0.359375q-0.125 -0.125 -0.609375 -0.234375q-2.203125 -0.484375 -2.796875 -0.890625q-0.828125 -0.5625 -0.828125 -1.5625q0 -0.890625 0.703125 -1.5q0.71875 -0.609375 2.203125 -0.609375q1.421875 0 2.109375 0.46875q0.703125 0.453125 0.953125 1.359375l-1.71875 0.3125q-0.109375 -0.40625 -0.421875 -0.609375q-0.3125 -0.21875 -0.890625 -0.21875q-0.71875 0 -1.03125 0.203125q-0.203125 0.140625 -0.203125 0.359375q0 0.203125 0.1875 0.34375q0.234375 0.171875 1.6875 0.515625q1.46875 0.328125 2.0625 0.8125q0.5625 0.484375 0.5625 1.359375q0 0.953125 -0.796875 1.640625q-0.78125 0.671875 -2.34375 0.671875q-1.40625 0 -2.234375 -0.5625q-0.828125 -0.578125 -1.078125 -1.5625z" fill-rule="nonzero"/><path fill="#000000" fill-opacity="0.0" d="m147.04462 234.40158l17.16536 0" fill-rule="evenodd"/><path stroke="#08a87d" stroke-width="2.0" stroke-linejoin="round" stroke-linecap="butt" d="m147.04462 234.40158l5.1653595 0" fill-rule="evenodd"/><path fill="#08a87d" stroke="#08a87d" stroke-width="2.0" stroke-linecap="butt" d="m152.20998 237.70503l9.076187 -3.3034515l-9.076187 -3.3034668z" fill-rule="evenodd"/><path fill="#000000" fill-opacity="0.0" d="m230.79265 140.83727l0 35.622055" fill-rule="evenodd"/><path stroke="#08a87d" stroke-width="2.0" stroke-linejoin="round" stroke-linecap="butt" d="m230.79265 140.83727l0 23.622055" fill-rule="evenodd"/><path fill="#08a87d" stroke="#08a87d" stroke-width="2.0" stroke-linecap="butt" d="m227.48918 164.45932l3.3034668 9.076187l3.3034668 -9.076187z" fill-rule="evenodd"/><path fill="#283282" d="m179.43832 54.44357l102.70865 0l0 71.99446l-14.399231 14.399231l-88.30942 0z" fill-rule="evenodd"/><path fill="#1f2767" d="m267.74774 140.83727l2.8798523 -11.519379l11.519379 -2.8798523z" fill-rule="evenodd"/><path fill="#000000" fill-opacity="0.0" d="m267.74774 140.83727l2.8798523 -11.519379l11.519379 -2.8798523l-14.399231 14.399231l-88.30942 0l0 -86.39369l102.70865 0l0 71.99446" fill-rule="evenodd"/><path fill="#ffffff" d="m195.50456 98.80455l1.671875 0.53125q-0.375 1.40625 -1.28125 2.09375q-0.90625 0.671875 -2.28125 0.671875q-1.71875 0 -2.828125 -1.15625q-1.09375 -1.171875 -1.09375 -3.203125q0 -2.140625 1.109375 -3.328125q1.109375 -1.1875 2.921875 -1.1875q1.578125 0 2.5625 0.921875q0.578125 0.5625 0.875 1.59375l-1.71875 0.40625q-0.15625 -0.671875 -0.640625 -1.046875q-0.484375 -0.390625 -1.171875 -0.390625q-0.953125 0 -1.546875 0.6875q-0.59375 0.671875 -0.59375 2.21875q0 1.625 0.578125 2.3125q0.59375 0.6875 1.53125 0.6875q0.6875 0 1.1875 -0.4375q0.5 -0.4375 0.71875 -1.375zm7.2441406 3.15625l0 -0.9375q-0.328125 0.5 -0.890625 0.796875q-0.546875 0.28125 -1.171875 0.28125q-0.625 0 -1.125 -0.265625q-0.5 -0.28125 -0.71875 -0.78125q-0.21875 -0.5 -0.21875 -1.375l0 -3.9375l1.640625 0l0 2.859375q0 1.3125 0.09375 1.609375q0.09375 0.296875 0.328125 0.46875q0.25 0.171875 0.609375 0.171875q0.421875 0 0.75 -0.234375q0.34375 -0.234375 0.46875 -0.578125q0.125 -0.34375 0.125 -1.671875l0 -2.625l1.640625 0l0 6.21875l-1.53125 0zm4.814453 0l-1.640625 0l0 -6.21875l1.53125 0l0 0.875q0.390625 -0.625 0.703125 -0.8125q0.3125 -0.203125 0.703125 -0.203125q0.5625 0 1.09375 0.3125l-0.515625 1.421875q-0.421875 -0.265625 -0.765625 -0.265625q-0.359375 0 -0.59375 0.203125q-0.234375 0.1875 -0.375 0.6875q-0.140625 0.484375 -0.140625 2.078125l0 1.921875zm4.669922 0l-1.640625 0l0 -6.21875l1.53125 0l0 0.875q0.390625 -0.625 0.703125 -0.8125q0.3125 -0.203125 0.703125 -0.203125q0.5625 0 1.09375 0.3125l-0.515625 1.421875q-0.421875 -0.265625 -0.765625 -0.265625q-0.359375 0 -0.59375 0.203125q-0.234375 0.1875 -0.375 0.6875q-0.140625 0.484375 -0.140625 2.078125l0 1.921875zm6.701172 -1.984375l1.640625 0.28125q-0.3125 0.90625 -1.0 1.375q-0.6875 0.46875 -1.703125 0.46875q-1.625 0 -2.40625 -1.0625q-0.625 -0.84375 -0.625 -2.140625q0 -1.546875 0.8125 -2.421875q0.8125 -0.875 2.046875 -0.875q1.390625 0 2.1875 0.921875q0.8125 0.90625 0.765625 2.796875l-4.125 0q0.03125 0.734375 0.40625 1.140625q0.375 0.40625 0.953125 0.40625q0.375 0 0.640625 -0.203125q0.265625 -0.21875 0.40625 -0.6875zm0.09375 -1.65625q-0.015625 -0.71875 -0.375 -1.09375q-0.34375 -0.375 -0.859375 -0.375q-0.53125 0 -0.890625 0.390625q-0.34375 0.40625 -0.34375 1.078125l2.46875 0zm8.626953 3.640625l-1.640625 0l0 -3.171875q0 -1.015625 -0.109375 -1.3125q-0.09375 -0.296875 -0.34375 -0.453125q-0.234375 -0.171875 -0.5625 -0.171875q-0.4375 0 -0.78125 0.234375q-0.328125 0.234375 -0.453125 0.625q-0.125 0.390625 -0.125 1.4375l0 2.8125l-1.65625 0l0 -6.21875l1.53125 0l0 0.90625q0.8125 -1.046875 2.0625 -1.046875q0.53125 0 0.984375 0.203125q0.453125 0.1875 0.6875 0.5q0.234375 0.296875 0.3125 0.6875q0.09375 0.375 0.09375 1.09375l0 3.875zm4.533203 -6.21875l0 1.3125l-1.125 0l0 2.5q0 0.765625 0.03125 0.890625q0.03125 0.125 0.140625 0.21875q0.125 0.078125 0.28125 0.078125q0.234375 0 0.65625 -0.171875l0.140625 1.28125q-0.5625 0.25 -1.296875 0.25q-0.4375 0 -0.796875 -0.140625q-0.359375 -0.15625 -0.53125 -0.390625q-0.15625 -0.25 -0.234375 -0.640625q-0.046875 -0.296875 -0.046875 -1.171875l0 -2.703125l-0.75 0l0 -1.3125l0.75 0l0 -1.234375l1.65625 -0.96875l0 2.203125l1.125 0zm4.345703 0l1.515625 0l0 0.84375q0.828125 -0.984375 1.953125 -0.984375q0.59375 0 1.03125 0.25q0.4375 0.234375 0.71875 0.734375q0.40625 -0.5 0.875 -0.734375q0.484375 -0.25 1.03125 -0.25q0.671875 0 1.140625 0.28125q0.484375 0.265625 0.71875 0.8125q0.171875 0.390625 0.171875 1.28125l0 3.984375l-1.640625 0l0 -3.5625q0 -0.921875 -0.171875 -1.1875q-0.234375 -0.359375 -0.703125 -0.359375q-0.34375 0 -0.65625 0.21875q-0.296875 0.203125 -0.4375 0.609375q-0.140625 0.40625 -0.140625 1.296875l0 2.984375l-1.640625 0l0 -3.40625q0 -0.90625 -0.09375 -1.171875q-0.078125 -0.265625 -0.265625 -0.390625q-0.1875 -0.140625 -0.5 -0.140625q-0.375 0 -0.6875 0.21875q-0.296875 0.203125 -0.4375 0.59375q-0.125 0.375 -0.125 1.265625l0 3.03125l-1.65625 0l0 -6.21875zm10.419922 3.015625q0 -0.8125 0.40625 -1.578125q0.40625 -0.78125 1.140625 -1.171875q0.734375 -0.40625 1.65625 -0.40625q1.40625 0 2.3125 0.921875q0.90625 0.90625 0.90625 2.3125q0 1.40625 -0.921875 2.34375q-0.90625 0.921875 -2.28125 0.921875q-0.859375 0 -1.640625 -0.390625q-0.765625 -0.390625 -1.171875 -1.125q-0.40625 -0.75 -0.40625 -1.828125zm1.6875 0.09375q0 0.921875 0.4375 1.421875q0.4375 0.484375 1.078125 0.484375q0.65625 0 1.078125 -0.484375q0.4375 -0.5 0.4375 -1.4375q0 -0.90625 -0.4375 -1.390625q-0.421875 -0.5 -1.078125 -0.5q-0.640625 0 -1.078125 0.5q-0.4375 0.484375 -0.4375 1.40625zm11.673843 3.109375l-1.640625 0l0 -3.171875q0 -1.015625 -0.109375 -1.3125q-0.09375 -0.296875 -0.34375 -0.453125q-0.234375 -0.171875 -0.5625 -0.171875q-0.4375 0 -0.78125 0.234375q-0.328125 0.234375 -0.453125 0.625q-0.125 0.390625 -0.125 1.4375l0 2.8125l-1.6562653 0l0 -6.21875l1.5312653 0l0 0.90625q0.8125 -1.046875 2.0625 -1.046875q0.53125 0 0.984375 0.203125q0.453125 0.1875 0.6875 0.5q0.234375 0.296875 0.3125 0.6875q0.09375 0.375 0.09375 1.09375l0 3.875zm4.533203 -6.21875l0 1.3125l-1.125 0l0 2.5q0 0.765625 0.03125 0.890625q0.03125 0.125 0.140625 0.21875q0.125 0.078125 0.28125 0.078125q0.234375 0 0.65625 -0.171875l0.140625 1.28125q-0.5625 0.25 -1.296875 0.25q-0.4375 0 -0.796875 -0.140625q-0.359375 -0.15625 -0.53125 -0.390625q-0.15625 -0.25 -0.234375 -0.640625q-0.046875 -0.296875 -0.046875 -1.171875l0 -2.703125l-0.75 0l0 -1.3125l0.75 0l0 -1.234375l1.65625 -0.96875l0 2.203125l1.125 0zm2.7773438 -2.375l0 3.15625q0.796875 -0.921875 1.90625 -0.921875q0.5625 0 1.015625 0.21875q0.46875 0.203125 0.703125 0.53125q0.234375 0.328125 0.3125 0.734375q0.078125 0.390625 0.078125 1.21875l0 3.65625l-1.640625 0l0 -3.28125q0 -0.984375 -0.09375 -1.25q-0.09375 -0.265625 -0.328125 -0.421875q-0.234375 -0.15625 -0.59375 -0.15625q-0.40625 0 -0.734375 0.203125q-0.328125 0.203125 -0.484375 0.609375q-0.140625 0.390625 -0.140625 1.171875l0 3.125l-1.640625 0l0 -8.59375l1.640625 0z" fill-rule="nonzero"/><path fill="#283282" d="m44.682415 191.18898l102.3622 0l0 72.020706l-14.40448 14.40448l-87.95772 0z" fill-rule="evenodd"/><path fill="#1f2767" d="m132.64014 277.61417l2.88089 -11.52359l11.52359 -2.88089z" fill-rule="evenodd"/><path fill="#000000" fill-opacity="0.0" d="m132.64014 277.61417l2.88089 -11.52359l11.52359 -2.88089l-14.40448 14.40448l-87.95772 0l0 -86.425186l102.3622 0l0 72.020706" fill-rule="evenodd"/><path fill="#ffffff" d="m58.000237 238.71933l0 -7.140625l-2.546875 0l0 -1.453125l6.8125 0l0 1.453125l-2.53125 0l0 7.140625l-1.734375 0zm6.2929688 0l-1.640625 0l0 -6.21875l1.53125 0l0 0.875q0.390625 -0.625 0.703125 -0.8125q0.3125 -0.203125 0.703125 -0.203125q0.5625 0 1.09375 0.3125l-0.515625 1.421875q-0.421875 -0.265625 -0.765625 -0.265625q-0.359375 0 -0.59375 0.203125q-0.234375 0.1875 -0.375 0.6875q-0.140625 0.484375 -0.140625 2.078125l0 1.921875zm4.326172 -4.328125l-1.5 -0.265625q0.25 -0.90625 0.859375 -1.328125q0.625 -0.4375 1.84375 -0.4375q1.09375 0 1.625 0.265625q0.546875 0.25 0.765625 0.65625q0.21875 0.390625 0.21875 1.46875l-0.015625 1.921875q0 0.828125 0.078125 1.21875q0.078125 0.375 0.296875 0.828125l-1.625 0q-0.0625 -0.171875 -0.15625 -0.484375q-0.046875 -0.15625 -0.0625 -0.203125q-0.421875 0.421875 -0.90625 0.625q-0.46875 0.203125 -1.015625 0.203125q-0.96875 0 -1.53125 -0.515625q-0.546875 -0.53125 -0.546875 -1.328125q0 -0.53125 0.25 -0.9375q0.265625 -0.40625 0.71875 -0.625q0.453125 -0.234375 1.3125 -0.390625q1.140625 -0.21875 1.59375 -0.40625l0 -0.15625q0 -0.484375 -0.234375 -0.6875q-0.234375 -0.203125 -0.890625 -0.203125q-0.4375 0 -0.6875 0.171875q-0.234375 0.171875 -0.390625 0.609375zm2.203125 1.34375q-0.3125 0.09375 -1.0 0.25q-0.6875 0.140625 -0.90625 0.28125q-0.3125 0.234375 -0.3125 0.578125q0 0.34375 0.25 0.609375q0.265625 0.25 0.65625 0.25q0.453125 0 0.859375 -0.296875q0.296875 -0.21875 0.390625 -0.546875q0.0625 -0.203125 0.0625 -0.796875l0 -0.328125zm3.2363281 -4.078125l0 -1.53125l1.65625 0l0 1.53125l-1.65625 0zm0 7.0625l0 -6.21875l1.65625 0l0 6.21875l-1.65625 0zm8.990234 0l-1.640625 0l0 -3.171875q0 -1.015625 -0.109375 -1.3125q-0.09375 -0.296875 -0.34375 -0.453125q-0.234375 -0.171875 -0.5625 -0.171875q-0.4375 0 -0.78125 0.234375q-0.328125 0.234375 -0.453125 0.625q-0.125 0.390625 -0.125 1.4375l0 2.8125l-1.65625 0l0 -6.21875l1.53125 0l0 0.90625q0.8125 -1.046875 2.0625 -1.046875q0.53125 0 0.984375 0.203125q0.453125 0.1875 0.6875 0.5q0.234375 0.296875 0.3125 0.6875q0.09375 0.375 0.09375 1.09375l0 3.875zm5.283203 -1.984375l1.640625 0.28125q-0.3125 0.90625 -1.0 1.375q-0.6875 0.46875 -1.703125 0.46875q-1.625 0 -2.40625 -1.0625q-0.625 -0.84375 -0.625 -2.140625q0 -1.546875 0.8125 -2.421875q0.8125 -0.875 2.046875 -0.875q1.390625 0 2.1875 0.921875q0.8125 0.90625 0.765625 2.796875l-4.125 0q0.03125 0.734375 0.40625 1.140625q0.375 0.40625 0.953125 0.40625q0.375 0 0.640625 -0.203125q0.265625 -0.21875 0.40625 -0.6875zm0.09375 -1.65625q-0.015625 -0.71875 -0.375 -1.09375q-0.34375 -0.375 -0.859375 -0.375q-0.53125 0 -0.890625 0.390625q-0.34375 0.40625 -0.34375 1.078125l2.46875 0zm8.673828 3.640625l-1.515625 0l0 -0.921875q-0.390625 0.546875 -0.90625 0.8125q-0.515625 0.25 -1.046875 0.25q-1.078125 0 -1.84375 -0.859375q-0.75 -0.875 -0.75 -2.421875q0 -1.578125 0.734375 -2.390625q0.75 -0.828125 1.890625 -0.828125q1.03125 0 1.796875 0.859375l0 -3.09375l1.640625 0l0 8.59375zm-4.390625 -3.25q0 1.0 0.28125 1.4375q0.390625 0.65625 1.109375 0.65625q0.5625 0 0.953125 -0.484375q0.40625 -0.484375 0.40625 -1.453125q0 -1.0625 -0.390625 -1.53125q-0.375 -0.484375 -0.984375 -0.484375q-0.578125 0 -0.984375 0.46875q-0.390625 0.46875 -0.390625 1.390625zm9.2265625 -2.96875l1.515625 0l0 0.84375q0.828125 -0.984375 1.953125 -0.984375q0.59375 0 1.03125 0.25q0.4375 0.234375 0.71875 0.734375q0.40625 -0.5 0.875 -0.734375q0.484375 -0.25 1.03125 -0.25q0.671875 0 1.140625 0.28125q0.484375 0.265625 0.71875 0.8125q0.171875 0.390625 0.171875 1.28125l0 3.984375l-1.640625 0l0 -3.5625q0 -0.921875 -0.171875 -1.1875q-0.234375 -0.359375 -0.703125 -0.359375q-0.34375 0 -0.65625 0.21875q-0.296875 0.203125 -0.4375 0.609375q-0.140625 0.40625 -0.140625 1.296875l0 2.984375l-1.640625 0l0 -3.40625q0 -0.90625 -0.09375 -1.171875q-0.078125 -0.265625 -0.265625 -0.390625q-0.1875 -0.140625 -0.5 -0.140625q-0.375 0 -0.6875 0.21875q-0.296875 0.203125 -0.4375 0.59375q-0.125 0.375 -0.125 1.265625l0 3.03125l-1.65625 0l0 -6.21875zm10.419922 3.015625q0 -0.8125 0.40625 -1.578125q0.40625 -0.78125 1.140625 -1.171875q0.734375 -0.40625 1.65625 -0.40625q1.40625 0 2.3125 0.921875q0.90625 0.90625 0.90625 2.3125q0 1.40625 -0.921875 2.34375q-0.90625 0.921875 -2.28125 0.921875q-0.859375 0 -1.640625 -0.390625q-0.765625 -0.390625 -1.171875 -1.125q-0.40625 -0.75 -0.40625 -1.828125zm1.6875 0.09375q0 0.921875 0.4375 1.421875q0.4375 0.484375 1.078125 0.484375q0.65625 0 1.078125 -0.484375q0.4375 -0.5 0.4375 -1.4375q0 -0.90625 -0.4375 -1.390625q-0.421875 -0.5 -1.078125 -0.5q-0.640625 0 -1.078125 0.5q-0.4375 0.484375 -0.4375 1.40625zm11.720703 3.109375l-1.515625 0l0 -0.921875q-0.390625 0.546875 -0.90625 0.8125q-0.515625 0.25 -1.046875 0.25q-1.078125 0 -1.84375 -0.859375q-0.75 -0.875 -0.75 -2.421875q0 -1.578125 0.734375 -2.390625q0.75 -0.828125 1.890625 -0.828125q1.03125 0 1.796875 0.859375l0 -3.09375l1.640625 0l0 8.59375zm-4.390625 -3.25q0 1.0 0.28125 1.4375q0.390625 0.65625 1.109375 0.65625q0.5625 0 0.953125 -0.484375q0.40625 -0.484375 0.40625 -1.453125q0 -1.0625 -0.390625 -1.53125q-0.375 -0.484375 -0.984375 -0.484375q-0.578125 0 -0.984375 0.46875q-0.390625 0.46875 -0.390625 1.390625zm9.626961 1.265625l1.640625 0.28125q-0.3125 0.90625 -1.0 1.375q-0.6875 0.46875 -1.703125 0.46875q-1.625 0 -2.4062576 -1.0625q-0.625 -0.84375 -0.625 -2.140625q0 -1.546875 0.8125 -2.421875q0.8125076 -0.875 2.0468826 -0.875q1.390625 0 2.1875 0.921875q0.8125 0.90625 0.765625 2.796875l-4.125 0q0.03125 0.734375 0.40625 1.140625q0.375 0.40625 0.953125 0.40625q0.375 0 0.640625 -0.203125q0.265625 -0.21875 0.40625 -0.6875zm0.09375 -1.65625q-0.015625 -0.71875 -0.375 -1.09375q-0.34375 -0.375 -0.859375 -0.375q-0.53125 0 -0.890625 0.390625q-0.34375 0.40625 -0.34375 1.078125l2.46875 0zm2.9707031 3.640625l0 -8.59375l1.65625 0l0 8.59375l-1.65625 0z" fill-rule="nonzero"/><path fill="#ff462b" d="m164.19423 234.40158l66.59842 -57.95276l66.598434 57.95276l-66.598434 57.95276z" fill-rule="evenodd"/><path fill="#000000" d="m211.32683 238.92157l0 -8.59375l2.78125 0q1.578125 0 2.0625 0.125q0.734375 0.203125 1.234375 0.859375q0.5 0.640625 0.5 1.65625q0 0.796875 -0.296875 1.34375q-0.28125 0.53125 -0.71875 0.84375q-0.4375 0.296875 -0.90625 0.40625q-0.609375 0.125 -1.796875 0.125l-1.125 0l0 3.234375l-1.734375 0zm1.734375 -7.140625l0 2.4375l0.953125 0q1.015625 0 1.359375 -0.125q0.359375 -0.140625 0.546875 -0.421875q0.203125 -0.296875 0.203125 -0.671875q0 -0.46875 -0.28125 -0.765625q-0.28125 -0.3125 -0.703125 -0.390625q-0.296875 -0.0625 -1.234375 -0.0625l-0.84375 0zm7.8320312 7.140625l-1.640625 0l0 -6.21875l1.53125 0l0 0.875q0.390625 -0.625 0.703125 -0.8125q0.3125 -0.203125 0.703125 -0.203125q0.5625 0 1.09375 0.3125l-0.515625 1.421875q-0.421875 -0.265625 -0.765625 -0.265625q-0.359375 0 -0.59375 0.203125q-0.234375 0.1875 -0.375 0.6875q-0.140625 0.484375 -0.140625 2.078125l0 1.921875zm6.701172 -1.984375l1.640625 0.28125q-0.3125 0.90625 -1.0 1.375q-0.6875 0.46875 -1.703125 0.46875q-1.625 0 -2.40625 -1.0625q-0.625 -0.84375 -0.625 -2.140625q0 -1.546875 0.8125 -2.421875q0.8125 -0.875 2.046875 -0.875q1.390625 0 2.1875 0.921875q0.8125 0.90625 0.765625 2.796875l-4.125 0q0.03125 0.734375 0.40625 1.140625q0.375 0.40625 0.953125 0.40625q0.375 0 0.640625 -0.203125q0.265625 -0.21875 0.40625 -0.6875zm0.09375 -1.65625q-0.015625 -0.71875 -0.375 -1.09375q-0.34375 -0.375 -0.859375 -0.375q-0.53125 0 -0.890625 0.390625q-0.34375 0.40625 -0.34375 1.078125l2.46875 0zm8.673828 3.640625l-1.515625 0l0 -0.921875q-0.390625 0.546875 -0.90625 0.8125q-0.515625 0.25 -1.046875 0.25q-1.078125 0 -1.84375 -0.859375q-0.75 -0.875 -0.75 -2.421875q0 -1.578125 0.734375 -2.390625q0.75 -0.828125 1.890625 -0.828125q1.03125 0 1.796875 0.859375l0 -3.09375l1.640625 0l0 8.59375zm-4.390625 -3.25q0 1.0 0.28125 1.4375q0.390625 0.65625 1.109375 0.65625q0.5625 0 0.953125 -0.484375q0.40625 -0.484375 0.40625 -1.453125q0 -1.0625 -0.390625 -1.53125q-0.375 -0.484375 -0.984375 -0.484375q-0.578125 0 -0.984375 0.46875q-0.390625 0.46875 -0.390625 1.390625zm6.017578 -3.8125l0 -1.53125l1.65625 0l0 1.53125l-1.65625 0zm0 7.0625l0 -6.21875l1.65625 0l0 6.21875l-1.65625 0zm8.755859 -4.390625l-1.609375 0.296875q-0.09375 -0.484375 -0.390625 -0.71875q-0.28125 -0.25 -0.734375 -0.25q-0.625 0 -1.0 0.421875q-0.359375 0.421875 -0.359375 1.421875q0 1.109375 0.375 1.5625q0.375 0.453125 1.0 0.453125q0.46875 0 0.765625 -0.265625q0.296875 -0.265625 0.421875 -0.921875l1.625 0.28125q-0.25 1.109375 -0.96875 1.6875q-0.71875 0.5625 -1.921875 0.5625q-1.359375 0 -2.171875 -0.859375q-0.8125 -0.859375 -0.8125 -2.390625q0 -1.53125 0.8125 -2.390625q0.8125 -0.859375 2.203125 -0.859375q1.140625 0 1.8125 0.484375q0.671875 0.484375 0.953125 1.484375zm4.111328 -1.828125l0 1.3125l-1.125 0l0 2.5q0 0.765625 0.03125 0.890625q0.03125 0.125 0.140625 0.21875q0.125 0.078125 0.28125 0.078125q0.234375 0 0.65625 -0.171875l0.140625 1.28125q-0.5625 0.25 -1.296875 0.25q-0.4375 0 -0.796875 -0.140625q-0.359375 -0.15625 -0.53125 -0.390625q-0.15625 -0.25 -0.234375 -0.640625q-0.046875 -0.296875 -0.046875 -1.171875l0 -2.703125l-0.75 0l0 -1.3125l0.75 0l0 -1.234375l1.65625 -0.96875l0 2.203125l1.125 0z" fill-rule="nonzero"/><path fill="#000000" fill-opacity="0.0" d="m297.39108 234.40158l18.86615 0" fill-rule="evenodd"/><path stroke="#08a87d" stroke-width="2.0" stroke-linejoin="round" stroke-linecap="butt" d="m297.39108 234.40158l6.86615 0" fill-rule="evenodd"/><path fill="#08a87d" stroke="#08a87d" stroke-width="2.0" stroke-linecap="butt" d="m304.25723 237.70503l9.076172 -3.3034515l-9.076172 -3.3034668z" fill-rule="evenodd"/><path fill="#283282" d="m316.25055 191.18898l105.322845 0l0 72.020706l-14.40448 14.40448l-90.918365 0z" fill-rule="evenodd"/><path fill="#1f2767" d="m407.1689 277.61417l2.88089 -11.52359l11.52359 -2.88089z" fill-rule="evenodd"/><path fill="#000000" fill-opacity="0.0" d="m407.1689 277.61417l2.88089 -11.52359l11.52359 -2.88089l-14.40448 14.40448l-90.918365 0l0 -86.425186l105.322845 0l0 72.020706" fill-rule="evenodd"/><path fill="#ffffff" d="m337.3866 233.50058l1.53125 0l0 0.90625q0.3125 -0.46875 0.8125 -0.75q0.515625 -0.296875 1.140625 -0.296875q1.078125 0 1.828125 0.84375q0.765625 0.84375 0.765625 2.375q0 1.546875 -0.765625 2.421875q-0.765625 0.859375 -1.84375 0.859375q-0.515625 0 -0.9375 -0.203125q-0.421875 -0.203125 -0.875 -0.703125l0 3.140625l-1.65625 0l0 -8.59375zm1.625 3.0q0 1.046875 0.421875 1.546875q0.421875 0.5 1.015625 0.5q0.578125 0 0.953125 -0.453125q0.375 -0.46875 0.375 -1.515625q0 -0.96875 -0.390625 -1.4375q-0.390625 -0.484375 -0.96875 -0.484375q-0.609375 0 -1.015625 0.46875q-0.390625 0.46875 -0.390625 1.375zm7.330078 3.21875l-1.640625 0l0 -6.21875l1.53125 0l0 0.875q0.390625 -0.625 0.703125 -0.8125q0.3125 -0.203125 0.703125 -0.203125q0.5625 0 1.09375 0.3125l-0.515625 1.421875q-0.421875 -0.265625 -0.765625 -0.265625q-0.359375 0 -0.59375 0.203125q-0.234375 0.1875 -0.375 0.6875q-0.140625 0.484375 -0.140625 2.078125l0 1.921875zm6.701172 -1.984375l1.640625 0.28125q-0.3125 0.90625 -1.0 1.375q-0.6875 0.46875 -1.703125 0.46875q-1.625 0 -2.40625 -1.0625q-0.625 -0.84375 -0.625 -2.140625q0 -1.546875 0.8125 -2.421875q0.8125 -0.875 2.046875 -0.875q1.390625 0 2.1875 0.921875q0.8125 0.90625 0.765625 2.796875l-4.125 0q0.03125 0.734375 0.40625 1.140625q0.375 0.40625 0.953125 0.40625q0.375 0 0.640625 -0.203125q0.265625 -0.21875 0.40625 -0.6875zm0.09375 -1.65625q-0.015625 -0.71875 -0.375 -1.09375q-0.34375 -0.375 -0.859375 -0.375q-0.53125 0 -0.890625 0.390625q-0.34375 0.40625 -0.34375 1.078125l2.46875 0zm8.673828 3.640625l-1.515625 0l0 -0.921875q-0.390625 0.546875 -0.90625 0.8125q-0.515625 0.25 -1.046875 0.25q-1.078125 0 -1.84375 -0.859375q-0.75 -0.875 -0.75 -2.421875q0 -1.578125 0.734375 -2.390625q0.75 -0.828125 1.890625 -0.828125q1.03125 0 1.796875 0.859375l0 -3.09375l1.640625 0l0 8.59375zm-4.390625 -3.25q0 1.0 0.28125 1.4375q0.390625 0.65625 1.109375 0.65625q0.5625 0 0.953125 -0.484375q0.40625 -0.484375 0.40625 -1.453125q0 -1.0625 -0.390625 -1.53125q-0.375 -0.484375 -0.984375 -0.484375q-0.578125 0 -0.984375 0.46875q-0.390625 0.46875 -0.390625 1.390625zm6.017578 -3.8125l0 -1.53125l1.65625 0l0 1.53125l-1.65625 0zm0 7.0625l0 -6.21875l1.65625 0l0 6.21875l-1.65625 0zm8.755859 -4.390625l-1.609375 0.296875q-0.09375 -0.484375 -0.390625 -0.71875q-0.28125 -0.25 -0.734375 -0.25q-0.625 0 -1.0 0.421875q-0.359375 0.421875 -0.359375 1.421875q0 1.109375 0.375 1.5625q0.375 0.453125 1.0 0.453125q0.46875 0 0.765625 -0.265625q0.296875 -0.265625 0.421875 -0.921875l1.625 0.28125q-0.25 1.109375 -0.96875 1.6875q-0.71875 0.5625 -1.921875 0.5625q-1.359375 0 -2.171875 -0.859375q-0.8125 -0.859375 -0.8125 -2.390625q0 -1.53125 0.8125 -2.390625q0.8125 -0.859375 2.203125 -0.859375q1.140625 0 1.8125 0.484375q0.671875 0.484375 0.953125 1.484375zm4.111328 -1.828125l0 1.3125l-1.125 0l0 2.5q0 0.765625 0.03125 0.890625q0.03125 0.125 0.140625 0.21875q0.125 0.078125 0.28125 0.078125q0.234375 0 0.65625 -0.171875l0.140625 1.28125q-0.5625 0.25 -1.296875 0.25q-0.4375 0 -0.796875 -0.140625q-0.359375 -0.15625 -0.53125 -0.390625q-0.15625 -0.25 -0.234375 -0.640625q-0.046875 -0.296875 -0.046875 -1.171875l0 -2.703125l-0.75 0l0 -1.3125l0.75 0l0 -1.234375l1.65625 -0.96875l0 2.203125l1.125 0zm1.1367188 -0.84375l0 -1.53125l1.65625 0l0 1.53125l-1.65625 0zm0 7.0625l0 -6.21875l1.65625 0l0 6.21875l-1.65625 0zm2.9589844 -3.203125q0 -0.8125 0.40625 -1.578125q0.40625 -0.78125 1.140625 -1.171875q0.734375 -0.40625 1.65625 -0.40625q1.40625 0 2.3125 0.921875q0.90625 0.90625 0.90625 2.3125q0 1.40625 -0.921875 2.34375q-0.90625 0.921875 -2.28125 0.921875q-0.859375 0 -1.640625 -0.390625q-0.765625 -0.390625 -1.171875 -1.125q-0.40625 -0.75 -0.40625 -1.828125zm1.6875 0.09375q0 0.921875 0.4375 1.421875q0.4375 0.484375 1.078125 0.484375q0.65625 0 1.078125 -0.484375q0.4375 -0.5 0.4375 -1.4375q0 -0.90625 -0.4375 -1.390625q-0.421875 -0.5 -1.078125 -0.5q-0.640625 0 -1.078125 0.5q-0.4375 0.484375 -0.4375 1.40625zm11.673828 3.109375l-1.640625 0l0 -3.171875q0 -1.015625 -0.109375 -1.3125q-0.09375 -0.296875 -0.34375 -0.453125q-0.234375 -0.171875 -0.5625 -0.171875q-0.4375 0 -0.78125 0.234375q-0.328125 0.234375 -0.453125 0.625q-0.125 0.390625 -0.125 1.4375l0 2.8125l-1.65625 0l0 -6.21875l1.53125 0l0 0.90625q0.8125 -1.046875 2.0625 -1.046875q0.53125 0 0.984375 0.203125q0.453125 0.1875 0.6875 0.5q0.234375 0.296875 0.3125 0.6875q0.09375 0.375 0.09375 1.09375l0 3.875zm1.0957031 -1.78125l1.65625 -0.25q0.109375 0.484375 0.421875 0.734375q0.328125 0.25 0.90625 0.25q0.640625 0 0.953125 -0.234375q0.21875 -0.171875 0.21875 -0.4375q0 -0.1875 -0.109375 -0.3125q-0.125 -0.125 -0.546875 -0.21875q-2.0 -0.4375 -2.53125 -0.796875q-0.734375 -0.515625 -0.734375 -1.40625q0 -0.8125 0.625 -1.359375q0.640625 -0.546875 1.984375 -0.546875q1.28125 0 1.90625 0.421875q0.625 0.40625 0.859375 1.21875l-1.5625 0.28125q-0.09375 -0.359375 -0.375 -0.546875q-0.28125 -0.203125 -0.796875 -0.203125q-0.640625 0 -0.921875 0.1875q-0.1875 0.125 -0.1875 0.328125q0 0.1875 0.15625 0.3125q0.21875 0.15625 1.53125 0.453125q1.328125 0.296875 1.84375 0.734375q0.515625 0.4375 0.515625 1.21875q0 0.859375 -0.71875 1.484375q-0.703125 0.609375 -2.109375 0.609375q-1.265625 0 -2.015625 -0.515625q-0.734375 -0.515625 -0.96875 -1.40625z" fill-rule="nonzero"/><path fill="#000000" fill-opacity="0.0" d="m147.04462 234.40158l17.16536 0" fill-rule="evenodd"/><path stroke="#08a87d" stroke-width="2.0" stroke-linejoin="round" stroke-linecap="butt" d="m147.04462 234.40158l5.1653595 0" fill-rule="evenodd"/><path fill="#08a87d" stroke="#08a87d" stroke-width="2.0" stroke-linecap="butt" d="m152.20998 237.70503l9.076187 -3.3034515l-9.076187 -3.3034668z" fill-rule="evenodd"/><path fill="#000000" fill-opacity="0.0" d="m230.79265 140.83727l0 35.622055" fill-rule="evenodd"/><path stroke="#08a87d" stroke-width="2.0" stroke-linejoin="round" stroke-linecap="butt" d="m230.79265 140.83727l0 23.622055" fill-rule="evenodd"/><path fill="#08a87d" stroke="#08a87d" stroke-width="2.0" stroke-linecap="butt" d="m227.48918 164.45932l3.3034668 9.076187l3.3034668 -9.076187z" fill-rule="evenodd"/><path fill="#140a1e" d="m235.34087 192.21194l-5.2924347 5.7463837l-1.4951324 -1.624649l-0.7476349 0.8080139l2.2427673 2.4369354l6.0400085 -6.562958l-0.74757385 -0.8037262zm-4.525955 -1.0229645c-0.0062408447 0 -0.012557983 6.1035156E-5 -0.018859863 6.1035156E-5c-0.0061187744 0 -0.012176514 0 -0.018310547 0c-2.3064728 0 -4.3504333 1.622345 -5.052658 4.014282c-0.7000885 2.3982697 0.11077881 5.0157166 2.0054626 6.464142c0.9172058 0.6990509 1.9855042 1.0476227 3.052353 1.0476227c1.1369324 0 2.272171 -0.395813 3.2210236 -1.1851807c1.8392639 -1.5301056 2.555252 -4.177597 1.7641449 -6.5414734l0 0l-0.8504486 0.92837524c0.3955536 1.9039764 -0.35595703 3.8724365 -1.8788605 4.908264c-0.6897278 0.47103882 -1.4687042 0.70318604 -2.2451324 0.70318604c-0.9377594 0 -1.8716431 -0.33868408 -2.6398773 -1.0040588c-1.4041901 -1.2206116 -1.946106 -3.2707672 -1.3527832 -5.114609c0.5973358 -1.84375 2.199295 -3.072998 3.9950867 -3.072998c0.8029175 0 1.5900879 0.24928284 2.2664642 0.7177582l0.75946045 -0.8252106c-0.8808899 -0.6751251 -1.9298553 -1.0401611 -3.0070648 -1.0401611z" fill-rule="evenodd"/><path fill="#ffffff" d="m59.50335 198.14188c1.1996155 0 2.4035263 0.09967041 3.3398933 0.27723694c0.12514114 0.026031494 0.24591827 0.047683716 0.3537941 0.07371521c-0.107875824 0.0259552 -0.22865295 0.05192566 -0.3537941 0.073638916c-0.93636703 0.1819458 -2.1359787 0.27723694 -3.3398933 0.27723694c-1.1996117 0 -2.3517342 -0.09529114 -3.2881012 -0.27723694c-0.12944031 -0.021713257 -0.24591446 -0.047683716 -0.3537941 -0.073638916c0.10787964 -0.026031494 0.22435379 -0.047683716 0.3537941 -0.07371521c0.93636703 -0.17756653 2.0884895 -0.27723694 3.2881012 -0.27723694zm4.6645813 1.2043762l0 1.9105072c-0.41854477 0.1299591 -0.8457527 0.23388672 -1.2772636 0.3119049l-0.047424316 0.008636475c-1.0089264 0.18267822 -2.0337257 0.27783203 -3.0629578 0.27783203c-0.044841766 0 -0.08968735 -1.9836426E-4 -0.13452911 -5.340576E-4c-1.1996155 0 -2.4941406 -0.09967041 -3.4305077 -0.27729797c-0.12944031 -0.025970459 -0.24591446 -0.052001953 -0.3537941 -0.07795715l0.004299164 0c-0.32793045 -0.0650177 -0.6558609 -0.15161133 -0.975193 -0.25559998l0 -1.8931732c1.0442467 0.35087585 2.7184906 0.57618713 4.617092 0.57618713c1.9029617 0 3.6031342 -0.22962952 4.6602783 -0.5805054zm-9.27737 2.9934998c1.0830727 0.35957336 2.8306694 0.5935211 4.7551956 0.5935211c1.8770332 0 3.4994926 -0.220932 4.522175 -0.5674896l0 1.6245728c-0.41854477 0.1299591 -0.8457527 0.23394775 -1.2772636 0.30758667c-0.9406662 0.16893005 -2.1402779 0.2642212 -3.3830147 0.2642212c-1.4024048 0 -2.6407776 -0.12124634 -3.641899 -0.32922363c-0.32793045 -0.064941406 -0.6558609 -0.15161133 -0.975193 -0.25990295l0 -1.6332855zm9.27737 2.7466125l0 1.8022156c-0.41854477 0.12994385 -0.8457527 0.2339325 -1.2772636 0.31188965l-0.047424316 0.00869751c-0.93636703 0.17764282 -2.1014519 0.27723694 -3.3053665 0.27723694c-1.1996117 0 -2.386261 -0.099594116 -3.322628 -0.27723694c-0.12944031 -0.026031494 -0.24591446 -0.051986694 -0.3537941 -0.07795715l0.004299164 0c-0.32793045 -0.06500244 -0.6558609 -0.1516571 -0.975193 -0.25564575l0 -1.7848206c1.0442467 0.35087585 2.7184906 0.57618713 4.617092 0.57618713c1.9029617 0 3.6031342 -0.22962952 4.6602783 -0.5805664zm-4.6602783 -8.027542c-3.1715622 0 -5.7217903 0.6325073 -5.747654 1.42099l0 8.61235l0 0.03904724c0 0.79273987 2.5933533 1.4339294 5.777878 1.4339294c3.1715622 0 5.7347527 -0.63249207 5.7606163 -1.4209747l0 -8.664352l0.004295349 0c-0.030158997 -0.7841644 -2.6278763 -1.42099 -5.7951355 -1.42099z" fill-rule="evenodd"/><path fill="#ffffff" d="m64.59067 200.10439c-0.3149643 0 -0.5652466 0.25558472 -0.5652466 0.5674896c0 0.31628418 0.2502823 0.5718689 0.5652466 0.5718689c0.3107376 0 0.56531525 -0.25558472 0.56531525 -0.5718689c0 -0.3119049 -0.25457764 -0.5674896 -0.56531525 -0.5674896z" fill-rule="evenodd"/><path fill="#ffffff" d="m64.59067 202.97664c-0.3149643 0 -0.5652466 0.25126648 -0.5652466 0.5674896c0 0.3119049 0.2502823 0.5674896 0.5652466 0.5674896c0.3107376 0 0.56531525 -0.25558472 0.56531525 -0.5674896c0 -0.31622314 -0.25457764 -0.5674896 -0.56531525 -0.5674896z" fill-rule="evenodd"/><path fill="#ffffff" d="m64.59067 205.8445c-0.3149643 0 -0.5652466 0.255661 -0.5652466 0.5675659c0 0.3162079 0.2502823 0.5717926 0.5652466 0.5717926c0.3107376 0 0.56531525 -0.25558472 0.56531525 -0.5717926c0 -0.3119049 -0.25457764 -0.5675659 -0.56531525 -0.5675659z" fill-rule="evenodd"/><path fill="#ffffff" d="m193.90335 62.753426c1.1996155 0 2.4035187 0.099674225 3.3398895 0.27723694c0.12513733 0.026031494 0.2459259 0.0476799 0.35379028 0.073711395c-0.10786438 0.02596283 -0.22865295 0.05192566 -0.35379028 0.07364273c-0.93637085 0.1819458 -2.135971 0.27723694 -3.3398895 0.27723694c-1.1996155 0 -2.3517303 -0.09529114 -3.2881012 -0.27723694c-0.12944031 -0.021717072 -0.24591064 -0.0476799 -0.35379028 -0.07364273c0.10787964 -0.026031494 0.22434998 -0.0476799 0.35379028 -0.073711395c0.93637085 -0.17756271 2.0884857 -0.27723694 3.2881012 -0.27723694zm4.6645813 1.2043724l0 1.9105186c-0.41854858 0.12995148 -0.8457489 0.23387146 -1.2772675 0.31189728l-0.047424316 0.008636475c-1.0089264 0.18267822 -2.033722 0.27783203 -3.0629578 0.27783203c-0.04484558 0 -0.08969116 -1.9836426E-4 -0.13452148 -5.340576E-4c-1.1996155 0 -2.4941406 -0.09967041 -3.4305115 -0.27729797c-0.12944031 -0.02596283 -0.24591064 -0.051994324 -0.35379028 -0.07795715l0.0042877197 0c-0.32792664 -0.06501007 -0.6558533 -0.1516037 -0.9751892 -0.25559235l0 -1.8931847c1.0442505 0.35087967 2.7184906 0.57619095 4.617096 0.57619095c1.9029541 0 3.6031342 -0.22962952 4.6602783 -0.5805092zm-9.277374 2.9935036c1.0830688 0.359581 2.8306732 0.5935211 4.7552032 0.5935211c1.8770294 0 3.4994812 -0.22092438 4.522171 -0.5674896l0 1.6245804c-0.41854858 0.12995148 -0.8457489 0.23394012 -1.2772675 0.30757904c-0.94065857 0.16893768 -2.140274 0.2642212 -3.3830109 0.2642212c-1.4024048 0 -2.6407776 -0.12125397 -3.6419067 -0.32923126c-0.32792664 -0.064941406 -0.6558533 -0.15159607 -0.9751892 -0.25990295l0 -1.6332779zm9.277374 2.7466125l0 1.802208c-0.41854858 0.12995148 -0.8457489 0.23394012 -1.2772675 0.31189728l-0.047424316 0.008705139c-0.93637085 0.17762756 -2.1014557 0.27723694 -3.305359 0.27723694c-1.1996155 0 -2.386261 -0.099609375 -3.3226318 -0.27723694c-0.12944031 -0.026031494 -0.24591064 -0.051994324 -0.35379028 -0.07796478l0.0042877197 0c-0.32792664 -0.06501007 -0.6558533 -0.15166473 -0.9751892 -0.25565338l0 -1.7848129c1.0442505 0.35088348 2.7184906 0.57618713 4.617096 0.57618713c1.9029541 0 3.6031342 -0.22962189 4.6602783 -0.5805664zm-4.6602783 -8.027538c-3.1715698 0 -5.7217865 0.6324997 -5.74765 1.4209824l0 8.612362l0 0.03903961c0 0.79273987 2.5933533 1.4339371 5.777878 1.4339371c3.1715546 0 5.734741 -0.6324997 5.760605 -1.4209824l0 -8.664356l0.0043029785 0c-0.030166626 -0.78416824 -2.6278687 -1.4209824 -5.7951355 -1.4209824z" fill-rule="evenodd"/><path fill="#ffffff" d="m198.99066 64.715935c-0.31495667 0 -0.5652466 0.25559235 -0.5652466 0.5674896c0 0.31628418 0.25028992 0.5718765 0.5652466 0.5718765c0.31074524 0 0.5653229 -0.25559235 0.5653229 -0.5718765c0 -0.31189728 -0.25457764 -0.5674896 -0.5653229 -0.5674896z" fill-rule="evenodd"/><path fill="#ffffff" d="m198.99066 67.58818c-0.31495667 0 -0.5652466 0.2512741 -0.5652466 0.56749725c0 0.31189728 0.25028992 0.5674896 0.5652466 0.5674896c0.31074524 0 0.5653229 -0.25559235 0.5653229 -0.5674896c0 -0.31622314 -0.25457764 -0.56749725 -0.5653229 -0.56749725z" fill-rule="evenodd"/><path fill="#ffffff" d="m198.99066 70.45605c-0.31495667 0 -0.5652466 0.255661 -0.5652466 0.5675583c0 0.31621552 0.25028992 0.57180786 0.5652466 0.57180786c0.31074524 0 0.5653229 -0.25559235 0.5653229 -0.57180786c0 -0.31189728 -0.25457764 -0.5675583 -0.5653229 -0.5675583z" fill-rule="evenodd"/><path fill="#ffffff" d="m330.22336 197.88306c1.1996155 0 2.4035034 0.09967041 3.3398743 0.27723694c0.12515259 0.026031494 0.24594116 0.047668457 0.35379028 0.07369995c-0.10784912 0.025970459 -0.2286377 0.05192566 -0.35379028 0.073654175c-0.93637085 0.1819458 -2.1359558 0.27723694 -3.3398743 0.27723694c-1.1996155 0 -2.3517456 -0.09529114 -3.2881165 -0.27723694c-0.12942505 -0.021728516 -0.24591064 -0.047683716 -0.35379028 -0.073654175c0.10787964 -0.026031494 0.22436523 -0.047668457 0.35379028 -0.07369995c0.93637085 -0.17756653 2.088501 -0.27723694 3.2881165 -0.27723694zm4.6645813 1.2043762l0 1.9105072c-0.41854858 0.1299591 -0.84576416 0.23387146 -1.2772827 0.3119049l-0.047424316 0.008621216c-1.0089111 0.18267822 -2.033722 0.2778473 -3.0629578 0.2778473c-0.044830322 0 -0.08969116 -1.9836426E-4 -0.13452148 -5.340576E-4c-1.1996155 0 -2.4941406 -0.09967041 -3.4305115 -0.27731323c-0.12942505 -0.0259552 -0.24591064 -0.051986694 -0.35379028 -0.07795715l0.0043029785 0c-0.3279419 -0.06500244 -0.6558533 -0.15159607 -0.9751892 -0.25558472l0 -1.8931885c1.0442505 0.3508911 2.7184753 0.5762024 4.617096 0.5762024c1.9029541 0 3.603119 -0.22962952 4.6602783 -0.5805054zm-9.277374 2.9934998c1.0830688 0.35957336 2.830658 0.5935211 4.755188 0.5935211c1.8770447 0 3.4994812 -0.220932 4.5221863 -0.5674896l0 1.6245728c-0.41854858 0.1299591 -0.84576416 0.23394775 -1.2772827 0.30758667c-0.9406433 0.16893005 -2.1402588 0.2642212 -3.3829956 0.2642212c-1.4024048 0 -2.6407776 -0.1212616 -3.6419067 -0.3292389c-0.3279419 -0.064941406 -0.6558533 -0.15159607 -0.9751892 -0.25990295l0 -1.6332703zm9.277374 2.7465973l0 1.8022156c-0.41854858 0.1299591 -0.84576416 0.23394775 -1.2772827 0.3119049l-0.047424316 0.00869751c-0.93637085 0.17762756 -2.1014404 0.27723694 -3.305359 0.27723694c-1.1996155 0 -2.386261 -0.099609375 -3.3226318 -0.27723694c-0.12942505 -0.026031494 -0.24591064 -0.052001953 -0.35379028 -0.07795715l0.0043029785 0c-0.3279419 -0.0650177 -0.6558533 -0.15167236 -0.9751892 -0.255661l0 -1.7848053c1.0442505 0.35087585 2.7184753 0.57618713 4.617096 0.57618713c1.9029541 0 3.603119 -0.22962952 4.6602783 -0.58058167zm-4.6602783 -8.027527c-3.1715698 0 -5.7218018 0.63249207 -5.74765 1.4209747l0 8.612366l0 0.03904724c0 0.7927246 2.5933533 1.4339294 5.7778625 1.4339294c3.1715698 0 5.734741 -0.6325073 5.76062 -1.42099l0 -8.664352l0.0043029785 0c-0.030181885 -0.7841644 -2.6278687 -1.4209747 -5.7951355 -1.4209747z" fill-rule="evenodd"/><path fill="#ffffff" d="m335.31067 199.84557c-0.31497192 0 -0.5652466 0.25558472 -0.5652466 0.5674896c0 0.31628418 0.25027466 0.5718689 0.5652466 0.5718689c0.31072998 0 0.5653076 -0.25558472 0.5653076 -0.5718689c0 -0.3119049 -0.25457764 -0.5674896 -0.5653076 -0.5674896z" fill-rule="evenodd"/><path fill="#ffffff" d="m335.31067 202.7178c-0.31497192 0 -0.5652466 0.25128174 -0.5652466 0.5674896c0 0.3119049 0.25027466 0.5674896 0.5652466 0.5674896c0.31072998 0 0.5653076 -0.25558472 0.5653076 -0.5674896c0 -0.3162079 -0.25457764 -0.5674896 -0.5653076 -0.5674896z" fill-rule="evenodd"/><path fill="#ffffff" d="m335.31067 205.58568c-0.31497192 0 -0.5652466 0.25564575 -0.5652466 0.56755066c0 0.31622314 0.25027466 0.57180786 0.5652466 0.57180786c0.31072998 0 0.5653076 -0.25558472 0.5653076 -0.57180786c0 -0.3119049 -0.25457764 -0.56755066 -0.5653076 -0.56755066z" fill-rule="evenodd"/><path fill="#000000" fill-opacity="0.0" d="m23.55366 -2.6430447l192.44093 0l0 38.771652l-192.44093 0z" fill-rule="evenodd"/><path fill="#4a86e8" d="m33.27241 18.029455l1.4375 -0.125q0.09375 0.859375 0.46875 1.421875q0.375 0.546875 1.15625 0.890625q0.78125 0.328125 1.75 0.328125q0.875 0 1.53125 -0.25q0.671875 -0.265625 0.984375 -0.703125q0.328125 -0.453125 0.328125 -0.984375q0 -0.546875 -0.3125 -0.9375q-0.3125 -0.40625 -1.03125 -0.6875q-0.453125 -0.171875 -2.03125 -0.546875q-1.578125 -0.390625 -2.21875 -0.71874905q-0.8125 -0.4375 -1.21875 -1.0625q-0.40625 -0.640625 -0.40625 -1.4375q0 -0.859375 0.484375 -1.609375q0.5 -0.765625 1.4375 -1.15625q0.953125 -0.390625 2.109375 -0.390625q1.28125 0 2.25 0.421875q0.96875 0.40625 1.484375 1.203125q0.53125 0.796875 0.578125 1.796875l-1.453125 0.109375q-0.125 -1.078125 -0.796875 -1.625q-0.671875 -0.5625 -2.0 -0.5625q-1.375 0 -2.0 0.5q-0.625 0.5 -0.625 1.21875q0 0.609375 0.4375 1.015625q0.4375 0.390625 2.28125 0.8125q1.859375 0.421875 2.546875 0.734375q1.0 0.45312405 1.46875 1.171874q0.484375 0.703125 0.484375 1.625q0 0.90625 -0.53125 1.71875q-0.515625 0.8125 -1.5 1.265625q-0.984375 0.453125 -2.203125 0.453125q-1.5625 0 -2.609375 -0.453125q-1.046875 -0.46875 -1.65625 -1.375q-0.59375 -0.90625 -0.625 -2.0625zm16.421875 0.640625l1.390625 0.1875q-0.234375 1.421875 -1.171875 2.234375q-0.921875 0.8125 -2.28125 0.8125q-1.703125 0 -2.75 -1.109375q-1.03125 -1.125 -1.03125 -3.203125q0 -1.34375 0.4375 -2.343749q0.453125 -1.015625 1.359375 -1.515625q0.921875 -0.5 1.984375 -0.5q1.359375 0 2.21875 0.6875q0.859375 0.671875 1.09375 1.9375l-1.359375 0.20312405q-0.203125 -0.82812405 -0.703125 -1.249999q-0.484375 -0.421875 -1.1875 -0.421875q-1.0625 0 -1.734375 0.765625q-0.65625 0.75 -0.65625 2.406249q0 1.671875 0.640625 2.4375q0.640625 0.75 1.671875 0.75q0.828125 0 1.375 -0.5q0.5625 -0.515625 0.703125 -1.578125zm8.265625 0.375l1.453125 0.171875q-0.34375 1.28125 -1.28125 1.984375q-0.921875 0.703125 -2.359375 0.703125q-1.828125 0 -2.890625 -1.125q-1.0625 -1.125 -1.0625 -3.140625q0 -2.093749 1.078125 -3.249999q1.078125 -1.15625 2.796875 -1.15625q1.65625 0 2.703125 1.140625q1.0625 1.125 1.0625 3.171874q0 0.125 0 0.375l-6.1875 0q0.078125 1.375 0.765625 2.109375q0.703125 0.71875 1.734375 0.71875q0.78125 0 1.328125 -0.40625q0.546875 -0.40625 0.859375 -1.296875zm-4.609375 -2.28125l4.625 0q-0.09375 -1.046874 -0.53125 -1.562499q-0.671875 -0.8125 -1.734375 -0.8125q-0.96875 0 -1.640625 0.65625q-0.65625 0.640625 -0.71875 1.718749zm7.8359375 4.953125l0 -8.296874l1.265625 0l0 1.171875q0.90625 -1.359375 2.6406212 -1.359375q0.75 0 1.375 0.265625q0.625 0.265625 0.9375 0.703125q0.3125 0.4375 0.4375 1.046875q0.078125 0.390625 0.078125 1.359374l0 5.109375l-1.40625 0l0 -5.046875q0 -0.85937405 -0.171875 -1.281249q-0.15625 -0.4375 -0.578125 -0.6875q-0.40625 -0.25 -0.96875 -0.25q-0.9062462 0 -1.5624962 0.578125q-0.640625 0.5625 -0.640625 2.156249l0 4.53125l-1.40625 0zm14.304684 -1.03125q-0.78125 0.671875 -1.5 0.953125q-0.71875 0.265625 -1.546875 0.265625q-1.375 0 -2.109375 -0.671875q-0.734375 -0.671875 -0.734375 -1.703125q0 -0.609375 0.28125 -1.109375q0.28125 -0.515625 0.71875 -0.8125q0.453125 -0.3125 1.015625 -0.46875q0.421875 -0.109375 1.25 -0.203125q1.703125 -0.203125 2.515625 -0.484375q0 -0.296875 0 -0.375q0 -0.85937405 -0.390625 -1.203124q-0.546875 -0.484375 -1.609375 -0.484375q-0.984375 0 -1.46875 0.359375q-0.46875 0.34375 -0.6875 1.21875l-1.375 -0.1875q0.1875 -0.875 0.609375 -1.421875q0.4375 -0.546875 1.25 -0.828125q0.8125 -0.296875 1.875 -0.296875q1.0625 0 1.71875 0.25q0.671875 0.25 0.984375 0.625q0.3125 0.375 0.4375 0.953125q0.078125 0.359375 0.078125 1.296874l0 1.875q0 1.96875 0.078125 2.484375q0.09375 0.515625 0.359375 1.0l-1.46875 0q-0.21875 -0.4375 -0.28125 -1.03125zm-0.109375 -3.140625q-0.765625 0.3125 -2.296875 0.53125q-0.875 0.125 -1.234375 0.28125q-0.359375 0.15625 -0.5625 0.46875q-0.1875 0.296875 -0.1875 0.65625q0 0.5625 0.421875 0.9375q0.4375 0.375 1.25 0.375q0.8125 0 1.4375 -0.34375q0.640625 -0.359375 0.9375 -0.984375q0.234375 -0.46875 0.234375 -1.40625l0 -0.515625zm3.5859375 4.171875l0 -8.296874l1.265625 0l0 1.25q0.484375 -0.875 0.890625 -1.15625q0.40625 -0.28125 0.90625 -0.28125q0.703125 0 1.4375 0.453125l-0.484375 1.296875q-0.515625 -0.296875 -1.03125 -0.296875q-0.453125 0 -0.828125 0.28125q-0.359375 0.265625 -0.515625 0.765625q-0.234375 0.74999905 -0.234375 1.640624l0 4.34375l-1.40625 0zm5.34375 -9.843749l0 -1.609375l1.40625 0l0 1.609375l-1.40625 0zm0 9.843749l0 -8.296874l1.40625 0l0 8.296874l-1.40625 0zm3.0234375 -4.15625q0 -2.296874 1.28125 -3.406249q1.078125 -0.921875 2.609375 -0.921875q1.71875 0 2.796875 1.125q1.09375 1.109375 1.09375 3.093749q0 1.59375 -0.484375 2.515625q-0.484375 0.921875 -1.40625 1.4375q-0.90625 0.5 -2.0 0.5q-1.734375 0 -2.8125 -1.109375q-1.078125 -1.125 -1.078125 -3.234375zm1.453125 0q0 1.59375 0.6875 2.390625q0.703125 0.796875 1.75 0.796875q1.046875 0 1.734375 -0.796875q0.703125 -0.796875 0.703125 -2.4375q0 -1.531249 -0.703125 -2.328124q-0.6875 -0.796875 -1.734375 -0.796875q-1.046875 0 -1.75 0.796875q-0.6875 0.78125 -0.6875 2.374999z" fill-rule="nonzero"/><path fill="#4a86e8" d="m18.432123 12.763807l1.014019 2.5432348l8.220226 0l0 5.7530413l-9.234245 0l0 -8.296276zm0 -1.7743063c-0.6385994 0 -1.1521225 0.6452246 -1.1521225 1.440939l0 8.629643c0 0.7903557 0.5135231 1.4355812 1.1521225 1.4355812l9.234245 0c0.63866425 0 1.1521225 -0.6452255 1.1564217 -1.4355812l0 -10.070582l-2.3085442 0l1.1521225 2.8765202l-1.7303333 0l-1.1564217 -2.8765202l-1.1521244 0l1.1521244 2.8765202l-1.7303352 0l-1.1521225 -2.8765202l-1.1564884 0l1.1564884 2.8765202l-1.7346992 0l-1.1521225 -2.8765202z" fill-rule="evenodd"/><path fill="#ff462b" d="m440.43045 234.40158l74.55118 -57.95276l74.55121 57.95276l-74.55121 57.95276z" fill-rule="evenodd"/><path fill="#000000" d="m490.79803 232.70282l1.53125 0l0 0.90625q0.3125 -0.46875 0.8125 -0.75q0.515625 -0.296875 1.140625 -0.296875q1.078125 0 1.828125 0.84375q0.765625 0.84375 0.765625 2.375q0 1.546875 -0.765625 2.421875q-0.765625 0.859375 -1.84375 0.859375q-0.515625 0 -0.9375 -0.203125q-0.421875 -0.203125 -0.875 -0.703125l0 3.140625l-1.65625 0l0 -8.59375zm1.625 3.0q0 1.046875 0.421875 1.546875q0.421875 0.5 1.015625 0.5q0.578125 0 0.953125 -0.453125q0.375 -0.46875 0.375 -1.515625q0 -0.96875 -0.390625 -1.4375q-0.390625 -0.484375 -0.96875 -0.484375q-0.609375 0 -1.015625 0.46875q-0.390625 0.46875 -0.390625 1.375zm5.751953 3.21875l0 -8.59375l1.65625 0l0 8.59375l-1.65625 0zm4.5683594 -4.328125l-1.5 -0.265625q0.25 -0.90625 0.859375 -1.328125q0.625 -0.4375 1.84375 -0.4375q1.09375 0 1.625 0.265625q0.546875 0.25 0.765625 0.65625q0.21875 0.390625 0.21875 1.46875l-0.015625 1.921875q0 0.828125 0.078125 1.21875q0.078125 0.375 0.296875 0.828125l-1.625 0q-0.0625 -0.171875 -0.15625 -0.484375q-0.046875 -0.15625 -0.0625 -0.203125q-0.421875 0.421875 -0.90625 0.625q-0.46875 0.203125 -1.015625 0.203125q-0.96875 0 -1.53125 -0.515625q-0.546875 -0.53125 -0.546875 -1.328125q0 -0.53125 0.25 -0.9375q0.265625 -0.40625 0.71875 -0.625q0.453125 -0.234375 1.3125 -0.390625q1.140625 -0.21875 1.59375 -0.40625l0 -0.15625q0 -0.484375 -0.234375 -0.6875q-0.234375 -0.203125 -0.890625 -0.203125q-0.4375 0 -0.6875 0.171875q-0.234375 0.171875 -0.390625 0.609375zm2.203125 1.34375q-0.3125 0.09375 -1.0 0.25q-0.6875 0.140625 -0.90625 0.28125q-0.3125 0.234375 -0.3125 0.578125q0 0.34375 0.25 0.609375q0.265625 0.25 0.65625 0.25q0.453125 0 0.859375 -0.296875q0.296875 -0.21875 0.390625 -0.546875q0.0625 -0.203125 0.0625 -0.796875l0 -0.328125zm8.892578 2.984375l-1.640625 0l0 -3.171875q0 -1.015625 -0.109375 -1.3125q-0.09375 -0.296875 -0.34375 -0.453125q-0.234375 -0.171875 -0.5625 -0.171875q-0.4375 0 -0.78125 0.234375q-0.328125 0.234375 -0.453125 0.625q-0.125 0.390625 -0.125 1.4375l0 2.8125l-1.65625 0l0 -6.21875l1.53125 0l0 0.90625q0.8125 -1.046875 2.0625 -1.046875q0.53125 0 0.984375 0.203125q0.453125 0.1875 0.6875 0.5q0.234375 0.296875 0.3125 0.6875q0.09375 0.375 0.09375 1.09375l0 3.875zm7.330078 0l-1.640625 0l0 -3.171875q0 -1.015625 -0.109375 -1.3125q-0.09375 -0.296875 -0.34375 -0.453125q-0.234375 -0.171875 -0.5625 -0.171875q-0.4375 0 -0.78125 0.234375q-0.328125 0.234375 -0.453125 0.625q-0.125 0.390625 -0.125 1.4375l0 2.8125l-1.65625 0l0 -6.21875l1.53125 0l0 0.90625q0.8125 -1.046875 2.0625 -1.046875q0.53125 0 0.984375 0.203125q0.453125 0.1875 0.6875 0.5q0.234375 0.296875 0.3125 0.6875q0.09375 0.375 0.09375 1.09375l0 3.875zm1.6738281 -7.0625l0 -1.53125l1.65625 0l0 1.53125l-1.65625 0zm0 7.0625l0 -6.21875l1.65625 0l0 6.21875l-1.65625 0zm8.990234 0l-1.640625 0l0 -3.171875q0 -1.015625 -0.109375 -1.3125q-0.09375 -0.296875 -0.34375 -0.453125q-0.234375 -0.171875 -0.5625 -0.171875q-0.4375 0 -0.78125 0.234375q-0.328125 0.234375 -0.453125 0.625q-0.125 0.390625 -0.125 1.4375l0 2.8125l-1.65625 0l0 -6.21875l1.53125 0l0 0.90625q0.8125 -1.046875 2.0625 -1.046875q0.53125 0 0.984375 0.203125q0.453125 0.1875 0.6875 0.5q0.234375 0.296875 0.3125 0.6875q0.09375 0.375 0.09375 1.09375l0 3.875zm1.5175781 0.40625l1.890625 0.234375q0.046875 0.328125 0.21875 0.453125q0.234375 0.171875 0.734375 0.171875q0.640625 0 0.96875 -0.1875q0.21875 -0.140625 0.328125 -0.421875q0.078125 -0.203125 0.078125 -0.75l0 -0.921875q-0.75 1.015625 -1.875 1.015625q-1.25 0 -1.984375 -1.0625q-0.5625 -0.84375 -0.5625 -2.078125q0 -1.578125 0.75 -2.390625q0.75 -0.828125 1.875 -0.828125q1.140625 0 1.890625 1.015625l0 -0.875l1.546875 0l0 5.578125q0 1.109375 -0.1875 1.640625q-0.171875 0.546875 -0.5 0.859375q-0.328125 0.3125 -0.875 0.484375q-0.546875 0.1875 -1.390625 0.1875q-1.578125 0 -2.25 -0.546875q-0.65625 -0.546875 -0.65625 -1.375q0 -0.078125 0 -0.203125zm1.484375 -3.640625q0 0.984375 0.375 1.453125q0.390625 0.453125 0.953125 0.453125q0.59375 0 1.015625 -0.46875q0.421875 -0.484375 0.421875 -1.40625q0 -0.96875 -0.40625 -1.4375q-0.390625 -0.46875 -1.0 -0.46875q-0.59375 0 -0.984375 0.46875q-0.375 0.453125 -0.375 1.40625z" fill-rule="nonzero"/><path fill="#000000" fill-opacity="0.0" d="m421.5643 234.40158l18.86615 0" fill-rule="evenodd"/><path stroke="#08a87d" stroke-width="2.0" stroke-linejoin="round" stroke-linecap="butt" d="m421.5643 234.40158l6.86615 0" fill-rule="evenodd"/><path fill="#08a87d" stroke="#08a87d" stroke-width="2.0" stroke-linecap="butt" d="m428.43045 237.70503l9.076202 -3.3034515l-9.076202 -3.3034668z" fill-rule="evenodd"/><path fill="#283282" d="m463.6273 54.44357l102.70865 0l0 71.99446l-14.399231 14.399231l-88.30942 0z" fill-rule="evenodd"/><path fill="#1f2767" d="m551.9367 140.83727l2.8798828 -11.519379l11.519348 -2.8798523z" fill-rule="evenodd"/><path fill="#000000" fill-opacity="0.0" d="m551.9367 140.83727l2.8798828 -11.519379l11.519348 -2.8798523l-14.399231 14.399231l-88.30942 0l0 -86.39369l102.70865 0l0 71.99446" fill-rule="evenodd"/><path fill="#ffffff" d="m496.3459 99.80455l1.671875 0.53125q-0.375 1.40625 -1.28125 2.09375q-0.90625 0.671875 -2.28125 0.671875q-1.71875 0 -2.828125 -1.15625q-1.09375 -1.171875 -1.09375 -3.203125q0 -2.140625 1.109375 -3.328125q1.109375 -1.1875 2.921875 -1.1875q1.578125 0 2.5625 0.921875q0.578125 0.5625 0.875 1.59375l-1.71875 0.40625q-0.15625 -0.671875 -0.640625 -1.046875q-0.484375 -0.390625 -1.171875 -0.390625q-0.953125 0 -1.546875 0.6875q-0.59375 0.671875 -0.59375 2.21875q0 1.625 0.578125 2.3125q0.59375 0.6875 1.53125 0.6875q0.6875 0 1.1875 -0.4375q0.5 -0.4375 0.71875 -1.375zm4.3847656 -1.171875l-1.5 -0.265625q0.25 -0.90625 0.859375 -1.328125q0.625 -0.4375 1.84375 -0.4375q1.09375 0 1.625 0.265625q0.546875 0.25 0.765625 0.65625q0.21875 0.390625 0.21875 1.46875l-0.015625 1.921875q0 0.828125 0.078125 1.21875q0.078125 0.375 0.296875 0.828125l-1.625 0q-0.0625 -0.171875 -0.15625 -0.484375q-0.046875 -0.15625 -0.0625 -0.203125q-0.421875 0.421875 -0.90625 0.625q-0.46875 0.203125 -1.015625 0.203125q-0.96875 0 -1.53125 -0.515625q-0.546875 -0.53125 -0.546875 -1.328125q0 -0.53125 0.25 -0.9375q0.265625 -0.40625 0.71875 -0.625q0.453125 -0.234375 1.3125 -0.390625q1.140625 -0.21875 1.59375 -0.40625l0 -0.15625q0 -0.484375 -0.234375 -0.6875q-0.234375 -0.203125 -0.890625 -0.203125q-0.4375 0 -0.6875 0.171875q-0.234375 0.171875 -0.390625 0.609375zm2.203125 1.34375q-0.3125 0.09375 -1.0 0.25q-0.6875 0.140625 -0.90625 0.28125q-0.3125 0.234375 -0.3125 0.578125q0 0.34375 0.25 0.609375q0.265625 0.25 0.65625 0.25q0.453125 0 0.859375 -0.296875q0.296875 -0.21875 0.390625 -0.546875q0.0625 -0.203125 0.0625 -0.796875l0 -0.328125zm3.1894531 -3.234375l1.53125 0l0 0.90625q0.3125 -0.46875 0.8125 -0.75q0.515625 -0.296875 1.140625 -0.296875q1.078125 0 1.828125 0.84375q0.765625 0.84375 0.765625 2.375q0 1.546875 -0.765625 2.421875q-0.765625 0.859375 -1.84375 0.859375q-0.515625 0 -0.9375 -0.203125q-0.421875 -0.203125 -0.875 -0.703125l0 3.140625l-1.65625 0l0 -8.59375zm1.625 3.0q0 1.046875 0.421875 1.546875q0.421875 0.5 1.015625 0.5q0.578125 0 0.953125 -0.453125q0.375 -0.46875 0.375 -1.515625q0 -0.96875 -0.390625 -1.4375q-0.390625 -0.484375 -0.96875 -0.484375q-0.609375 0 -1.015625 0.46875q-0.390625 0.46875 -0.390625 1.375zm6.986328 -1.109375l-1.5 -0.265625q0.25 -0.90625 0.859375 -1.328125q0.625 -0.4375 1.84375 -0.4375q1.09375 0 1.625 0.265625q0.546875 0.25 0.765625 0.65625q0.21875 0.390625 0.21875 1.46875l-0.015625 1.921875q0 0.828125 0.078125 1.21875q0.078125 0.375 0.296875 0.828125l-1.625 0q-0.0625 -0.171875 -0.15625 -0.484375q-0.046875 -0.15625 -0.0625 -0.203125q-0.421875 0.421875 -0.90625 0.625q-0.46875 0.203125 -1.015625 0.203125q-0.96875 0 -1.53125 -0.515625q-0.546875 -0.53125 -0.546875 -1.328125q0 -0.53125 0.25 -0.9375q0.265625 -0.40625 0.71875 -0.625q0.453125 -0.234375 1.3125 -0.390625q1.140625 -0.21875 1.59375 -0.40625l0 -0.15625q0 -0.484375 -0.234375 -0.6875q-0.234375 -0.203125 -0.890625 -0.203125q-0.4375 0 -0.6875 0.171875q-0.234375 0.171875 -0.390625 0.609375zm2.203125 1.34375q-0.3125 0.09375 -1.0 0.25q-0.6875 0.140625 -0.90625 0.28125q-0.3125 0.234375 -0.3125 0.578125q0 0.34375 0.25 0.609375q0.265625 0.25 0.65625 0.25q0.453125 0 0.859375 -0.296875q0.296875 -0.21875 0.390625 -0.546875q0.0625 -0.203125 0.0625 -0.796875l0 -0.328125zm8.658203 -1.40625l-1.609375 0.296875q-0.09375 -0.484375 -0.390625 -0.71875q-0.28125 -0.25 -0.734375 -0.25q-0.625 0 -1.0 0.421875q-0.359375 0.421875 -0.359375 1.421875q0 1.109375 0.375 1.5625q0.375 0.453125 1.0 0.453125q0.46875 0 0.765625 -0.265625q0.296875 -0.265625 0.421875 -0.921875l1.625 0.28125q-0.25 1.109375 -0.96875 1.6875q-0.71875 0.5625 -1.921875 0.5625q-1.359375 0 -2.171875 -0.859375q-0.8125 -0.859375 -0.8125 -2.390625q0 -1.53125 0.8125 -2.390625q0.8125 -0.859375 2.203125 -0.859375q1.140625 0 1.8125 0.484375q0.671875 0.484375 0.953125 1.484375zm1.2519531 -2.671875l0 -1.53125l1.65625 0l0 1.53125l-1.65625 0zm0 7.0625l0 -6.21875l1.65625 0l0 6.21875l-1.65625 0zm6.1933594 -6.21875l0 1.3125l-1.125 0l0 2.5q0 0.765625 0.03125 0.890625q0.03125 0.125 0.140625 0.21875q0.125 0.078125 0.28125 0.078125q0.234375 0 0.65625 -0.171875l0.140625 1.28125q-0.5625 0.25 -1.296875 0.25q-0.4375 0 -0.796875 -0.140625q-0.359375 -0.15625 -0.53125 -0.390625q-0.15625 -0.25 -0.234375 -0.640625q-0.046875 -0.296875 -0.046875 -1.171875l0 -2.703125l-0.75 0l0 -1.3125l0.75 0l0 -1.234375l1.65625 -0.96875l0 2.203125l1.125 0zm0.35546875 0l1.75 0l1.5 4.40625l1.453125 -4.40625l1.703125 0l-2.203125 5.984375l-0.390625 1.078125q-0.21875 0.546875 -0.421875 0.828125q-0.1875 0.296875 -0.453125 0.46875q-0.25 0.1875 -0.625 0.28125q-0.359375 0.109375 -0.828125 0.109375q-0.484375 0 -0.9375 -0.109375l-0.140625 -1.28125q0.390625 0.078125 0.6875 0.078125q0.578125 0 0.84375 -0.34375q0.28125 -0.328125 0.4375 -0.859375l-2.375 -6.234375z" fill-rule="nonzero"/><path fill="#283282" d="m613.1076 191.18898l109.48035 0l0 72.020706l-14.404541 14.40448l-95.075806 0z" fill-rule="evenodd"/><path fill="#1f2767" d="m708.1834 277.61417l2.8809204 -11.52359l11.523621 -2.88089z" fill-rule="evenodd"/><path fill="#000000" fill-opacity="0.0" d="m708.1834 277.61417l2.8809204 -11.52359l11.523621 -2.88089l-14.404541 14.40448l-95.075806 0l0 -86.425186l109.48035 0l0 72.020706" fill-rule="evenodd"/><path fill="#ffffff" d="m637.0587 235.21933l0 -8.59375l2.78125 0q1.578125 0 2.0625 0.125q0.734375 0.203125 1.234375 0.859375q0.5 0.640625 0.5 1.65625q0 0.796875 -0.296875 1.34375q-0.28125 0.53125 -0.71875 0.84375q-0.4375 0.296875 -0.90625 0.40625q-0.609375 0.125 -1.796875 0.125l-1.125 0l0 3.234375l-1.734375 0zm1.734375 -7.140625l0 2.4375l0.953125 0q1.015625 0 1.359375 -0.125q0.359375 -0.140625 0.546875 -0.421875q0.203125 -0.296875 0.203125 -0.671875q0 -0.46875 -0.28125 -0.765625q-0.28125 -0.3125 -0.703125 -0.390625q-0.296875 -0.0625 -1.234375 -0.0625l-0.84375 0zm7.8320312 7.140625l-1.640625 0l0 -6.21875l1.53125 0l0 0.875q0.390625 -0.625 0.703125 -0.8125q0.3125 -0.203125 0.703125 -0.203125q0.5625 0 1.09375 0.3125l-0.515625 1.421875q-0.421875 -0.265625 -0.765625 -0.265625q-0.359375 0 -0.59375 0.203125q-0.234375 0.1875 -0.375 0.6875q-0.140625 0.484375 -0.140625 2.078125l0 1.921875zm2.7167969 -3.203125q0 -0.8125 0.40625 -1.578125q0.40625 -0.78125 1.140625 -1.171875q0.734375 -0.40625 1.65625 -0.40625q1.40625 0 2.3125 0.921875q0.90625 0.90625 0.90625 2.3125q0 1.40625 -0.921875 2.34375q-0.90625 0.921875 -2.28125 0.921875q-0.859375 0 -1.640625 -0.390625q-0.765625 -0.390625 -1.171875 -1.125q-0.40625 -0.75 -0.40625 -1.828125zm1.6875 0.09375q0 0.921875 0.4375 1.421875q0.4375 0.484375 1.078125 0.484375q0.65625 0 1.078125 -0.484375q0.4375 -0.5 0.4375 -1.4375q0 -0.90625 -0.4375 -1.390625q-0.421875 -0.5 -1.078125 -0.5q-0.640625 0 -1.078125 0.5q-0.4375 0.484375 -0.4375 1.40625zm11.720703 3.109375l-1.515625 0l0 -0.921875q-0.390625 0.546875 -0.90625 0.8125q-0.515625 0.25 -1.046875 0.25q-1.078125 0 -1.84375 -0.859375q-0.75 -0.875 -0.75 -2.421875q0 -1.578125 0.734375 -2.390625q0.75 -0.828125 1.890625 -0.828125q1.03125 0 1.796875 0.859375l0 -3.09375l1.640625 0l0 8.59375zm-4.390625 -3.25q0 1.0 0.28125 1.4375q0.390625 0.65625 1.109375 0.65625q0.5625 0 0.953125 -0.484375q0.40625 -0.484375 0.40625 -1.453125q0 -1.0625 -0.390625 -1.53125q-0.375 -0.484375 -0.984375 -0.484375q-0.578125 0 -0.984375 0.46875q-0.390625 0.46875 -0.390625 1.390625zm10.111328 3.25l0 -0.9375q-0.328125 0.5 -0.890625 0.796875q-0.546875 0.28125 -1.171875 0.28125q-0.625 0 -1.125 -0.265625q-0.5 -0.28125 -0.71875 -0.78125q-0.21875 -0.5 -0.21875 -1.375l0 -3.9375l1.640625 0l0 2.859375q0 1.3125 0.09375 1.609375q0.09375 0.296875 0.328125 0.46875q0.25 0.171875 0.609375 0.171875q0.421875 0 0.75 -0.234375q0.34375 -0.234375 0.46875 -0.578125q0.125 -0.34375 0.125 -1.671875l0 -2.625l1.640625 0l0 6.21875l-1.53125 0zm8.658203 -4.390625l-1.609375 0.296875q-0.09375 -0.484375 -0.390625 -0.71875q-0.28125 -0.25 -0.734375 -0.25q-0.625 0 -1.0 0.421875q-0.359375 0.421875 -0.359375 1.421875q0 1.109375 0.375 1.5625q0.375 0.453125 1.0 0.453125q0.46875 0 0.765625 -0.265625q0.296875 -0.265625 0.421875 -0.921875l1.625 0.28125q-0.25 1.109375 -0.96875 1.6875q-0.71875 0.5625 -1.921875 0.5625q-1.359375 0 -2.171875 -0.859375q-0.8125 -0.859375 -0.8125 -2.390625q0 -1.53125 0.8125 -2.390625q0.8125 -0.859375 2.203125 -0.859375q1.140625 0 1.8125 0.484375q0.671875 0.484375 0.953125 1.484375zm4.111328 -1.828125l0 1.3125l-1.125 0l0 2.5q0 0.765625 0.03125 0.890625q0.03125 0.125 0.140625 0.21875q0.125 0.078125 0.28125 0.078125q0.234375 0 0.65625 -0.171875l0.140625 1.28125q-0.5625 0.25 -1.296875 0.25q-0.4375 0 -0.796875 -0.140625q-0.359375 -0.15625 -0.53125 -0.390625q-0.15625 -0.25 -0.234375 -0.640625q-0.046875 -0.296875 -0.046875 -1.171875l0 -2.703125l-0.75 0l0 -1.3125l0.75 0l0 -1.234375l1.65625 -0.96875l0 2.203125l1.125 0zm1.1367188 -0.84375l0 -1.53125l1.65625 0l0 1.53125l-1.65625 0zm0 7.0625l0 -6.21875l1.65625 0l0 6.21875l-1.65625 0zm2.9589844 -3.203125q0 -0.8125 0.40625 -1.578125q0.40625 -0.78125 1.140625 -1.171875q0.734375 -0.40625 1.65625 -0.40625q1.40625 0 2.3125 0.921875q0.90625 0.90625 0.90625 2.3125q0 1.40625 -0.921875 2.34375q-0.90625 0.921875 -2.28125 0.921875q-0.859375 0 -1.640625 -0.390625q-0.765625 -0.390625 -1.171875 -1.125q-0.40625 -0.75 -0.40625 -1.828125zm1.6875 0.09375q0 0.921875 0.4375 1.421875q0.4375 0.484375 1.078125 0.484375q0.65625 0 1.078125 -0.484375q0.4375 -0.5 0.4375 -1.4375q0 -0.90625 -0.4375 -1.390625q-0.421875 -0.5 -1.078125 -0.5q-0.640625 0 -1.078125 0.5q-0.4375 0.484375 -0.4375 1.40625zm11.673828 3.109375l-1.640625 0l0 -3.171875q0 -1.015625 -0.109375 -1.3125q-0.09375 -0.296875 -0.34375 -0.453125q-0.234375 -0.171875 -0.5625 -0.171875q-0.4375 0 -0.78125 0.234375q-0.328125 0.234375 -0.453125 0.625q-0.125 0.390625 -0.125 1.4375l0 2.8125l-1.65625 0l0 -6.21875l1.53125 0l0 0.90625q0.8125 -1.046875 2.0625 -1.046875q0.53125 0 0.984375 0.203125q0.453125 0.1875 0.6875 0.5q0.234375 0.296875 0.3125 0.6875q0.09375 0.375 0.09375 1.09375l0 3.875z" fill-rule="nonzero"/><path fill="#ffffff" d="m649.6583 246.0162q0 -0.8125 0.40625 -1.578125q0.40625 -0.78125 1.140625 -1.171875q0.734375 -0.40625 1.65625 -0.40625q1.40625 0 2.3125 0.921875q0.90625 0.90625 0.90625 2.3125q0 1.40625 -0.921875 2.34375q-0.90625 0.921875 -2.28125 0.921875q-0.859375 0 -1.640625 -0.390625q-0.765625 -0.390625 -1.171875 -1.125q-0.40625 -0.75 -0.40625 -1.828125zm1.6875 0.09375q0 0.921875 0.4375 1.421875q0.4375 0.484375 1.078125 0.484375q0.65625 0 1.078125 -0.484375q0.4375 -0.5 0.4375 -1.4375q0 -0.90625 -0.4375 -1.390625q-0.421875 -0.5 -1.078125 -0.5q-0.640625 0 -1.078125 0.5q-0.4375 0.484375 -0.4375 1.40625zm7.595703 3.109375l-1.640625 0l0 -6.21875l1.53125 0l0 0.875q0.390625 -0.625 0.703125 -0.8125q0.3125 -0.203125 0.703125 -0.203125q0.5625 0 1.09375 0.3125l-0.515625 1.421875q-0.421875 -0.265625 -0.765625 -0.265625q-0.359375 0 -0.59375 0.203125q-0.234375 0.1875 -0.375 0.6875q-0.140625 0.484375 -0.140625 2.078125l0 1.921875zm8.794922 0l-1.515625 0l0 -0.921875q-0.390625 0.546875 -0.90625 0.8125q-0.515625 0.25 -1.046875 0.25q-1.078125 0 -1.84375 -0.859375q-0.75 -0.875 -0.75 -2.421875q0 -1.578125 0.734375 -2.390625q0.75 -0.828125 1.890625 -0.828125q1.03125 0 1.796875 0.859375l0 -3.09375l1.640625 0l0 8.59375zm-4.390625 -3.25q0 1.0 0.28125 1.4375q0.390625 0.65625 1.109375 0.65625q0.5625 0 0.953125 -0.484375q0.40625 -0.484375 0.40625 -1.453125q0 -1.0625 -0.390625 -1.53125q-0.375 -0.484375 -0.984375 -0.484375q-0.578125 0 -0.984375 0.46875q-0.390625 0.46875 -0.390625 1.390625zm9.626953 1.265625l1.640625 0.28125q-0.3125 0.90625 -1.0 1.375q-0.6875 0.46875 -1.703125 0.46875q-1.625 0 -2.40625 -1.0625q-0.625 -0.84375 -0.625 -2.140625q0 -1.546875 0.8125 -2.421875q0.8125 -0.875 2.046875 -0.875q1.390625 0 2.1875 0.921875q0.8125 0.90625 0.765625 2.796875l-4.125 0q0.03125 0.734375 0.40625 1.140625q0.375 0.40625 0.953125 0.40625q0.375 0 0.640625 -0.203125q0.265625 -0.21875 0.40625 -0.6875zm0.09375 -1.65625q-0.015625 -0.71875 -0.375 -1.09375q-0.34375 -0.375 -0.859375 -0.375q-0.53125 0 -0.890625 0.390625q-0.34375 0.40625 -0.34375 1.078125l2.46875 0zm4.548828 3.640625l-1.640625 0l0 -6.21875l1.53125 0l0 0.875q0.390625 -0.625 0.703125 -0.8125q0.3125 -0.203125 0.703125 -0.203125q0.5625 0 1.09375 0.3125l-0.515625 1.421875q-0.421875 -0.265625 -0.765625 -0.265625q-0.359375 0 -0.59375 0.203125q-0.234375 0.1875 -0.375 0.6875q-0.140625 0.484375 -0.140625 2.078125l0 1.921875zm2.5136719 -1.78125l1.65625 -0.25q0.109375 0.484375 0.421875 0.734375q0.328125 0.25 0.90625 0.25q0.640625 0 0.953125 -0.234375q0.21875 -0.171875 0.21875 -0.4375q0 -0.1875 -0.109375 -0.3125q-0.125 -0.125 -0.546875 -0.21875q-2.0 -0.4375 -2.53125 -0.796875q-0.734375 -0.515625 -0.734375 -1.40625q0 -0.8125 0.625 -1.359375q0.640625 -0.546875 1.984375 -0.546875q1.28125 0 1.90625 0.421875q0.625 0.40625 0.859375 1.21875l-1.5625 0.28125q-0.09375 -0.359375 -0.375 -0.546875q-0.28125 -0.203125 -0.796875 -0.203125q-0.640625 0 -0.921875 0.1875q-0.1875 0.125 -0.1875 0.328125q0 0.1875 0.15625 0.3125q0.21875 0.15625 1.53125 0.453125q1.328125 0.296875 1.84375 0.734375q0.515625 0.4375 0.515625 1.21875q0 0.859375 -0.71875 1.484375q-0.703125 0.609375 -2.109375 0.609375q-1.265625 0 -2.015625 -0.515625q-0.734375 -0.515625 -0.96875 -1.40625z" fill-rule="nonzero"/><path fill="#000000" fill-opacity="0.0" d="m514.9816 140.83727l0 35.622055" fill-rule="evenodd"/><path stroke="#08a87d" stroke-width="2.0" stroke-linejoin="round" stroke-linecap="butt" d="m514.9816 140.83727l0 23.622055" fill-rule="evenodd"/><path fill="#08a87d" stroke="#08a87d" stroke-width="2.0" stroke-linecap="butt" d="m511.67816 164.45932l3.3034668 9.076187l3.3034668 -9.076187z" fill-rule="evenodd"/><path fill="#000000" fill-opacity="0.0" d="m589.53284 234.40158l23.590515 0" fill-rule="evenodd"/><path stroke="#08a87d" stroke-width="2.0" stroke-linejoin="round" stroke-linecap="butt" d="m589.53284 234.40158l11.590515 0" fill-rule="evenodd"/><path fill="#08a87d" stroke="#08a87d" stroke-width="2.0" stroke-linecap="butt" d="m601.12335 237.70503l9.076233 -3.3034515l-9.076233 -3.3034668z" fill-rule="evenodd"/><path fill="#140a1e" d="m519.52985 192.21194l-5.2924194 5.7463837l-1.4951782 -1.624649l-0.7476196 0.8080139l2.2427979 2.4369354l6.039978 -6.562958l-0.7475586 -0.8037262zm-4.52594 -1.0229645c-0.006286621 0 -0.012573242 6.1035156E-5 -0.018859863 6.1035156E-5c-0.006164551 0 -0.012207031 0 -0.018310547 0c-2.3065186 0 -4.350464 1.622345 -5.0526733 4.014282c-0.70010376 2.3982697 0.11077881 5.0157166 2.0054626 6.464142c0.9172058 0.6990509 1.9855042 1.0476227 3.0523376 1.0476227c1.1369629 0 2.2721558 -0.395813 3.2210083 -1.1851807c1.8392944 -1.5301056 2.5552979 -4.177597 1.7641602 -6.5414734l0 0l-0.85046387 0.92837524c0.39556885 1.9039764 -0.35595703 3.8724365 -1.8788452 4.908264c-0.68969727 0.47103882 -1.468689 0.70318604 -2.2451172 0.70318604c-0.93774414 0 -1.8716431 -0.33868408 -2.6398926 -1.0040588c-1.4041748 -1.2206116 -1.946106 -3.2707672 -1.3527832 -5.114609c0.5973511 -1.84375 2.1992798 -3.072998 3.9951172 -3.072998c0.8029175 0 1.5900879 0.24928284 2.2664795 0.7177582l0.7593994 -0.8252106c-0.8808594 -0.6751251 -1.9298096 -1.0401611 -3.007019 -1.0401611z" fill-rule="evenodd"/><path fill="#ffffff" d="m478.06335 62.753426c1.1996155 0 2.403534 0.099674225 3.3399048 0.27723694c0.12512207 0.026031494 0.24591064 0.0476799 0.35379028 0.073711395c-0.10787964 0.02596283 -0.22866821 0.05192566 -0.35379028 0.07364273c-0.93637085 0.1819458 -2.1359863 0.27723694 -3.3399048 0.27723694c-1.1996155 0 -2.3517456 -0.09529114 -3.2881165 -0.27723694c-0.12942505 -0.021717072 -0.24591064 -0.0476799 -0.35379028 -0.07364273c0.10787964 -0.026031494 0.22436523 -0.0476799 0.35379028 -0.073711395c0.93637085 -0.17756271 2.088501 -0.27723694 3.2881165 -0.27723694zm4.6645813 1.2043724l0 1.9105186c-0.41854858 0.12995148 -0.84576416 0.23387146 -1.2772827 0.31189728l-0.0473938 0.008636475c-1.0089417 0.18267822 -2.0337524 0.27783203 -3.0629578 0.27783203c-0.04486084 0 -0.08969116 -1.9836426E-4 -0.134552 -5.340576E-4c-1.1996155 0 -2.4941406 -0.09967041 -3.4305115 -0.27729797c-0.12942505 -0.02596283 -0.24591064 -0.051994324 -0.35379028 -0.07795715l0.0043029785 0c-0.3279419 -0.06501007 -0.6558533 -0.1516037 -0.9751892 -0.25559235l0 -1.8931847c1.0442505 0.35087967 2.7184753 0.57619095 4.617096 0.57619095c1.9029541 0 3.603119 -0.22962952 4.6602783 -0.5805092zm-9.277374 2.9935036c1.0830688 0.359581 2.830658 0.5935211 4.755188 0.5935211c1.8770447 0 3.4995117 -0.22092438 4.5221863 -0.5674896l0 1.6245804c-0.41854858 0.12995148 -0.84576416 0.23394012 -1.2772827 0.30757904c-0.9406433 0.16893768 -2.1402588 0.2642212 -3.3829956 0.2642212c-1.4024048 0 -2.6407776 -0.12125397 -3.6419067 -0.32923126c-0.3279419 -0.064941406 -0.6558533 -0.15159607 -0.9751892 -0.25990295l0 -1.6332779zm9.277374 2.7466125l0 1.802208c-0.41854858 0.12995148 -0.84576416 0.23394012 -1.2772827 0.31189728l-0.0473938 0.008705139c-0.93637085 0.17762756 -2.101471 0.27723694 -3.3053894 0.27723694c-1.1996155 0 -2.386261 -0.099609375 -3.3226318 -0.27723694c-0.12942505 -0.026031494 -0.24591064 -0.051994324 -0.35379028 -0.07796478l0.0043029785 0c-0.3279419 -0.06501007 -0.6558533 -0.15166473 -0.9751892 -0.25565338l0 -1.7848129c1.0442505 0.35088348 2.7184753 0.57618713 4.617096 0.57618713c1.9029541 0 3.603119 -0.22962189 4.6602783 -0.5805664zm-4.6602783 -8.027538c-3.1715698 0 -5.7218018 0.6324997 -5.74765 1.4209824l0 8.612362l0 0.03903961c0 0.79273987 2.5933533 1.4339371 5.7778625 1.4339371c3.1715698 0 5.7347717 -0.6324997 5.76062 -1.4209824l0 -8.664356l0.0043029785 0c-0.030151367 -0.78416824 -2.6278687 -1.4209824 -5.7951355 -1.4209824z" fill-rule="evenodd"/><path fill="#ffffff" d="m483.15067 64.715935c-0.31497192 0 -0.5652466 0.25559235 -0.5652466 0.5674896c0 0.31628418 0.25027466 0.5718765 0.5652466 0.5718765c0.31072998 0 0.5653076 -0.25559235 0.5653076 -0.5718765c0 -0.31189728 -0.25457764 -0.5674896 -0.5653076 -0.5674896z" fill-rule="evenodd"/><path fill="#ffffff" d="m483.15067 67.58818c-0.31497192 0 -0.5652466 0.2512741 -0.5652466 0.56749725c0 0.31189728 0.25027466 0.5674896 0.5652466 0.5674896c0.31072998 0 0.5653076 -0.25559235 0.5653076 -0.5674896c0 -0.31622314 -0.25457764 -0.56749725 -0.5653076 -0.56749725z" fill-rule="evenodd"/><path fill="#ffffff" d="m483.15067 70.45605c-0.31497192 0 -0.5652466 0.255661 -0.5652466 0.5675583c0 0.31621552 0.25027466 0.57180786 0.5652466 0.57180786c0.31072998 0 0.5653076 -0.25559235 0.5653076 -0.57180786c0 -0.31189728 -0.25457764 -0.5675583 -0.5653076 -0.5675583z" fill-rule="evenodd"/><path fill="#ffffff" d="m627.82336 198.14188c1.199585 0 2.4035034 0.09967041 3.3399048 0.27723694c0.12512207 0.026031494 0.24591064 0.047683716 0.35375977 0.07371521c-0.10784912 0.0259552 -0.2286377 0.05192566 -0.35375977 0.073638916c-0.93640137 0.1819458 -2.1359863 0.27723694 -3.3399048 0.27723694c-1.199646 0 -2.3517456 -0.09529114 -3.288147 -0.27723694c-0.12939453 -0.021713257 -0.24591064 -0.047683716 -0.35375977 -0.073638916c0.10784912 -0.026031494 0.22436523 -0.047683716 0.35375977 -0.07371521c0.93640137 -0.17756653 2.088501 -0.27723694 3.288147 -0.27723694zm4.664551 1.2043762l0 1.9105072c-0.41851807 0.1299591 -0.84576416 0.23388672 -1.2772217 0.3119049l-0.047424316 0.008636475c-1.0089722 0.18267822 -2.0337524 0.27783203 -3.0629883 0.27783203c-0.04486084 0 -0.089660645 -1.9836426E-4 -0.13452148 -5.340576E-4c-1.199646 0 -2.4941406 -0.09967041 -3.430542 -0.27729797c-0.12939453 -0.025970459 -0.24591064 -0.052001953 -0.35375977 -0.07795715l0.004272461 0c-0.32788086 -0.0650177 -0.65582275 -0.15161133 -0.9751587 -0.25559998l0 -1.8931732c1.0442505 0.35087585 2.7185059 0.57618713 4.6170654 0.57618713c1.9029541 0 3.6031494 -0.22962952 4.6602783 -0.5805054zm-9.277344 2.9934998c1.0830688 0.35957336 2.8306274 0.5935211 4.755188 0.5935211c1.8770142 0 3.4995117 -0.220932 4.522156 -0.5674896l0 1.6245728c-0.41851807 0.1299591 -0.84576416 0.23394775 -1.2772217 0.30758667c-0.9406738 0.16893005 -2.1403198 0.2642212 -3.3830566 0.2642212c-1.4024048 0 -2.640747 -0.12124634 -3.6419067 -0.32922363c-0.32788086 -0.064941406 -0.65582275 -0.15161133 -0.9751587 -0.25990295l0 -1.6332855zm9.277344 2.7466125l0 1.8022156c-0.41851807 0.12994385 -0.84576416 0.2339325 -1.2772217 0.31188965l-0.047424316 0.00869751c-0.93640137 0.17764282 -2.1015015 0.27723694 -3.30542 0.27723694c-1.199585 0 -2.3862305 -0.099594116 -3.3226318 -0.27723694c-0.12939453 -0.026031494 -0.24591064 -0.051986694 -0.35375977 -0.07795715l0.004272461 0c-0.32788086 -0.06500244 -0.65582275 -0.1516571 -0.9751587 -0.25564575l0 -1.7848206c1.0442505 0.35087585 2.7185059 0.57618713 4.6170654 0.57618713c1.9029541 0 3.6031494 -0.22962952 4.6602783 -0.5805664zm-4.6602783 -8.027542c-3.1715698 0 -5.7218018 0.6325073 -5.7476196 1.42099l0 8.61235l0 0.03904724c0 0.79273987 2.5933228 1.4339294 5.777832 1.4339294c3.1715698 0 5.7348022 -0.63249207 5.76062 -1.4209747l0 -8.664352l0.004333496 0c-0.030151367 -0.7841644 -2.6278687 -1.42099 -5.795166 -1.42099z" fill-rule="evenodd"/><path fill="#ffffff" d="m632.91064 200.10439c-0.3149414 0 -0.5652466 0.25558472 -0.5652466 0.5674896c0 0.31628418 0.25030518 0.5718689 0.5652466 0.5718689c0.31072998 0 0.5653076 -0.25558472 0.5653076 -0.5718689c0 -0.3119049 -0.25457764 -0.5674896 -0.5653076 -0.5674896z" fill-rule="evenodd"/><path fill="#ffffff" d="m632.91064 202.97664c-0.3149414 0 -0.5652466 0.25126648 -0.5652466 0.5674896c0 0.3119049 0.25030518 0.5674896 0.5652466 0.5674896c0.31072998 0 0.5653076 -0.25558472 0.5653076 -0.5674896c0 -0.31622314 -0.25457764 -0.5674896 -0.5653076 -0.5674896z" fill-rule="evenodd"/><path fill="#ffffff" d="m632.91064 205.8445c-0.3149414 0 -0.5652466 0.255661 -0.5652466 0.5675659c0 0.3162079 0.25030518 0.5717926 0.5652466 0.5717926c0.31072998 0 0.5653076 -0.25558472 0.5653076 -0.5717926c0 -0.3119049 -0.25457764 -0.5675659 -0.5653076 -0.5675659z" fill-rule="evenodd"/></g></svg>