<svg fill="none" height="48" viewBox="0 0 49 48" width="49" xmlns="http://www.w3.org/2000/svg"><path d="m44.8258 11.6704c-.15-.21-.36-.39-.6-.48l-18.99-7.53005c-.36-.15-.75-.15-1.11 0l-19.02002 7.50005c-.24.09-.45.27-.6.48-.03.06-.06.09-.09.15-.12.21-.24.48-.24.75v22.86c0 .63.36 1.17.96 1.38l18.96002 7.5h.03c.18.09.36.12.54.12s.36-.03.54-.12h.03l18.96-7.5c.57-.24.96-.78.96-1.38v-22.86c0-.27-.09-.54-.24-.75-.03-.06-.06-.09-.09-.15zm-20.16-5.01005 14.91 5.91005-4.62 1.83s-.18-.15-.27-.18l-14.55-5.76005 4.56-1.8zm-8.61 3.42005 14.91 5.91-6.3 2.49-14.91002-5.91zm-8.88002 4.71 15.99002 6.33v19.65l-15.99002-6.33zm18.99002 25.98v-19.65l15.99-6.33v19.65z" fill="#fff"/></svg>