<svg version="1.1" viewBox="0.0 0.0 717.9343832020998 349.56955380577426" fill="none" stroke="none" stroke-linecap="square" stroke-miterlimit="10" xmlns:xlink="http://www.w3.org/1999/xlink" xmlns="http://www.w3.org/2000/svg"><clipPath id="p.0"><path d="m0 0l717.9344 0l0 349.56955l-717.9344 0l0 -349.56955z" clip-rule="nonzero"/></clipPath><g clip-path="url(#p.0)"><path fill="#000000" fill-opacity="0.0" d="m0 0l717.9344 0l0 349.56955l-717.9344 0z" fill-rule="evenodd"/><path fill="#283282" d="m21.971128 31.585905l195.40157 0l0 101.364426l-20.273361 20.273361l-175.1282 0z" fill-rule="evenodd"/><path fill="#1f2767" d="m197.09933 153.2237l4.0546722 -16.218689l16.218689 -4.0546722z" fill-rule="evenodd"/><path fill="#000000" fill-opacity="0.0" d="m197.09933 153.2237l4.0546722 -16.218689l16.218689 -4.0546722l-20.273361 20.273361l-175.1282 0l0 -121.63779l195.40157 0l0 101.364426" fill-rule="evenodd"/><path fill="#ffffff" d="m49.607094 65.50187l0 4.5625q1.15625 -1.34375 2.75 -1.34375q0.828125 0 1.484375 0.3125q0.65625 0.296875 0.984375 0.78125q0.34375 0.46875 0.46875 1.046875q0.125 0.5625 0.125 1.78125l0 5.265625l-2.375 0l0 -4.75q0 -1.40625 -0.140625 -1.78125q-0.140625 -0.390625 -0.484375 -0.609375q-0.34375 -0.234375 -0.859375 -0.234375q-0.59375 0 -1.0625 0.296875q-0.453125 0.28125 -0.671875 0.859375q-0.21875 0.578125 -0.21875 1.71875l0 4.5l-2.375 0l0 -12.40625l2.375 0zm8.225342 2.203125l0 -2.203125l2.375 0l0 2.203125l-2.375 0zm0 10.203125l0 -8.984375l2.375 0l0 8.984375l-2.375 0zm3.9705658 -2.5625l2.390625 -0.359375q0.140625 0.6875 0.609375 1.046875q0.46875 0.359375 1.3125 0.359375q0.921875 0 1.375 -0.34375q0.3125 -0.234375 0.3125 -0.625q0 -0.28125 -0.15625 -0.453125q-0.1875 -0.171875 -0.796875 -0.3125q-2.875 -0.640625 -3.65625 -1.15625q-1.0625 -0.734375 -1.0625 -2.03125q0 -1.15625 0.921875 -1.953125q0.921875 -0.796875 2.859375 -0.796875q1.84375 0 2.734375 0.609375q0.90625 0.59375 1.25 1.765625l-2.25 0.421875q-0.140625 -0.53125 -0.546875 -0.8125q-0.390625 -0.28125 -1.140625 -0.28125q-0.9375 0 -1.34375 0.265625q-0.28125 0.1875 -0.28125 0.484375q0 0.25 0.25 0.4375q0.3125 0.234375 2.203125 0.671875q1.90625 0.421875 2.671875 1.046875q0.734375 0.640625 0.734375 1.765625q0 1.234375 -1.03125 2.125q-1.03125 0.890625 -3.046875 0.890625q-1.84375 0 -2.921875 -0.734375q-1.0625 -0.75 -1.390625 -2.03125zm14.59021 -6.421875l0 1.890625l-1.625 0l0 3.625q0 1.09375 0.046875 1.28125q0.046875 0.1875 0.203125 0.3125q0.171875 0.109375 0.421875 0.109375q0.328125 0 0.953125 -0.234375l0.203125 1.84375q-0.828125 0.359375 -1.875 0.359375q-0.65625 0 -1.171875 -0.21875q-0.515625 -0.21875 -0.765625 -0.546875q-0.234375 -0.34375 -0.3125 -0.9375q-0.078125 -0.40625 -0.078125 -1.671875l0 -3.921875l-1.09375 0l0 -1.890625l1.09375 0l0 -1.78125l2.375 -1.390625l0 3.171875l1.625 0zm1.098526 4.359375q0 -1.171875 0.578125 -2.28125q0.59375 -1.109375 1.65625 -1.6875q1.078125 -0.59375 2.40625 -0.59375q2.03125 0 3.328125 1.328125q1.3125 1.3125 1.3125 3.34375q0 2.03125 -1.328125 3.375q-1.3125 1.34375 -3.296875 1.34375q-1.234375 0 -2.359375 -0.546875q-1.125 -0.5625 -1.71875 -1.640625q-0.578125 -1.09375 -0.578125 -2.640625zm2.4375 0.125q0 1.34375 0.640625 2.0625q0.640625 0.703125 1.5625 0.703125q0.9375 0 1.5625 -0.703125q0.625 -0.71875 0.625 -2.078125q0 -1.3125 -0.625 -2.015625q-0.625 -0.71875 -1.5625 -0.71875q-0.921875 0 -1.5625 0.71875q-0.640625 0.703125 -0.640625 2.03125zm10.975342 4.5l-2.375 0l0 -8.984375l2.203125 0l0 1.28125q0.578125 -0.90625 1.03125 -1.1875q0.453125 -0.296875 1.015625 -0.296875q0.8125 0 1.578125 0.453125l-0.734375 2.0625q-0.609375 -0.390625 -1.125 -0.390625q-0.5 0 -0.84375 0.28125q-0.34375 0.28125 -0.546875 1.0q-0.203125 0.71875 -0.203125 3.0l0 2.78125zm4.4777985 -10.203125l0 -2.203125l2.375 0l0 2.203125l-2.375 0zm0 10.203125l0 -8.984375l2.375 0l0 8.984375l-2.375 0zm12.642441 -6.328125l-2.34375 0.421875q-0.125 -0.703125 -0.546875 -1.046875q-0.40625 -0.359375 -1.078125 -0.359375q-0.890625 0 -1.421875 0.609375q-0.515625 0.609375 -0.515625 2.046875q0 1.609375 0.53125 2.265625q0.53125 0.65625 1.4375 0.65625q0.6875 0 1.109375 -0.375q0.4375 -0.390625 0.609375 -1.328125l2.34375 0.390625q-0.375 1.609375 -1.40625 2.4375q-1.03125 0.8125 -2.765625 0.8125q-1.96875 0 -3.140625 -1.234375q-1.171875 -1.25 -1.171875 -3.453125q0 -2.21875 1.171875 -3.453125q1.1875 -1.25 3.1875 -1.25q1.640625 0 2.609375 0.703125q0.96875 0.703125 1.390625 2.15625zm3.574585 0.078125l-2.15625 -0.390625q0.375 -1.296875 1.25 -1.921875q0.890625 -0.625 2.640625 -0.625q1.59375 0 2.375 0.375q0.78125 0.375 1.09375 0.953125q0.3125 0.578125 0.3125 2.125l-0.015625 2.78125q0 1.1875 0.109375 1.75q0.109375 0.5625 0.421875 1.203125l-2.34375 0q-0.09375 -0.234375 -0.234375 -0.703125q-0.0625 -0.203125 -0.078125 -0.28125q-0.609375 0.59375 -1.3125 0.890625q-0.6875 0.296875 -1.46875 0.296875q-1.390625 0 -2.1875 -0.75q-0.796875 -0.75 -0.796875 -1.90625q0 -0.765625 0.359375 -1.359375q0.359375 -0.59375 1.015625 -0.90625q0.65625 -0.328125 1.890625 -0.5625q1.671875 -0.3125 2.3125 -0.578125l0 -0.234375q0 -0.6875 -0.34375 -0.984375q-0.328125 -0.296875 -1.28125 -0.296875q-0.625 0 -0.984375 0.25q-0.359375 0.25 -0.578125 0.875zm3.1875 1.9375q-0.453125 0.15625 -1.453125 0.375q-0.984375 0.203125 -1.296875 0.40625q-0.453125 0.328125 -0.453125 0.828125q0 0.5 0.359375 0.875q0.375 0.359375 0.953125 0.359375q0.640625 0 1.234375 -0.421875q0.421875 -0.328125 0.5625 -0.796875q0.09375 -0.296875 0.09375 -1.15625l0 -0.46875zm4.68396 4.3125l0 -12.40625l2.375 0l0 12.40625l-2.375 0zm3.4080658 3.421875l0 -1.53125l9.874992 0l0 1.53125l-9.874992 0zm19.277702 -3.421875l-2.203125 0l0 -1.3125q-0.5625 0.765625 -1.3125 1.140625q-0.734375 0.375 -1.5 0.375q-1.546875 0 -2.65625 -1.25q-1.109375 -1.25 -1.109375 -3.484375q0 -2.28125 1.078125 -3.46875q1.078125 -1.1875 2.71875 -1.1875q1.5 0 2.609375 1.25l0 -4.46875l2.375 0l0 12.40625zm-6.34375 -4.6875q0 1.4375 0.390625 2.078125q0.578125 0.9375 1.609375 0.9375q0.828125 0 1.390625 -0.703125q0.578125 -0.703125 0.578125 -2.078125q0 -1.546875 -0.5625 -2.234375q-0.546875 -0.6875 -1.421875 -0.6875q-0.84375 0 -1.421875 0.671875q-0.5625 0.671875 -0.5625 2.015625zm10.459717 -1.5625l-2.15625 -0.390625q0.375 -1.296875 1.25 -1.921875q0.890625 -0.625 2.640625 -0.625q1.59375 0 2.3750153 0.375q0.78125 0.375 1.09375 0.953125q0.3125 0.578125 0.3125 2.125l-0.015625 2.78125q0 1.1875 0.109375 1.75q0.109375 0.5625 0.421875 1.203125l-2.3437653 0q-0.09375 -0.234375 -0.234375 -0.703125q-0.0625 -0.203125 -0.078125 -0.28125q-0.609375 0.59375 -1.3125 0.890625q-0.6875 0.296875 -1.46875 0.296875q-1.390625 0 -2.1875 -0.75q-0.796875 -0.75 -0.796875 -1.90625q0 -0.765625 0.359375 -1.359375q0.359375 -0.59375 1.015625 -0.90625q0.65625 -0.328125 1.890625 -0.5625q1.671875 -0.3125 2.3125 -0.578125l0 -0.234375q0 -0.6875 -0.34375 -0.984375q-0.328125 -0.296875 -1.28125 -0.296875q-0.625 0 -0.984375 0.25q-0.359375 0.25 -0.578125 0.875zm3.1875 1.9375q-0.453125 0.15625 -1.453125 0.375q-0.984375 0.203125 -1.296875 0.40625q-0.453125 0.328125 -0.453125 0.828125q0 0.5 0.359375 0.875q0.375 0.359375 0.953125 0.359375q0.640625 0 1.234375 -0.421875q0.421875 -0.328125 0.5625 -0.796875q0.09375 -0.296875 0.09375 -1.15625l0 -0.46875zm8.79335 -4.671875l0 1.890625l-1.625 0l0 3.625q0 1.09375 0.046875 1.28125q0.046875 0.1875 0.203125 0.3125q0.171875 0.109375 0.421875 0.109375q0.328125 0 0.953125 -0.234375l0.203125 1.84375q-0.828125 0.359375 -1.875 0.359375q-0.65625 0 -1.171875 -0.21875q-0.515625 -0.21875 -0.765625 -0.546875q-0.234375 -0.34375 -0.3125 -0.9375q-0.078125 -0.40625 -0.078125 -1.671875l0 -3.921875l-1.09375 0l0 -1.890625l1.09375 0l0 -1.78125l2.375 -1.390625l0 3.171875l1.625 0zm3.4266357 2.734375l-2.15625 -0.390625q0.375 -1.296875 1.25 -1.921875q0.890625 -0.625 2.640625 -0.625q1.59375 0 2.375 0.375q0.78125 0.375 1.09375 0.953125q0.3125 0.578125 0.3125 2.125l-0.015625 2.78125q0 1.1875 0.109375 1.75q0.109375 0.5625 0.421875 1.203125l-2.34375 0q-0.09375 -0.234375 -0.234375 -0.703125q-0.0625 -0.203125 -0.078125 -0.28125q-0.609375 0.59375 -1.3125 0.890625q-0.6875 0.296875 -1.46875 0.296875q-1.390625 0 -2.1875 -0.75q-0.796875 -0.75 -0.796875 -1.90625q0 -0.765625 0.359375 -1.359375q0.359375 -0.59375 1.015625 -0.90625q0.65625 -0.328125 1.890625 -0.5625q1.671875 -0.3125 2.3125 -0.578125l0 -0.234375q0 -0.6875 -0.34375 -0.984375q-0.328125 -0.296875 -1.28125 -0.296875q-0.625 0 -0.984375 0.25q-0.359375 0.25 -0.578125 0.875zm3.1875 1.9375q-0.453125 0.15625 -1.453125 0.375q-0.984375 0.203125 -1.296875 0.40625q-0.453125 0.328125 -0.453125 0.828125q0 0.5 0.359375 0.875q0.375 0.359375 0.953125 0.359375q0.640625 0 1.234375 -0.421875q0.421875 -0.328125 0.5625 -0.796875q0.09375 -0.296875 0.09375 -1.15625l0 -0.46875zm3.84021 1.75l2.390625 -0.359375q0.140625 0.6875 0.609375 1.046875q0.46875 0.359375 1.3125 0.359375q0.921875 0 1.375 -0.34375q0.3125 -0.234375 0.3125 -0.625q0 -0.28125 -0.15625 -0.453125q-0.1875 -0.171875 -0.796875 -0.3125q-2.875 -0.640625 -3.65625 -1.15625q-1.0625 -0.734375 -1.0625 -2.03125q0 -1.15625 0.921875 -1.953125q0.921875 -0.796875 2.859375 -0.796875q1.84375 0 2.734375 0.609375q0.90625 0.59375 1.25 1.765625l-2.25 0.421875q-0.140625 -0.53125 -0.546875 -0.8125q-0.390625 -0.28125 -1.140625 -0.28125q-0.9375 0 -1.34375 0.265625q-0.28125 0.1875 -0.28125 0.484375q0 0.25 0.25 0.4375q0.3125 0.234375 2.203125 0.671875q1.90625 0.421875 2.671875 1.046875q0.734375 0.640625 0.734375 1.765625q0 1.234375 -1.03125 2.125q-1.03125 0.890625 -3.046875 0.890625q-1.84375 0 -2.921875 -0.734375q-1.0625 -0.75 -1.390625 -2.03125zm15.68396 -0.296875l2.359375 0.390625q-0.453125 1.3125 -1.4375 2.0q-0.984375 0.671875 -2.46875 0.671875q-2.34375 0 -3.46875 -1.53125q-0.890625 -1.234375 -0.890625 -3.09375q0 -2.234375 1.171875 -3.5q1.171875 -1.265625 2.953125 -1.265625q2.0 0 3.15625 1.328125q1.171875 1.3125 1.109375 4.046875l-5.953125 0q0.03125 1.0625 0.578125 1.65625q0.546875 0.578125 1.375 0.578125q0.546875 0 0.921875 -0.296875q0.390625 -0.3125 0.59375 -0.984375zm0.125 -2.40625q-0.015625 -1.03125 -0.53125 -1.5625q-0.5 -0.546875 -1.234375 -0.546875q-0.78125 0 -1.28125 0.578125q-0.515625 0.5625 -0.5 1.53125l3.546875 0zm8.418335 -3.71875l0 1.890625l-1.625 0l0 3.625q0 1.09375 0.046875 1.28125q0.046875 0.1875 0.203125 0.3125q0.171875 0.109375 0.421875 0.109375q0.328125 0 0.953125 -0.234375l0.203125 1.84375q-0.828125 0.359375 -1.875 0.359375q-0.65625 0 -1.171875 -0.21875q-0.515625 -0.21875 -0.765625 -0.546875q-0.234375 -0.34375 -0.3125 -0.9375q-0.078125 -0.40625 -0.078125 -1.671875l0 -3.921875l-1.09375 0l0 -1.890625l1.09375 0l0 -1.78125l2.375 -1.390625l0 3.171875l1.625 0z" fill-rule="nonzero"/><path fill="#ff462b" d="m111.06041 94.34562l2.421875 0.765625q-0.5625 2.03125 -1.859375 3.03125q-1.296875 0.984375 -3.296875 0.984375q-2.46875 0 -4.0625 -1.6875q-1.578125 -1.703125 -1.578125 -4.625q0 -3.09375 1.59375 -4.796875q1.59375 -1.71875 4.203125 -1.71875q2.28125 0 3.703125 1.34375q0.84375 0.796875 1.265625 2.28125l-2.484375 0.59375q-0.21875 -0.96875 -0.921875 -1.515625q-0.6875 -0.5625 -1.6875 -0.5625q-1.375 0 -2.234375 0.984375q-0.859375 0.984375 -0.859375 3.203125q0 2.359375 0.84375 3.359375q0.84375 1.0 2.203125 1.0q1.0 0 1.71875 -0.640625q0.71875 -0.640625 1.03125 -2.0zm3.9356995 0.53125l2.4375 -0.234375q0.21875 1.21875 0.890625 1.796875q0.671875 0.578125 1.8125 0.578125q1.21875 0 1.828125 -0.515625q0.609375 -0.515625 0.609375 -1.203125q0 -0.4375 -0.265625 -0.734375q-0.25 -0.3125 -0.890625 -0.546875q-0.4375 -0.15625 -2.0 -0.546875q-2.015625 -0.5 -2.828125 -1.21875q-1.140625 -1.03125 -1.140625 -2.5q0 -0.953125 0.53125 -1.765625q0.546875 -0.828125 1.546875 -1.25q1.015625 -0.4375 2.4375 -0.4375q2.34375 0 3.515625 1.03125q1.1875 1.015625 1.25 2.71875l-2.5 0.109375q-0.171875 -0.953125 -0.703125 -1.375q-0.515625 -0.421875 -1.578125 -0.421875q-1.09375 0 -1.71875 0.453125q-0.390625 0.28125 -0.390625 0.765625q0 0.4375 0.375 0.75q0.46875 0.40625 2.296875 0.84375q1.828125 0.421875 2.703125 0.890625q0.875 0.453125 1.375 1.265625q0.5 0.796875 0.5 1.96875q0 1.0625 -0.59375 2.0q-0.59375 0.921875 -1.6875 1.375q-1.078125 0.453125 -2.6875 0.453125q-2.359375 0 -3.625 -1.078125q-1.25 -1.09375 -1.5 -3.171875zm15.354599 4.03125l-4.4375 -12.40625l2.71875 0l3.140625 9.1875l3.046875 -9.1875l2.65625 0l-4.453125 12.40625l-2.671875 0z" fill-rule="nonzero"/><path fill="#000000" fill-opacity="0.0" d="m217.3727 92.4048l21.322845 -0.03149414" fill-rule="evenodd"/><path stroke="#08a87d" stroke-width="2.0" stroke-linejoin="round" stroke-linecap="butt" d="m217.3727 92.40481l9.322861 -0.013771057" fill-rule="evenodd"/><path fill="#08a87d" stroke="#08a87d" stroke-width="2.0" stroke-linecap="butt" d="m226.70042 95.694496l9.07132 -3.3168716l-9.08107 -3.2900543z" fill-rule="evenodd"/><path fill="#ff462b" d="m238.69554 92.37533l122.488174 -69.65354l122.48819 69.65354l-122.48819 69.65354z" fill-rule="evenodd"/><path fill="#000000" d="m301.3634 89.93845l1.21875 0l0 -0.625q0 -1.046875 0.21875 -1.5625q0.234375 -0.515625 0.828125 -0.84375q0.59375 -0.328125 1.515625 -0.328125q0.9375 0 1.828125 0.28125l-0.296875 1.53125q-0.515625 -0.125 -1.0 -0.125q-0.484375 0 -0.6875 0.234375q-0.203125 0.21875 -0.203125 0.84375l0 0.59375l1.640625 0l0 1.71875l-1.640625 0l0 6.578125l-2.203125 0l0 -6.578125l-1.21875 0l0 -1.71875zm6.296875 -1.125l0 -2.03125l2.1875 0l0 2.03125l-2.1875 0zm0 9.421875l0 -8.296875l2.1875 0l0 8.296875l-2.1875 0zm4.4453125 0l0 -11.453125l2.1875 0l0 11.453125l-2.1875 0zm8.2421875 -8.296875l0 1.75l-1.5 0l0 3.34375q0 1.015625 0.046875 1.1875q0.046875 0.15625 0.1875 0.265625q0.15625 0.109375 0.375 0.109375q0.3125 0 0.890625 -0.203125l0.1875 1.703125q-0.765625 0.328125 -1.734375 0.328125q-0.59375 0 -1.078125 -0.203125q-0.46875 -0.203125 -0.703125 -0.515625q-0.21875 -0.3125 -0.296875 -0.859375q-0.078125 -0.375 -0.078125 -1.546875l0 -3.609375l-1.0 0l0 -1.75l1.0 0l0 -1.65625l2.203125 -1.28125l0 2.9375l1.5 0zm6.328125 5.65625l2.1875 0.359375q-0.421875 1.203125 -1.328125 1.84375q-0.90625 0.625 -2.28125 0.625q-2.15625 0 -3.203125 -1.421875q-0.8125 -1.125 -0.8125 -2.859375q0 -2.0625 1.078125 -3.21875q1.078125 -1.171875 2.71875 -1.171875q1.859375 0 2.921875 1.21875q1.078125 1.21875 1.03125 3.75l-5.5 0q0.015625 0.96875 0.515625 1.515625q0.515625 0.546875 1.28125 0.546875q0.515625 0 0.859375 -0.28125q0.359375 -0.28125 0.53125 -0.90625zm0.125 -2.21875q-0.015625 -0.953125 -0.484375 -1.453125q-0.46875 -0.5 -1.140625 -0.5q-0.71875 0 -1.1875 0.53125q-0.46875 0.515625 -0.46875 1.421875l3.28125 0zm6.0703125 4.859375l-2.1875 0l0 -8.296875l2.03125 0l0 1.171875q0.53125 -0.828125 0.9375 -1.09375q0.421875 -0.265625 0.953125 -0.265625q0.75 0 1.453125 0.40625l-0.6875 1.921875q-0.546875 -0.359375 -1.03125 -0.359375q-0.453125 0 -0.78125 0.25q-0.3125 0.25 -0.5 0.921875q-0.1875 0.65625 -0.1875 2.78125l0 2.5625zm2.8203125 3.171875l0 -1.421875l9.140625 0l0 1.421875l-9.140625 0zm10.1171875 -3.171875l0 -11.453125l2.1875 0l0 4.125q1.015625 -1.15625 2.40625 -1.15625q1.515625 0 2.5 1.09375q1.0 1.09375 1.0 3.15625q0 2.125 -1.015625 3.28125q-1.0 1.140625 -2.453125 1.140625q-0.703125 0 -1.40625 -0.359375q-0.6875 -0.359375 -1.1875 -1.046875l0 1.21875l-2.03125 0zm2.171875 -4.328125q0 1.28125 0.40625 1.90625q0.578125 0.875 1.515625 0.875q0.734375 0 1.234375 -0.625q0.515625 -0.625 0.515625 -1.953125q0 -1.421875 -0.515625 -2.046875q-0.515625 -0.640625 -1.3125 -0.640625q-0.796875 0 -1.328125 0.625q-0.515625 0.609375 -0.515625 1.859375zm6.6484375 -3.96875l2.34375 0l1.984375 5.890625l1.9375 -5.890625l2.265625 0l-2.921875 7.984375l-0.53125 1.453125q-0.28125 0.71875 -0.546875 1.09375q-0.265625 0.390625 -0.609375 0.625q-0.328125 0.25 -0.828125 0.375q-0.5 0.140625 -1.125 0.140625q-0.625 0 -1.234375 -0.140625l-0.203125 -1.71875q0.515625 0.109375 0.9375 0.109375q0.765625 0 1.125 -0.453125q0.375 -0.453125 0.5625 -1.140625l-3.15625 -8.328125zm8.6328125 11.46875l0 -1.421875l9.140625 0l0 1.421875l-9.140625 0zm10.0390625 -11.46875l2.03125 0l0 1.125q1.078125 -1.3125 2.578125 -1.3125q0.796875 0 1.375 0.328125q0.59375 0.328125 0.96875 0.984375q0.546875 -0.65625 1.171875 -0.984375q0.640625 -0.328125 1.359375 -0.328125q0.921875 0 1.546875 0.375q0.640625 0.359375 0.953125 1.078125q0.21875 0.53125 0.21875 1.71875l0 5.3125l-2.1875 0l0 -4.75q0 -1.234375 -0.234375 -1.59375q-0.296875 -0.46875 -0.9375 -0.46875q-0.453125 0 -0.859375 0.28125q-0.40625 0.28125 -0.59375 0.828125q-0.171875 0.546875 -0.171875 1.71875l0 3.984375l-2.203125 0l0 -4.546875q0 -1.21875 -0.125 -1.5625q-0.109375 -0.359375 -0.359375 -0.53125q-0.234375 -0.171875 -0.65625 -0.171875q-0.515625 0 -0.921875 0.28125q-0.40625 0.265625 -0.578125 0.78125q-0.171875 0.515625 -0.171875 1.71875l0 4.03125l-2.203125 0l0 -8.296875zm13.8828125 4.03125q0 -1.09375 0.53125 -2.109375q0.546875 -1.03125 1.53125 -1.5625q1.0 -0.546875 2.21875 -0.546875q1.875 0 3.078125 1.21875q1.203125 1.21875 1.203125 3.09375q0 1.875 -1.21875 3.125q-1.203125 1.234375 -3.046875 1.234375q-1.140625 0 -2.1875 -0.515625q-1.03125 -0.515625 -1.578125 -1.515625q-0.53125 -1.0 -0.53125 -2.421875zm2.25 0.109375q0 1.234375 0.578125 1.890625q0.59375 0.65625 1.453125 0.65625q0.859375 0 1.4375 -0.65625q0.59375 -0.65625 0.59375 -1.90625q0 -1.21875 -0.59375 -1.875q-0.578125 -0.65625 -1.4375 -0.65625q-0.859375 0 -1.453125 0.65625q-0.578125 0.65625 -0.578125 1.890625zm15.5859375 4.15625l-2.203125 0l0 -4.234375q0 -1.34375 -0.140625 -1.734375q-0.140625 -0.40625 -0.453125 -0.625q-0.3125 -0.21875 -0.765625 -0.21875q-0.5625 0 -1.015625 0.3125q-0.453125 0.3125 -0.625 0.828125q-0.171875 0.515625 -0.171875 1.90625l0 3.765625l-2.1875 0l0 -8.296875l2.03125 0l0 1.21875q1.09375 -1.40625 2.734375 -1.40625q0.734375 0 1.328125 0.265625q0.609375 0.25 0.90625 0.65625q0.3125 0.40625 0.4375 0.921875q0.125 0.515625 0.125 1.484375l0 5.15625zm6.0234375 -8.296875l0 1.75l-1.5 0l0 3.34375q0 1.015625 0.046875 1.1875q0.046875 0.15625 0.1875 0.265625q0.15625 0.109375 0.375 0.109375q0.3125 0 0.890625 -0.203125l0.1875 1.703125q-0.765625 0.328125 -1.734375 0.328125q-0.59375 0 -1.078125 -0.203125q-0.46875 -0.203125 -0.703125 -0.515625q-0.21875 -0.3125 -0.296875 -0.859375q-0.078125 -0.375 -0.078125 -1.546875l0 -3.609375l-1.0 0l0 -1.75l1.0 0l0 -1.65625l2.203125 -1.28125l0 2.9375l1.5 0zm3.71875 -3.15625l0 4.203125q1.0625 -1.234375 2.53125 -1.234375q0.765625 0 1.375 0.28125q0.609375 0.28125 0.90625 0.71875q0.3125 0.4375 0.421875 0.96875q0.125 0.53125 0.125 1.640625l0 4.875l-2.203125 0l0 -4.390625q0 -1.296875 -0.125 -1.640625q-0.125 -0.359375 -0.4375 -0.5625q-0.3125 -0.21875 -0.796875 -0.21875q-0.546875 0 -0.984375 0.265625q-0.421875 0.265625 -0.625 0.8125q-0.1875 0.53125 -0.1875 1.578125l0 4.15625l-2.203125 0l0 -11.453125l2.203125 0z" fill-rule="nonzero"/><path fill="#283282" d="m504.91205 39.992714l195.40161 0l0 87.40123l-17.480713 17.48066l-177.9209 0z" fill-rule="evenodd"/><path fill="#1f2767" d="m682.83295 144.8746l3.4961548 -13.984528l13.984558 -3.496132z" fill-rule="evenodd"/><path fill="#000000" fill-opacity="0.0" d="m682.83295 144.8746l3.4961548 -13.984528l13.984558 -3.496132l-17.480713 17.48066l-177.9209 0l0 -104.88189l195.40161 0l0 87.40123" fill-rule="evenodd"/><path fill="#ffffff" d="m554.5762 80.84895l2.1875 0l0 1.21875q1.1875 -1.421875 2.8125 -1.421875q0.859375 0 1.484375 0.359375q0.640625 0.34375 1.046875 1.0625q0.59375 -0.71875 1.28125 -1.0625q0.6875 -0.359375 1.46875 -0.359375q0.984375 0 1.671875 0.40625q0.6875 0.390625 1.015625 1.171875q0.25 0.578125 0.25 1.859375l0 5.75l-2.375 0l0 -5.140625q0 -1.328125 -0.25 -1.71875q-0.328125 -0.515625 -1.015625 -0.515625q-0.5 0 -0.9375 0.3125q-0.4375 0.296875 -0.640625 0.890625q-0.1875 0.59375 -0.1875 1.859375l0 4.3125l-2.375 0l0 -4.921875q0 -1.3125 -0.125 -1.6875q-0.125 -0.390625 -0.390625 -0.578125q-0.265625 -0.1875 -0.734375 -0.1875q-0.546875 0 -0.984375 0.296875q-0.4375 0.296875 -0.640625 0.859375q-0.1875 0.5625 -0.1875 1.859375l0 4.359375l-2.375 0l0 -8.984375zm15.032471 4.359375q0 -1.171875 0.578125 -2.28125q0.59375 -1.109375 1.65625 -1.6875q1.078125 -0.59375 2.40625 -0.59375q2.03125 0 3.328125 1.328125q1.3125 1.3125 1.3125 3.34375q0 2.03125 -1.328125 3.375q-1.3125 1.34375 -3.296875 1.34375q-1.234375 0 -2.359375 -0.546875q-1.125 -0.5625 -1.71875 -1.640625q-0.578125 -1.09375 -0.578125 -2.640625zm2.4375 0.125q0 1.34375 0.640625 2.0625q0.640625 0.703125 1.5625 0.703125q0.9375 0 1.5625 -0.703125q0.625 -0.71875 0.625 -2.078125q0 -1.3125 -0.625 -2.015625q-0.625 -0.71875 -1.5625 -0.71875q-0.921875 0 -1.5625 0.71875q-0.640625 0.703125 -0.640625 2.03125zm16.881592 4.5l-2.375 0l0 -4.578125q0 -1.46875 -0.15625 -1.890625q-0.15625 -0.421875 -0.5 -0.65625q-0.34375 -0.25 -0.828125 -0.25q-0.609375 0 -1.109375 0.34375q-0.484375 0.34375 -0.671875 0.90625q-0.171875 0.546875 -0.171875 2.0625l0 4.0625l-2.375 0l0 -8.984375l2.203125 0l0 1.3125q1.171875 -1.515625 2.953125 -1.515625q0.796875 0 1.4375 0.28125q0.65625 0.28125 0.984375 0.734375q0.34375 0.4375 0.46875 1.0q0.140625 0.546875 0.140625 1.59375l0 5.578125zm6.522217 -8.984375l0 1.890625l-1.625 0l0 3.625q0 1.09375 0.046875 1.28125q0.046875 0.1875 0.203125 0.3125q0.171875 0.109375 0.421875 0.109375q0.328125 0 0.953125 -0.234375l0.203125 1.84375q-0.828125 0.359375 -1.875 0.359375q-0.65625 0 -1.171875 -0.21875q-0.515625 -0.21875 -0.765625 -0.546875q-0.234375 -0.34375 -0.3125 -0.9375q-0.078125 -0.40625 -0.078125 -1.671875l0 -3.921875l-1.09375 0l0 -1.890625l1.09375 0l0 -1.78125l2.375 -1.390625l0 3.171875l1.625 0zm4.0203857 -3.421875l0 4.5625q1.15625 -1.34375 2.75 -1.34375q0.828125 0 1.484375 0.3125q0.65625 0.296875 0.984375 0.78125q0.34375 0.46875 0.46875 1.046875q0.125 0.5625 0.125 1.78125l0 5.265625l-2.375 0l0 -4.75q0 -1.40625 -0.140625 -1.78125q-0.140625 -0.390625 -0.484375 -0.609375q-0.34375 -0.234375 -0.859375 -0.234375q-0.59375 0 -1.0625 0.296875q-0.453125 0.28125 -0.671875 0.859375q-0.21875 0.578125 -0.21875 1.71875l0 4.5l-2.375 0l0 -12.40625l2.375 0zm6.819092 15.828125l0 -1.53125l9.875 0l0 1.53125l-9.875 0zm19.27771 -3.421875l-2.203125 0l0 -1.3125q-0.5625 0.765625 -1.3125 1.140625q-0.734375 0.375 -1.5 0.375q-1.546875 0 -2.65625 -1.25q-1.109375 -1.25 -1.109375 -3.484375q0 -2.28125 1.078125 -3.46875q1.078125 -1.1875 2.71875 -1.1875q1.5 0 2.609375 1.25l0 -4.46875l2.375 0l0 12.40625zm-6.34375 -4.6875q0 1.4375 0.390625 2.078125q0.578125 0.9375 1.609375 0.9375q0.828125 0 1.390625 -0.703125q0.578125 -0.703125 0.578125 -2.078125q0 -1.546875 -0.5625 -2.234375q-0.546875 -0.6875 -1.421875 -0.6875q-0.84375 0 -1.421875 0.671875q-0.5625 0.671875 -0.5625 2.015625zm10.459717 -1.5625l-2.15625 -0.390625q0.375 -1.296875 1.25 -1.921875q0.890625 -0.625 2.640625 -0.625q1.59375 0 2.375 0.375q0.78125 0.375 1.09375 0.953125q0.3125 0.578125 0.3125 2.125l-0.015625 2.78125q0 1.1875 0.109375 1.75q0.109375 0.5625 0.421875 1.203125l-2.34375 0q-0.09375 -0.234375 -0.234375 -0.703125q-0.0625 -0.203125 -0.078125 -0.28125q-0.609375 0.59375 -1.3125 0.890625q-0.6875 0.296875 -1.46875 0.296875q-1.390625 0 -2.1875 -0.75q-0.796875 -0.75 -0.796875 -1.90625q0 -0.765625 0.359375 -1.359375q0.359375 -0.59375 1.015625 -0.90625q0.65625 -0.328125 1.890625 -0.5625q1.671875 -0.3125 2.3125 -0.578125l0 -0.234375q0 -0.6875 -0.34375 -0.984375q-0.328125 -0.296875 -1.28125 -0.296875q-0.625 0 -0.984375 0.25q-0.359375 0.25 -0.578125 0.875zm3.1875 1.9375q-0.453125 0.15625 -1.453125 0.375q-0.984375 0.203125 -1.296875 0.40625q-0.453125 0.328125 -0.453125 0.828125q0 0.5 0.359375 0.875q0.375 0.359375 0.953125 0.359375q0.640625 0 1.234375 -0.421875q0.421875 -0.328125 0.5625 -0.796875q0.09375 -0.296875 0.09375 -1.15625l0 -0.46875zm8.793335 -4.671875l0 1.890625l-1.625 0l0 3.625q0 1.09375 0.046875 1.28125q0.046875 0.1875 0.203125 0.3125q0.171875 0.109375 0.421875 0.109375q0.328125 0 0.953125 -0.234375l0.203125 1.84375q-0.828125 0.359375 -1.875 0.359375q-0.65625 0 -1.171875 -0.21875q-0.515625 -0.21875 -0.765625 -0.546875q-0.234375 -0.34375 -0.3125 -0.9375q-0.078125 -0.40625 -0.078125 -1.671875l0 -3.921875l-1.09375 0l0 -1.890625l1.09375 0l0 -1.78125l2.375 -1.390625l0 3.171875l1.625 0zm3.4266357 2.734375l-2.15625 -0.390625q0.375 -1.296875 1.25 -1.921875q0.890625 -0.625 2.640625 -0.625q1.59375 0 2.375 0.375q0.78125 0.375 1.09375 0.953125q0.3125 0.578125 0.3125 2.125l-0.015625 2.78125q0 1.1875 0.109375 1.75q0.109375 0.5625 0.421875 1.203125l-2.34375 0q-0.09375 -0.234375 -0.234375 -0.703125q-0.0625 -0.203125 -0.078125 -0.28125q-0.609375 0.59375 -1.3125 0.890625q-0.6875 0.296875 -1.46875 0.296875q-1.390625 0 -2.1875 -0.75q-0.796875 -0.75 -0.796875 -1.90625q0 -0.765625 0.359375 -1.359375q0.359375 -0.59375 1.015625 -0.90625q0.65625 -0.328125 1.890625 -0.5625q1.671875 -0.3125 2.3125 -0.578125l0 -0.234375q0 -0.6875 -0.34375 -0.984375q-0.328125 -0.296875 -1.28125 -0.296875q-0.625 0 -0.984375 0.25q-0.359375 0.25 -0.578125 0.875zm3.1875 1.9375q-0.453125 0.15625 -1.453125 0.375q-0.984375 0.203125 -1.296875 0.40625q-0.453125 0.328125 -0.453125 0.828125q0 0.5 0.359375 0.875q0.375 0.359375 0.953125 0.359375q0.640625 0 1.234375 -0.421875q0.421875 -0.328125 0.5625 -0.796875q0.09375 -0.296875 0.09375 -1.15625l0 -0.46875z" fill-rule="nonzero"/><path fill="#000000" fill-opacity="0.0" d="m483.6719 92.37533l21.228363 0.06299591" fill-rule="evenodd"/><path stroke="#08a87d" stroke-width="2.0" stroke-linejoin="round" stroke-linecap="butt" d="m483.6719 92.37533l9.228394 0.027381897" fill-rule="evenodd"/><path fill="#08a87d" stroke="#08a87d" stroke-width="2.0" stroke-linecap="butt" d="m492.8905 95.70616l9.085968 -3.2765198l-9.066345 -3.3303833z" fill-rule="evenodd"/><path fill="#283282" d="m263.44095 198.37532l195.40158 0l0 101.364426l-20.273376 20.273376l-175.1282 0z" fill-rule="evenodd"/><path fill="#1f2767" d="m438.56915 320.01312l4.054657 -16.218689l16.21872 -4.0546875z" fill-rule="evenodd"/><path fill="#000000" fill-opacity="0.0" d="m438.56915 320.01312l4.054657 -16.218689l16.21872 -4.0546875l-20.273376 20.273376l-175.1282 0l0 -121.6378l195.40158 0l0 101.364426" fill-rule="evenodd"/><path fill="#ffffff" d="m335.73822 246.21317l2.1875 0l0 1.21875q1.1875 -1.421875 2.8125 -1.421875q0.859375 0 1.484375 0.359375q0.640625 0.34375 1.046875 1.0625q0.59375 -0.71875 1.28125 -1.0625q0.6875 -0.359375 1.46875 -0.359375q0.984375 0 1.671875 0.40625q0.6875 0.390625 1.015625 1.171875q0.25 0.578125 0.25 1.859375l0 5.75l-2.375 0l0 -5.140625q0 -1.328125 -0.25 -1.71875q-0.328125 -0.515625 -1.015625 -0.515625q-0.5 0 -0.9375 0.3125q-0.4375 0.296875 -0.640625 0.890625q-0.1875 0.59375 -0.1875 1.859375l0 4.3125l-2.375 0l0 -4.921875q0 -1.3125 -0.125 -1.6875q-0.125 -0.390625 -0.390625 -0.578125q-0.265625 -0.1875 -0.734375 -0.1875q-0.546875 0 -0.984375 0.296875q-0.4375 0.296875 -0.640625 0.859375q-0.1875 0.5625 -0.1875 1.859375l0 4.359375l-2.375 0l0 -8.984375zm15.032471 4.359375q0 -1.171875 0.578125 -2.28125q0.59375 -1.109375 1.65625 -1.6875q1.078125 -0.59375 2.40625 -0.59375q2.03125 0 3.328125 1.328125q1.3125 1.3125 1.3125 3.34375q0 2.03125 -1.328125 3.375q-1.3125 1.34375 -3.296875 1.34375q-1.234375 0 -2.359375 -0.546875q-1.125 -0.5625 -1.71875 -1.640625q-0.578125 -1.09375 -0.578125 -2.640625zm2.4375 0.125q0 1.34375 0.640625 2.0625q0.640625 0.703125 1.5625 0.703125q0.9375 0 1.5625 -0.703125q0.625 -0.71875 0.625 -2.078125q0 -1.3125 -0.625 -2.015625q-0.625 -0.71875 -1.5625 -0.71875q-0.921875 0 -1.5625 0.71875q-0.640625 0.703125 -0.640625 2.03125zm16.881592 4.5l-2.375 0l0 -4.578125q0 -1.46875 -0.15625 -1.890625q-0.15625 -0.421875 -0.5 -0.65625q-0.34375 -0.25 -0.828125 -0.25q-0.609375 0 -1.109375 0.34375q-0.484375 0.34375 -0.671875 0.90625q-0.171875 0.546875 -0.171875 2.0625l0 4.0625l-2.375 0l0 -8.984375l2.203125 0l0 1.3125q1.171875 -1.515625 2.953125 -1.515625q0.796875 0 1.4375 0.28125q0.65625 0.28125 0.984375 0.734375q0.34375 0.4375 0.46875 1.0q0.140625 0.546875 0.140625 1.59375l0 5.578125zm6.522217 -8.984375l0 1.890625l-1.625 0l0 3.625q0 1.09375 0.046875 1.28125q0.046875 0.1875 0.203125 0.3125q0.171875 0.109375 0.421875 0.109375q0.328125 0 0.953125 -0.234375l0.203125 1.84375q-0.828125 0.359375 -1.875 0.359375q-0.65625 0 -1.171875 -0.21875q-0.515625 -0.21875 -0.765625 -0.546875q-0.234375 -0.34375 -0.3125 -0.9375q-0.078125 -0.40625 -0.078125 -1.671875l0 -3.921875l-1.09375 0l0 -1.890625l1.09375 0l0 -1.78125l2.375 -1.390625l0 3.171875l1.625 0zm4.0204163 -3.421875l0 4.5625q1.15625 -1.34375 2.75 -1.34375q0.828125 0 1.484375 0.3125q0.65625 0.296875 0.984375 0.78125q0.34375 0.46875 0.46875 1.046875q0.125 0.5625 0.125 1.78125l0 5.265625l-2.375 0l0 -4.75q0 -1.40625 -0.140625 -1.78125q-0.140625 -0.390625 -0.484375 -0.609375q-0.34375 -0.234375 -0.859375 -0.234375q-0.59375 0 -1.0625 0.296875q-0.453125 0.28125 -0.671875 0.859375q-0.21875 0.578125 -0.21875 1.71875l0 4.5l-2.375 0l0 -12.40625l2.375 0z" fill-rule="nonzero"/><path fill="#000000" fill-opacity="0.0" d="m361.14172 198.37532l0.03149414 -36.34645" fill-rule="evenodd"/><path stroke="#08a87d" stroke-width="2.0" stroke-linejoin="round" stroke-linecap="butt" d="m361.14172 198.37534l0.021087646 -24.346466" fill-rule="evenodd"/><path fill="#08a87d" stroke="#08a87d" stroke-width="2.0" stroke-linecap="butt" d="m364.4663 174.03172l-3.2956238 -9.079041l-3.3113098 9.0733185z" fill-rule="evenodd"/></g></svg>