<svg version="1.1" viewBox="0.0 0.0 381.68503937007875 135.06299212598427" fill="none" stroke="none" stroke-linecap="square" stroke-miterlimit="10" xmlns:xlink="http://www.w3.org/1999/xlink" xmlns="http://www.w3.org/2000/svg"><clipPath id="p.0"><path d="m0 0l381.68503 0l0 135.06299l-381.68503 0l0 -135.06299z" clip-rule="nonzero"/></clipPath><g clip-path="url(#p.0)"><path fill="#000000" fill-opacity="0.0" d="m0 0l381.68503 0l0 135.06299l-381.68503 0z" fill-rule="evenodd"/><path fill="#283282" d="m2.1968503 23.188976l102.3622 0l0 72.020706l-14.404488 14.404488l-87.95771 0z" fill-rule="evenodd"/><path fill="#1f2767" d="m90.154564 109.614174l2.8808975 -11.52359l11.52359 -2.8808975z" fill-rule="evenodd"/><path fill="#000000" fill-opacity="0.0" d="m90.154564 109.614174l2.8808975 -11.52359l11.52359 -2.8808975l-14.404488 14.404488l-87.95771 0l0 -86.4252l102.3622 0l0 72.020706" fill-rule="evenodd"/><path fill="#ffffff" d="m29.04409 71.99934l-1.828125 0l0 -6.90625l1.703125 0l0 0.984375q0.4375 -0.703125 0.78125 -0.921875q0.34375 -0.21875 0.796875 -0.21875q0.625 0 1.203125 0.34375l-0.5625 1.59375q-0.46875 -0.296875 -0.859375 -0.296875q-0.390625 0 -0.65625 0.21875q-0.265625 0.203125 -0.421875 0.765625q-0.15625 0.546875 -0.15625 2.296875l0 2.140625zm4.811783 -4.796875l-1.671875 -0.3125q0.28125 -1.0 0.96875 -1.46875q0.6875 -0.484375 2.03125 -0.484375q1.21875 0 1.8125 0.296875q0.609375 0.28125 0.84375 0.734375q0.25 0.4375 0.25 1.625l-0.015625 2.140625q0 0.90625 0.078125 1.34375q0.09375 0.421875 0.34375 0.921875l-1.8125 0q-0.078125 -0.1875 -0.171875 -0.546875q-0.046875 -0.15625 -0.078125 -0.203125q-0.46875 0.453125 -1.0 0.6875q-0.53125 0.21875 -1.140625 0.21875q-1.0625 0 -1.6875 -0.578125q-0.609375 -0.578125 -0.609375 -1.46875q0 -0.578125 0.28125 -1.03125q0.28125 -0.46875 0.78125 -0.703125q0.515625 -0.25 1.46875 -0.4375q1.28125 -0.234375 1.765625 -0.453125l0 -0.171875q0 -0.53125 -0.265625 -0.75q-0.25 -0.234375 -0.96875 -0.234375q-0.484375 0 -0.765625 0.203125q-0.265625 0.1875 -0.4375 0.671875zm2.4375 1.484375q-0.34375 0.109375 -1.109375 0.28125q-0.765625 0.15625 -1.0 0.3125q-0.359375 0.25 -0.359375 0.640625q0 0.390625 0.28125 0.671875q0.296875 0.28125 0.734375 0.28125q0.5 0 0.953125 -0.328125q0.328125 -0.25 0.4375 -0.609375q0.0625 -0.234375 0.0625 -0.890625l0 -0.359375zm4.8968506 3.3125l-2.1875 -6.90625l1.765625 0l1.296875 4.53125l1.203125 -4.53125l1.75 0l1.15625 4.53125l1.328125 -4.53125l1.796875 0l-2.21875 6.90625l-1.75 0l-1.203125 -4.4375l-1.171875 4.4375l-1.765625 0zm19.116913 0l-1.703125 0l0 -1.015625q-0.421875 0.59375 -1.0 0.890625q-0.578125 0.28125 -1.15625 0.28125q-1.1875 0 -2.046875 -0.953125q-0.84375 -0.96875 -0.84375 -2.6875q0 -1.75 0.828125 -2.65625q0.828125 -0.921875 2.09375 -0.921875q1.15625 0 2.0 0.953125l0 -3.4375038l1.828125 0l0 9.546879zm-4.875 -3.609375q0 1.109375 0.296875 1.609375q0.4375 0.71875 1.234375 0.71875q0.640625 0 1.078125 -0.53125q0.4375 -0.546875 0.4375 -1.609375q0 -1.203125 -0.4375 -1.71875q-0.421875 -0.53125 -1.09375 -0.53125q-0.640625 0 -1.078125 0.515625q-0.4375 0.515625 -0.4375 1.546875zm8.047607 -1.1875l-1.671875 -0.3125q0.28125 -1.0 0.96875 -1.46875q0.6875 -0.484375 2.03125 -0.484375q1.21875 0 1.8125076 0.296875q0.609375 0.28125 0.84375 0.734375q0.25 0.4375 0.25 1.625l-0.015625 2.140625q0 0.90625 0.078125 1.34375q0.09375 0.421875 0.34375 0.921875l-1.8125 0q-0.078125 -0.1875 -0.17188263 -0.546875q-0.046875 -0.15625 -0.078125 -0.203125q-0.46875 0.453125 -1.0 0.6875q-0.53125 0.21875 -1.140625 0.21875q-1.0625 0 -1.6875 -0.578125q-0.609375 -0.578125 -0.609375 -1.46875q0 -0.578125 0.28125 -1.03125q0.28125 -0.46875 0.78125 -0.703125q0.515625 -0.25 1.46875 -0.4375q1.28125 -0.234375 1.765625 -0.453125l0 -0.171875q0 -0.53125 -0.265625 -0.75q-0.25 -0.234375 -0.96875 -0.234375q-0.484375 0 -0.765625 0.203125q-0.265625 0.1875 -0.4375 0.671875zm2.4375 1.484375q-0.34375 0.109375 -1.109375 0.28125q-0.765625 0.15625 -1.0 0.3125q-0.359375 0.25 -0.359375 0.640625q0 0.390625 0.28125 0.671875q0.296875 0.28125 0.734375 0.28125q0.5 0 0.953125 -0.328125q0.328125 -0.25 0.4375 -0.609375q0.0625 -0.234375 0.0625 -0.890625l0 -0.359375zm6.771858 -3.59375l0 1.453125l-1.25 0l0 2.78125q0 0.84375 0.03125 0.984375q0.046875 0.140625 0.171875 0.234375q0.125 0.09375 0.3125 0.09375q0.25 0 0.734375 -0.171875l0.15625 1.421875q-0.640625 0.265625 -1.453125 0.265625q-0.484375 0 -0.890625 -0.15625q-0.390625 -0.171875 -0.578125 -0.4375q-0.1875 -0.265625 -0.265625 -0.71875q-0.046875 -0.3125 -0.046875 -1.28125l0 -3.015625l-0.84375 0l0 -1.453125l0.84375 0l0 -1.3750038l1.828125 -1.078125l0 2.4531288l1.25 0zm2.6414948 2.109375l-1.671875 -0.3125q0.28125 -1.0 0.96875 -1.46875q0.6875 -0.484375 2.03125 -0.484375q1.21875 0 1.8125 0.296875q0.609375 0.28125 0.84375 0.734375q0.25 0.4375 0.25 1.625l-0.015625 2.140625q0 0.90625 0.078125 1.34375q0.09375 0.421875 0.34375 0.921875l-1.8125 0q-0.078125 -0.1875 -0.171875 -0.546875q-0.046875 -0.15625 -0.078125 -0.203125q-0.46875 0.453125 -1.0 0.6875q-0.53125 0.21875 -1.140625 0.21875q-1.0625 0 -1.6875 -0.578125q-0.609375 -0.578125 -0.609375 -1.46875q0 -0.578125 0.28125 -1.03125q0.28125 -0.46875 0.78125 -0.703125q0.515625 -0.25 1.46875 -0.4375q1.28125 -0.234375 1.765625 -0.453125l0 -0.171875q0 -0.53125 -0.265625 -0.75q-0.25 -0.234375 -0.96875 -0.234375q-0.484375 0 -0.765625 0.203125q-0.265625 0.1875 -0.4375 0.671875zm2.4375 1.484375q-0.34375 0.109375 -1.109375 0.28125q-0.765625 0.15625 -1.0 0.3125q-0.359375 0.25 -0.359375 0.640625q0 0.390625 0.28125 0.671875q0.296875 0.28125 0.734375 0.28125q0.5 0 0.953125 -0.328125q0.328125 -0.25 0.4375 -0.609375q0.0625 -0.234375 0.0625 -0.890625l0 -0.359375z" fill-rule="nonzero"/><path fill="#ff462b" d="m120.52756 66.40157l68.55118 -57.952755l68.55118 57.952755l-68.55118 57.95276z" fill-rule="evenodd"/><path fill="#000000" d="m171.02014 66.530945l-1.609375 0.296875q-0.09375 -0.484375 -0.390625 -0.71875q-0.28125 -0.25 -0.734375 -0.25q-0.625 0 -1.0 0.421875q-0.359375 0.421875 -0.359375 1.421875q0 1.109375 0.375 1.5625q0.375 0.453125 1.0 0.453125q0.46875 0 0.765625 -0.265625q0.296875 -0.265625 0.421875 -0.921875l1.625 0.28125q-0.25 1.109375 -0.96875 1.6875q-0.71875 0.5625 -1.921875 0.5625q-1.359375 0 -2.171875 -0.859375q-0.8125 -0.859375 -0.8125 -2.390625q0 -1.53125 0.8125 -2.390625q0.8125 -0.859375 2.203125 -0.859375q1.140625 0 1.8125 0.484375q0.671875 0.484375 0.953125 1.484375zm1.2519531 4.390625l0 -8.593746l1.65625 0l0 8.593746l-1.65625 0zm6.9433594 -1.984375l1.640625 0.28125q-0.3125 0.90625 -1.0 1.375q-0.6875 0.46875 -1.703125 0.46875q-1.625 0 -2.40625 -1.0625q-0.625 -0.84375 -0.625 -2.140625q0 -1.546875 0.8125 -2.421875q0.8125 -0.875 2.046875 -0.875q1.390625 0 2.1875 0.921875q0.8125 0.90625 0.765625 2.796875l-4.125 0q0.03125 0.734375 0.40625 1.140625q0.375 0.40625 0.953125 0.40625q0.375 0 0.640625 -0.203125q0.265625 -0.21875 0.40625 -0.6875zm0.09375 -1.65625q-0.015625 -0.71875 -0.375 -1.09375q-0.34375 -0.375 -0.859375 -0.375q-0.53125 0 -0.890625 0.390625q-0.34375 0.40625 -0.34375 1.078125l2.46875 0zm4.205078 -0.6875l-1.5 -0.265625q0.25 -0.90625 0.859375 -1.328125q0.625 -0.4375 1.84375 -0.4375q1.09375 0 1.625 0.265625q0.546875 0.25 0.765625 0.65625q0.21875 0.390625 0.21875 1.46875l-0.015625 1.921875q0 0.828125 0.078125 1.21875q0.078125 0.375 0.296875 0.828125l-1.625 0q-0.0625 -0.171875 -0.15625 -0.484375q-0.046875 -0.15625 -0.0625 -0.203125q-0.421875 0.421875 -0.90625 0.625q-0.46875 0.203125 -1.015625 0.203125q-0.96875 0 -1.53125 -0.515625q-0.546875 -0.53125 -0.546875 -1.328125q0 -0.53125 0.25 -0.9375q0.265625 -0.40625 0.71875 -0.625q0.453125 -0.234375 1.3125 -0.390625q1.140625 -0.21875 1.59375 -0.40625l0 -0.15625q0 -0.484375 -0.234375 -0.6875q-0.234375 -0.203125 -0.890625 -0.203125q-0.4375 0 -0.6875 0.171875q-0.234375 0.171875 -0.390625 0.609375zm2.203125 1.34375q-0.3125 0.09375 -1.0 0.25q-0.6875 0.140625 -0.90625 0.28125q-0.3125 0.234375 -0.3125 0.578125q0 0.34375 0.25 0.609375q0.265625 0.25 0.65625 0.25q0.453125 0 0.859375 -0.296875q0.296875 -0.21875 0.390625 -0.546875q0.0625 -0.203125 0.0625 -0.796875l0 -0.328125zm8.892578 2.984375l-1.640625 0l0 -3.171875q0 -1.015625 -0.109375 -1.3125q-0.09375 -0.296875 -0.34375 -0.453125q-0.234375 -0.171875 -0.5625 -0.171875q-0.4375 0 -0.78125 0.234375q-0.328125 0.234375 -0.453125 0.625q-0.125 0.390625 -0.125 1.4375l0 2.8125l-1.65625 0l0 -6.21875l1.53125 0l0 0.90625q0.8125 -1.046875 2.0625 -1.046875q0.53125 0 0.984375 0.203125q0.453125 0.1875 0.6875 0.5q0.234375 0.296875 0.3125 0.6875q0.09375 0.375 0.09375 1.09375l0 3.875zm1.6738281 -7.062496l0 -1.53125l1.65625 0l0 1.53125l-1.65625 0zm0 7.062496l0 -6.21875l1.65625 0l0 6.21875l-1.65625 0zm8.990234 0l-1.640625 0l0 -3.171875q0 -1.015625 -0.109375 -1.3125q-0.09375 -0.296875 -0.34375 -0.453125q-0.234375 -0.171875 -0.5625 -0.171875q-0.4375 0 -0.78125 0.234375q-0.328125 0.234375 -0.453125 0.625q-0.125 0.390625 -0.125 1.4375l0 2.8125l-1.65625 0l0 -6.21875l1.53125 0l0 0.90625q0.8125 -1.046875 2.0625 -1.046875q0.53125 0 0.984375 0.203125q0.453125 0.1875 0.6875 0.5q0.234375 0.296875 0.3125 0.6875q0.09375 0.375 0.09375 1.09375l0 3.875zm1.5175781 0.40625l1.890625 0.234375q0.046875 0.328125 0.21875 0.453125q0.234375 0.171875 0.734375 0.171875q0.640625 0 0.96875 -0.1875q0.21875 -0.140625 0.328125 -0.421875q0.078125 -0.203125 0.078125 -0.75l0 -0.921875q-0.75 1.015625 -1.875 1.015625q-1.25 0 -1.984375 -1.0625q-0.5625 -0.84375 -0.5625 -2.078125q0 -1.578125 0.75 -2.390625q0.75 -0.828125 1.875 -0.828125q1.140625 0 1.890625 1.015625l0 -0.875l1.546875 0l0 5.578125q0 1.109375 -0.1875 1.640625q-0.171875 0.546875 -0.5 0.859375q-0.328125 0.3125 -0.875 0.484375q-0.546875 0.1875 -1.390625 0.1875q-1.578125 0 -2.25 -0.546875q-0.65625 -0.546875 -0.65625 -1.375q0 -0.078125 0 -0.203125zm1.484375 -3.640625q0 0.984375 0.375 1.453125q0.390625 0.453125 0.953125 0.453125q0.59375 0 1.015625 -0.46875q0.421875 -0.484375 0.421875 -1.40625q0 -0.96875 -0.40625 -1.4375q-0.390625 -0.46875 -1.0 -0.46875q-0.59375 0 -0.984375 0.46875q-0.375 0.453125 -0.375 1.40625z" fill-rule="nonzero"/><path fill="#000000" fill-opacity="0.0" d="m104.55905 66.40157l15.968506 0" fill-rule="evenodd"/><path stroke="#08a87d" stroke-width="2.0" stroke-linejoin="round" stroke-linecap="butt" d="m104.55905 66.40157l3.9685059 0" fill-rule="evenodd"/><path fill="#08a87d" stroke="#08a87d" stroke-width="2.0" stroke-linecap="butt" d="m108.52756 69.70504l9.076195 -3.3034668l-9.076195 -3.303463z" fill-rule="evenodd"/><path fill="#000000" fill-opacity="0.0" d="m257.6299 66.40157l19.055115 0" fill-rule="evenodd"/><path stroke="#08a87d" stroke-width="2.0" stroke-linejoin="round" stroke-linecap="butt" d="m257.6299 66.40157l7.0551147 0" fill-rule="evenodd"/><path fill="#08a87d" stroke="#08a87d" stroke-width="2.0" stroke-linecap="butt" d="m264.68503 69.70504l9.076202 -3.3034668l-9.076202 -3.303463z" fill-rule="evenodd"/><path fill="#283282" d="m276.6824 23.188976l102.36221 0l0 72.020706l-14.40448 14.404488l-87.95773 0z" fill-rule="evenodd"/><path fill="#1f2767" d="m364.64014 109.614174l2.88089 -11.52359l11.52359 -2.8808975z" fill-rule="evenodd"/><path fill="#000000" fill-opacity="0.0" d="m364.64014 109.614174l2.88089 -11.52359l11.52359 -2.8808975l-14.40448 14.404488l-87.95773 0l0 -86.4252l102.36221 0l0 72.020706" fill-rule="evenodd"/><path fill="#ffffff" d="m294.47626 67.12434l-1.796875 0.328125q-0.09375 -0.53125 -0.421875 -0.796875q-0.328125 -0.28125 -0.828125 -0.28125q-0.6875 0 -1.09375 0.46875q-0.40625 0.46875 -0.40625 1.578125q0 1.234375 0.40625 1.75q0.421875 0.5 1.109375 0.5q0.53125 0 0.859375 -0.296875q0.328125 -0.296875 0.46875 -1.03125l1.796875 0.3125q-0.28125 1.234375 -1.078125 1.875q-0.796875 0.625 -2.125 0.625q-1.515625 0 -2.421875 -0.953125q-0.90625 -0.953125 -0.90625 -2.65625q0 -1.703125 0.90625 -2.65625q0.90625 -0.953125 2.453125 -0.953125q1.265625 0 2.0 0.546875q0.75 0.53125 1.078125 1.640625zm1.3812256 4.875l0 -9.546879l1.828125 0l0 9.546879l-1.828125 0zm7.7029724 -2.203125l1.828125 0.3125q-0.34375 1.0 -1.109375 1.53125q-0.765625 0.515625 -1.890625 0.515625q-1.8125 0 -2.671875 -1.171875q-0.6875 -0.953125 -0.6875 -2.390625q0 -1.71875 0.890625 -2.6875q0.90625 -0.96875 2.28125 -0.96875q1.546875 0 2.4375 1.015625q0.890625 1.015625 0.84375 3.125l-4.578125 0q0.015625 0.8125 0.4375 1.265625q0.421875 0.453125 1.0625 0.453125q0.421875 0 0.71875 -0.234375q0.296875 -0.234375 0.4375 -0.765625zm0.109375 -1.84375q-0.015625 -0.796875 -0.40625 -1.203125q-0.390625 -0.421875 -0.953125 -0.421875q-0.59375 0 -0.984375 0.4375q-0.390625 0.4375 -0.390625 1.1875l2.734375 0zm4.6781006 -0.75l-1.671875 -0.3125q0.28125 -1.0 0.96875 -1.46875q0.6875 -0.484375 2.03125 -0.484375q1.21875 0 1.8125 0.296875q0.609375 0.28125 0.84375 0.734375q0.25 0.4375 0.25 1.625l-0.015625 2.140625q0 0.90625 0.078125 1.34375q0.09375 0.421875 0.34375 0.921875l-1.8125 0q-0.078125 -0.1875 -0.171875 -0.546875q-0.046875 -0.15625 -0.078125 -0.203125q-0.46875 0.453125 -1.0 0.6875q-0.53125 0.21875 -1.140625 0.21875q-1.0625 0 -1.6875 -0.578125q-0.609375 -0.578125 -0.609375 -1.46875q0 -0.578125 0.28125 -1.03125q0.28125 -0.46875 0.78125 -0.703125q0.515625 -0.25 1.46875 -0.4375q1.28125 -0.234375 1.765625 -0.453125l0 -0.171875q0 -0.53125 -0.265625 -0.75q-0.25 -0.234375 -0.96875 -0.234375q-0.484375 0 -0.765625 0.203125q-0.265625 0.1875 -0.4375 0.671875zm2.4375 1.484375q-0.34375 0.109375 -1.109375 0.28125q-0.765625 0.15625 -1.0 0.3125q-0.359375 0.25 -0.359375 0.640625q0 0.390625 0.28125 0.671875q0.296875 0.28125 0.734375 0.28125q0.5 0 0.953125 -0.328125q0.328125 -0.25 0.4375 -0.609375q0.0625 -0.234375 0.0625 -0.890625l0 -0.359375zm9.896851 3.3125l-1.828125 0l0 -3.53125q0 -1.109375 -0.125 -1.4375q-0.109375 -0.328125 -0.375 -0.515625q-0.265625 -0.1875 -0.640625 -0.1875q-0.46875 0 -0.859375 0.265625q-0.375 0.265625 -0.515625 0.703125q-0.140625 0.421875 -0.140625 1.578125l0 3.125l-1.828125 0l0 -6.90625l1.703125 0l0 1.015625q0.90625 -1.171875 2.28125 -1.171875q0.609375 0 1.109375 0.21875q0.5 0.21875 0.75 0.5625q0.265625 0.328125 0.359375 0.765625q0.109375 0.421875 0.109375 1.21875l0 4.296875zm5.8444824 -2.203125l1.828125 0.3125q-0.34375 1.0 -1.109375 1.53125q-0.765625 0.515625 -1.890625 0.515625q-1.8125 0 -2.671875 -1.171875q-0.6875 -0.953125 -0.6875 -2.390625q0 -1.71875 0.890625 -2.6875q0.90625 -0.96875 2.28125 -0.96875q1.546875 0 2.4375 1.015625q0.890625 1.015625 0.84375 3.125l-4.578125 0q0.015625 0.8125 0.4375 1.265625q0.421875 0.453125 1.0625 0.453125q0.421875 0 0.71875 -0.234375q0.296875 -0.234375 0.4375 -0.765625zm0.109375 -1.84375q-0.015625 -0.796875 -0.40625 -1.203125q-0.390625 -0.421875 -0.953125 -0.421875q-0.59375 0 -0.984375 0.4375q-0.390625 0.4375 -0.390625 1.1875l2.734375 0zm9.646851 4.046875l-1.703125 0l0 -1.015625q-0.421875 0.59375 -1.0 0.890625q-0.578125 0.28125 -1.15625 0.28125q-1.1875 0 -2.046875 -0.953125q-0.84375 -0.96875 -0.84375 -2.6875q0 -1.75 0.828125 -2.65625q0.828125 -0.921875 2.09375 -0.921875q1.15625 0 2.0 0.953125l0 -3.4375038l1.828125 0l0 9.546879zm-4.875 -3.609375q0 1.109375 0.296875 1.609375q0.4375 0.71875 1.234375 0.71875q0.640625 0 1.078125 -0.53125q0.4375 -0.546875 0.4375 -1.609375q0 -1.203125 -0.4375 -1.71875q-0.421875 -0.53125 -1.09375 -0.53125q-0.640625 0 -1.078125 0.515625q-0.4375 0.515625 -0.4375 1.546875zm16.71936 3.609375l-1.703125 0l0 -1.015625q-0.421875 0.59375 -1.0 0.890625q-0.578125 0.28125 -1.15625 0.28125q-1.1875 0 -2.046875 -0.953125q-0.84375 -0.96875 -0.84375 -2.6875q0 -1.75 0.828125 -2.65625q0.828125 -0.921875 2.09375 -0.921875q1.15625 0 2.0 0.953125l0 -3.4375038l1.828125 0l0 9.546879zm-4.875 -3.609375q0 1.109375 0.296875 1.609375q0.4375 0.71875 1.234375 0.71875q0.640625 0 1.078125 -0.53125q0.4375 -0.546875 0.4375 -1.609375q0 -1.203125 -0.4375 -1.71875q-0.421875 -0.53125 -1.09375 -0.53125q-0.640625 0 -1.078125 0.515625q-0.4375 0.515625 -0.4375 1.546875zm8.047607 -1.1875l-1.671875 -0.3125q0.28125 -1.0 0.96875 -1.46875q0.6875 -0.484375 2.03125 -0.484375q1.21875 0 1.8125 0.296875q0.609375 0.28125 0.84375 0.734375q0.25 0.4375 0.25 1.625l-0.015625 2.140625q0 0.90625 0.078125 1.34375q0.09375 0.421875 0.34375 0.921875l-1.8125 0q-0.078125 -0.1875 -0.171875 -0.546875q-0.046875 -0.15625 -0.078125 -0.203125q-0.46875 0.453125 -1.0 0.6875q-0.53125 0.21875 -1.140625 0.21875q-1.0625 0 -1.6875 -0.578125q-0.609375 -0.578125 -0.609375 -1.46875q0 -0.578125 0.28125 -1.03125q0.28125 -0.46875 0.78125 -0.703125q0.515625 -0.25 1.46875 -0.4375q1.28125 -0.234375 1.765625 -0.453125l0 -0.171875q0 -0.53125 -0.265625 -0.75q-0.25 -0.234375 -0.96875 -0.234375q-0.484375 0 -0.765625 0.203125q-0.265625 0.1875 -0.4375 0.671875zm2.4375 1.484375q-0.34375 0.109375 -1.109375 0.28125q-0.765625 0.15625 -1.0 0.3125q-0.359375 0.25 -0.359375 0.640625q0 0.390625 0.28125 0.671875q0.296875 0.28125 0.734375 0.28125q0.5 0 0.953125 -0.328125q0.328125 -0.25 0.4375 -0.609375q0.0625 -0.234375 0.0625 -0.890625l0 -0.359375zm6.7718506 -3.59375l0 1.453125l-1.25 0l0 2.78125q0 0.84375 0.03125 0.984375q0.046875 0.140625 0.171875 0.234375q0.125 0.09375 0.3125 0.09375q0.25 0 0.734375 -0.171875l0.15625 1.421875q-0.640625 0.265625 -1.453125 0.265625q-0.484375 0 -0.890625 -0.15625q-0.390625 -0.171875 -0.578125 -0.4375q-0.1875 -0.265625 -0.265625 -0.71875q-0.046875 -0.3125 -0.046875 -1.28125l0 -3.015625l-0.84375 0l0 -1.453125l0.84375 0l0 -1.3750038l1.828125 -1.078125l0 2.4531288l1.25 0zm2.6414795 2.109375l-1.671875 -0.3125q0.28125 -1.0 0.96875 -1.46875q0.6875 -0.484375 2.03125 -0.484375q1.21875 0 1.8125 0.296875q0.609375 0.28125 0.84375 0.734375q0.25 0.4375 0.25 1.625l-0.015625 2.140625q0 0.90625 0.078125 1.34375q0.09375 0.421875 0.34375 0.921875l-1.8125 0q-0.078125 -0.1875 -0.171875 -0.546875q-0.046875 -0.15625 -0.078125 -0.203125q-0.46875 0.453125 -1.0 0.6875q-0.53125 0.21875 -1.140625 0.21875q-1.0625 0 -1.6875 -0.578125q-0.609375 -0.578125 -0.609375 -1.46875q0 -0.578125 0.28125 -1.03125q0.28125 -0.46875 0.78125 -0.703125q0.515625 -0.25 1.46875 -0.4375q1.28125 -0.234375 1.765625 -0.453125l0 -0.171875q0 -0.53125 -0.265625 -0.75q-0.25 -0.234375 -0.96875 -0.234375q-0.484375 0 -0.765625 0.203125q-0.265625 0.1875 -0.4375 0.671875zm2.4375 1.484375q-0.34375 0.109375 -1.109375 0.28125q-0.765625 0.15625 -1.0 0.3125q-0.359375 0.25 -0.359375 0.640625q0 0.390625 0.28125 0.671875q0.296875 0.28125 0.734375 0.28125q0.5 0 0.953125 -0.328125q0.328125 -0.25 0.4375 -0.609375q0.0625 -0.234375 0.0625 -0.890625l0 -0.359375z" fill-rule="nonzero"/><path fill="#ffffff" d="m16.30335 29.883053c1.1996136 0 2.4035244 0.09967232 3.3398933 0.27723694c0.12514114 0.026031494 0.24591446 0.047677994 0.3537922 0.07370949c-0.10787773 0.02596283 -0.22865105 0.051927567 -0.3537922 0.07364082c-0.93636894 0.18194771 -2.1359806 0.27723885 -3.3398933 0.27723885c-1.1996117 0 -2.351735 -0.09529114 -3.288103 -0.27723885c-0.12943935 -0.021713257 -0.24591541 -0.047677994 -0.3537922 -0.07364082c0.10787678 -0.026031494 0.22435284 -0.047677994 0.3537922 -0.07370949c0.936368 -0.17756462 2.0884914 -0.27723694 3.288103 -0.27723694zm4.6645794 1.2043724l0 1.9105148c-0.41854477 0.12995529 -0.8457527 0.23387527 -1.2772617 0.3119011l-0.047424316 0.00863266c-1.0089264 0.18267822 -2.0337257 0.27783585 -3.0629578 0.27783585c-0.044843674 0 -0.08968735 -1.9836426E-4 -0.13453102 -5.302429E-4c-1.1996136 0 -2.4941397 -0.099674225 -3.4305077 -0.2773056c-0.12943935 -0.02596283 -0.24591541 -0.051994324 -0.3537922 -0.07795715l0.004299164 0c-0.32793045 -0.06501007 -0.65586185 -0.1516037 -0.975194 -0.25559235l0 -1.8931828c1.0442457 0.35087967 2.7184916 0.57618904 4.6170893 0.57618904c1.9029636 0 3.603138 -0.2296257 4.66028 -0.5805054zm-9.2773695 2.9934998c1.0830708 0.359581 2.8306684 0.5935211 4.7551947 0.5935211c1.8770351 0 3.4994926 -0.22092438 4.522175 -0.5674896l0 1.6245804c-0.41854477 0.12995148 -0.8457527 0.23394012 -1.2772617 0.30758286c-0.9406681 0.16893387 -2.1402798 0.2642212 -3.3830185 0.2642212c-1.4024019 0 -2.6407738 -0.12125397 -3.6418953 -0.32923126c-0.32793045 -0.064941406 -0.65586185 -0.15159988 -0.975194 -0.25990677l0 -1.6332779zm9.2773695 2.7466125l0 1.802208c-0.41854477 0.12995529 -0.8457527 0.23394394 -1.2772617 0.3119011l-0.047424316 0.008701324c-0.93636894 0.17763138 -2.1014557 0.27723694 -3.3053665 0.27723694c-1.1996126 0 -2.386262 -0.09960556 -3.32263 -0.27723694c-0.12943935 -0.026031494 -0.24591541 -0.051994324 -0.3537922 -0.07796097l0.004299164 0c-0.32793045 -0.06501007 -0.65586185 -0.15166473 -0.975194 -0.25565338l0 -1.7848129c1.0442457 0.35087967 2.7184916 0.57618713 4.6170893 0.57618713c1.9029636 0 3.603138 -0.2296257 4.66028 -0.5805702zm-4.66028 -8.027538c-3.1715612 0 -5.7217884 0.6325016 -5.747649 1.4209843l0 8.61236l0 0.039043427c0 0.79273605 2.5933504 1.4339333 5.777877 1.4339333c3.1715622 0 5.7347527 -0.6324997 5.7606144 -1.4209824l0 -8.664354l0.004299164 0c-0.030160904 -0.78416634 -2.6278782 -1.4209843 -5.795141 -1.4209843z" fill-rule="evenodd"/><path fill="#ffffff" d="m13.390668 31.845562c-0.31496716 0 -0.56524754 0.25558853 -0.56524754 0.5674896c0 0.31628418 0.25028038 0.5718727 0.56524754 0.5718727c0.3107338 0 0.56531334 -0.25558853 0.56531334 -0.5718727c0 -0.3119011 -0.25457954 -0.5674896 -0.56531334 -0.5674896z" fill-rule="evenodd"/><path fill="#ffffff" d="m13.390668 34.717808c-0.31496716 0 -0.56524754 0.2512741 -0.56524754 0.56749344c0 0.31189728 0.25028038 0.5674896 0.56524754 0.5674896c0.3107338 0 0.56531334 -0.25559235 0.56531334 -0.5674896c0 -0.31621933 -0.25457954 -0.56749344 -0.56531334 -0.56749344z" fill-rule="evenodd"/><path fill="#ffffff" d="m13.390668 37.585674c-0.31496716 0 -0.56524754 0.2556572 -0.56524754 0.5675583c0 0.31621552 0.25028038 0.57180405 0.56524754 0.57180405c0.3107338 0 0.56531334 -0.25558853 0.56531334 -0.57180405c0 -0.3119011 -0.25457954 -0.5675583 -0.56531334 -0.5675583z" fill-rule="evenodd"/><path fill="#ffffff" d="m290.86334 29.883053c1.1996155 0 2.403534 0.09967232 3.3399048 0.27723694c0.12512207 0.026031494 0.24591064 0.047677994 0.35379028 0.07370949c-0.10787964 0.02596283 -0.22866821 0.051927567 -0.35379028 0.07364082c-0.93637085 0.18194771 -2.1359863 0.27723885 -3.3399048 0.27723885c-1.1996155 0 -2.351715 -0.09529114 -3.288086 -0.27723885c-0.12945557 -0.021713257 -0.24591064 -0.047677994 -0.35379028 -0.07364082c0.10787964 -0.026031494 0.22433472 -0.047677994 0.35379028 -0.07370949c0.93637085 -0.17756462 2.0884705 -0.27723694 3.288086 -0.27723694zm4.6645813 1.2043724l0 1.9105148c-0.41854858 0.12995529 -0.84573364 0.23387527 -1.2772522 0.3119011l-0.047424316 0.00863266c-1.0089417 0.18267822 -2.033722 0.27783585 -3.0629578 0.27783585c-0.04486084 0 -0.08969116 -1.9836426E-4 -0.13452148 -5.302429E-4c-1.1996155 0 -2.4941406 -0.099674225 -3.4305115 -0.2773056c-0.12945557 -0.02596283 -0.24591064 -0.051994324 -0.35379028 -0.07795715l0.0043029785 0c-0.3279419 -0.06501007 -0.6558838 -0.1516037 -0.9752197 -0.25559235l0 -1.8931828c1.0442505 0.35087967 2.7185059 0.57618904 4.617096 0.57618904c1.9029541 0 3.6031494 -0.2296257 4.6602783 -0.5805054zm-9.277374 2.9934998c1.0830688 0.359581 2.8306885 0.5935211 4.7552185 0.5935211c1.8770142 0 3.4994812 -0.22092438 4.522156 -0.5674896l0 1.6245804c-0.41854858 0.12995148 -0.84573364 0.23394012 -1.2772522 0.30758286c-0.9406738 0.16893387 -2.1402893 0.2642212 -3.3830261 0.2642212c-1.4024048 0 -2.6407776 -0.12125397 -3.6418762 -0.32923126c-0.3279419 -0.064941406 -0.6558838 -0.15159988 -0.9752197 -0.25990677l0 -1.6332779zm9.277374 2.7466125l0 1.802208c-0.41854858 0.12995529 -0.84573364 0.23394394 -1.2772522 0.3119011l-0.047424316 0.008701324c-0.93637085 0.17763138 -2.101471 0.27723694 -3.305359 0.27723694c-1.1996155 0 -2.386261 -0.09960556 -3.3226318 -0.27723694c-0.12945557 -0.026031494 -0.24591064 -0.051994324 -0.35379028 -0.07796097l0.0043029785 0c-0.3279419 -0.06501007 -0.6558838 -0.15166473 -0.9752197 -0.25565338l0 -1.7848129c1.0442505 0.35087967 2.7185059 0.57618713 4.617096 0.57618713c1.9029541 0 3.6031494 -0.2296257 4.6602783 -0.5805702zm-4.6602783 -8.027538c-3.1715698 0 -5.7217712 0.6325016 -5.74765 1.4209843l0 8.61236l0 0.039043427c0 0.79273605 2.5933533 1.4339333 5.777893 1.4339333c3.1715393 0 5.734741 -0.6324997 5.7605896 -1.4209824l0 -8.664354l0.0043029785 0c-0.030151367 -0.78416634 -2.6278687 -1.4209843 -5.7951355 -1.4209843z" fill-rule="evenodd"/><path fill="#ffffff" d="m287.95065 31.845562c-0.3149414 0 -0.5652466 0.25558853 -0.5652466 0.5674896c0 0.31628418 0.25030518 0.5718727 0.5652466 0.5718727c0.3107605 0 0.56533813 -0.25558853 0.56533813 -0.5718727c0 -0.3119011 -0.25457764 -0.5674896 -0.56533813 -0.5674896z" fill-rule="evenodd"/><path fill="#ffffff" d="m287.95065 34.717808c-0.3149414 0 -0.5652466 0.2512741 -0.5652466 0.56749344c0 0.31189728 0.25030518 0.5674896 0.5652466 0.5674896c0.3107605 0 0.56533813 -0.25559235 0.56533813 -0.5674896c0 -0.31621933 -0.25457764 -0.56749344 -0.56533813 -0.56749344z" fill-rule="evenodd"/><path fill="#ffffff" d="m287.95065 37.585674c-0.3149414 0 -0.5652466 0.2556572 -0.5652466 0.5675583c0 0.31621552 0.25030518 0.57180405 0.5652466 0.57180405c0.3107605 0 0.56533813 -0.25558853 0.56533813 -0.57180405c0 -0.3119011 -0.25457764 -0.5675583 -0.56533813 -0.5675583z" fill-rule="evenodd"/><path fill="#140a1e" d="m193.62697 24.21195l-5.29245 5.7463837l-1.4951324 -1.624649l-0.7476349 0.8080101l2.2427673 2.4369392l6.0400085 -6.562958l-0.7475586 -0.8037262zm-4.5259705 -1.022974c-0.0062408447 0 -0.012542725 6.67572E-5 -0.018859863 6.67572E-5c-0.0061187744 0 -0.012176514 0 -0.018310547 0c-2.3064728 0 -4.3504333 1.6223412 -5.052643 4.014286c-0.70010376 2.3982697 0.11076355 5.0157185 2.0054474 6.46414c0.9172058 0.6990433 1.9855042 1.0476112 3.052353 1.0476112c1.1369324 0 2.272171 -0.39580154 3.2210236 -1.1851692c1.8392792 -1.5301094 2.555252 -4.177601 1.7641449 -6.541479l0 0l-0.8504486 0.9283695c0.3955536 1.9039764 -0.35595703 3.8724499 -1.8788605 4.908268c-0.6897278 0.47103882 -1.4687042 0.7031975 -2.2451324 0.7031975c-0.9377594 0 -1.8716431 -0.3386879 -2.6398773 -1.0040665c-1.4041901 -1.2206116 -1.946106 -3.2707748 -1.3527832 -5.114603c0.5973358 -1.8437634 2.199295 -3.0730038 3.9950867 -3.0730038c0.80293274 0 1.5900879 0.24928665 2.2664795 0.71775436l0.7594452 -0.82520485c-0.8808899 -0.67512894 -1.9298553 -1.0401669 -3.0070648 -1.0401669z" fill-rule="evenodd"/></g></svg>
