<svg fill="none" height="48" viewBox="0 0 48 48" width="48" xmlns="http://www.w3.org/2000/svg"><g fill="#7a3db8"><path d="m19.41 12.0896c-.6-.6-1.53-.6-2.13 0l-10.83 10.83c-.6.6-.6 1.53 0 2.13l10.83 10.83c.3.3.69.45 1.05.45s.78-.15 1.05-.45c.6-.6.6-1.53 0-2.13l-9.78-9.78 9.78-9.78c.6-.6.6-1.53 0-2.13z"/><path d="m30.6894 12.0896c-.6-.6-1.53-.6-2.13 0s-.6 1.53 0 2.13l9.78 9.78-9.78 9.78c-.6.6001-.6 1.5301 0 2.1301.3.3.69.4499 1.05.4499s.78-.1499 1.05-.4499l10.83-10.8301c.6-.6.6-1.53 0-2.13l-10.83-10.83z"/></g></svg>