<svg width="49" height="48" viewBox="0 0 49 48" fill="none" xmlns="http://www.w3.org/2000/svg">
<path d="M24.1987 3.17969C12.5587 3.17969 3.46875 8.42969 3.46875 15.0897V24.0897C3.46875 24.3297 3.49875 24.5697 3.52875 24.7797H3.46875V33.7797C3.46875 40.4697 12.5887 45.6897 24.1987 45.6897C35.8087 45.6897 44.9287 40.4697 44.9287 33.7797V24.7797H44.8688C44.8688 24.5397 44.9287 24.3297 44.9287 24.0897V15.0897C44.9287 8.39969 35.8087 3.17969 24.1987 3.17969ZM6.46875 21.3297C10.0687 24.7497 16.5787 26.9997 24.1987 26.9997C31.8187 26.9997 38.3287 24.7497 41.9287 21.3297V24.1197C41.9287 28.9497 33.7987 33.0297 24.1987 33.0297C14.5987 33.0297 6.46875 28.9497 6.46875 24.1197V21.3297ZM24.1987 42.7497C14.5687 42.7497 6.46875 38.6697 6.46875 33.8397V30.3597C10.0687 33.7797 16.5787 36.0297 24.1987 36.0297C31.8187 36.0297 38.3287 33.7797 41.9287 30.3597V33.8397C41.9287 38.6697 33.7987 42.7497 24.1987 42.7497ZM24.1987 24.0297C14.5687 24.0297 6.46875 19.9497 6.46875 15.1197C6.46875 10.2897 14.5987 6.20969 24.1987 6.20969C33.7987 6.20969 41.9287 10.2897 41.9287 15.1197C41.9287 19.9497 33.7987 24.0297 24.1987 24.0297Z" fill="white"/>
</svg>
