<svg width="49" height="48" viewBox="0 0 49 48" fill="none" xmlns="http://www.w3.org/2000/svg">
<path d="M29.5504 46H22.4004C21.9187 46 21.515 45.8371 21.1891 45.5112C20.8633 45.1854 20.7004 44.7817 20.7004 44.3V31.8C20.7004 31.3183 20.8633 30.9146 21.1891 30.5888C21.515 30.2629 21.9187 30.1 22.4004 30.1H24.4504V23.45H7.40039C6.57539 23.45 5.86914 23.1563 5.28164 22.5688C4.69414 21.9813 4.40039 21.275 4.40039 20.45V10.8C4.40039 9.975 4.69414 9.26875 5.28164 8.68125C5.86914 8.09375 6.57539 7.8 7.40039 7.8H11.5504V5.7C11.5504 5.21833 11.7133 4.81458 12.0391 4.48875C12.365 4.16292 12.7687 4 13.2504 4H38.7004C39.1821 4 39.5858 4.16292 39.9116 4.48875C40.2375 4.81458 40.4004 5.21833 40.4004 5.7V13.3C40.4004 13.7817 40.2375 14.1854 39.9116 14.5112C39.5858 14.8371 39.1821 15 38.7004 15H13.2504C12.7687 15 12.365 14.8371 12.0391 14.5112C11.7133 14.1854 11.5504 13.7817 11.5504 13.3V10.8H7.40039V20.45H24.4504C25.2754 20.45 25.9816 20.7438 26.5691 21.3313C27.1566 21.9188 27.4504 22.625 27.4504 23.45V30.1H29.5504C30.0321 30.1 30.4358 30.2629 30.7616 30.5888C31.0875 30.9146 31.2504 31.3183 31.2504 31.8V44.3C31.2504 44.7817 31.0875 45.1854 30.7616 45.5112C30.4358 45.8371 30.0321 46 29.5504 46ZM23.7004 43H28.2504V33.1H23.7004V43ZM14.5504 12H37.4004V7H14.5504V12Z" fill="white"/>
</svg>
