<svg width="49" height="48" viewBox="0 0 49 48" fill="none" xmlns="http://www.w3.org/2000/svg">
<g clip-path="url(#clip0_1327_161)">
<path d="M45.9804 18.6302H25.1904L45.7104 15.7202C46.3404 15.6302 46.9104 15.3002 47.2704 14.7902C47.6304 14.2802 47.8104 13.6502 47.7204 13.0202L46.8804 7.05021C46.5204 4.47021 44.1204 2.67021 41.5404 3.03021L5.39042 8.13021C4.13042 8.31021 3.02042 8.97021 2.27042 9.96021C1.52042 10.9802 1.19042 12.2102 1.37042 13.4702L2.33042 20.2202V40.2602C2.33042 42.8702 4.46042 45.0002 7.07042 45.0002H43.5504C46.1604 45.0002 48.2904 42.8702 48.2904 40.2602V20.9402C48.2904 19.6502 47.2404 18.6302 45.9804 18.6302ZM20.7504 16.2302L13.4304 17.2502L17.1204 9.51021L24.4404 8.49021L20.7504 16.2302ZM28.0104 7.98021L35.3304 6.96021L31.6404 14.7002L24.3204 15.7202L28.0104 7.98021ZM41.9604 6.00021C42.9204 5.85021 43.7904 6.54021 43.9104 7.47021L44.6604 12.8402L35.1804 14.1902L38.8704 6.45021L41.9604 6.03021V6.00021ZM4.64042 11.7902C4.91042 11.4302 5.33042 11.1902 5.78042 11.1302L13.5504 10.0202L9.86042 17.7602L5.06042 18.4502L4.31042 13.0802C4.25042 12.6302 4.37042 12.1502 4.64042 11.7902ZM45.2904 40.2902C45.2904 41.2502 44.5104 42.0302 43.5504 42.0302H7.04042C6.08042 42.0302 5.30042 41.2502 5.30042 40.2902V21.6302H45.2904V40.2902Z" fill="white"/>
</g>
<defs>
<clipPath id="clip0_1327_161">
<rect width="48" height="48" fill="white" transform="translate(0.800781)"/>
</clipPath>
</defs>
</svg>
