<svg version="1.1" viewBox="0.0 0.0 385.08923884514434 134.04461942257217" fill="none" stroke="none" stroke-linecap="square" stroke-miterlimit="10" xmlns:xlink="http://www.w3.org/1999/xlink" xmlns="http://www.w3.org/2000/svg"><clipPath id="p.0"><path d="m0 0l385.08923 0l0 134.04462l-385.08923 0l0 -134.04462z" clip-rule="nonzero"/></clipPath><g clip-path="url(#p.0)"><path fill="#000000" fill-opacity="0.0" d="m0 0l385.08923 0l0 134.04462l-385.08923 0z" fill-rule="evenodd"/><path fill="#283282" d="m2.1968503 23.188976l102.3622 0l0 72.020706l-14.404488 14.404488l-87.95771 0z" fill-rule="evenodd"/><path fill="#1f2767" d="m90.154564 109.614174l2.8808975 -11.52359l11.52359 -2.8808975z" fill-rule="evenodd"/><path fill="#000000" fill-opacity="0.0" d="m90.154564 109.614174l2.8808975 -11.52359l11.52359 -2.8808975l-14.404488 14.404488l-87.95771 0l0 -86.4252l102.3622 0l0 72.020706" fill-rule="evenodd"/><path fill="#ffffff" d="m43.219376 71.99934l-1.828125 0l0 -3.53125q0 -1.109375 -0.125 -1.4375q-0.109375 -0.328125 -0.375 -0.515625q-0.265625 -0.1875 -0.640625 -0.1875q-0.46875 0 -0.859375 0.265625q-0.375 0.265625 -0.515625 0.703125q-0.140625 0.421875 -0.140625 1.578125l0 3.125l-1.828125 0l0 -6.90625l1.703125 0l0 1.015625q0.90625 -1.171875 2.28125 -1.171875q0.609375 0 1.109375 0.21875q0.5 0.21875 0.75 0.5625q0.265625 0.328125 0.359375 0.765625q0.109375 0.421875 0.109375 1.21875l0 4.296875zm3.2194824 -4.796875l-1.671875 -0.3125q0.28125 -1.0 0.96875 -1.46875q0.6875 -0.484375 2.03125 -0.484375q1.21875 0 1.8125 0.296875q0.609375 0.28125 0.84375 0.734375q0.25 0.4375 0.25 1.625l-0.015625 2.140625q0 0.90625 0.078125 1.34375q0.09375 0.421875 0.34375 0.921875l-1.8125 0q-0.078125 -0.1875 -0.171875 -0.546875q-0.046875 -0.15625 -0.078125 -0.203125q-0.46875 0.453125 -1.0 0.6875q-0.53125 0.21875 -1.140625 0.21875q-1.0625 0 -1.6875 -0.578125q-0.609375 -0.578125 -0.609375 -1.46875q0 -0.578125 0.28125 -1.03125q0.28125 -0.46875 0.78125 -0.703125q0.515625 -0.25 1.46875 -0.4375q1.28125 -0.234375 1.765625 -0.453125l0 -0.171875q0 -0.53125 -0.265625 -0.75q-0.25 -0.234375 -0.96875 -0.234375q-0.484375 0 -0.765625 0.203125q-0.265625 0.1875 -0.4375 0.671875zm2.4375 1.484375q-0.34375 0.109375 -1.109375 0.28125q-0.765625 0.15625 -1.0 0.3125q-0.359375 0.25 -0.359375 0.640625q0 0.390625 0.28125 0.671875q0.296875 0.28125 0.734375 0.28125q0.5 0 0.953125 -0.328125q0.328125 -0.25 0.4375 -0.609375q0.0625 -0.234375 0.0625 -0.890625l0 -0.359375zm3.4593506 -3.59375l1.6875 0l0 0.9375q0.90625 -1.09375 2.15625 -1.09375q0.671875 0 1.15625 0.28125q0.484375 0.265625 0.796875 0.8125q0.453125 -0.546875 0.984375 -0.8125q0.53125 -0.28125 1.125 -0.28125q0.765625 0 1.28125 0.3125q0.53125 0.296875 0.796875 0.90625q0.1875 0.4375 0.1875 1.421875l0 4.421875l-1.828125 0l0 -3.953125q0 -1.03125 -0.1875 -1.328125q-0.25 -0.390625 -0.78125 -0.390625q-0.390625 0 -0.734375 0.234375q-0.328125 0.234375 -0.484375 0.6875q-0.140625 0.453125 -0.140625 1.4375l0 3.3125l-1.828125 0l0 -3.78125q0 -1.015625 -0.109375 -1.296875q-0.09375 -0.296875 -0.296875 -0.4375q-0.203125 -0.15625 -0.546875 -0.15625q-0.421875 0 -0.765625 0.234375q-0.34375 0.21875 -0.484375 0.65625q-0.140625 0.421875 -0.140625 1.421875l0 3.359375l-1.84375 0l0 -6.90625zm15.99147 4.703125l1.828125 0.3125q-0.34375 1.0 -1.109375 1.53125q-0.765625 0.515625 -1.890625 0.515625q-1.8125 0 -2.671875 -1.171875q-0.6875 -0.953125 -0.6875 -2.390625q0 -1.71875 0.890625 -2.6875q0.90625 -0.96875 2.28125 -0.96875q1.546875 0 2.4375 1.015625q0.890625 1.015625 0.84375 3.125l-4.578125 0q0.015625 0.8125 0.4375 1.265625q0.421875 0.453125 1.0625 0.453125q0.421875 0 0.71875 -0.234375q0.296875 -0.234375 0.4375 -0.765625zm0.109375 -1.84375q-0.015625 -0.796875 -0.40625 -1.203125q-0.390625 -0.421875 -0.953125 -0.421875q-0.59375 0 -0.984375 0.4375q-0.390625 0.4375 -0.390625 1.1875l2.734375 0z" fill-rule="nonzero"/><path fill="#ff462b" d="m120.52756 66.40157l68.55118 -57.952755l68.55118 57.952755l-68.55118 57.95276z" fill-rule="evenodd"/><path fill="#000000" d="m176.54228 56.016575l3.046875 0q0.90625 0 1.34375 0.078125q0.453125 0.0625 0.796875 0.3125q0.359375 0.234375 0.59375 0.640625q0.234375 0.390625 0.234375 0.890625q0 0.53125 -0.296875 0.984375q-0.28125 0.4375 -0.78125 0.671875q0.703125 0.203125 1.078125 0.6875q0.375 0.484375 0.375 1.140625q0 0.53125 -0.25 1.03125q-0.234375 0.484375 -0.65625 0.78125q-0.421875 0.28125 -1.03125 0.359375q-0.390625 0.03125 -1.859375 0.046875l-2.59375 0l0 -7.625zm1.546875 1.265625l0 1.765625l1.0 0q0.90625 0 1.125 -0.03125q0.390625 -0.046875 0.609375 -0.265625q0.234375 -0.234375 0.234375 -0.59375q0 -0.359375 -0.203125 -0.578125q-0.1875 -0.21875 -0.578125 -0.265625q-0.21875 -0.03125 -1.3125 -0.03125l-0.875 0zm0 3.03125l0 2.046875l1.421875 0q0.828125 0 1.046875 -0.046875q0.34375 -0.0625 0.5625 -0.296875q0.21875 -0.25 0.21875 -0.65625q0 -0.34375 -0.171875 -0.578125q-0.15625 -0.25 -0.484375 -0.359375q-0.3125 -0.109375 -1.359375 -0.109375l-1.234375 0zm9.773727 3.328125l0 -0.828125q-0.3125 0.4375 -0.8125 0.703125q-0.484375 0.25 -1.015625 0.25q-0.5625 0 -1.015625 -0.234375q-0.4375 -0.25 -0.640625 -0.6875q-0.1875 -0.453125 -0.1875 -1.234375l0 -3.5l1.46875 0l0 2.546875q0 1.15625 0.078125 1.421875q0.078125 0.265625 0.28125 0.421875q0.21875 0.15625 0.546875 0.15625q0.375 0 0.671875 -0.203125q0.296875 -0.21875 0.40625 -0.515625q0.109375 -0.3125 0.109375 -1.484375l0 -2.34375l1.46875 0l0 5.53125l-1.359375 0zm2.868637 -6.28125l0 -1.34375l1.46875 0l0 1.34375l-1.46875 0zm0 6.28125l0 -5.53125l1.46875 0l0 5.53125l-1.46875 0zm2.9606476 0l0 -7.625l1.46875 0l0 7.625l-1.46875 0zm8.023148 0l-1.359375 0l0 -0.8125q-0.328125 0.46875 -0.796875 0.703125q-0.453125 0.234375 -0.921875 0.234375q-0.953125 0 -1.640625 -0.765625q-0.671875 -0.765625 -0.671875 -2.140625q0 -1.40625 0.65625 -2.140625q0.671875 -0.734375 1.671875 -0.734375q0.921875 0 1.609375 0.78125l0 -2.75l1.453125 0l0 7.625zm-3.890625 -2.875q0 0.875 0.234375 1.265625q0.359375 0.578125 0.984375 0.578125q0.515625 0 0.859375 -0.421875q0.359375 -0.4375 0.359375 -1.28125q0 -0.953125 -0.34375 -1.375q-0.34375 -0.421875 -0.875 -0.421875q-0.515625 0 -0.875 0.421875q-0.34375 0.40625 -0.34375 1.234375z" fill-rule="nonzero"/><path fill="#000000" d="m166.92656 71.11032l1.34375 0l0 0.765625q0.71875 -0.890625 1.71875 -0.890625q0.53125 0 0.921875 0.21875q0.390625 0.21875 0.640625 0.671875q0.375 -0.453125 0.796875 -0.671875q0.421875 -0.21875 0.890625 -0.21875q0.609375 0 1.03125 0.25q0.421875 0.25 0.625 0.734375q0.15625 0.34375 0.15625 1.140625l0 3.53125l-1.453125 0l0 -3.15625q0 -0.828125 -0.15625 -1.0625q-0.203125 -0.3125 -0.625 -0.3125q-0.3125 0 -0.578125 0.1875q-0.265625 0.1875 -0.390625 0.546875q-0.125 0.359375 -0.125 1.140625l0 2.65625l-1.453125 0l0 -3.03125q0 -0.796875 -0.078125 -1.03125q-0.078125 -0.234375 -0.25 -0.34375q-0.15625 -0.125 -0.4375 -0.125q-0.34375 0 -0.609375 0.1875q-0.265625 0.171875 -0.390625 0.515625q-0.109375 0.34375 -0.109375 1.140625l0 2.6875l-1.46875 0l0 -5.53125zm12.787613 3.765625l1.453125 0.25q-0.28125 0.796875 -0.890625 1.21875q-0.609375 0.421875 -1.515625 0.421875q-1.4375 0 -2.125 -0.9375q-0.546875 -0.765625 -0.546875 -1.90625q0 -1.375 0.71875 -2.15625q0.71875 -0.78125 1.8125 -0.78125q1.234375 0 1.9375 0.828125q0.71875 0.8125 0.6875 2.484375l-3.65625 0q0.015625 0.65625 0.34375 1.015625q0.34375 0.359375 0.84375 0.359375q0.34375 0 0.578125 -0.1875q0.234375 -0.1875 0.359375 -0.609375zm0.078125 -1.46875q-0.015625 -0.640625 -0.328125 -0.96875q-0.3125 -0.328125 -0.765625 -0.328125q-0.46875 0 -0.78125 0.34375q-0.3125 0.359375 -0.3125 0.953125l2.1875 0zm2.1296234 1.65625l1.46875 -0.21875q0.09375 0.421875 0.375 0.640625q0.296875 0.21875 0.796875 0.21875q0.578125 0 0.859375 -0.203125q0.1875 -0.140625 0.1875 -0.390625q0 -0.171875 -0.09375 -0.28125q-0.109375 -0.09375 -0.5 -0.1875q-1.765625 -0.390625 -2.234375 -0.703125q-0.65625 -0.453125 -0.65625 -1.25q0 -0.71875 0.5625 -1.203125q0.578125 -0.5 1.765625 -0.5q1.125 0 1.671875 0.375q0.5625 0.375 0.765625 1.09375l-1.375 0.25q-0.09375 -0.3125 -0.34375 -0.484375q-0.234375 -0.171875 -0.703125 -0.171875q-0.5625 0 -0.8125 0.15625q-0.171875 0.109375 -0.171875 0.296875q0 0.15625 0.140625 0.265625q0.203125 0.140625 1.359375 0.40625q1.171875 0.265625 1.640625 0.65625q0.453125 0.390625 0.453125 1.078125q0 0.765625 -0.640625 1.3125q-0.625 0.546875 -1.875 0.546875q-1.125 0 -1.78125 -0.453125q-0.65625 -0.46875 -0.859375 -1.25zm5.9264984 0l1.46875 -0.21875q0.09375 0.421875 0.375 0.640625q0.296875 0.21875 0.796875 0.21875q0.578125 0 0.859375 -0.203125q0.1875 -0.140625 0.1875 -0.390625q0 -0.171875 -0.09375 -0.28125q-0.109375 -0.09375 -0.5 -0.1875q-1.765625 -0.390625 -2.234375 -0.703125q-0.65625 -0.453125 -0.65625 -1.25q0 -0.71875 0.5625 -1.203125q0.578125 -0.5 1.765625 -0.5q1.125 0 1.671875 0.375q0.5625 0.375 0.765625 1.09375l-1.375 0.25q-0.09375 -0.3125 -0.34375 -0.484375q-0.234375 -0.171875 -0.703125 -0.171875q-0.5625 0 -0.8125 0.15625q-0.171875 0.109375 -0.171875 0.296875q0 0.15625 0.140625 0.265625q0.203125 0.140625 1.359375 0.40625q1.171875 0.265625 1.640625 0.65625q0.453125 0.390625 0.453125 1.078125q0 0.765625 -0.640625 1.3125q-0.625 0.546875 -1.875 0.546875q-1.125 0 -1.78125 -0.453125q-0.65625 -0.46875 -0.859375 -1.25zm7.5358734 -2.265625l-1.328125 -0.234375q0.21875 -0.796875 0.765625 -1.1875q0.546875 -0.390625 1.625 -0.390625q0.984375 0 1.453125 0.234375q0.484375 0.234375 0.671875 0.59375q0.203125 0.359375 0.203125 1.3125l-0.015625 1.703125q0 0.71875 0.0625 1.078125q0.078125 0.34375 0.265625 0.734375l-1.4375 0q-0.0625 -0.140625 -0.140625 -0.4375q-0.046875 -0.125 -0.0625 -0.171875q-0.375 0.375 -0.796875 0.5625q-0.421875 0.171875 -0.90625 0.171875q-0.859375 0 -1.359375 -0.453125q-0.484375 -0.46875 -0.484375 -1.1875q0 -0.46875 0.21875 -0.828125q0.234375 -0.359375 0.640625 -0.546875q0.40625 -0.203125 1.15625 -0.359375q1.03125 -0.1875 1.421875 -0.359375l0 -0.140625q0 -0.421875 -0.21875 -0.59375q-0.203125 -0.1875 -0.78125 -0.1875q-0.375 0 -0.59375 0.15625q-0.21875 0.15625 -0.359375 0.53125zm1.953125 1.1875q-0.28125 0.09375 -0.890625 0.234375q-0.609375 0.125 -0.796875 0.25q-0.28125 0.203125 -0.28125 0.515625q0 0.296875 0.21875 0.53125q0.234375 0.21875 0.59375 0.21875q0.390625 0 0.75 -0.265625q0.265625 -0.1875 0.34375 -0.484375q0.0625 -0.1875 0.0625 -0.703125l0 -0.296875zm2.7389984 3.015625l1.671875 0.203125q0.046875 0.296875 0.203125 0.40625q0.203125 0.15625 0.640625 0.15625q0.578125 0 0.859375 -0.171875q0.203125 -0.109375 0.296875 -0.375q0.0625 -0.171875 0.0625 -0.671875l0 -0.796875q-0.65625 0.890625 -1.65625 0.890625q-1.109375 0 -1.75 -0.9375q-0.515625 -0.75 -0.515625 -1.859375q0 -1.390625 0.671875 -2.125q0.671875 -0.734375 1.65625 -0.734375q1.03125 0 1.6875 0.90625l0 -0.78125l1.375 0l0 4.96875q0 0.96875 -0.171875 1.453125q-0.15625 0.484375 -0.453125 0.765625q-0.28125 0.28125 -0.765625 0.4375q-0.484375 0.15625 -1.234375 0.15625q-1.40625 0 -2.0 -0.484375q-0.578125 -0.484375 -0.578125 -1.21875q0 -0.078125 0 -0.1875zm1.3125 -3.234375q0 0.875 0.34375 1.28125q0.34375 0.40625 0.828125 0.40625q0.546875 0 0.90625 -0.40625q0.375 -0.421875 0.375 -1.25q0 -0.859375 -0.359375 -1.265625q-0.34375 -0.421875 -0.890625 -0.421875q-0.515625 0 -0.859375 0.40625q-0.34375 0.40625 -0.34375 1.25zm8.540512 1.109375l1.453125 0.25q-0.28125 0.796875 -0.890625 1.21875q-0.609375 0.421875 -1.515625 0.421875q-1.4375 0 -2.125 -0.9375q-0.546875 -0.765625 -0.546875 -1.90625q0 -1.375 0.71875 -2.15625q0.71875 -0.78125 1.8125 -0.78125q1.234375 0 1.9375 0.828125q0.71875 0.8125 0.6875 2.484375l-3.65625 0q0.015625 0.65625 0.34375 1.015625q0.34375 0.359375 0.84375 0.359375q0.34375 0 0.578125 -0.1875q0.234375 -0.1875 0.359375 -0.609375zm0.078125 -1.46875q-0.015625 -0.640625 -0.328125 -0.96875q-0.3125 -0.328125 -0.765625 -0.328125q-0.46875 0 -0.78125 0.34375q-0.3125 0.359375 -0.3125 0.953125l2.1875 0z" fill-rule="nonzero"/><path fill="#000000" fill-opacity="0.0" d="m104.55905 66.40157l15.968506 0" fill-rule="evenodd"/><path stroke="#08a87d" stroke-width="2.0" stroke-linejoin="round" stroke-linecap="butt" d="m104.55905 66.40157l3.9685059 0" fill-rule="evenodd"/><path fill="#08a87d" stroke="#08a87d" stroke-width="2.0" stroke-linecap="butt" d="m108.52756 69.70504l9.076195 -3.3034668l-9.076195 -3.303463z" fill-rule="evenodd"/><path fill="#000000" fill-opacity="0.0" d="m257.6299 66.40157l19.055115 0" fill-rule="evenodd"/><path stroke="#08a87d" stroke-width="2.0" stroke-linejoin="round" stroke-linecap="butt" d="m257.6299 66.40157l7.0551147 0" fill-rule="evenodd"/><path fill="#08a87d" stroke="#08a87d" stroke-width="2.0" stroke-linecap="butt" d="m264.68503 69.70504l9.076202 -3.3034668l-9.076202 -3.303463z" fill-rule="evenodd"/><path fill="#283282" d="m276.6824 23.188976l102.36221 0l0 72.020706l-14.40448 14.404488l-87.95773 0z" fill-rule="evenodd"/><path fill="#1f2767" d="m364.64014 109.614174l2.88089 -11.52359l11.52359 -2.8808975z" fill-rule="evenodd"/><path fill="#000000" fill-opacity="0.0" d="m364.64014 109.614174l2.88089 -11.52359l11.52359 -2.8808975l-14.40448 14.404488l-87.95773 0l0 -86.4252l102.36221 0l0 72.020706" fill-rule="evenodd"/><path fill="#ffffff" d="m300.1487 65.09309l1.6875 0l0 0.9375q0.90625 -1.09375 2.15625 -1.09375q0.671875 0 1.15625 0.28125q0.484375 0.265625 0.796875 0.8125q0.453125 -0.546875 0.984375 -0.8125q0.53125 -0.28125 1.125 -0.28125q0.765625 0 1.28125 0.3125q0.53125 0.296875 0.796875 0.90625q0.1875 0.4375 0.1875 1.421875l0 4.421875l-1.828125 0l0 -3.953125q0 -1.03125 -0.1875 -1.328125q-0.25 -0.390625 -0.78125 -0.390625q-0.390625 0 -0.734375 0.234375q-0.328125 0.234375 -0.484375 0.6875q-0.140625 0.453125 -0.140625 1.4375l0 3.3125l-1.828125 0l0 -3.78125q0 -1.015625 -0.109375 -1.296875q-0.09375 -0.296875 -0.296875 -0.4375q-0.203125 -0.15625 -0.546875 -0.15625q-0.421875 0 -0.765625 0.234375q-0.34375 0.21875 -0.484375 0.65625q-0.140625 0.421875 -0.140625 1.421875l0 3.359375l-1.84375 0l0 -6.90625zm15.991486 4.703125l1.828125 0.3125q-0.34375 1.0 -1.109375 1.53125q-0.765625 0.515625 -1.890625 0.515625q-1.8125 0 -2.671875 -1.171875q-0.6875 -0.953125 -0.6875 -2.390625q0 -1.71875 0.890625 -2.6875q0.90625 -0.96875 2.28125 -0.96875q1.546875 0 2.4375 1.015625q0.890625 1.015625 0.84375 3.125l-4.578125 0q0.015625 0.8125 0.4375 1.265625q0.421875 0.453125 1.0625 0.453125q0.421875 0 0.71875 -0.234375q0.296875 -0.234375 0.4375 -0.765625zm0.109375 -1.84375q-0.015625 -0.796875 -0.40625 -1.203125q-0.390625 -0.421875 -0.953125 -0.421875q-0.59375 0 -0.984375 0.4375q-0.390625 0.4375 -0.390625 1.1875l2.734375 0zm2.6624756 2.078125l1.828125 -0.28125q0.125 0.53125 0.484375 0.8125q0.359375 0.265625 1.0 0.265625q0.703125 0 1.0625 -0.25q0.25 -0.1875 0.25 -0.484375q0 -0.21875 -0.140625 -0.359375q-0.125 -0.125 -0.609375 -0.234375q-2.203125 -0.484375 -2.796875 -0.890625q-0.828125 -0.5625 -0.828125 -1.5625q0 -0.890625 0.703125 -1.5q0.71875 -0.609375 2.203125 -0.609375q1.421875 0 2.109375 0.46875q0.703125 0.453125 0.953125 1.359375l-1.71875 0.3125q-0.109375 -0.40625 -0.421875 -0.609375q-0.3125 -0.21875 -0.890625 -0.21875q-0.71875 0 -1.03125 0.203125q-0.203125 0.140625 -0.203125 0.359375q0 0.203125 0.1875 0.34375q0.234375 0.171875 1.6875 0.515625q1.46875 0.328125 2.0625 0.8125q0.5625 0.484375 0.5625 1.359375q0 0.953125 -0.796875 1.640625q-0.78125 0.671875 -2.34375 0.671875q-1.40625 0 -2.234375 -0.5625q-0.828125 -0.578125 -1.078125 -1.5625zm7.4124756 0l1.828125 -0.28125q0.125 0.53125 0.484375 0.8125q0.359375 0.265625 1.0 0.265625q0.703125 0 1.0625 -0.25q0.25 -0.1875 0.25 -0.484375q0 -0.21875 -0.140625 -0.359375q-0.125 -0.125 -0.609375 -0.234375q-2.203125 -0.484375 -2.796875 -0.890625q-0.828125 -0.5625 -0.828125 -1.5625q0 -0.890625 0.703125 -1.5q0.71875 -0.609375 2.203125 -0.609375q1.421875 0 2.109375 0.46875q0.703125 0.453125 0.953125 1.359375l-1.71875 0.3125q-0.109375 -0.40625 -0.421875 -0.609375q-0.3125 -0.21875 -0.890625 -0.21875q-0.71875 0 -1.03125 0.203125q-0.203125 0.140625 -0.203125 0.359375q0 0.203125 0.1875 0.34375q0.234375 0.171875 1.6875 0.515625q1.46875 0.328125 2.0625 0.8125q0.5625 0.484375 0.5625 1.359375q0 0.953125 -0.796875 1.640625q-0.78125 0.671875 -2.34375 0.671875q-1.40625 0 -2.234375 -0.5625q-0.828125 -0.578125 -1.078125 -1.5625zm9.428101 -2.828125l-1.671875 -0.3125q0.28125 -1.0 0.96875 -1.46875q0.6875 -0.484375 2.03125 -0.484375q1.21875 0 1.8125 0.296875q0.609375 0.28125 0.84375 0.734375q0.25 0.4375 0.25 1.625l-0.015625 2.140625q0 0.90625 0.078125 1.34375q0.09375 0.421875 0.34375 0.921875l-1.8125 0q-0.078125 -0.1875 -0.171875 -0.546875q-0.046875 -0.15625 -0.078125 -0.203125q-0.46875 0.453125 -1.0 0.6875q-0.53125 0.21875 -1.140625 0.21875q-1.0625 0 -1.6875 -0.578125q-0.609375 -0.578125 -0.609375 -1.46875q0 -0.578125 0.28125 -1.03125q0.28125 -0.46875 0.78125 -0.703125q0.515625 -0.25 1.46875 -0.4375q1.28125 -0.234375 1.765625 -0.453125l0 -0.171875q0 -0.53125 -0.265625 -0.75q-0.25 -0.234375 -0.96875 -0.234375q-0.484375 0 -0.765625 0.203125q-0.265625 0.1875 -0.4375 0.671875zm2.4375 1.484375q-0.34375 0.109375 -1.109375 0.28125q-0.765625 0.15625 -1.0 0.3125q-0.359375 0.25 -0.359375 0.640625q0 0.390625 0.28125 0.671875q0.296875 0.28125 0.734375 0.28125q0.5 0 0.953125 -0.328125q0.328125 -0.25 0.4375 -0.609375q0.0625 -0.234375 0.0625 -0.890625l0 -0.359375zm3.4281006 3.765625l2.09375 0.25q0.046875 0.375 0.25 0.5q0.25 0.203125 0.8125 0.203125q0.71875 0 1.078125 -0.21875q0.234375 -0.140625 0.359375 -0.453125q0.078125 -0.234375 0.078125 -0.84375l0 -1.015625q-0.8125 1.125 -2.0625 1.125q-1.390625 0 -2.203125 -1.171875q-0.640625 -0.9375 -0.640625 -2.328125q0 -1.734375 0.828125 -2.640625q0.84375 -0.921875 2.09375 -0.921875q1.28125 0 2.109375 1.125l0 -0.96875l1.703125 0l0 6.203125q0 1.21875 -0.203125 1.8125q-0.1875 0.609375 -0.5625 0.953125q-0.359375 0.359375 -0.96875 0.546875q-0.609375 0.203125 -1.53125 0.203125q-1.765625 0 -2.5 -0.609375q-0.734375 -0.609375 -0.734375 -1.53125q0 -0.09375 0 -0.21875zm1.640625 -4.046875q0 1.09375 0.421875 1.609375q0.4375 0.5 1.046875 0.5q0.671875 0 1.140625 -0.515625q0.46875 -0.53125 0.46875 -1.546875q0 -1.078125 -0.453125 -1.59375q-0.4375 -0.53125 -1.109375 -0.53125q-0.65625 0 -1.09375 0.515625q-0.421875 0.515625 -0.421875 1.5625zm10.672607 1.390625l1.828125 0.3125q-0.34375 1.0 -1.109375 1.53125q-0.765625 0.515625 -1.890625 0.515625q-1.8125 0 -2.671875 -1.171875q-0.6875 -0.953125 -0.6875 -2.390625q0 -1.71875 0.890625 -2.6875q0.90625 -0.96875 2.28125 -0.96875q1.546875 0 2.4375 1.015625q0.890625 1.015625 0.84375 3.125l-4.578125 0q0.015625 0.8125 0.4375 1.265625q0.421875 0.453125 1.0625 0.453125q0.421875 0 0.71875 -0.234375q0.296875 -0.234375 0.4375 -0.765625zm0.109375 -1.84375q-0.015625 -0.796875 -0.40625 -1.203125q-0.390625 -0.421875 -0.953125 -0.421875q-0.59375 0 -0.984375 0.4375q-0.390625 0.4375 -0.390625 1.1875l2.734375 0z" fill-rule="nonzero"/><path fill="#ffffff" d="m53.34994 34.191746c1.1996117 0 2.4035225 0.099674225 3.3398933 0.27723694c0.12513733 0.026031494 0.24591446 0.0476799 0.35379028 0.073711395c-0.107875824 0.02596283 -0.22865295 0.05192566 -0.35379028 0.07364273c-0.93637085 0.1819458 -2.1359825 0.27723694 -3.3398933 0.27723694c-1.1996155 0 -2.351738 -0.09529114 -3.288105 -0.27723694c-0.12944031 -0.021717072 -0.24591446 -0.0476799 -0.3537941 -0.07364273c0.10787964 -0.026031494 0.22435379 -0.0476799 0.3537941 -0.073711395c0.93636703 -0.17756271 2.0884895 -0.27723694 3.288105 -0.27723694zm4.6645775 1.2043724l0 1.9105186c-0.41854477 0.12995148 -0.8457527 0.23387527 -1.2772636 0.31189728l-0.0474205 0.00863266c-1.0089264 0.18267822 -2.0337296 0.27783585 -3.0629578 0.27783585c-0.04484558 0 -0.08969116 -1.9836426E-4 -0.13453293 -5.302429E-4c-1.1996117 0 -2.4941406 -0.099674225 -3.4305077 -0.2773056c-0.12944031 -0.02596283 -0.24591446 -0.051994324 -0.3537941 -0.07795715l0.004299164 0c-0.32793045 -0.06501007 -0.6558609 -0.15159988 -0.975193 -0.25558853l0 -1.8931847c1.0442467 0.35087967 2.7184906 0.57619095 4.617092 0.57619095c1.9029617 0 3.6031342 -0.22962952 4.6602783 -0.5805092zm-9.27737 2.9935036c1.0830727 0.35957718 2.8306694 0.5935211 4.7551956 0.5935211c1.877037 0 3.4994926 -0.22092819 4.522175 -0.5674896l0 1.6245766c-0.41854477 0.12995529 -0.8457527 0.23394394 -1.2772636 0.30758667c-0.9406662 0.16893005 -2.1402779 0.2642212 -3.3830147 0.2642212c-1.4024048 0 -2.6407776 -0.12125397 -3.641899 -0.32923126c-0.32793045 -0.06494522 -0.6558609 -0.1516037 -0.975193 -0.25990677l0 -1.6332779zm9.27737 2.7466087l0 1.8022118c-0.41854477 0.12995148 -0.8457527 0.23394012 -1.2772636 0.3119011l-0.0474205 0.00869751c-0.93637085 0.17763138 -2.1014557 0.27723694 -3.3053703 0.27723694c-1.1996117 0 -2.386261 -0.09960556 -3.322628 -0.27723694c-0.12944031 -0.026031494 -0.24591446 -0.051994324 -0.3537941 -0.07795715l0.004299164 0c-0.32793045 -0.06501007 -0.6558609 -0.15166855 -0.975193 -0.2556572l0 -1.7848129c1.0442467 0.35087967 2.7184906 0.57619095 4.617092 0.57619095c1.9029617 0 3.6031342 -0.2296257 4.6602783 -0.58057404zm-4.6602783 -8.0275345c-3.1715622 0 -5.7217903 0.6324997 -5.74765 1.4209824l0 8.612358l0 0.03904724c0 0.79273224 2.5933495 1.4339294 5.777874 1.4339294c3.1715622 0 5.7347527 -0.6324997 5.7606163 -1.4209824l0 -8.664352l0.004299164 0c-0.030162811 -0.78416824 -2.6278763 -1.4209824 -5.7951393 -1.4209824z" fill-rule="evenodd"/><path fill="#ffffff" d="m50.437256 36.154255c-0.3149681 0 -0.5652466 0.25559235 -0.5652466 0.56749344c0 0.31628036 0.25027847 0.5718727 0.5652466 0.5718727c0.3107338 0 0.56531525 -0.25559235 0.56531525 -0.5718727c0 -0.3119011 -0.25458145 -0.56749344 -0.56531525 -0.56749344z" fill-rule="evenodd"/><path fill="#ffffff" d="m50.437256 39.026505c-0.3149681 0 -0.5652466 0.2512741 -0.5652466 0.5674896c0 0.3119011 0.25027847 0.5674896 0.5652466 0.5674896c0.3107338 0 0.56531525 -0.25558853 0.56531525 -0.5674896c0 -0.31621552 -0.25458145 -0.5674896 -0.56531525 -0.5674896z" fill-rule="evenodd"/><path fill="#ffffff" d="m50.437256 41.894367c-0.3149681 0 -0.5652466 0.2556572 -0.5652466 0.5675583c0 0.31621552 0.25027847 0.57180786 0.5652466 0.57180786c0.3107338 0 0.56531525 -0.25559235 0.56531525 -0.57180786c0 -0.3119011 -0.25458145 -0.5675583 -0.56531525 -0.5675583z" fill-rule="evenodd"/><path fill="#ffffff" d="m328.15045 34.191746c1.1996155 0 2.403534 0.099674225 3.3399048 0.27723694c0.12515259 0.026031494 0.24591064 0.0476799 0.35379028 0.073711395c-0.10787964 0.02596283 -0.2286377 0.05192566 -0.35379028 0.07364273c-0.93637085 0.1819458 -2.1359863 0.27723694 -3.3399048 0.27723694c-1.199585 0 -2.351715 -0.09529114 -3.288086 -0.27723694c-0.12945557 -0.021717072 -0.24591064 -0.0476799 -0.35379028 -0.07364273c0.10787964 -0.026031494 0.22433472 -0.0476799 0.35379028 -0.073711395c0.93637085 -0.17756271 2.088501 -0.27723694 3.288086 -0.27723694zm4.6645813 1.2043724l0 1.9105186c-0.41854858 0.12995148 -0.84573364 0.23387527 -1.2772522 0.31189728l-0.047424316 0.00863266c-1.0089111 0.18267822 -2.033722 0.27783585 -3.0629578 0.27783585c-0.044830322 0 -0.08969116 -1.9836426E-4 -0.13452148 -5.302429E-4c-1.1996155 0 -2.4941406 -0.099674225 -3.4305115 -0.2773056c-0.12945557 -0.02596283 -0.24591064 -0.051994324 -0.35379028 -0.07795715l0.0043029785 0c-0.3279419 -0.06501007 -0.6558838 -0.15159988 -0.9751892 -0.25558853l0 -1.8931847c1.04422 0.35087967 2.7184753 0.57619095 4.6170654 0.57619095c1.9029846 0 3.6031494 -0.22962952 4.6602783 -0.5805092zm-9.277344 2.9935036c1.0830688 0.35957718 2.830658 0.5935211 4.755188 0.5935211c1.8770142 0 3.4994812 -0.22092819 4.522156 -0.5674896l0 1.6245766c-0.41854858 0.12995529 -0.84573364 0.23394394 -1.2772522 0.30758667c-0.9406738 0.16893005 -2.1402893 0.2642212 -3.3830261 0.2642212c-1.4024048 0 -2.6407776 -0.12125397 -3.6418762 -0.32923126c-0.3279419 -0.06494522 -0.6558838 -0.1516037 -0.9751892 -0.25990677l0 -1.6332779zm9.277344 2.7466087l0 1.8022118c-0.41854858 0.12995148 -0.84573364 0.23394012 -1.2772522 0.3119011l-0.047424316 0.00869751c-0.93637085 0.17763138 -2.1014404 0.27723694 -3.305359 0.27723694c-1.1996155 0 -2.386261 -0.09960556 -3.3226318 -0.27723694c-0.12945557 -0.026031494 -0.24591064 -0.051994324 -0.35379028 -0.07795715l0.0043029785 0c-0.3279419 -0.06501007 -0.6558838 -0.15166855 -0.9751892 -0.2556572l0 -1.7848129c1.04422 0.35087967 2.7184753 0.57619095 4.6170654 0.57619095c1.9029846 0 3.6031494 -0.2296257 4.6602783 -0.58057404zm-4.6602783 -8.0275345c-3.1715393 0 -5.7217712 0.6324997 -5.74765 1.4209824l0 8.612358l0 0.03904724c0 0.79273224 2.5933533 1.4339294 5.777893 1.4339294c3.1715698 0 5.734741 -0.6324997 5.76062 -1.4209824l0 -8.664352l0.004272461 0c-0.030151367 -0.78416824 -2.6278687 -1.4209824 -5.7951355 -1.4209824z" fill-rule="evenodd"/><path fill="#ffffff" d="m325.2378 36.154255c-0.31497192 0 -0.5652466 0.25559235 -0.5652466 0.56749344c0 0.31628036 0.25027466 0.5718727 0.5652466 0.5718727c0.31072998 0 0.5653076 -0.25559235 0.5653076 -0.5718727c0 -0.3119011 -0.25457764 -0.56749344 -0.5653076 -0.56749344z" fill-rule="evenodd"/><path fill="#ffffff" d="m325.2378 39.026505c-0.31497192 0 -0.5652466 0.2512741 -0.5652466 0.5674896c0 0.3119011 0.25027466 0.5674896 0.5652466 0.5674896c0.31072998 0 0.5653076 -0.25558853 0.5653076 -0.5674896c0 -0.31621552 -0.25457764 -0.5674896 -0.5653076 -0.5674896z" fill-rule="evenodd"/><path fill="#ffffff" d="m325.2378 41.894367c-0.31497192 0 -0.5652466 0.2556572 -0.5652466 0.5675583c0 0.31621552 0.25027466 0.57180786 0.5652466 0.57180786c0.31072998 0 0.5653076 -0.25559235 0.5653076 -0.57180786c0 -0.3119011 -0.25457764 -0.5675583 -0.5653076 -0.5675583z" fill-rule="evenodd"/><path fill="#140a1e" d="m193.62697 24.21195l-5.29245 5.7463837l-1.4951324 -1.624649l-0.7476349 0.8080101l2.2427673 2.4369392l6.0400085 -6.562958l-0.7475586 -0.8037262zm-4.5259705 -1.022974c-0.0062408447 0 -0.012542725 6.67572E-5 -0.018859863 6.67572E-5c-0.0061187744 0 -0.012176514 0 -0.018310547 0c-2.3064728 0 -4.3504333 1.6223412 -5.052643 4.014286c-0.70010376 2.3982697 0.11076355 5.0157185 2.0054474 6.46414c0.9172058 0.6990433 1.9855042 1.0476112 3.052353 1.0476112c1.1369324 0 2.272171 -0.39580154 3.2210236 -1.1851692c1.8392792 -1.5301094 2.555252 -4.177601 1.7641449 -6.541479l0 0l-0.8504486 0.9283695c0.3955536 1.9039764 -0.35595703 3.8724499 -1.8788605 4.908268c-0.6897278 0.47103882 -1.4687042 0.7031975 -2.2451324 0.7031975c-0.9377594 0 -1.8716431 -0.3386879 -2.6398773 -1.0040665c-1.4041901 -1.2206116 -1.946106 -3.2707748 -1.3527832 -5.114603c0.5973358 -1.8437634 2.199295 -3.0730038 3.9950867 -3.0730038c0.80293274 0 1.5900879 0.24928665 2.2664795 0.71775436l0.7594452 -0.82520485c-0.8808899 -0.67512894 -1.9298553 -1.0401669 -3.0070648 -1.0401669z" fill-rule="evenodd"/></g></svg>