<svg width="28" height="22" viewBox="0 0 28 22" fill="none" xmlns="http://www.w3.org/2000/svg">
<path d="M20.8555 12.9297C21.8711 12.9297 22.9258 13.0273 24.0195 13.2227V15.0977C23.2383 14.9023 22.1836 14.8047 20.8555 14.8047C18.5117 14.8047 16.6367 15.2148 15.2305 16.0352V13.9258C16.7148 13.2617 18.5898 12.9297 20.8555 12.9297ZM15.2305 10.5859C16.8711 9.92188 18.7461 9.58984 20.8555 9.58984C21.8711 9.58984 22.9258 9.6875 24.0195 9.88281V11.7578C23.2383 11.5625 22.1836 11.4648 20.8555 11.4648C18.5117 11.4648 16.6367 11.875 15.2305 12.6953V10.5859ZM20.8555 8.125C18.5117 8.125 16.6367 8.53516 15.2305 9.35547V7.30469C16.793 6.60156 18.668 6.25 20.8555 6.25C21.8711 6.25 22.9258 6.34766 24.0195 6.54297V8.47656C23.082 8.24219 22.0273 8.125 20.8555 8.125ZM25.25 18.1445V3.73047C23.9609 3.33984 22.4961 3.14453 20.8555 3.14453C18.3164 3.14453 16.0312 3.76953 14 5.01953V19.375C16.0312 18.125 18.3164 17.5 20.8555 17.5C22.3789 17.5 23.8438 17.7148 25.25 18.1445ZM20.8555 0.625C23.8242 0.625 26.1289 1.25 27.7695 2.5V20.7227C27.7695 20.8789 27.6914 21.0352 27.5352 21.1914C27.418 21.3086 27.2812 21.3672 27.125 21.3672C27.0078 21.3672 26.9102 21.3477 26.832 21.3086C25.2305 20.4492 23.2383 20.0195 20.8555 20.0195C18.3164 20.0195 16.0312 20.6445 14 21.8945C12.3203 20.6445 10.0352 20.0195 7.14453 20.0195C5.03516 20.0195 3.04297 20.4688 1.16797 21.3672C1.12891 21.3672 1.07031 21.3867 0.992188 21.4258C0.953125 21.4258 0.914062 21.4258 0.875 21.4258C0.71875 21.4258 0.5625 21.3672 0.40625 21.25C0.289062 21.1328 0.230469 20.9961 0.230469 20.8398V2.5C1.91016 1.25 4.21484 0.625 7.14453 0.625C10.0352 0.625 12.3203 1.25 14 2.5C15.6797 1.25 17.9648 0.625 20.8555 0.625Z" fill="white"/>
</svg>
