<svg width="24" height="24" viewBox="0 0 24 24" xmlns="http://www.w3.org/2000/svg">
<path d="M24 8.35156V15.3516C24 16.0078 23.7559 16.5729 23.2676 17.0469C22.8169 17.4844 22.2723 17.7031 21.6338 17.7031H20.3944V15.3516H21.6338V8.35156H2.3662V15.3516H9.57747V17.7031H2.3662C1.7277 17.7031 1.16432 17.4844 0.676056 17.0469C0.225352 16.5729 0 16.0078 0 15.3516V8.35156C0 7.69531 0.225352 7.14844 0.676056 6.71094C1.16432 6.23698 1.7277 6 2.3662 6H21.6338C22.2723 6 22.8169 6.23698 23.2676 6.71094C23.7559 7.14844 24 7.69531 24 8.35156ZM14.9859 20L16.338 17.2109L19.2113 15.9531L16.338 14.6406L14.9859 11.8516L13.6901 14.6406L10.8169 15.9531L13.6901 17.2109L14.9859 20ZM18.0282 14.2031L18.7606 12.5625L20.3944 11.8516L18.7606 11.1406L18.0282 9.5L17.2394 11.1406L15.6056 11.8516L17.2394 12.5625L18.0282 14.2031ZM14.9859 20L16.338 17.2109L19.2113 15.9531L16.338 14.6406L14.9859 11.8516L13.6901 14.6406L10.8169 15.9531L13.6901 17.2109L14.9859 20ZM18.0282 14.2031L18.7606 12.5625L20.3944 11.8516L18.7606 11.1406L18.0282 9.5L17.2394 11.1406L15.6056 11.8516L17.2394 12.5625L18.0282 14.2031Z" fill="black"/>
</svg>
