<svg viewBox="0 0 380 442.7" xmlns="http://www.w3.org/2000/svg" width="398" height="460.682"><path d="m370 442.7h-360c-5.5 0-10-4.5-10-10v-165.9l370-70.3c5.5 0 10 4.5 10 10v226.2c0 5.5-4.5 10-10 10z" fill="#283282"/><path d="m10 0h360c5.5 0 10 4.5 10 10v165.9l-370 70.3c-5.5 0-10-4.5-10-10v-226.2c0-5.5 4.5-10 10-10z" fill="#140a1e"/><path d="m30.5 123.5v1.3h-5.5v4h4.7v1.3h-4.7v4.9h-1.6v-11.5z" fill="#f0faff"/><path d="m38.2 135h-.6c-.1 0-.3 0-.3-.1-.1 0-.1-.1-.2-.3l-.2-.8c-.2.2-.4.4-.6.5-.2.2-.4.3-.6.4s-.5.2-.7.2c-.3.1-.5.1-.8.1s-.6 0-.9-.1-.5-.2-.7-.4-.4-.4-.5-.7-.2-.6-.2-1c0-.3.1-.6.3-.9s.5-.6.9-.8.9-.4 1.5-.6c.6-.1 1.4-.2 2.3-.2v-.6c0-.6-.1-1.1-.4-1.4s-.7-.5-1.2-.5c-.3 0-.6 0-.9.1s-.4.2-.6.3-.3.2-.4.3-.2.1-.4.1c-.1 0-.2 0-.3-.1-.1 0-.1-.1-.2-.2l-.3-.5c.4-.4.9-.8 1.4-1s1.1-.3 1.7-.3c.5 0 .9.1 1.2.2.4.1.6.4.9.6.2.3.4.6.5 1s.2.8.2 1.2v5.5zm-3.7-.9c.3 0 .5 0 .7-.1s.4-.1.6-.2.4-.2.5-.3c.2-.1.3-.3.5-.5v-1.7c-.7 0-1.2 0-1.7.1s-.8.2-1.1.3-.5.3-.6.5-.2.4-.2.6 0 .4.1.6.2.3.3.4.3.2.4.2c.1.1.3.1.5.1z" fill="#f0faff"/><path d="m45 128.2c-.1.1-.2.2-.3.2s-.2 0-.3-.1-.2-.1-.4-.2c-.1-.1-.3-.1-.5-.2s-.4-.1-.7-.1c-.2 0-.5 0-.6.1s-.4.1-.5.3c-.1.1-.2.2-.3.4-.1.1-.1.3-.1.5s.1.4.2.5.3.3.5.4.4.2.7.3.5.2.8.2.5.2.8.3.5.2.7.4.4.4.5.6.2.5.2.8c0 .4-.1.7-.2 1s-.3.6-.6.8-.6.4-1 .5-.8.2-1.3.2c-.6 0-1.1-.1-1.5-.3-.5-.2-.8-.4-1.2-.7l.3-.5c0-.1.1-.1.2-.2.1 0 .1-.1.2-.1s.2 0 .3.1.2.2.4.2c.2.1.3.2.6.2.2.1.5.1.8.1s.5 0 .7-.1.4-.2.5-.3.2-.3.3-.4c.1-.2.1-.3.1-.5s-.1-.4-.2-.6-.3-.3-.5-.4-.4-.2-.7-.3-.5-.2-.8-.2c-.3-.1-.5-.2-.8-.3s-.5-.2-.7-.4-.4-.4-.5-.6-.2-.5-.2-.9c0-.3.1-.6.2-.9s.3-.5.6-.8c.2-.2.5-.4.9-.5s.8-.2 1.2-.2c.5 0 1 .1 1.4.3s.8.4 1.1.7z" fill="#f0faff"/><path d="m49.7 135.1c-.6 0-1.1-.2-1.5-.5-.3-.4-.5-.9-.5-1.5v-5h-1c-.1 0-.2 0-.2-.1s-.1-.1-.1-.2v-.6l1.3-.2.3-2.5q0-.1.1-.2t.2-.1h.7v2.8h2.3v1h-2.3v4.9c0 .3.1.6.2.8.2.2.4.2.6.2.1 0 .3 0 .4-.1s.2-.1.3-.1.1-.1.2-.1.1-.1.1-.1q.1 0 .2.1l.4.7c-.2.2-.5.4-.9.5 0 .3-.4.3-.8.3z" fill="#f0faff"/><path d="m56.5 126.8c.5 0 .9.1 1.3.2.4.2.8.4 1.1.7s.5.7.7 1.1c.2.5.3 1 .3 1.5 0 .2 0 .4-.1.4 0 .1-.1.1-.3.1h-5.4c0 .5.1 1 .2 1.3s.3.7.5.9c.2.3.5.4.8.6.3.1.7.2 1 .2.4 0 .7 0 .9-.1s.5-.2.7-.3.3-.2.5-.3c.1-.1.2-.1.3-.1s.2 0 .3.1l.4.5c-.2.2-.4.4-.6.6s-.5.3-.8.4-.6.2-.9.2c-.3.1-.6.1-.9.1-.6 0-1.1-.1-1.5-.3-.5-.2-.9-.5-1.2-.8-.3-.4-.6-.8-.8-1.4-.2-.5-.3-1.2-.3-1.9 0-.6.1-1.1.3-1.6s.4-.9.7-1.3.7-.6 1.2-.8 1 0 1.6 0zm0 1c-.7 0-1.2.2-1.6.6s-.6.9-.7 1.7h4.4c0-.3 0-.6-.1-.9s-.2-.5-.4-.7-.4-.4-.6-.5-.7-.2-1-.2z" fill="#f0faff"/><path d="m66.3 128.2c-.1.1-.2.2-.3.2s-.2 0-.3-.1-.2-.1-.4-.2c-.1-.1-.3-.1-.5-.2s-.4-.1-.7-.1c-.2 0-.5 0-.6.1s-.4.1-.5.3c-.1.1-.2.2-.3.4-.1.1-.1.3-.1.5s.1.4.2.5.3.3.5.4.4.2.7.3.5.2.8.2.5.2.8.3.5.2.7.4.4.4.5.6.2.5.2.8c0 .4-.1.7-.2 1s-.3.6-.6.8-.6.4-1 .5-.8.2-1.3.2c-.6 0-1.1-.1-1.5-.3-.5-.2-.8-.4-1.2-.7l.3-.5c0-.1.1-.1.2-.2.1 0 .1-.1.2-.1s.2 0 .3.1.2.2.4.2c.2.1.3.2.6.2.2.1.5.1.8.1s.5 0 .7-.1.4-.2.5-.3.2-.3.3-.4c.1-.2.1-.3.1-.5s-.1-.4-.2-.6-.3-.3-.5-.4-.4-.2-.7-.3-.5-.2-.8-.2c-.3-.1-.5-.2-.8-.3s-.5-.2-.7-.4-.4-.4-.5-.6-.2-.5-.2-.9c0-.3.1-.6.2-.9s.3-.5.6-.8c.2-.2.5-.4.9-.5s.8-.2 1.2-.2c.5 0 1 .1 1.4.3s.8.4 1.1.7z" fill="#f0faff"/><path d="m71 135.1c-.6 0-1.1-.2-1.5-.5-.3-.4-.5-.9-.5-1.5v-5h-1c-.1 0-.2 0-.2-.1s-.1-.1-.1-.2v-.6l1.3-.2.3-2.5q0-.1.1-.2t.2-.1h.7v2.8h2.3v1h-2.3v4.9c0 .3.1.6.2.8.2.2.4.2.6.2.1 0 .3 0 .4-.1s.2-.1.3-.1.1-.1.2-.1.1-.1.1-.1q.1 0 .2.1l.4.7c-.2.2-.5.4-.9.5 0 .3-.4.3-.8.3z" fill="#f0faff"/><path d="m79.6 130.7v4.3h-1.6v-11.5h3.4c.7 0 1.4.1 1.9.3s1 .4 1.3.7.6.7.8 1.1.3.9.3 1.5c0 .5-.1 1-.3 1.5-.2.4-.5.8-.8 1.1-.4.3-.8.6-1.3.7s-1.1.3-1.8.3zm0-1.2h1.8c.4 0 .8-.1 1.2-.2s.6-.3.9-.5c.2-.2.4-.5.5-.8s.2-.6.2-1c0-.7-.2-1.3-.7-1.7s-1.1-.6-2-.6h-1.8v4.8z" fill="#f0faff"/><path d="m89.8 137.4c0 .1-.1.2-.2.3s-.2.1-.3.1h-1.1l1.5-3.2-3.3-7.6h1.2c.1 0 .2 0 .3.1s.1.1.2.2l2.2 5.1c0 .1.1.2.1.4 0 .1.1.2.1.4 0-.1.1-.2.1-.4 0-.1.1-.2.1-.4l2.1-5.1c0-.1.1-.2.2-.2.1-.1.2-.1.3-.1h1.1z" fill="#f0faff"/><path d="m98.1 135.1c-.6 0-1.1-.2-1.5-.5-.3-.4-.5-.9-.5-1.5v-5h-1c-.1 0-.2 0-.2-.1s-.1-.1-.1-.2v-.6l1.3-.2.3-2.5q0-.1.1-.2t.2-.1h.7v2.8h2.3v1h-2.3v4.9c0 .3.1.6.2.8.2.2.4.2.6.2.1 0 .3 0 .4-.1s.2-.1.3-.1.1-.1.2-.1.1-.1.1-.1q.1 0 .2.1l.4.7c-.2.2-.5.4-.9.5-.1.3-.5.3-.8.3z" fill="#f0faff"/><path d="m101.6 135v-11.8h1.4v4.8c.3-.4.7-.7 1.2-.9.4-.2.9-.3 1.5-.3.4 0 .8.1 1.2.2.3.1.6.4.8.6.2.3.4.6.5 1s.2.8.2 1.3v5.2h-1.4v-5.2c0-.6-.1-1.1-.4-1.4s-.7-.5-1.3-.5c-.4 0-.8.1-1.2.3s-.7.5-1 .8v6h-1.5z" fill="#f0faff"/><path d="m113.7 126.8c.6 0 1.1.1 1.6.3s.9.5 1.2.8c.3.4.6.8.8 1.3s.3 1.1.3 1.7-.1 1.2-.3 1.7-.4.9-.8 1.3c-.3.4-.7.6-1.2.8s-1 .3-1.6.3-1.1-.1-1.6-.3-.9-.5-1.2-.8c-.3-.4-.6-.8-.8-1.3s-.3-1.1-.3-1.7.1-1.2.3-1.7.4-1 .8-1.3c.3-.4.7-.6 1.2-.8s1-.3 1.6-.3zm0 7.2c.8 0 1.4-.3 1.8-.8s.6-1.3.6-2.2c0-1-.2-1.7-.6-2.3-.4-.5-1-.8-1.8-.8-.4 0-.8.1-1.1.2s-.5.3-.7.6-.3.6-.4 1-.1.8-.1 1.3 0 .9.1 1.3.2.7.4 1 .4.5.7.6c.4 0 .7.1 1.1.1z" fill="#f0faff"/><path d="m119.4 135v-8.1h.8c.2 0 .3.1.4.3l.1.9c.4-.4.7-.7 1.2-.9s.9-.4 1.5-.4c.4 0 .8.1 1.2.2.3.1.6.4.8.6.2.3.4.6.5 1s.2.8.2 1.3v5.2h-1.4v-5.2c0-.6-.1-1.1-.4-1.4s-.7-.5-1.3-.5c-.4 0-.8.1-1.2.3s-.7.5-1 .8v6h-1.4z" fill="#f0faff"/><path d="m136.7 133.9h.9c.3 0 .5-.1.7-.1s.4-.1.6-.2.4-.2.6-.3v-2.5h-1.8c-.1 0-.2 0-.2-.1q-.1-.1-.1-.2v-.9h3.5v4.4c-.3.2-.6.4-.9.5-.3.2-.6.3-1 .4s-.7.2-1.1.2-.8.1-1.3.1c-.8 0-1.6-.1-2.3-.4s-1.3-.7-1.8-1.2-.9-1.1-1.2-1.9c-.3-.7-.4-1.5-.4-2.4s.1-1.7.4-2.4.7-1.3 1.2-1.9 1.1-.9 1.8-1.2 1.5-.4 2.4-.4c.5 0 .9 0 1.3.1s.8.2 1.1.3.6.3.9.5.5.4.8.6l-.4.7c-.1.1-.2.2-.4.2-.1 0-.2 0-.3-.1s-.3-.2-.4-.3-.4-.2-.6-.3-.5-.2-.8-.3-.7-.1-1.1-.1c-.6 0-1.2.1-1.8.3-.5.2-1 .5-1.3.9-.4.4-.7.9-.8 1.4-.2.6-.3 1.2-.3 1.9s.1 1.4.3 1.9c.2.6.5 1 .9 1.4s.8.7 1.3.9c.4.4 1 .5 1.6.5z" fill="#f0faff"/><path d="m147.8 133.8c.5 0 .9-.1 1.3-.2.4-.2.7-.4.9-.7.3-.3.5-.6.6-1s.2-.8.2-1.3v-7h1.5v7c0 .7-.1 1.3-.3 1.8-.2.6-.5 1.1-.9 1.5s-.9.7-1.4 1-1.2.4-1.9.4-1.3-.1-1.9-.4-1-.6-1.4-1-.7-.9-.9-1.5-.3-1.2-.3-1.8v-7h1.5v7c0 .5.1.9.2 1.3s.3.7.6 1 .6.5 1 .7c.3.1.7.2 1.2.2z" fill="#f0faff"/><path d="m156.8 135h-1.6v-11.5h1.6z" fill="#f0faff"/><path d="m164.3 123.2v11.8h-1.4v-11.8z" fill="#f0faff"/><path d="m168.8 124.4c0 .1 0 .3-.1.4s-.1.2-.2.3-.2.2-.3.2c-.1.1-.3.1-.4.1s-.3 0-.4-.1-.2-.1-.3-.2-.2-.2-.2-.3c-.1-.1-.1-.2-.1-.4 0-.1 0-.3.1-.4s.1-.2.2-.3.2-.2.3-.2c.1-.1.2-.1.4-.1s.3 0 .4.1.2.1.3.2.2.2.2.3.1.2.1.4zm-.4 2.5v8.1h-1.4v-8.1z" fill="#f0faff"/><path d="m171 135v-11.8h1.4v4.8c.3-.4.7-.7 1.2-.9.4-.2.9-.4 1.5-.4.5 0 .9.1 1.3.3s.7.4 1 .8c.3.3.5.8.6 1.3s.2 1.1.2 1.8c0 .6-.1 1.2-.2 1.7s-.4 1-.7 1.3-.7.7-1.1.9-.9.3-1.5.3c-.5 0-1-.1-1.3-.3-.4-.2-.7-.5-1-.8l-.1.7c0 .2-.2.3-.4.3zm3.6-7.1c-.5 0-.9.1-1.2.3s-.7.5-1 .9v3.9c.3.4.5.6.9.7s.7.2 1 .2c.8 0 1.3-.3 1.7-.8s.6-1.3.6-2.3c0-.5 0-1-.1-1.4s-.2-.7-.4-.9-.4-.4-.6-.5c-.3 0-.6-.1-.9-.1z" fill="#f0faff"/><path d="m179.9 135v-8.1h.8c.2 0 .3 0 .3.1.1.1.1.2.1.3l.1 1.3c.3-.6.6-1 1-1.3s.9-.5 1.4-.5c.2 0 .4 0 .6.1s.3.1.5.2l-.2 1.1c0 .1-.1.2-.2.2s-.2 0-.3-.1c-.2 0-.4-.1-.6-.1-.5 0-.9.1-1.2.4s-.6.7-.8 1.3v5.2h-1.5z" fill="#f0faff"/><path d="m192 135h-.6c-.1 0-.2 0-.3-.1-.1 0-.1-.1-.2-.3l-.2-.8c-.2.2-.4.4-.6.5-.2.2-.4.3-.6.4s-.5.2-.7.2c-.3.1-.5.1-.8.1s-.6 0-.9-.1-.5-.2-.7-.4-.4-.4-.5-.7-.2-.6-.2-1c0-.3.1-.6.3-.9s.5-.6.9-.8.9-.4 1.5-.6c.6-.1 1.4-.2 2.3-.2v-.6c0-.6-.1-1.1-.4-1.4s-.7-.5-1.2-.5c-.3 0-.6 0-.9.1s-.4.2-.6.3-.3.2-.4.3-.2.1-.4.1c-.1 0-.2 0-.3-.1-.1 0-.1-.1-.2-.2l-.3-.3c.4-.4.9-.8 1.4-1s1.1-.3 1.7-.3c.5 0 .9.1 1.2.2.4.1.6.4.9.6.2.3.4.6.5 1s.2.8.2 1.2v5.3zm-3.7-.9c.3 0 .5 0 .7-.1s.4-.1.6-.2.4-.2.5-.3c.2-.1.3-.3.5-.5v-1.7c-.7 0-1.2 0-1.7.1s-.8.2-1.1.3-.5.3-.6.5-.2.4-.2.6 0 .4.1.6.2.3.3.4.3.2.4.2c.1.1.3.1.5.1z" fill="#f0faff"/><path d="m194.2 135v-8.1h.8c.2 0 .3 0 .3.1s.1.2.1.3l.1 1.3c.3-.6.6-1 1-1.3s.9-.5 1.4-.5c.2 0 .4 0 .6.1s.3.1.5.2l-.2 1.1c0 .1-.1.2-.2.2s-.2 0-.3-.1c-.2 0-.4-.1-.6-.1-.5 0-.9.1-1.2.4s-.6.7-.8 1.3v5.2h-1.5z" fill="#f0faff"/><path d="m203 137.4c0 .1-.1.2-.2.3s-.2.1-.3.1h-1.1l1.5-3.2-3.3-7.6h1.2c.1 0 .2 0 .3.1s.1.1.2.2l2.2 5.1c0 .1.1.2.1.4 0 .1.1.2.1.4 0-.1.1-.2.1-.4 0-.1.1-.2.1-.4l2.1-5.1c0-.1.1-.2.2-.2.1-.1.2-.1.3-.1h1.1z" fill="#f0faff"/><path d="m214.3 137.4c0 .1-.1.2-.2.3s-.2.1-.3.1h-1.1l1.5-3.2-3.3-7.6h1.2c.1 0 .2 0 .3.1s.1.1.2.2l2.2 5.1c0 .1.1.2.1.4 0 .1.1.2.1.4 0-.1.1-.2.1-.4 0-.1.1-.2.1-.4l2.1-5.1c0-.1.1-.2.2-.2.1-.1.2-.1.3-.1h1.1z" fill="#f0faff"/><path d="m223.1 126.8c.6 0 1.1.1 1.6.3s.9.5 1.2.8c.3.4.6.8.8 1.3s.3 1.1.3 1.7-.1 1.2-.3 1.7-.4.9-.8 1.3c-.3.4-.7.6-1.2.8s-1 .3-1.6.3-1.1-.1-1.6-.3-.9-.5-1.2-.8c-.3-.4-.6-.8-.8-1.3s-.3-1.1-.3-1.7.1-1.2.3-1.7.4-1 .8-1.3c.3-.4.7-.6 1.2-.8s1.1-.3 1.6-.3zm0 7.2c.8 0 1.4-.3 1.8-.8s.6-1.3.6-2.2c0-1-.2-1.7-.6-2.3-.4-.5-1-.8-1.8-.8-.4 0-.8.1-1.1.2s-.5.3-.7.6-.3.6-.4 1-.1.8-.1 1.3 0 .9.1 1.3.2.7.4 1 .4.5.7.6c.4 0 .7.1 1.1.1z" fill="#f0faff"/><path d="m230 126.9v5.2c0 .6.1 1.1.4 1.4s.7.5 1.3.5c.4 0 .8-.1 1.2-.3s.7-.5 1-.8v-6h1.4v8.1h-.8c-.2 0-.3-.1-.4-.3l-.1-.9c-.4.4-.7.7-1.2.9-.4.2-.9.4-1.5.4-.4 0-.8-.1-1.2-.2-.3-.1-.6-.4-.9-.6-.2-.3-.4-.6-.5-1s-.2-.8-.2-1.3v-5.2h1.5z" fill="#f0faff"/><path d="m239.7 126.9h1.1c.1 0 .2 0 .3.1s.1.1.2.2l1.6 5.2c0 .2.1.4.1.6s.1.4.1.5c0-.2.1-.4.1-.5s.1-.4.2-.6l1.7-5.2c0-.1.1-.1.1-.2.1-.1.2-.1.3-.1h.6c.1 0 .2 0 .3.1s.1.1.1.2l1.7 5.2c.1.2.1.4.2.6s.1.4.1.5c0-.2.1-.4.1-.6s.1-.4.1-.5l1.6-5.2c0-.1.1-.2.2-.2.1-.1.2-.1.3-.1h1.1l-2.6 8.1h-1.3c-.1 0-.2-.1-.3-.3l-1.8-5.5c0-.1-.1-.2-.1-.4 0-.1-.1-.2-.1-.4 0 .1-.1.2-.1.4 0 .1-.1.3-.1.4l-1.8 5.5c-.1.2-.2.3-.3.3h-1.1z" fill="#f0faff"/><path d="m254.9 124.4c0 .1 0 .3-.1.4s-.1.2-.2.3-.2.2-.3.2c-.1.1-.3.1-.4.1s-.3 0-.4-.1-.2-.1-.3-.2-.2-.2-.2-.3c-.1-.1-.1-.2-.1-.4 0-.1 0-.3.1-.4s.1-.2.2-.3.2-.2.3-.2c.1-.1.2-.1.4-.1s.3 0 .4.1.2.1.3.2.2.2.2.3c.1.1.1.2.1.4zm-.3 2.5v8.1h-1.4v-8.1z" fill="#f0faff"/><path d="m258.7 123.2v11.8h-1.4v-11.8z" fill="#f0faff"/><path d="m262.8 123.2v11.8h-1.4v-11.8z" fill="#f0faff"/><path d="m268.7 135v-6.9l-.9-.1c-.1 0-.2-.1-.3-.1q-.1-.1-.1-.2v-.6h1.3v-.4c0-.5.1-1 .2-1.4.2-.4.4-.8.7-1.1s.7-.5 1.2-.7 1-.2 1.6-.2h.6c.2 0 .4.1.5.1v.7q0 .1-.1.1h-.6c-.9 0-1.6.2-2.1.6-.4.4-.6 1-.6 1.8v.4h4.9v7.9h-1.4v-6.9h-3.4v6.9h-1.5z" fill="#f0faff"/><path d="m277.5 135v-8.1h.8c.2 0 .3.1.4.3l.1.9c.4-.4.7-.7 1.2-.9s.9-.4 1.5-.4c.4 0 .8.1 1.2.2.3.1.6.4.8.6s.4.6.5 1 .2.8.2 1.3v5.2h-1.4v-5.2c0-.6-.1-1.1-.4-1.4s-.7-.5-1.3-.5c-.4 0-.8.1-1.2.3s-.7.5-1 .8v6h-1.4z" fill="#f0faff"/><path d="m292.1 135c-.2 0-.3-.1-.4-.3l-.1-1c-.3.4-.7.8-1.2 1-.4.3-1 .4-1.5.4s-.9-.1-1.3-.3-.7-.4-1-.8c-.3-.3-.5-.8-.6-1.3s-.2-1.1-.2-1.8c0-.6.1-1.2.2-1.7s.4-1 .7-1.3c.3-.4.7-.7 1.1-.9s.9-.3 1.5-.3c.5 0 .9.1 1.3.3s.7.4.9.7v-4.5h1.4v11.8zm-2.8-1c.5 0 .9-.1 1.2-.3s.7-.5 1-.9v-3.9c-.3-.4-.5-.6-.9-.7-.3-.1-.7-.2-1-.2-.8 0-1.3.3-1.7.8s-.6 1.3-.6 2.3c0 .5 0 1 .1 1.4s.2.7.4.9.4.4.6.5.6.1.9.1z" fill="#f0faff"/><path d="m300.3 124.4c0 .1 0 .3-.1.4s-.1.2-.2.3-.2.2-.3.2c-.1.1-.3.1-.4.1s-.3 0-.4-.1-.2-.1-.3-.2-.2-.2-.2-.3c-.1-.1-.1-.2-.1-.4 0-.1 0-.3.1-.4s.1-.2.2-.3.2-.2.3-.2c.1-.1.2-.1.4-.1s.3 0 .4.1.2.1.3.2.2.2.2.3c.1.1.1.2.1.4zm-.3 2.5v8.1h-1.4v-8.1z" fill="#f0faff"/><path d="m302.5 135v-8.1h.8c.2 0 .3.1.4.3l.1.9c.4-.4.7-.7 1.2-.9.4-.2.9-.4 1.5-.4.4 0 .8.1 1.2.2.3.1.6.4.8.6s.4.6.5 1 .2.8.2 1.3v5.2h-1.4v-5.2c0-.6-.1-1.1-.4-1.4s-.7-.5-1.3-.5c-.4 0-.8.1-1.2.3s-.7.5-1 .8v6h-1.4z" fill="#f0faff"/><path d="m317 135.1c-.6 0-1.1-.2-1.5-.5s-.5-.9-.5-1.5v-5h-1c-.1 0-.2 0-.2-.1s-.1-.1-.1-.2v-.6l1.3-.2.3-2.5q0-.1.1-.2t.2-.1h.7v2.8h2.3v1h-2.3v4.9c0 .3.1.6.2.8.2.2.4.2.6.2s.3 0 .4-.1.2-.1.3-.1.1-.1.2-.1.1-.1.1-.1q.1 0 .2.1l.4.7c-.2.2-.5.4-.9.5-.1.3-.5.3-.8.3z" fill="#f0faff"/><path d="m320.5 135v-11.8h1.4v4.8c.3-.4.7-.7 1.2-.9.4-.2.9-.3 1.5-.3.4 0 .8.1 1.2.2s.6.4.8.6.4.6.5 1 .2.8.2 1.3v5.2h-1.4v-5.2c0-.6-.1-1.1-.4-1.4s-.7-.5-1.3-.5c-.4 0-.8.1-1.2.3s-.7.5-1 .8v6h-1.5z" fill="#f0faff"/><path d="m332.6 126.8c.5 0 .9.1 1.3.2.4.2.8.4 1.1.7s.5.7.7 1.1c.2.5.3 1 .3 1.5 0 .2 0 .4-.1.4 0 .1-.1.1-.3.1h-5.4c0 .5.1 1 .2 1.3s.3.7.5.9c.2.3.5.4.8.6.3.1.7.2 1 .2.4 0 .7 0 .9-.1s.5-.2.7-.3.3-.2.5-.3c.1-.1.2-.1.3-.1s.2 0 .3.1l.4.5c-.2.2-.4.4-.6.6s-.5.3-.8.4-.6.2-.9.2-.6.1-.9.1c-.6 0-1.1-.1-1.5-.3-.5-.2-.9-.5-1.2-.8-.3-.4-.6-.8-.8-1.4-.2-.5-.3-1.2-.3-1.9 0-.6.1-1.1.3-1.6s.4-.9.7-1.3.7-.6 1.2-.8 1 0 1.6 0zm0 1c-.7 0-1.2.2-1.6.6s-.6.9-.7 1.7h4.4c0-.3 0-.6-.1-.9s-.2-.5-.4-.7-.4-.4-.6-.5c-.4-.1-.7-.2-1-.2z" fill="#f0faff"/><path d="m23.2 155v-8.1h.8c.2 0 .3.1.4.3l.1.8c.3-.4.6-.7 1-.9s.8-.4 1.3-.4 1 .2 1.3.5.6.7.7 1.2c.1-.3.3-.5.4-.8.2-.2.4-.4.6-.5s.5-.2.7-.3c.3-.1.5-.1.8-.1.4 0 .8.1 1.1.2s.6.3.8.6.4.6.5 1 .2.8.2 1.3v5.2h-1.4v-5.2c0-.6-.1-1.1-.4-1.4s-.7-.5-1.2-.5c-.2 0-.5 0-.7.1s-.4.2-.6.4-.3.4-.4.6-.1.5-.1.8v5.2h-1.2v-5.2c0-.7-.1-1.1-.4-1.5-.3-.3-.6-.5-1.1-.5-.4 0-.7.1-1 .3s-.6.4-.8.8v6h-1.4z" fill="#f0faff"/><path d="m42.3 155h-.6c-.1 0-.3 0-.3-.1-.1 0-.1-.1-.2-.3l-.2-.8c-.2.2-.4.4-.6.5-.2.2-.4.3-.6.4s-.5.2-.7.2c-.3.1-.5.1-.8.1s-.6 0-.9-.1-.5-.2-.7-.4-.4-.4-.5-.7-.2-.6-.2-1c0-.3.1-.6.3-.9s.5-.6.9-.8.9-.4 1.5-.6c.6-.1 1.4-.2 2.3-.2v-.6c0-.6-.1-1.1-.4-1.4s-.7-.5-1.2-.5c-.3 0-.6 0-.9.1s-.4.2-.6.3-.3.2-.4.3-.2.1-.4.1c-.1 0-.2 0-.3-.1-.1 0-.1-.1-.2-.2l-.3-.5c.4-.4.9-.8 1.4-1s1.1-.3 1.7-.3c.5 0 .9.1 1.2.2.4.1.6.4.9.6.2.3.4.6.5 1s.2.8.2 1.2v5.5zm-3.7-.9c.3 0 .5 0 .7-.1s.4-.1.6-.2.4-.2.5-.3c.2-.1.3-.3.5-.5v-1.7c-.7 0-1.2 0-1.7.1s-.8.2-1.1.3-.5.3-.6.5-.2.4-.2.6 0 .4.1.6.2.3.3.4.3.2.4.2c.1.1.3.1.5.1z" fill="#f0faff"/><path d="m44.4 155v-8.1h.8c.2 0 .3 0 .3.1.1.1.1.2.1.3l.1 1.3c.3-.6.6-1 1-1.3s.9-.5 1.4-.5c.2 0 .4 0 .6.1s.3.1.5.2l-.2 1.1c0 .1-.1.2-.2.2s-.2 0-.3-.1c-.2 0-.4-.1-.6-.1-.5 0-.9.1-1.2.4s-.6.7-.8 1.3v5.2h-1.5z" fill="#f0faff"/><path d="m52.3 143.2v6.9h.7c.1 0 .1-.1.2-.2l2.6-2.7c.1-.1.2-.2.2-.2.1-.1.2-.1.3-.1h1.3l-3 3.2c-.1.1-.1.2-.2.2-.1.1-.2.1-.2.2.1.1.2.1.3.2s.2.2.2.3l3.2 4h-1.3c-.1 0-.2 0-.3-.1-.1 0-.2-.1-.2-.2l-2.7-3.3c-.1-.1-.2-.2-.2-.2-.1 0-.2-.1-.4-.1h-.4v3.9h-1.4v-11.8z" fill="#f0faff"/><path d="m62 146.8c.5 0 .9.1 1.3.2.4.2.8.4 1.1.7s.5.7.7 1.1c.2.5.3 1 .3 1.5 0 .2 0 .4-.1.4 0 .1-.1.1-.3.1h-5.4c0 .5.1 1 .2 1.3s.3.7.5.9c.2.3.5.4.8.6.3.1.7.2 1 .2.4 0 .7 0 .9-.1s.5-.2.7-.3.3-.2.5-.3c.1-.1.2-.1.3-.1s.2 0 .3.1l.4.5c-.2.2-.4.4-.6.6s-.5.3-.8.4-.6.2-.9.2c-.3.1-.6.1-.9.1-.6 0-1.1-.1-1.5-.3-.5-.2-.9-.5-1.2-.8-.3-.4-.6-.8-.8-1.4-.2-.5-.3-1.2-.3-1.9 0-.6.1-1.1.3-1.6s.4-.9.7-1.3.7-.6 1.2-.8 1 0 1.6 0zm0 1c-.7 0-1.2.2-1.6.6s-.6.9-.7 1.7h4.4c0-.3 0-.6-.1-.9s-.2-.5-.4-.7-.4-.4-.6-.5-.7-.2-1-.2z" fill="#f0faff"/><path d="m69.6 155.1c-.6 0-1.1-.2-1.5-.5-.3-.4-.5-.9-.5-1.5v-5h-1c-.1 0-.2 0-.2-.1s-.1-.1-.1-.2v-.6l1.3-.2.3-2.5q0-.1.1-.2t.2-.1h.8v2.8h2.3v1h-2.3v4.9c0 .3.1.6.2.8.2.2.4.2.6.2.1 0 .3 0 .4-.1s.2-.1.3-.1.1-.1.2-.1.1-.1.1-.1q.1 0 .2.1l.4.7c-.2.2-.5.4-.9.5-.2.3-.5.3-.9.3z" fill="#f0faff"/><path d="m33.5 80.7v1.6h-4.6v12.7h-2v-12.7h-4.6v-1.6s11.2 0 11.2 0z" fill="#f0faff"/><path d="m40.2 95h-.8c-.2 0-.3 0-.4-.1s-.2-.2-.2-.3l-.2-.9c-.3.2-.5.5-.8.6-.3.2-.5.3-.8.5-.3.1-.6.2-.9.3s-.7.1-1.1.1-.8-.1-1.1-.2-.6-.3-.9-.5-.5-.5-.6-.8-.2-.7-.2-1.2c0-.4.1-.8.3-1.2s.6-.7 1.1-1 1.1-.5 1.9-.7 1.8-.3 2.9-.3v-.8c0-.8-.2-1.4-.5-1.8s-.8-.6-1.5-.6c-.4 0-.8.1-1.1.2s-.6.2-.8.4c-.2.1-.4.3-.6.4s-.3.2-.5.2c-.1 0-.2 0-.3-.1.1-.2 0-.2-.1-.3l-.3-.6c.6-.5 1.2-.9 1.8-1.2s1.4-.4 2.1-.4c.6 0 1.1.1 1.5.3s.8.4 1.1.8c.3.3.5.7.7 1.2s.2 1 .2 1.6v6.4zm-4.6-1.1c.3 0 .6 0 .9-.1s.5-.2.7-.3.5-.3.7-.4.4-.4.6-.6v-2.1c-.8 0-1.5.1-2.1.2s-1 .2-1.4.4-.6.4-.8.6-.2.5-.2.8 0 .5.1.7.2.4.4.5.3.2.5.3z" fill="#f0faff"/><path d="m45.3 81.7c0 .2 0 .3-.1.5s-.2.3-.3.4-.3.2-.4.3c-.2 0-.3.1-.5.1s-.3 0-.5-.1-.3-.2-.4-.3-.2-.2-.3-.4c-.1-.1-.1-.3-.1-.5s0-.3.1-.5.2-.3.3-.4.2-.2.4-.3c.1-.1.3-.1.5-.1s.3 0 .5.1.3.2.4.3.2.3.3.4c0 .2.1.3.1.5zm-.4 3.2v10.1h-1.8v-10.1z" fill="#f0faff"/><path d="m48 98.4v-13.5h1.1c.3 0 .4.1.5.4l.1 1.2c.4-.5.9-1 1.5-1.3s1.2-.5 1.9-.5c.6 0 1.1.1 1.6.3s.9.6 1.2 1 .6 1 .8 1.6.3 1.4.3 2.2c0 .7-.1 1.4-.3 2.1-.2.6-.5 1.2-.9 1.7s-.8.8-1.4 1.1c-.5.3-1.2.4-1.8.4s-1.2-.1-1.6-.3-.8-.5-1.2-.9v4.5zm4.5-12.3c-.6 0-1.1.1-1.5.4s-.8.6-1.2 1.1v4.9c.3.4.7.8 1.1.9.4.2.8.3 1.3.3.9 0 1.7-.3 2.2-1s.8-1.6.8-2.9c0-.7-.1-1.2-.2-1.7s-.3-.9-.5-1.2-.5-.5-.8-.7c-.4 0-.8-.1-1.2-.1z" fill="#f0faff"/><path d="m61.8 98c-.1.1-.1.2-.2.3s-.2.1-.4.1h-1.3l1.8-4-4.2-9.5h1.5c.2 0 .3 0 .4.1s.1.2.2.3l2.7 6.4c.1.1.1.3.2.4 0 .1.1.3.1.5 0-.2.1-.3.1-.5 0-.1.1-.3.2-.4l2.6-6.4c0-.1.1-.2.2-.3s.2-.1.3-.1h1.4z" fill="#f0faff"/><path d="m79.6 93.6c.4 0 .7 0 1.1-.1.3 0 .6-.1.9-.2s.6-.2.8-.3c.3-.1.5-.2.8-.4v-3.2h-2.2c-.1 0-.2 0-.3-.1s-.1-.2-.1-.3v-1.1h4.4v5.5c-.4.3-.7.5-1.1.7s-.8.4-1.2.5-.9.2-1.4.3-1.1.1-1.6.1c-1 0-2-.2-2.9-.5s-1.6-.9-2.2-1.5-1.1-1.4-1.5-2.3c-.3-.9-.5-1.9-.5-3s.2-2.1.5-3 .8-1.7 1.5-2.3 1.4-1.1 2.3-1.5 1.9-.5 3-.5c.6 0 1.1 0 1.6.1s.9.2 1.4.4c.4.2.8.3 1.2.6.4.2.7.5 1 .8l-.6.9c-.1.2-.3.3-.4.3s-.2 0-.3-.1c-.2-.1-.4-.2-.6-.3s-.5-.3-.8-.4-.6-.2-1-.3-.9-.1-1.4-.1c-.8 0-1.5.1-2.2.4s-1.2.6-1.7 1.1-.8 1.1-1.1 1.8-.4 1.5-.4 2.3c0 .9.1 1.7.4 2.4s.6 1.3 1.1 1.8 1 .9 1.7 1.1c.3.3 1 .4 1.8.4z" fill="#f0faff"/><path d="m93.4 93.5c.6 0 1.1-.1 1.6-.3s.9-.5 1.2-.8c.3-.4.6-.8.7-1.3.2-.5.3-1 .3-1.7v-8.7h1.9v8.7c0 .8-.1 1.6-.4 2.3s-.6 1.3-1.1 1.8-1.1.9-1.8 1.2-1.5.4-2.4.4-1.6-.1-2.4-.4c-.7-.3-1.3-.7-1.8-1.2s-.9-1.1-1.1-1.8c-.3-.7-.4-1.5-.4-2.3v-8.7h1.9v8.7c0 .6.1 1.1.3 1.6s.4.9.7 1.3.7.6 1.2.8c.5.3 1 .4 1.6.4z" fill="#f0faff"/><path d="m104.8 95h-1.9v-14.3h1.9z" fill="#f0faff"/><path d="m55.4 30 1.6-3.4 3.4-1.6-3.4-1.6-1.6-3.4-1.6 3.4-3.4 1.6 3.4 1.6zm-3.9 3.6-4.8-4.8c-.3-.3-.7-.5-1.2-.5-.4 0-.9.2-1.2.5l-18.5 18.6c-.6.7-.6 1.7 0 2.4l4.7 4.7c.3.3.8.5 1.2.5.5 0 .9-.2 1.2-.5l18.6-18.6c.7-.6.7-1.7 0-2.3zm-5.9-1.2 2.3 2.3-2 2-2.3-2.3zm-13.9 18.6-2.3-2.3 12-12 2.3 2.3z" fill="#ff462b"/><g fill="#f7f8fc"><path d="m27.2 386.39c.1.1.1.3.2.4.1-.1.1-.3.2-.4s.1-.3.2-.4l3.9-7c.1-.1.1-.2.2-.2h1.4v11.3h-1.3v-9.2l-3.9 7.2c-.1.2-.3.4-.6.4h-.2c-.2 0-.4-.1-.6-.4l-4-7.2v9.2h-1.3v-11.5h1.4c.1 0 .1.1.2.2l4 7.1c.1.2.2.3.2.5z"/><path d="m39.2 381.89c.6 0 1.1.1 1.6.3s.9.5 1.2.8c.3.4.6.8.8 1.3s.3 1.1.3 1.7-.1 1.2-.3 1.7-.4.9-.8 1.3c-.3.4-.7.6-1.2.8s-1 .3-1.6.3-1.1-.1-1.6-.3-.9-.5-1.2-.8c-.3-.4-.6-.8-.8-1.3s-.3-1.1-.3-1.7.1-1.2.3-1.7.4-1 .8-1.3c.3-.4.7-.6 1.2-.8.4-.2 1-.3 1.6-.3zm0 7.2c.8 0 1.4-.3 1.8-.8s.6-1.3.6-2.2c0-1-.2-1.7-.6-2.3-.4-.5-1-.8-1.8-.8-.4 0-.8.1-1.1.2s-.5.3-.7.6-.3.6-.4 1-.1.8-.1 1.3 0 .9.1 1.3.2.7.4 1 .4.5.7.6c.3 0 .7.1 1.1.1z"/><path d="m49.4 383.29c-.1.1-.2.2-.3.2s-.2 0-.3-.1-.2-.1-.4-.2c-.1-.1-.3-.1-.5-.2s-.4-.1-.7-.1c-.2 0-.5 0-.6.1s-.4.1-.5.3c-.1.1-.2.2-.3.4-.1.1-.1.3-.1.5s.1.4.2.5.3.3.5.4.4.2.7.3.5.2.8.2.5.2.8.3.5.2.7.4.4.4.5.6.2.5.2.8c0 .4-.1.7-.2 1s-.3.6-.6.8-.6.4-1 .5-.8.2-1.3.2c-.6 0-1.1-.1-1.5-.3-.5-.2-.8-.4-1.2-.7l.3-.5c0-.1.1-.1.2-.2.1 0 .1-.1.2-.1s.2 0 .3.1.2.2.4.2c.2.1.3.2.6.2.2.1.5.1.8.1s.5 0 .7-.1.4-.2.5-.3.2-.3.3-.4c.1-.2.1-.3.1-.5s-.1-.4-.2-.6-.3-.3-.5-.4-.4-.2-.7-.3-.5-.2-.8-.2c-.3-.1-.5-.2-.8-.3s-.5-.2-.7-.4-.4-.4-.5-.6-.2-.5-.2-.9c0-.3.1-.6.2-.9s.3-.5.6-.8c.2-.2.5-.4.9-.5s.8-.2 1.2-.2c.5 0 1 .1 1.4.3s.8.4 1.1.7z"/><path d="m54.2 390.19c-.6 0-1.1-.2-1.5-.5-.3-.4-.5-.9-.5-1.5v-5h-1c-.1 0-.2 0-.2-.1s-.1-.1-.1-.2v-.6l1.3-.2.3-2.5q0-.1.1-.2t.2-.1h.7v2.8h2.3v1h-2.3v4.9c0 .3.1.6.2.8.2.2.4.2.6.2.1 0 .3 0 .4-.1s.2-.1.3-.1.1-.1.2-.1.1-.1.1-.1q.1 0 .2.1l.4.7c-.2.2-.5.4-.9.5-.1.3-.4.3-.8.3z"/><path d="m66.3 383.39c0 .1-.1.1-.1.1h-.2c-.1 0-.2 0-.3-.1s-.2-.1-.4-.2-.3-.2-.5-.2c-.2-.1-.5-.1-.8-.1-.4 0-.7.1-1 .2s-.6.3-.8.6-.4.6-.5 1-.2.8-.2 1.3.1.9.2 1.3.3.7.5 1 .4.5.7.6.6.2 1 .2c.3 0 .6 0 .9-.1.2-.1.4-.2.6-.3.1-.1.3-.2.4-.3s.2-.1.3-.1.2 0 .3.1l.4.5c-.4.4-.8.7-1.3.9s-1.1.3-1.7.3c-.5 0-1-.1-1.4-.3s-.8-.5-1.1-.8c-.3-.4-.6-.8-.8-1.3s-.3-1.1-.3-1.8c0-.6.1-1.2.3-1.7s.4-1 .7-1.3c.3-.4.7-.7 1.2-.9s1-.3 1.6-.3 1.1.1 1.5.3.8.4 1.2.8z"/><path d="m71.5 381.89c.6 0 1.1.1 1.6.3s.9.5 1.2.8c.3.4.6.8.8 1.3s.3 1.1.3 1.7-.1 1.2-.3 1.7-.4.9-.8 1.3c-.3.4-.7.6-1.2.8s-1 .3-1.6.3-1.1-.1-1.6-.3-.9-.5-1.2-.8c-.3-.4-.6-.8-.8-1.3s-.3-1.1-.3-1.7.1-1.2.3-1.7.4-1 .8-1.3c.3-.4.7-.6 1.2-.8s1-.3 1.6-.3zm0 7.2c.8 0 1.4-.3 1.8-.8s.6-1.3.6-2.2c0-1-.2-1.7-.6-2.3-.4-.5-1-.8-1.8-.8-.4 0-.8.1-1.1.2s-.5.3-.7.6-.3.6-.4 1-.1.8-.1 1.3 0 .9.1 1.3.2.7.4 1 .4.5.7.6c.4 0 .7.1 1.1.1z"/><path d="m77.2 390.09v-8.1h.8c.2 0 .3.1.4.3l.1.8c.3-.4.6-.7 1-.9s.8-.4 1.3-.4 1 .2 1.3.5.6.7.7 1.2c.1-.3.3-.5.4-.8.2-.2.4-.4.6-.5s.5-.2.7-.3c.3-.1.5-.1.8-.1.4 0 .8.1 1.1.2s.6.3.8.6.4.6.5 1 .2.8.2 1.3v5.2h-1.4v-5.2c0-.6-.1-1.1-.4-1.4s-.7-.5-1.2-.5c-.2 0-.5 0-.7.1s-.4.2-.6.4-.3.4-.4.6-.1.5-.1.8v5.2h-1.4v-5.2c0-.7-.1-1.1-.4-1.5-.3-.3-.6-.5-1.1-.5-.4 0-.7.1-1 .3s-.6.4-.8.8v6h-1.2z"/><path d="m90.3 392.79v-10.8h.8c.2 0 .3.1.4.3l.1 1c.3-.4.7-.8 1.2-1s1-.4 1.5-.4.9.1 1.3.3.7.4 1 .8c.3.3.5.8.6 1.3s.2 1.1.2 1.8c0 .6-.1 1.2-.2 1.7-.2.5-.4 1-.7 1.3-.3.4-.7.7-1.1.9s-.9.3-1.5.3c-.5 0-.9-.1-1.3-.2-.4-.2-.7-.4-.9-.7v3.6h-1.4zm3.6-9.8c-.5 0-.9.1-1.2.3s-.7.5-1 .9v3.9c.3.4.5.6.9.7s.7.2 1 .2c.8 0 1.3-.3 1.7-.8s.6-1.3.6-2.3c0-.5 0-1-.1-1.4s-.2-.7-.4-.9-.4-.4-.6-.5c-.3 0-.6-.1-.9-.1z"/><path d="m100.7 378.29v11.8h-1.4v-11.8z"/><path d="m106.4 381.89c.5 0 .9.1 1.3.2.4.2.8.4 1.1.7s.5.7.7 1.1c.2.5.3 1 .3 1.5 0 .2 0 .4-.1.4 0 .1-.1.1-.3.1h-5.4c0 .5.1 1 .2 1.3s.3.7.5.9c.2.3.5.4.8.6.3.1.7.2 1 .2.4 0 .7 0 .9-.1s.5-.2.7-.3.3-.2.5-.3c.1-.1.2-.1.3-.1s.2 0 .3.1l.4.5c-.2.2-.4.4-.6.6s-.5.3-.8.4-.6.2-.9.2c-.3.1-.6.1-.9.1-.6 0-1.1-.1-1.5-.3-.5-.2-.9-.5-1.2-.8-.3-.4-.6-.8-.8-1.4-.2-.5-.3-1.2-.3-1.9 0-.6.1-1.1.3-1.6s.4-.9.7-1.3.7-.6 1.2-.8 1 0 1.6 0zm.1 1c-.7 0-1.2.2-1.6.6s-.6.9-.7 1.7h4.4c0-.3 0-.6-.1-.9s-.2-.5-.4-.7-.4-.4-.6-.5-.7-.2-1-.2z"/><path d="m114.1 390.19c-.6 0-1.1-.2-1.5-.5-.3-.4-.5-.9-.5-1.5v-5h-1c-.1 0-.2 0-.2-.1s-.1-.1-.1-.2v-.6l1.3-.2.3-2.5q0-.1.1-.2t.2-.1h.7v2.8h2.3v1h-2.3v4.9c0 .3.1.6.2.8.2.2.4.2.6.2.1 0 .3 0 .4-.1s.2-.1.3-.1.1-.1.2-.1.1-.1.1-.1q.1 0 .2.1l.4.7c-.2.2-.5.4-.9.5-.1.3-.5.3-.8.3z"/><path d="m120.8 381.89c.5 0 .9.1 1.3.2.4.2.8.4 1.1.7s.5.7.7 1.1c.2.5.3 1 .3 1.5 0 .2 0 .4-.1.4 0 .1-.1.1-.3.1h-5.4c0 .5.1 1 .2 1.3s.3.7.5.9c.2.3.5.4.8.6.3.1.7.2 1 .2.4 0 .7 0 .9-.1s.5-.2.7-.3.3-.2.5-.3c.1-.1.2-.1.3-.1s.2 0 .3.1l.4.5c-.2.2-.4.4-.6.6s-.5.3-.8.4-.6.2-.9.2c-.3.1-.6.1-.9.1-.6 0-1.1-.1-1.5-.3-.5-.2-.9-.5-1.2-.8-.3-.4-.6-.8-.8-1.4-.2-.5-.3-1.2-.3-1.9 0-.6.1-1.1.3-1.6s.4-.9.7-1.3.7-.6 1.2-.8 1 0 1.6 0zm0 1c-.7 0-1.2.2-1.6.6s-.6.9-.7 1.7h4.4c0-.3 0-.6-.1-.9s-.2-.5-.4-.7-.4-.4-.6-.5-.7-.2-1-.2z"/><path d="m130.6 378.29v11.8h-1.4v-11.8z"/><path d="m136.4 381.89c.6 0 1.1.1 1.6.3s.9.5 1.2.8c.3.4.6.8.8 1.3s.3 1.1.3 1.7-.1 1.2-.3 1.7-.4.9-.8 1.3c-.3.4-.7.6-1.2.8s-1 .3-1.6.3-1.1-.1-1.6-.3-.9-.5-1.2-.8c-.3-.4-.6-.8-.8-1.3s-.3-1.1-.3-1.7.1-1.2.3-1.7.4-1 .8-1.3c.3-.4.7-.6 1.2-.8s1-.3 1.6-.3zm0 7.2c.8 0 1.4-.3 1.8-.8s.6-1.3.6-2.2c0-1-.2-1.7-.6-2.3-.4-.5-1-.8-1.8-.8-.4 0-.8.1-1.1.2s-.5.3-.7.6-.3.6-.4 1-.1.8-.1 1.3 0 .9.1 1.3.2.7.4 1 .4.5.7.6c.4 0 .7.1 1.1.1z"/><path d="m141 381.99h1.1c.1 0 .2 0 .3.1s.1.1.2.2l1.6 5.2c0 .2.1.4.1.6s.1.4.1.5c0-.2.1-.4.1-.5s.1-.4.2-.6l1.7-5.2c0-.1.1-.1.1-.2.1-.1.2-.1.3-.1h.6c.1 0 .2 0 .3.1q.1.1.1.2l1.7 5.2c.1.2.1.4.2.6s.1.4.1.5c0-.2.1-.4.1-.6s.1-.4.1-.5l1.6-5.2c0-.1.1-.2.2-.2.1-.1.2-.1.3-.1h1.1l-2.6 8.1h-1.1c-.1 0-.2-.1-.3-.3l-1.8-5.5c0-.1-.1-.2-.1-.4 0-.1-.1-.2-.1-.4 0 .1-.1.2-.1.4 0 .1-.1.3-.1.4l-1.8 5.5c-.1.2-.2.3-.3.3h-1.1z"/><path d="m153.9 384.69h4v1.2h-4z"/><path d="m165.4 383.39c0 .1-.1.1-.1.1h-.2c-.1 0-.2 0-.3-.1s-.2-.1-.4-.2-.3-.2-.5-.2c-.2-.1-.5-.1-.8-.1-.4 0-.7.1-1 .2s-.6.3-.8.6-.4.6-.5 1-.2.8-.2 1.3.1.9.2 1.3.3.7.5 1 .4.5.7.6.6.2 1 .2c.3 0 .6 0 .9-.1.2-.1.4-.2.6-.3.1-.1.3-.2.4-.3s.2-.1.3-.1.2 0 .3.1l.4.5c-.4.4-.8.7-1.3.9s-1.1.3-1.7.3c-.5 0-1-.1-1.4-.3s-.8-.5-1.1-.8c-.3-.4-.6-.8-.8-1.3s-.3-1.1-.3-1.8c0-.6.1-1.2.3-1.7s.4-1 .7-1.3c.3-.4.7-.7 1.2-.9s1-.3 1.6-.3 1.1.1 1.5.3.8.4 1.2.8z"/><path d="m170.6 381.89c.6 0 1.1.1 1.6.3s.9.5 1.2.8c.3.4.6.8.8 1.3s.3 1.1.3 1.7-.1 1.2-.3 1.7-.4.9-.8 1.3c-.3.4-.7.6-1.2.8s-1 .3-1.6.3-1.1-.1-1.6-.3-.9-.5-1.2-.8c-.3-.4-.6-.8-.8-1.3s-.3-1.1-.3-1.7.1-1.2.3-1.7.4-1 .8-1.3c.3-.4.7-.6 1.2-.8s1-.3 1.6-.3zm0 7.2c.8 0 1.4-.3 1.8-.8s.6-1.3.6-2.2c0-1-.2-1.7-.6-2.3-.4-.5-1-.8-1.8-.8-.4 0-.8.1-1.1.2s-.5.3-.7.6-.3.6-.4 1-.1.8-.1 1.3 0 .9.1 1.3.2.7.4 1 .4.5.7.6c.3 0 .7.1 1.1.1z"/><path d="m181.9 390.09c-.2 0-.3-.1-.4-.3l-.1-1c-.3.4-.7.8-1.2 1-.4.3-1 .4-1.5.4s-.9-.1-1.3-.3-.7-.4-1-.8c-.3-.3-.5-.8-.6-1.3s-.2-1.1-.2-1.8c0-.6.1-1.2.2-1.7s.4-1 .7-1.3c.3-.4.7-.7 1.1-.9s.9-.3 1.5-.3c.5 0 .9.1 1.3.3s.7.4.9.7v-4.5h1.4v11.8zm-2.8-1c.5 0 .9-.1 1.2-.3s.7-.5 1-.9v-3.9c-.3-.4-.5-.6-.9-.7s-.7-.2-1-.2c-.8 0-1.3.3-1.7.8s-.6 1.3-.6 2.3c0 .5 0 1 .1 1.4s.2.7.4.9.4.4.6.5.6.1.9.1z"/><path d="m188.4 381.89c.5 0 .9.1 1.3.2.4.2.8.4 1.1.7s.5.7.7 1.1c.2.5.3 1 .3 1.5 0 .2 0 .4-.1.4 0 .1-.1.1-.3.1h-5.4c0 .5.1 1 .2 1.3s.3.7.5.9c.2.3.5.4.8.6.3.1.7.2 1 .2.4 0 .7 0 .9-.1s.5-.2.7-.3.3-.2.5-.3c.1-.1.2-.1.3-.1s.2 0 .3.1l.4.5-.6.6c-.2.2-.5.3-.8.4s-.6.2-.9.2c-.3.1-.6.1-.9.1-.6 0-1.1-.1-1.5-.3-.5-.2-.9-.5-1.2-.8-.3-.4-.6-.8-.8-1.4-.2-.5-.3-1.2-.3-1.9 0-.6.1-1.1.3-1.6s.4-.9.7-1.3.7-.6 1.2-.8 1 0 1.6 0zm0 1c-.7 0-1.2.2-1.6.6s-.6.9-.7 1.7h4.4c0-.3 0-.6-.1-.9s-.2-.5-.4-.7-.4-.4-.6-.5-.7-.2-1-.2z"/><path d="m198.5 385.79v4.3h-1.5v-11.5h3.4c.7 0 1.4.1 1.9.3s1 .4 1.3.7.6.7.8 1.1.3.9.3 1.5c0 .5-.1 1-.3 1.5-.2.4-.5.8-.8 1.1-.4.3-.8.6-1.3.7s-1.1.3-1.8.3zm0-1.2h1.8c.4 0 .8-.1 1.2-.2.3-.1.6-.3.9-.5.2-.2.4-.5.5-.8s.2-.6.2-1c0-.7-.2-1.3-.7-1.7s-1.1-.6-2-.6h-1.8v4.8z"/><path d="m208.3 379.49c0 .1 0 .3-.1.4s-.1.2-.2.3-.2.2-.3.2c-.1.1-.3.1-.4.1s-.3 0-.4-.1-.2-.1-.3-.2-.2-.2-.2-.3c-.1-.1-.1-.2-.1-.4 0-.1 0-.3.1-.4s.1-.2.2-.3.2-.2.3-.2c.1-.1.2-.1.4-.1s.3 0 .4.1.2.1.3.2.2.2.2.3c.1.1.1.2.1.4zm-.3 2.5v8.1h-1.4v-8.1z"/><path d="m210.5 392.79v-10.8h.8c.2 0 .3.1.4.3l.1 1c.3-.4.7-.8 1.2-1s1-.4 1.5-.4.9.1 1.3.3.7.4 1 .8c.3.3.5.8.6 1.3s.2 1.1.2 1.8c0 .6-.1 1.2-.2 1.7-.2.5-.4 1-.7 1.3s-.7.7-1.1.9-.9.3-1.5.3c-.5 0-.9-.1-1.3-.2-.4-.2-.7-.4-.9-.7v3.6h-1.4zm3.6-9.8c-.5 0-.9.1-1.2.3s-.7.5-1 .9v3.9c.3.4.5.6.9.7s.7.2 1 .2c.8 0 1.3-.3 1.7-.8s.6-1.3.6-2.3c0-.5 0-1-.1-1.4s-.2-.7-.4-.9-.4-.4-.6-.5c-.3 0-.6-.1-.9-.1z"/><path d="m222.5 381.89c.5 0 .9.1 1.3.2.4.2.8.4 1.1.7s.5.7.7 1.1c.2.5.3 1 .3 1.5 0 .2 0 .4-.1.4 0 .1-.1.1-.3.1h-5.4c0 .5.1 1 .2 1.3s.3.7.5.9c.2.3.5.4.8.6.3.1.7.2 1 .2.4 0 .7 0 .9-.1s.5-.2.7-.3.3-.2.5-.3.2-.1.3-.1.2 0 .3.1l.4.5-.6.6c-.2.2-.5.3-.8.4s-.6.2-.9.2c-.3.1-.6.1-.9.1-.6 0-1.1-.1-1.5-.3s-.9-.5-1.2-.8c-.3-.4-.6-.8-.8-1.4-.2-.5-.3-1.2-.3-1.9 0-.6.1-1.1.3-1.6s.4-.9.7-1.3.7-.6 1.2-.8 1 0 1.6 0zm.1 1c-.7 0-1.2.2-1.6.6s-.6.9-.7 1.7h4.4c0-.3 0-.6-.1-.9s-.2-.5-.4-.7-.4-.4-.6-.5c-.4-.1-.7-.2-1-.2z"/><path d="m229.3 378.29v11.8h-1.4v-11.8z"/><path d="m233.7 379.49c0 .1 0 .3-.1.4s-.1.2-.2.3-.2.2-.3.2c-.1.1-.3.1-.4.1s-.3 0-.4-.1-.2-.1-.3-.2-.2-.2-.2-.3-.1-.2-.1-.4c0-.1 0-.3.1-.4s.1-.2.2-.3.2-.2.3-.2c.1-.1.2-.1.4-.1s.3 0 .4.1.2.1.3.2.2.2.2.3c.1.1.1.2.1.4zm-.3 2.5v8.1h-1.4v-8.1z"/><path d="m235.9 390.09v-8.1h.8c.2 0 .3.1.4.3l.1.9c.4-.4.7-.7 1.2-.9.4-.2.9-.4 1.5-.4.4 0 .8.1 1.2.2s.6.4.8.6c.2.3.4.6.5 1s.2.8.2 1.3v5.2h-1.4v-5.2c0-.6-.1-1.1-.4-1.4s-.7-.5-1.3-.5c-.4 0-.8.1-1.2.3s-.7.5-1 .8v6h-1.4z"/><path d="m248 381.89c.5 0 .9.1 1.3.2.4.2.8.4 1.1.7s.5.7.7 1.1c.2.5.3 1 .3 1.5 0 .2 0 .4-.1.4 0 .1-.1.1-.3.1h-5.4c0 .5.1 1 .2 1.3s.3.7.5.9c.2.3.5.4.8.6.3.1.7.2 1 .2.4 0 .7 0 .9-.1s.5-.2.7-.3.3-.2.5-.3c.1-.1.2-.1.3-.1s.2 0 .3.1l.4.5-.6.6c-.2.2-.5.3-.8.4s-.6.2-.9.2-.6.1-.9.1c-.6 0-1.1-.1-1.5-.3-.5-.2-.9-.5-1.2-.8s-.6-.8-.8-1.4c-.2-.5-.3-1.2-.3-1.9 0-.6.1-1.1.3-1.6s.4-.9.7-1.3.7-.6 1.2-.8 1 0 1.6 0zm0 1c-.7 0-1.2.2-1.6.6s-.6.9-.7 1.7h4.4c0-.3 0-.6-.1-.9s-.2-.5-.4-.7-.4-.4-.6-.5c-.3-.1-.6-.2-1-.2z"/><path d="m262.3 386.39c.1.1.1.3.2.4.1-.1.1-.3.2-.4s.1-.3.2-.4l3.9-7c.1-.1.1-.2.2-.2h1.4v11.3h-1.4v-9.2l-3.9 7.2c-.1.2-.3.4-.6.4h-.2c-.2 0-.4-.1-.6-.4l-4-7.2v9.2h-1.4v-11.5h1.4c.1 0 .1.1.2.2l4 7.1c.3.2.4.3.4.5z"/><path d="m274.3 381.89c.6 0 1.1.1 1.6.3s.9.5 1.2.8c.3.4.6.8.8 1.3s.3 1.1.3 1.7-.1 1.2-.3 1.7-.4.9-.8 1.3c-.3.4-.7.6-1.2.8s-1 .3-1.6.3-1.1-.1-1.6-.3-.9-.5-1.2-.8c-.3-.4-.6-.8-.8-1.3s-.3-1.1-.3-1.7.1-1.2.3-1.7.4-1 .8-1.3c.3-.4.7-.6 1.2-.8.4-.2 1-.3 1.6-.3zm0 7.2c.8 0 1.4-.3 1.8-.8s.6-1.3.6-2.2c0-1-.2-1.7-.6-2.3-.4-.5-1-.8-1.8-.8-.4 0-.8.1-1.1.2s-.5.3-.7.6-.3.6-.4 1-.1.8-.1 1.3 0 .9.1 1.3.2.7.4 1 .4.5.7.6c.3 0 .7.1 1.1.1z"/><path d="m285.6 390.09c-.2 0-.3-.1-.4-.3l-.1-1c-.3.4-.7.8-1.2 1-.4.3-1 .4-1.5.4s-.9-.1-1.3-.3-.7-.4-1-.8c-.3-.3-.5-.8-.6-1.3s-.2-1.1-.2-1.8c0-.6.1-1.2.2-1.7s.4-1 .7-1.3c.3-.4.7-.7 1.1-.9s.9-.3 1.5-.3c.5 0 .9.1 1.3.3s.7.4.9.7v-4.5h1.4v11.8zm-2.8-1c.5 0 .9-.1 1.2-.3s.7-.5 1-.9v-3.9c-.3-.4-.5-.6-.9-.7s-.7-.2-1-.2c-.8 0-1.3.3-1.7.8s-.6 1.3-.6 2.3c0 .5 0 1 .1 1.4s.2.7.4.9.4.4.6.5.6.1.9.1z"/><path d="m292 381.89c.5 0 .9.1 1.3.2.4.2.8.4 1.1.7s.5.7.7 1.1c.2.5.3 1 .3 1.5 0 .2 0 .4-.1.4 0 .1-.1.1-.3.1h-5.4c0 .5.1 1 .2 1.3s.3.7.5.9c.2.3.5.4.8.6.3.1.7.2 1 .2.4 0 .7 0 .9-.1s.5-.2.7-.3.3-.2.5-.3c.1-.1.2-.1.3-.1s.2 0 .3.1l.4.5c-.2.2-.4.4-.6.6s-.5.3-.8.4-.6.2-.9.2-.6.1-.9.1c-.6 0-1.1-.1-1.5-.3-.5-.2-.9-.5-1.2-.8s-.6-.8-.8-1.4c-.2-.5-.3-1.2-.3-1.9 0-.6.1-1.1.3-1.6s.4-.9.7-1.3.7-.6 1.2-.8 1 0 1.6 0zm.1 1c-.7 0-1.2.2-1.6.6s-.6.9-.7 1.7h4.4c0-.3 0-.6-.1-.9s-.2-.5-.4-.7-.4-.4-.6-.5c-.4-.1-.7-.2-1-.2z"/><path d="m298.8 378.29v11.8h-1.4v-11.8z"/><path d="m303.2 379.49c0 .1 0 .3-.1.4s-.1.2-.2.3-.2.2-.3.2c-.1.1-.3.1-.4.1s-.3 0-.4-.1-.2-.1-.3-.2-.2-.2-.2-.3c-.1-.1-.1-.2-.1-.4 0-.1 0-.3.1-.4s.1-.2.2-.3.2-.2.3-.2c.1-.1.2-.1.4-.1s.3 0 .4.1.2.1.3.2.2.2.2.3c.1.1.1.2.1.4zm-.3 2.5v8.1h-1.4v-8.1z"/><path d="m305.4 390.09v-8.1h.8c.2 0 .3.1.4.3l.1.9c.4-.4.7-.7 1.2-.9s.9-.4 1.5-.4c.4 0 .8.1 1.2.2.3.1.6.4.8.6.2.3.4.6.5 1s.2.8.2 1.3v5.2h-1.4v-5.2c0-.6-.1-1.1-.4-1.4s-.7-.5-1.3-.5c-.4 0-.8.1-1.2.3s-.7.5-1 .8v6h-1.4z"/><path d="m317 381.89c.4 0 .7 0 1 .1s.6.2.8.3h2.2v.5c0 .2-.1.3-.3.3l-.9.1c.2.3.3.7.3 1.2 0 .4-.1.8-.2 1.1-.2.3-.4.6-.6.8-.3.2-.6.4-1 .5s-.8.2-1.2.2-.7 0-1.1-.1c-.2.1-.3.2-.4.4-.1.1-.1.3-.1.4 0 .2.1.3.2.5.2.1.4.2.6.2.3 0 .5.1.9.1h1c.3 0 .7 0 1 .1s.6.2.9.3.5.3.6.6c.2.2.2.5.2.9s-.1.7-.3 1-.4.6-.7.9-.7.5-1.2.6c-.5.2-1 .2-1.6.2s-1.1-.1-1.6-.2c-.4-.1-.8-.3-1.1-.5s-.5-.4-.7-.7c-.1-.3-.2-.5-.2-.8 0-.4.1-.7.4-1s.6-.5 1-.7c-.2-.1-.4-.2-.5-.4s-.2-.4-.2-.7c0-.1 0-.2.1-.4 0-.1.1-.2.2-.4s.2-.2.3-.4c.1-.1.3-.2.4-.3-.4-.2-.7-.5-.9-.9s-.3-.8-.3-1.3c0-.4.1-.8.2-1.1.2-.3.4-.6.6-.8.3-.2.6-.4 1-.5s.8-.1 1.2-.1zm2.6 8.6c0-.2-.1-.4-.2-.5s-.3-.2-.5-.3-.4-.1-.7-.2h-1.6c-.2 0-.6 0-.8-.1-.3.1-.6.3-.7.5-.2.2-.3.5-.3.7s0 .4.1.5.2.3.4.4.4.2.7.3.6.1 1 .1.7 0 1-.1.6-.2.8-.3.4-.3.5-.5.3-.3.3-.5zm-2.6-4.4c.3 0 .5 0 .8-.1s.4-.2.6-.3.3-.3.3-.5c.1-.2.1-.4.1-.7 0-.5-.2-.9-.5-1.2s-.7-.4-1.3-.4-1 .1-1.3.4-.5.7-.5 1.2c0 .2 0 .5.1.7s.2.4.3.5.3.3.6.3.5.1.8.1z"/><path d="m324.5 381.99h1.1c.1 0 .2 0 .3.1l.2.2 1.6 5.2c0 .2.1.4.1.6s.1.4.1.5c0-.2.1-.4.1-.5s.1-.4.2-.6l1.7-5.2c0-.1.1-.1.1-.2.1-.1.2-.1.3-.1h.6c.1 0 .2 0 .3.1q.1.1.1.2l1.7 5.2c.1.2.1.4.2.6s.1.4.1.5c0-.2.1-.4.1-.6s.1-.4.1-.5l1.6-5.2c0-.1.1-.2.2-.2.1-.1.2-.1.3-.1h1.1l-2.6 8.1h-1.1c-.1 0-.2-.1-.3-.3l-1.8-5.5c0-.1-.1-.2-.1-.4 0-.1-.1-.2-.1-.4 0 .1-.1.2-.1.4 0 .1-.1.3-.1.4l-1.8 5.5c-.1.2-.2.3-.3.3h-1.1z"/><path d="m339.7 379.49c0 .1 0 .3-.1.4s-.1.2-.2.3-.2.2-.3.2c-.1.1-.3.1-.4.1s-.3 0-.4-.1-.2-.1-.3-.2-.2-.2-.2-.3c-.1-.1-.1-.2-.1-.4 0-.1 0-.3.1-.4s.1-.2.2-.3.2-.2.3-.2c.1-.1.2-.1.4-.1s.3 0 .4.1.2.1.3.2.2.2.2.3c.1.1.1.2.1.4zm-.3 2.5v8.1h-1.4v-8.1z"/><path d="m344.4 390.19c-.6 0-1.1-.2-1.5-.5-.3-.4-.5-.9-.5-1.5v-5h-1c-.1 0-.2 0-.2-.1q-.1-.1-.1-.2v-.6l1.3-.2.3-2.5q0-.1.1-.2t.2-.1h.7v2.8h2.3v1h-2.3v4.9c0 .3.1.6.2.8.2.2.4.2.6.2.1 0 .3 0 .4-.1s.2-.1.3-.1.1-.1.2-.1.1-.1.1-.1q.1 0 .2.1l.4.7c-.2.2-.5.4-.9.5-.1.3-.5.3-.8.3z"/><path d="m347.9 390.09v-11.8h1.4v4.8c.3-.4.7-.7 1.2-.9.4-.2.9-.3 1.5-.3.4 0 .8.1 1.2.2s.6.4.8.6.4.6.5 1 .2.8.2 1.3v5.2h-1.4v-5.2c0-.6-.1-1.1-.4-1.4s-.7-.5-1.3-.5c-.4 0-.8.1-1.2.3s-.7.5-1 .8v6h-1.5z"/><path d="m27.3 400.39c0 .1-.1.1-.2.2s-.1.1-.2.1-.2 0-.3-.1-.3-.2-.5-.3-.4-.2-.7-.3-.6-.1-.9-.1-.7 0-.9.1c-.3.1-.5.2-.7.4s-.3.3-.4.6c-.1.2-.1.4-.1.7s.1.6.2.8c.2.2.4.4.6.5.3.1.6.3.9.4s.7.2 1 .3.7.2 1 .4c.3.1.6.3.9.6.3.2.5.5.6.8.2.3.2.7.2 1.2s-.1 1-.3 1.4-.4.8-.7 1.1-.7.6-1.2.8-1 .3-1.6.3c-.7 0-1.4-.1-2-.4s-1.1-.6-1.6-1.1l.4-.7c0-.1.1-.1.2-.1s.1-.1.2-.1.2.1.4.2c.1.1.3.3.5.4s.5.3.8.4.7.2 1.1.2.7-.1 1-.2.5-.2.7-.4.4-.4.5-.7.2-.5.2-.9c0-.3-.1-.6-.2-.9-.2-.2-.4-.4-.6-.6s-.6-.2-.9-.3-.7-.2-1-.3-.7-.2-1-.4c-.3-.1-.6-.3-.9-.6s-.5-.5-.6-.9-.2-.7-.2-1.2c0-.4.1-.8.2-1.2.2-.4.4-.7.7-1s.7-.5 1.1-.7.9-.3 1.5-.3 1.2.1 1.8.3c.5.2 1 .5 1.4.9z"/><path d="m35.2 403.39c0 .1-.1.1-.1.1h-.2c-.1 0-.2 0-.3-.1s-.2-.1-.4-.2-.3-.2-.5-.2c-.2-.1-.5-.1-.8-.1-.4 0-.7.1-1 .2s-.6.3-.8.6-.4.6-.5 1-.2.8-.2 1.3.1.9.2 1.3.3.7.5 1 .4.5.7.6.6.2 1 .2c.3 0 .6 0 .9-.1.2-.1.4-.2.6-.3.1-.1.3-.2.4-.3s.2-.1.3-.1.2 0 .3.1l.4.5c-.4.4-.8.7-1.3.9s-1.1.3-1.7.3c-.5 0-1-.1-1.4-.3s-.8-.5-1.1-.8c-.3-.4-.6-.8-.8-1.3s-.3-1.1-.3-1.8c0-.6.1-1.2.3-1.7s.4-1 .7-1.3c.3-.4.7-.7 1.2-.9s1-.3 1.6-.3 1.1.1 1.5.3.8.4 1.2.8z"/><path d="m40.3 401.89c.5 0 .9.1 1.3.2.4.2.8.4 1.1.7s.5.7.7 1.1c.2.5.3 1 .3 1.5 0 .2 0 .4-.1.4 0 .1-.1.1-.3.1h-5.3c0 .5.1 1 .2 1.3s.3.7.5.9c.2.3.5.4.8.6.3.1.7.2 1 .2.4 0 .7 0 .9-.1s.5-.2.7-.3.3-.2.5-.3c.1-.1.2-.1.3-.1s.2 0 .3.1l.4.5c-.2.2-.4.4-.6.6s-.5.3-.8.4-.6.2-.9.2c-.3.1-.6.1-.9.1-.6 0-1.1-.1-1.5-.3-.5-.2-.9-.5-1.2-.8-.3-.4-.6-.8-.8-1.4-.2-.5-.3-1.2-.3-1.9 0-.6.1-1.1.3-1.6s.4-.9.7-1.3.7-.6 1.2-.8.9 0 1.5 0zm.1 1c-.7 0-1.2.2-1.6.6s-.6.9-.7 1.7h4.4c0-.3 0-.6-.1-.9s-.2-.5-.4-.7-.4-.4-.6-.5-.7-.2-1-.2z"/><path d="m45.5 410.09v-8.1h.8c.2 0 .3.1.4.3l.1.9c.4-.4.7-.7 1.2-.9s.9-.4 1.5-.4c.4 0 .8.1 1.2.2.3.1.6.4.8.6.2.3.4.6.5 1s.2.8.2 1.3v5.2h-1.4v-5.2c0-.6-.1-1.1-.4-1.4s-.7-.5-1.3-.5c-.4 0-.8.1-1.2.3s-.7.5-1 .8v6h-1.4z"/><path d="m60.4 410.09h-.6c-.1 0-.3 0-.3-.1-.1 0-.1-.1-.2-.3l-.2-.8c-.2.2-.4.4-.6.5-.2.2-.4.3-.6.4s-.5.2-.7.2c-.3.1-.5.1-.8.1s-.6 0-.9-.1-.5-.2-.7-.4-.4-.4-.5-.7-.2-.6-.2-1c0-.3.1-.6.3-.9s.5-.6.9-.8.9-.4 1.5-.6c.6-.1 1.4-.2 2.3-.2v-.6c0-.6-.1-1.1-.4-1.4s-.7-.5-1.2-.5c-.3 0-.6 0-.9.1s-.4.2-.6.3-.3.2-.4.3-.2.1-.4.1c-.1 0-.2 0-.3-.1-.1 0-.1-.1-.2-.2l-.3-.5c.4-.4.9-.8 1.4-1s1.1-.3 1.7-.3c.5 0 .9.1 1.2.2.4.1.6.4.9.6.2.3.4.6.5 1s.2.8.2 1.2v5.5zm-3.7-.9c.3 0 .5 0 .7-.1s.4-.1.6-.2.4-.2.5-.3c.2-.1.3-.3.5-.5v-1.7c-.7 0-1.2 0-1.7.1s-.8.2-1.1.3-.5.3-.6.5-.2.4-.2.6 0 .4.1.6.2.3.3.4.3.2.4.2c.1.1.3.1.5.1z"/><path d="m62.5 410.09v-8.1h.8c.2 0 .3 0 .3.1.1.1.1.2.1.3l.1 1.3c.3-.6.6-1 1-1.3s.9-.5 1.4-.5c.2 0 .4 0 .6.1s.3.1.5.2l-.2 1.1c0 .1-.1.2-.2.2s-.2 0-.3-.1c-.2 0-.4-.1-.6-.1-.5 0-.9.1-1.2.4s-.6.7-.8 1.3v5.2h-1.5z"/><path d="m70.9 399.49c0 .1 0 .3-.1.4s-.1.2-.2.3-.2.2-.3.2c-.1.1-.3.1-.4.1s-.3 0-.4-.1-.2-.1-.3-.2-.2-.2-.2-.3c-.1-.1-.1-.2-.1-.4 0-.1 0-.3.1-.4s.1-.2.2-.3.2-.2.3-.2c.1-.1.2-.1.4-.1s.3 0 .4.1.2.1.3.2.2.2.2.3.1.2.1.4zm-.4 2.5v8.1h-1.4v-8.1z"/><path d="m76.3 401.89c.6 0 1.1.1 1.6.3s.9.5 1.2.8c.3.4.6.8.8 1.3s.3 1.1.3 1.7-.1 1.2-.3 1.7-.4.9-.8 1.3c-.3.4-.7.6-1.2.8s-1 .3-1.6.3-1.1-.1-1.6-.3-.9-.5-1.2-.8c-.3-.4-.6-.8-.8-1.3s-.3-1.1-.3-1.7.1-1.2.3-1.7.4-1 .8-1.3c.3-.4.7-.6 1.2-.8s1-.3 1.6-.3zm0 7.2c.8 0 1.4-.3 1.8-.8s.6-1.3.6-2.2c0-1-.2-1.7-.6-2.3-.4-.5-1-.8-1.8-.8-.4 0-.8.1-1.1.2s-.5.3-.7.6-.3.6-.4 1-.1.8-.1 1.3 0 .9.1 1.3.2.7.4 1 .4.5.7.6c.4 0 .7.1 1.1.1z"/><path d="m91.1 406.39c.1.1.1.3.2.4.1-.1.1-.3.2-.4s.1-.3.2-.4l3.9-7c.1-.1.1-.2.2-.2h1.4v11.3h-1.4v-9.2l-3.9 7.2c-.1.2-.3.4-.6.4h-.2c-.2 0-.4-.1-.6-.4l-4-7.2v9.2h-1.4v-11.5h1.4c.1 0 .1.1.2.2l4 7.1c.3.2.3.3.4.5z"/><path d="m105.7 410.09h-.6c-.1 0-.3 0-.3-.1-.1 0-.1-.1-.2-.3l-.2-.8c-.2.2-.4.4-.6.5-.2.2-.4.3-.6.4s-.5.2-.7.2c-.3.1-.5.1-.8.1s-.6 0-.9-.1-.5-.2-.7-.4-.4-.4-.5-.7-.2-.6-.2-1c0-.3.1-.6.3-.9s.5-.6.9-.8.9-.4 1.5-.6c.6-.1 1.4-.2 2.3-.2v-.6c0-.6-.1-1.1-.4-1.4s-.7-.5-1.2-.5c-.3 0-.6 0-.9.1s-.4.2-.6.3-.3.2-.4.3-.2.1-.4.1c-.1 0-.2 0-.3-.1-.1 0-.1-.1-.2-.2l-.3-.5c.4-.4.9-.8 1.4-1s1.1-.3 1.7-.3c.5 0 .9.1 1.2.2.4.1.6.4.9.6.2.3.4.6.5 1s.2.8.2 1.2v5.5zm-3.7-.9c.3 0 .5 0 .7-.1s.4-.1.6-.2.4-.2.5-.3c.2-.1.3-.3.5-.5v-1.7c-.7 0-1.2 0-1.7.1s-.8.2-1.1.3-.5.3-.6.5-.2.4-.2.6 0 .4.1.6.2.3.3.4.3.2.4.2c.2.1.3.1.5.1z"/><path d="m107.9 410.09v-8.1h.8c.2 0 .3.1.4.3l.1.9c.4-.4.7-.7 1.2-.9s.9-.4 1.5-.4c.4 0 .8.1 1.2.2.3.1.6.4.8.6.2.3.4.6.5 1s.2.8.2 1.3v5.2h-1.4v-5.2c0-.6-.1-1.1-.4-1.4s-.7-.5-1.3-.5c-.4 0-.8.1-1.2.3s-.7.5-1 .8v6h-1.4z"/><path d="m122.7 410.09h-.6c-.1 0-.3 0-.3-.1-.1 0-.1-.1-.2-.3l-.2-.8c-.2.2-.4.4-.6.5-.2.2-.4.3-.6.4s-.5.2-.7.2c-.3.1-.5.1-.8.1s-.6 0-.9-.1-.5-.2-.7-.4-.4-.4-.5-.7-.2-.6-.2-1c0-.3.1-.6.3-.9s.5-.6.9-.8.9-.4 1.5-.6c.6-.1 1.4-.2 2.3-.2v-.6c0-.6-.1-1.1-.4-1.4s-.7-.5-1.2-.5c-.3 0-.6 0-.9.1s-.4.2-.6.3-.3.2-.4.3-.2.1-.4.1c-.1 0-.2 0-.3-.1-.1 0-.1-.1-.2-.2l-.3-.5c.4-.4.9-.8 1.4-1s1.1-.3 1.7-.3c.5 0 .9.1 1.2.2.4.1.6.4.9.6.2.3.4.6.5 1s.2.8.2 1.2v5.5zm-3.7-.9c.3 0 .5 0 .7-.1s.4-.1.6-.2.4-.2.5-.3c.2-.1.3-.3.5-.5v-1.7c-.7 0-1.2 0-1.7.1s-.8.2-1.1.3-.5.3-.6.5-.2.4-.2.6 0 .4.1.6.2.3.3.4.3.2.4.2c.2.1.3.1.5.1z"/><path d="m127.6 401.89c.4 0 .7 0 1 .1s.6.2.8.3h2.2v.5c0 .2-.1.3-.3.3l-.9.1c.2.3.3.7.3 1.2 0 .4-.1.8-.2 1.1-.2.3-.4.6-.6.8-.3.2-.6.4-1 .5s-.8.2-1.2.2-.7 0-1.1-.1c-.2.1-.3.2-.4.4-.1.1-.1.3-.1.4 0 .2.1.3.2.5.2.1.4.2.6.2.3 0 .5.1.9.1h1c.3 0 .7 0 1 .1s.6.2.9.3.5.3.6.6c.2.2.2.5.2.9s-.1.7-.3 1-.4.6-.7.9-.7.5-1.2.6c-.5.2-1 .2-1.6.2s-1.1-.1-1.6-.2c-.4-.1-.8-.3-1.1-.5s-.5-.4-.7-.7c-.1-.3-.2-.5-.2-.8 0-.4.1-.7.4-1s.6-.5 1-.7c-.2-.1-.4-.2-.5-.4s-.2-.4-.2-.7c0-.1 0-.2.1-.4 0-.1.1-.2.2-.4s.2-.2.3-.4c.1-.1.3-.2.4-.3-.4-.2-.7-.5-.9-.9s-.3-.8-.3-1.3c0-.4.1-.8.2-1.1.2-.3.4-.6.6-.8s.6-.4 1-.5c.3-.1.8-.1 1.2-.1zm2.5 8.6c0-.2-.1-.4-.2-.5s-.3-.2-.5-.3-.4-.1-.7-.2h-1.6c-.2 0-.6 0-.8-.1-.3.1-.6.3-.7.5-.2.2-.3.5-.3.7s0 .4.1.5.2.3.4.4.4.2.7.3.6.1 1 .1.7 0 1-.1.6-.2.8-.3.4-.3.5-.5c.3-.1.3-.3.3-.5zm-2.5-4.4c.3 0 .5 0 .8-.1.2-.1.4-.2.6-.3s.3-.3.3-.5c.1-.2.1-.4.1-.7 0-.5-.2-.9-.5-1.2s-.7-.4-1.3-.4-1 .1-1.3.4-.5.7-.5 1.2c0 .2 0 .5.1.7s.2.4.3.5.3.3.6.3.5.1.8.1z"/><path d="m136.3 401.89c.5 0 .9.1 1.3.2.4.2.8.4 1.1.7s.5.7.7 1.1c.2.5.3 1 .3 1.5 0 .2 0 .4-.1.4 0 .1-.1.1-.3.1h-5.4c0 .5.1 1 .2 1.3s.3.7.5.9c.2.3.5.4.8.6.3.1.7.2 1 .2.4 0 .7 0 .9-.1s.5-.2.7-.3.3-.2.5-.3c.1-.1.2-.1.3-.1s.2 0 .3.1l.4.5c-.2.2-.4.4-.6.6s-.5.3-.8.4-.6.2-.9.2c-.3.1-.6.1-.9.1-.6 0-1.1-.1-1.5-.3-.5-.2-.9-.5-1.2-.8-.3-.4-.6-.8-.8-1.4-.2-.5-.3-1.2-.3-1.9 0-.6.1-1.1.3-1.6s.4-.9.7-1.3.7-.6 1.2-.8 1 0 1.6 0zm0 1c-.7 0-1.2.2-1.6.6s-.6.9-.7 1.7h4.4c0-.3 0-.6-.1-.9s-.2-.5-.4-.7-.4-.4-.6-.5-.7-.2-1-.2z"/><path d="m141.4 410.09v-8.1h.8c.2 0 .3.1.4.3l.1.8c.3-.4.6-.7 1-.9s.8-.4 1.3-.4 1 .2 1.3.5.6.7.7 1.2c.1-.3.3-.5.4-.8.2-.2.4-.4.6-.5s.5-.2.7-.3c.3-.1.5-.1.8-.1.4 0 .8.1 1.1.2s.6.3.8.6.4.6.5 1 .2.8.2 1.3v5.2h-1.1v-5.2c0-.6-.1-1.1-.4-1.4s-.7-.5-1.2-.5c-.2 0-.5 0-.7.1s-.4.2-.6.4-.3.4-.4.6-.1.5-.1.8v5.2h-1.4v-5.2c0-.7-.1-1.1-.4-1.5-.3-.3-.6-.5-1.1-.5-.4 0-.7.1-1 .3s-.6.4-.8.8v6h-1.5z"/><path d="m157.8 401.89c.5 0 .9.1 1.3.2.4.2.8.4 1.1.7s.5.7.7 1.1c.2.5.3 1 .3 1.5 0 .2 0 .4-.1.4 0 .1-.1.1-.3.1h-5.4c0 .5.1 1 .2 1.3s.3.7.5.9c.2.3.5.4.8.6.3.1.7.2 1 .2.4 0 .7 0 .9-.1s.5-.2.7-.3.3-.2.5-.3c.1-.1.2-.1.3-.1s.2 0 .3.1l.4.5-.6.6c-.2.2-.5.3-.8.4s-.6.2-.9.2c-.3.1-.6.1-.9.1-.6 0-1.1-.1-1.5-.3-.5-.2-.9-.5-1.2-.8-.3-.4-.6-.8-.8-1.4-.2-.5-.3-1.2-.3-1.9 0-.6.1-1.1.3-1.6s.4-.9.7-1.3.7-.6 1.2-.8 1 0 1.6 0zm0 1c-.7 0-1.2.2-1.6.6s-.6.9-.7 1.7h4.4c0-.3 0-.6-.1-.9s-.2-.5-.4-.7-.4-.4-.6-.5-.7-.2-1-.2z"/><path d="m163 410.09v-8.1h.8c.2 0 .3.1.4.3l.1.9c.4-.4.7-.7 1.2-.9s.9-.4 1.5-.4c.4 0 .8.1 1.2.2.3.1.6.4.8.6.2.3.4.6.5 1s.2.8.2 1.3v5.2h-1.4v-5.2c0-.6-.1-1.1-.4-1.4s-.7-.5-1.3-.5c-.4 0-.8.1-1.2.3s-.7.5-1 .8v6h-1.4z"/><path d="m174.3 410.19c-.6 0-1.1-.2-1.5-.5-.3-.4-.5-.9-.5-1.5v-5h-1c-.1 0-.2 0-.2-.1s-.1-.1-.1-.2v-.6l1.3-.2.3-2.5q0-.1.1-.2t.2-.1h.7v2.8h2.3v1h-2.3v4.9c0 .3.1.6.2.8.2.2.4.2.6.2.1 0 .3 0 .4-.1s.2-.1.3-.1.1-.1.2-.1.1-.1.1-.1q.1 0 .2.1l.4.7c-.2.2-.5.4-.9.5-.1.3-.4.3-.8.3z"/><path d="m31.5 335.79v1.6h-4.6v12.7h-2v-12.7h-4.6v-1.6s11.2 0 11.2 0z"/><path d="m38.2 350.09h-.8c-.2 0-.3 0-.4-.1s-.2-.2-.2-.3l-.2-.9c-.3.2-.5.5-.8.6-.3.2-.5.3-.8.5-.3.1-.6.2-.9.3s-.7.1-1.1.1-.8-.1-1.1-.2-.6-.3-.9-.5-.5-.5-.6-.8-.2-.7-.2-1.2c0-.4.1-.8.3-1.2s.6-.7 1.1-1 1.1-.5 1.9-.7 1.8-.3 2.9-.3v-.8c0-.8-.2-1.4-.5-1.8s-.8-.6-1.5-.6c-.4 0-.8.1-1.1.2s-.6.2-.8.4c-.2.1-.4.3-.6.4s-.3.2-.5.2c-.1 0-.2 0-.3-.1.1-.2 0-.2-.1-.3l-.3-.6c.6-.5 1.2-.9 1.8-1.2s1.4-.4 2.1-.4c.6 0 1.1.1 1.5.3s.8.4 1.1.8c.3.3.5.7.7 1.2s.2 1 .2 1.6v6.4zm-4.6-1.1c.3 0 .6 0 .9-.1s.5-.2.7-.3.5-.3.7-.4.4-.4.6-.6v-2.1c-.8 0-1.5.1-2.1.2s-1 .2-1.4.4-.6.4-.8.6-.2.5-.2.8 0 .5.1.7.2.4.4.5.3.2.5.3z"/><path d="m43.3 336.79c0 .2 0 .3-.1.5s-.2.3-.3.4-.3.2-.4.3c-.2 0-.3.1-.5.1s-.3 0-.5-.1-.3-.2-.4-.3-.2-.2-.3-.4c-.1-.1-.1-.3-.1-.5s0-.3.1-.5.2-.3.3-.4.2-.2.4-.3c.1-.1.3-.1.5-.1s.3 0 .5.1.3.2.4.3.2.3.3.4c0 .2.1.3.1.5zm-.4 3.2v10.1h-1.8v-10.1z"/><path d="m46 353.49v-13.5h1.1c.3 0 .4.1.5.4l.1 1.2c.4-.5.9-1 1.5-1.3s1.2-.5 1.9-.5c.6 0 1.1.1 1.6.3s.9.6 1.2 1 .6 1 .8 1.6.3 1.4.3 2.2c0 .7-.1 1.4-.3 2.1-.2.6-.5 1.2-.9 1.7s-.8.8-1.4 1.1c-.5.3-1.2.4-1.8.4s-1.2-.1-1.6-.3-.8-.5-1.2-.9v4.5zm4.5-12.3c-.6 0-1.1.1-1.5.4s-.8.6-1.2 1.1v4.9c.3.4.7.8 1.1.9.4.2.8.3 1.3.3.9 0 1.7-.3 2.2-1s.8-1.6.8-2.9c0-.7-.1-1.2-.2-1.7s-.3-.9-.5-1.2-.5-.5-.8-.7c-.4 0-.8-.1-1.2-.1z"/><path d="m59.8 353.09c-.1.1-.1.2-.2.3s-.2.1-.4.1h-1.3l1.8-4-4.2-9.5h1.5c.2 0 .3 0 .4.1s.1.2.2.3l2.7 6.4c.1.1.1.3.2.4 0 .1.1.3.1.5 0-.2.1-.3.1-.5 0-.1.1-.3.2-.4l2.6-6.4c0-.1.1-.2.2-.3s.2-.1.3-.1h1.4z"/><path d="m81.3 347.09c.1 0 .2 0 .3.1l.8.8c-.6.7-1.3 1.2-2.1 1.6s-1.8.6-3 .6c-1 0-2-.2-2.8-.5s-1.6-.9-2.1-1.5-1.1-1.4-1.4-2.3-.5-1.9-.5-3 .2-2.1.5-3c.4-.9.8-1.7 1.5-2.3s1.4-1.1 2.3-1.5 1.9-.5 2.9-.5c1.1 0 2 .2 2.7.5.8.3 1.4.8 2 1.3l-.6.9c0 .1-.1.1-.2.2-.1 0-.1.1-.3.1-.1 0-.2 0-.3-.1s-.2-.1-.3-.2-.3-.2-.5-.3-.4-.2-.6-.3-.5-.2-.9-.2c-.3-.1-.7-.1-1.1-.1-.8 0-1.5.1-2.1.4s-1.2.6-1.6 1.1-.8 1.1-1.1 1.8-.4 1.5-.4 2.3c0 .9.1 1.7.4 2.4s.6 1.3 1 1.8 1 .9 1.6 1.1c.6.3 1.3.4 2 .4.4 0 .8 0 1.1-.1s.7-.1.9-.2c.3-.1.6-.2.8-.4s.5-.4.8-.6c.1-.2.2-.3.3-.3z"/><path d="m88.7 339.79c.7 0 1.4.1 2 .4s1.1.6 1.5 1 .7 1 1 1.6c.2.6.3 1.4.3 2.2s-.1 1.5-.3 2.2c-.2.6-.5 1.2-1 1.6-.4.5-.9.8-1.5 1s-1.3.4-2 .4-1.4-.1-2-.4c-.6-.2-1.1-.6-1.5-1-.4-.5-.7-1-1-1.6-.2-.6-.3-1.4-.3-2.2s.1-1.5.3-2.2c.2-.6.5-1.2 1-1.6.4-.5.9-.8 1.5-1 .6-.3 1.3-.4 2-.4zm0 9c1 0 1.7-.3 2.2-1s.7-1.6.7-2.8-.2-2.1-.7-2.8-1.2-1-2.2-1c-.5 0-.9.1-1.3.3s-.7.4-.9.8c-.2.3-.4.7-.6 1.2-.1.5-.2 1-.2 1.6s.1 1.1.2 1.6.3.9.6 1.2.6.6.9.7c.4.2.8.2 1.3.2z"/><path d="m95.7 350.09v-10.1h1c.2 0 .3 0 .4.1s.1.2.1.4l.1 1.6c.3-.7.8-1.3 1.3-1.7s1.1-.6 1.8-.6c.3 0 .5 0 .8.1.2.1.4.2.6.3l-.2 1.3c0 .2-.1.2-.3.2-.1 0-.2 0-.4-.1s-.5-.1-.8-.1c-.6 0-1.1.2-1.6.5-.4.4-.8.9-1 1.6v6.5z"/><path d="m107.8 339.79c.6 0 1.2.1 1.7.3s1 .5 1.3.9c.4.4.7.9.9 1.4s.3 1.2.3 1.9c0 .3 0 .5-.1.6s-.2.1-.3.1h-6.7c0 .6.1 1.2.3 1.7s.4.9.7 1.2.6.6 1 .7c.4.2.8.2 1.3.2.4 0 .8-.1 1.2-.2s.6-.2.8-.3.4-.2.6-.3.3-.2.4-.2.3.1.3.2l.5.7c-.2.3-.5.5-.8.7s-.6.4-1 .5c-.5.1-.8.2-1.2.2-.4.1-.7.1-1.1.1-.7 0-1.3-.1-1.9-.4-.6-.2-1.1-.6-1.5-1s-.8-1-1-1.7-.4-1.4-.4-2.3c0-.7.1-1.4.3-2s.5-1.1.9-1.6.9-.8 1.5-1.1c.6-.2 1.3-.3 2-.3zm0 1.3c-.9 0-1.5.2-2 .7s-.8 1.2-.9 2.1h5.5c0-.4-.1-.8-.2-1.1s-.3-.6-.5-.9c-.2-.2-.5-.4-.8-.6-.3-.1-.7-.2-1.1-.2z"/></g><path d="m48.4 295.09c0-4.6-3.7-8.4-8.4-8.4s-8.4 3.7-8.4 8.4 3.7 8.4 8.4 8.4c4.6 0 8.4-3.8 8.4-8.4zm-8.4 5c-2.8 0-5-2.2-5-5s2.2-5 5-5 5 2.2 5 5-2.2 5-5 5zm-11.6 0h-3.4v6.6c0 1.9 1.5 3.4 3.3 3.4h6.7v-3.4h-6.6zm0-16.6h6.6v-3.4h-6.6c-1.9 0-3.4 1.5-3.4 3.3v6.7h3.4zm23.2-3.4h-6.6v3.4h6.6v6.6h3.4v-6.6c0-1.9-1.5-3.4-3.4-3.4q.1 0 0 0zm0 26.6h-6.6v3.4h6.6c1.8 0 3.3-1.5 3.4-3.3v-6.7h-3.4z" fill="#ff462b"/><circle cx="190.5" cy="215.5" fill="#fff" r="30.5"/><path d="m198.9 206.6h-6.7v3.4h6.7c2.8 0 5 2.2 5 5s-2.2 5-5 5h-6.7v3.4h6.7c4.6 0 8.3-3.7 8.3-8.3 0-4.7-3.7-8.4-8.3-8.5zm-10 13.4h-6.7c-2.8 0-5-2.2-5-5s2.2-5 5-5h6.7v-3.4h-6.7c-4.6 0-8.3 3.7-8.3 8.3 0 4.6 3.7 8.3 8.2 8.4h6.7v-3.3zm-5-3.4h13.3v-3.3h-13.3z" fill="#140a1e"/></svg>