<svg version="1.1" viewBox="0.0 0.0 739.5564304461942 137.16797900262466" fill="none" stroke="none" stroke-linecap="square" stroke-miterlimit="10" xmlns:xlink="http://www.w3.org/1999/xlink" xmlns="http://www.w3.org/2000/svg"><clipPath id="p.0"><path d="m0 0l739.55646 0l0 137.16798l-739.55646 0l0 -137.16798z" clip-rule="nonzero"/></clipPath><g clip-path="url(#p.0)"><path fill="#000000" fill-opacity="0.0" d="m0 0l739.55646 0l0 137.16798l-739.55646 0z" fill-rule="evenodd"/><path fill="#283282" d="m5.4829397 16.131233l189.95276 0l0 81.70571l-16.341537 16.34153l-173.61122 0z" fill-rule="evenodd"/><path fill="#1f2767" d="m179.09416 114.178474l3.2683105 -13.073227l13.073227 -3.268303z" fill-rule="evenodd"/><path fill="#000000" fill-opacity="0.0" d="m179.09416 114.178474l3.2683105 -13.073227l13.073227 -3.268303l-16.341537 16.34153l-173.61122 0l0 -98.04724l189.95276 0l0 81.70571" fill-rule="evenodd"/><path fill="#ffffff" d="m25.563848 51.295338l4.390625 0l0 2.453125q2.343752 -2.859375 5.593752 -2.859375q1.734375 0 3.0 0.71875q1.265625 0.703125 2.078125 2.140625q1.1875 -1.4375 2.5625 -2.140625q1.375 -0.71875 2.921875 -0.71875q1.984375 0 3.34375 0.8125q1.375 0.796875 2.0625 2.34375q0.484375 1.15625 0.484375 3.734375l0 11.484379l-4.75 0l0 -10.265629q0 -2.6875 -0.5 -3.453125q-0.65625 -1.015625 -2.03125 -1.015625q-0.984375 0 -1.875 0.609375q-0.875 0.609375 -1.265625 1.78125q-0.390625 1.171875 -0.390625 3.71875l0 8.625004l-4.75 0l0 -9.843754q0 -2.625 -0.265625 -3.390625q-0.25 -0.765625 -0.78125 -1.125q-0.53125 -0.375 -1.4375 -0.375q-1.109375 0 -1.9843769 0.59375q-0.875 0.59375 -1.265625 1.703125q-0.375 1.109375 -0.375 3.703125l0 8.734379l-4.765625 0l0 -17.968754zm28.924334 0l5.0625 0l4.296875 12.750004l4.203125 -12.750004l4.921875 0l-6.34375 17.296879l-1.140625 3.125q-0.625 1.578125 -1.203125 2.40625q-0.5625 0.828125 -1.296875 1.34375q-0.734375 0.515625 -1.8125 0.796875q-1.0625 0.296875 -2.421875 0.296875q-1.375 0 -2.6875 -0.296875l-0.421875 -3.71875q1.109375 0.21875 2.015625 0.21875q1.65625 0 2.453125 -0.96875q0.796875 -0.96875 1.21875 -2.484375l-6.84375 -18.015629zm18.711655 24.828129l0 -3.078125l19.765625 0l0 3.078125l-19.765625 0zm22.086655 -27.265629l0 -4.40625l4.765625 0l0 4.40625l-4.765625 0zm0 20.406254l0 -17.968754l4.765625 0l0 17.968754l-4.765625 0zm25.972366 0l-4.75 0l0 -9.171879q0 -2.90625 -0.3125 -3.765625q-0.296875 -0.859375 -0.984375 -1.328125q-0.6875 -0.46875 -1.640625 -0.46875q-1.234375 0 -2.21875 0.671875q-0.984375 0.671875 -1.359375 1.796875q-0.359375 1.109375 -0.359375 4.125l0 8.140629l-4.75 0l0 -17.968754l4.421875 0l0 2.640625q2.34375 -3.046875 5.921875 -3.046875q1.5625 0 2.859375 0.5625q1.3125 0.5625 1.984375 1.453125q0.671875 0.875 0.921875 2.0q0.265625 1.109375 0.265625 3.1875l0 11.171879zm4.7006683 -17.968754l4.4218674 0l0 2.640625q0.875 -1.359375 2.34375 -2.203125q1.4687653 -0.84375 3.2656403 -0.84375q3.125 0 5.3125 2.453125q2.1875 2.453125 2.1875 6.828125q0 4.515629 -2.203125 7.015629q-2.203125 2.484375 -5.328125 2.484375q-1.5 0 -2.7187653 -0.59375q-1.203125 -0.59375 -2.53125 -2.03125l0 9.0625l-4.7499924 0l0 -24.812504zm4.7031174 8.671875q0 3.03125 1.1875 4.484379q1.203125 1.4375 2.9375153 1.4375q1.65625 0 2.75 -1.328125q1.109375 -1.3281288 1.109375 -4.343754q0 -2.828125 -1.140625 -4.203125q-1.125 -1.375 -2.8125 -1.375q-1.7343903 0 -2.8906403 1.34375q-1.140625 1.34375 -1.140625 3.984375zm28.419418 9.296879l0 -2.6875q-0.984375 1.4375 -2.578125 2.265625q-1.59375 0.828125 -3.375 0.828125q-1.8125 0 -3.25 -0.796875q-1.4375 -0.796875 -2.078125 -2.234375q-0.640625 -1.4375 -0.640625 -3.9687538l0 -11.375l4.75 0l0 8.25q0 3.796875 0.265625 4.656254q0.265625 0.84375 0.953125 1.34375q0.6875 0.5 1.765625 0.5q1.21875 0 2.171875 -0.65625q0.96875 -0.671875 1.328125 -1.6562538q0.359375 -1.0 0.359375 -4.859375l0 -7.578125l4.75 0l0 17.968754l-4.421875 0zm17.591309 -17.968754l0 3.78125l-3.25 0l0 7.25q0 2.2031288 0.09375 2.5625038q0.09375 0.359375 0.421875 0.609375q0.328125 0.234375 0.796875 0.234375q0.65625 0 1.921875 -0.46875l0.40625 3.703125q-1.671875 0.703125 -3.765625 0.703125q-1.28125 0 -2.3125 -0.421875q-1.03125 -0.4375 -1.515625 -1.125q-0.484375 -0.6875 -0.671875 -1.859375q-0.15625 -0.828125 -0.15625 -3.3437538l0 -7.84375l-2.171875 0l0 -3.78125l2.171875 0l0 -3.578125l4.78125 -2.765625l0 6.34375l3.25 0z" fill-rule="nonzero"/><path fill="#000000" fill-opacity="0.0" d="m195.4357 65.154854l67.37009 0" fill-rule="evenodd"/><path stroke="#000000" stroke-width="2.0" stroke-linejoin="round" stroke-linecap="butt" d="m195.4357 65.154854l55.37007 0" fill-rule="evenodd"/><path fill="#000000" stroke="#000000" stroke-width="2.0" stroke-linecap="butt" d="m250.80577 68.45832l9.076187 -3.3034668l-9.076187 -3.303463z" fill-rule="evenodd"/><path fill="#ff462b" d="m262.798 65.154854l112.629944 -49.02362l112.62991 49.02362l-112.62991 49.02362z" fill-rule="evenodd"/><path fill="#000000" d="m346.47943 77.154854l0 -19.828125l-7.078125 0l0 -4.03125l18.953125 0l0 4.03125l-7.0625 0l0 19.828125l-4.8125 0zm15.899811 -12.015625l-4.15625 -0.75q0.703125 -2.5 2.40625 -3.703125q1.71875 -1.203125 5.078125 -1.203125q3.0625 0 4.5625 0.734375q1.5 0.71875 2.109375 1.828125q0.609375 1.109375 0.609375 4.09375l-0.046875 5.34375q0 2.265625 0.21875 3.359375q0.21875 1.078125 0.8125 2.3125l-4.515625 0q-0.1875 -0.453125 -0.4375 -1.34375q-0.125 -0.40625 -0.171875 -0.546875q-1.171875 1.140625 -2.5 1.71875q-1.328125 0.5625 -2.84375 0.5625q-2.671875 0 -4.21875 -1.4375q-1.53125 -1.453125 -1.53125 -3.671875q0 -1.46875 0.703125 -2.609375q0.703125 -1.15625 1.953125 -1.765625q1.265625 -0.609375 3.640625 -1.0625q3.203125 -0.59375 4.4375 -1.125l0 -0.453125q0 -1.3125 -0.65625 -1.875q-0.640625 -0.5625 -2.453125 -0.5625q-1.21875 0 -1.90625 0.484375q-0.671875 0.46875 -1.09375 1.671875zm6.109375 3.71875q-0.875 0.296875 -2.78125 0.703125q-1.90625 0.40625 -2.484375 0.796875q-0.890625 0.625 -0.890625 1.609375q0 0.953125 0.703125 1.65625q0.71875 0.703125 1.828125 0.703125q1.234375 0 2.359375 -0.8125q0.828125 -0.625 1.09375 -1.515625q0.171875 -0.59375 0.171875 -2.234375l0 -0.90625zm7.3948975 3.359375l4.59375 -0.6875q0.28125 1.328125 1.171875 2.03125q0.90625 0.6875 2.5156555 0.6875q1.78125 0 2.671875 -0.65625q0.59375 -0.453125 0.59375 -1.21875q0 -0.53125 -0.3125 -0.859375q-0.34375 -0.328125 -1.53125 -0.609375q-5.5312805 -1.21875 -7.0156555 -2.234375q-2.046875 -1.390625 -2.046875 -3.890625q0 -2.234375 1.765625 -3.765625q1.78125 -1.53125 5.5000305 -1.53125q3.546875 0 5.265625 1.15625q1.734375 1.15625 2.390625 3.421875l-4.3125 0.796875q-0.28125 -1.015625 -1.0625 -1.546875q-0.765625 -0.546875 -2.203125 -0.546875q-1.7969055 0 -2.5781555 0.515625q-0.53125 0.359375 -0.53125 0.921875q0 0.484375 0.46875 0.828125q0.609375 0.453125 4.2656555 1.28125q3.65625 0.828125 5.109375 2.046875q1.421875 1.21875 1.421875 3.390625q0 2.375 -1.984375 4.09375q-1.984375 1.703125 -5.875 1.703125q-3.5312805 0 -5.5937805 -1.421875q-2.046875 -1.4375 -2.6875 -3.90625zm19.988678 4.9375l0 -23.859375l4.5625 0l0 12.65625l5.359375 -6.078125l5.625 0l-5.90625 6.3125l6.328125 10.96875l-4.921875 0l-4.34375 -7.765625l-2.140625 2.234375l0 5.53125l-4.5625 0z" fill-rule="nonzero"/><path fill="#000000" fill-opacity="0.0" d="m488.05786 65.154854l56.53546 0" fill-rule="evenodd"/><path stroke="#000000" stroke-width="2.0" stroke-linejoin="round" stroke-linecap="butt" d="m488.05786 65.154854l44.53546 0" fill-rule="evenodd"/><path fill="#000000" stroke="#000000" stroke-width="2.0" stroke-linecap="butt" d="m532.5933 68.45832l9.076172 -3.3034668l-9.076172 -3.303463z" fill-rule="evenodd"/><path fill="#283282" d="m544.5958 20.464567l189.95276 0l0 74.48789l-14.897949 14.897934l-175.05481 0z" fill-rule="evenodd"/><path fill="#1f2767" d="m719.65063 109.850395l2.9795532 -11.91835l11.918396 -2.9795837z" fill-rule="evenodd"/><path fill="#000000" fill-opacity="0.0" d="m719.65063 109.850395l2.9795532 -11.91835l11.918396 -2.9795837l-14.897949 14.897934l-175.05481 0l0 -89.385826l189.95276 0l0 74.48789" fill-rule="evenodd"/><path fill="#ffffff" d="m556.45166 52.427258l4.21875 0l0 2.359375q2.265625 -2.75 5.390625 -2.75q1.65625 0 2.875 0.6875q1.21875 0.671875 2.0 2.0625q1.140625 -1.390625 2.453125 -2.0625q1.328125 -0.6875 2.828125 -0.6875q1.890625 0 3.203125 0.78125q1.328125 0.765625 1.984375 2.265625q0.46875 1.109375 0.46875 3.578125l0 11.046879l-4.578125 0l0 -9.875004q0 -2.578125 -0.46875 -3.328125q-0.625 -0.96875 -1.953125 -0.96875q-0.953125 0 -1.8125 0.59375q-0.84375 0.578125 -1.21875 1.71875q-0.359375 1.125 -0.359375 3.5625l0 8.296879l-4.578125 0l0 -9.468754q0 -2.53125 -0.25 -3.25q-0.234375 -0.734375 -0.75 -1.09375q-0.515625 -0.359375 -1.390625 -0.359375q-1.0625 0 -1.90625 0.578125q-0.84375 0.5625 -1.21875 1.640625q-0.359375 1.0625 -0.359375 3.5625l0 8.390629l-4.578125 0l0 -17.281254zm27.821533 0l4.859375 0l4.140625 12.265629l4.03125 -12.265629l4.734375 0l-6.109375 16.625004l-1.078125 3.015625q-0.609375 1.515625 -1.15625 2.3125q-0.546875 0.796875 -1.25 1.28125q-0.703125 0.5 -1.75 0.78125q-1.03125 0.28125 -2.328125 0.28125q-1.3125 0 -2.59375 -0.28125l-0.40625 -3.578125q1.078125 0.21875 1.9375 0.21875q1.59375 0 2.359375 -0.9375q0.765625 -0.9375 1.171875 -2.390625l-6.5625 -17.328129zm17.988647 23.875004l0 -2.96875l19.015625 0l0 2.96875l-19.015625 0zm20.176147 -15.484379q0 -2.265625 1.125 -4.390625q1.125 -2.140625 3.1875 -3.265625q2.0625 -1.125 4.59375 -1.125q3.921875 0 6.421875 2.546875q2.515625 2.546875 2.515625 6.4375q0 3.9218788 -2.53125 6.500004q-2.53125 2.578125 -6.375 2.578125q-2.375 0 -4.53125 -1.0625q-2.15625 -1.078125 -3.28125 -3.15625q-1.125 -2.0781288 -1.125 -5.062504zm4.6875 0.25q0 2.578125 1.21875 3.9375038q1.234375 1.359375 3.015625 1.359375q1.796875 0 3.0 -1.359375q1.21875 -1.3593788 1.21875 -3.9687538q0 -2.546875 -1.21875 -3.90625q-1.203125 -1.375 -3.0 -1.375q-1.78125 0 -3.015625 1.375q-1.21875 1.359375 -1.21875 3.9375zm28.108154 8.640629l0 -2.59375q-0.9375 1.390625 -2.484375 2.1875q-1.53125 0.796875 -3.234375 0.796875q-1.75 0 -3.140625 -0.765625q-1.375 -0.765625 -2.0 -2.140625q-0.609375 -1.390625 -0.609375 -3.8281288l0 -10.9375l4.578125 0l0 7.9375q0 3.6406288 0.25 4.468754q0.25 0.828125 0.90625 1.3125q0.671875 0.46875 1.703125 0.46875q1.171875 0 2.09375 -0.640625q0.9375 -0.640625 1.265625 -1.59375q0.34375 -0.9531288 0.34375 -4.656254l0 -7.296875l4.578125 0l0 17.281254l-4.25 0zm16.90503 -17.281254l0 3.640625l-3.125 0l0 6.96875q0 2.1093788 0.09375 2.4687538q0.09375 0.34375 0.40625 0.578125q0.3125 0.21875 0.78125 0.21875q0.625 0 1.828125 -0.4375l0.390625 3.546875q-1.59375 0.6875 -3.609375 0.6875q-1.234375 0 -2.234375 -0.40625q-0.984375 -0.421875 -1.453125 -1.078125q-0.46875 -0.65625 -0.640625 -1.78125q-0.140625 -0.796875 -0.140625 -3.2343788l0 -7.53125l-2.109375 0l0 -3.640625l2.109375 0l0 -3.4375l4.578125 -2.671875l0 6.109375l3.125 0zm3.0516968 0l4.265625 0l0 2.53125q0.828125 -1.296875 2.234375 -2.109375q1.421875 -0.8125 3.140625 -0.8125q3.015625 0 5.109375 2.359375q2.109375 2.359375 2.109375 6.578125q0 4.328129 -2.125 6.734379q-2.109375 2.390625 -5.125 2.390625q-1.421875 0 -2.59375 -0.5625q-1.15625 -0.578125 -2.453125 -1.953125l0 8.703125l-4.5625 0l0 -23.859379zm4.515625 8.34375q0 2.921875 1.15625 4.312504q1.15625 1.390625 2.8125 1.390625q1.609375 0 2.65625 -1.28125q1.0625 -1.2812538 1.0625 -4.187504q0 -2.71875 -1.09375 -4.03125q-1.09375 -1.328125 -2.703125 -1.328125q-1.671875 0 -2.78125 1.296875q-1.109375 1.296875 -1.109375 3.828125zm27.34253 8.937504l0 -2.59375q-0.9375 1.390625 -2.484375 2.1875q-1.53125 0.796875 -3.234375 0.796875q-1.75 0 -3.140625 -0.765625q-1.375 -0.765625 -2.0 -2.140625q-0.609375 -1.390625 -0.609375 -3.8281288l0 -10.9375l4.578125 0l0 7.9375q0 3.6406288 0.25 4.468754q0.25 0.828125 0.90625 1.3125q0.671875 0.46875 1.703125 0.46875q1.171875 0 2.09375 -0.640625q0.9375 -0.640625 1.265625 -1.59375q0.34375 -0.9531288 0.34375 -4.656254l0 -7.296875l4.578125 0l0 17.281254l-4.25 0zm16.90503 -17.281254l0 3.640625l-3.125 0l0 6.96875q0 2.1093788 0.09375 2.4687538q0.09375 0.34375 0.40625 0.578125q0.3125 0.21875 0.78125 0.21875q0.625 0 1.828125 -0.4375l0.390625 3.546875q-1.59375 0.6875 -3.609375 0.6875q-1.234375 0 -2.234375 -0.40625q-0.984375 -0.421875 -1.453125 -1.078125q-0.46875 -0.65625 -0.640625 -1.78125q-0.140625 -0.796875 -0.140625 -3.2343788l0 -7.53125l-2.109375 0l0 -3.640625l2.109375 0l0 -3.4375l4.578125 -2.671875l0 6.109375l3.125 0z" fill-rule="nonzero"/></g></svg>