<svg version="1.1" viewBox="0.0 0.0 625.0839895013123 306.16272965879267" fill="none" stroke="none" stroke-linecap="square" stroke-miterlimit="10" xmlns:xlink="http://www.w3.org/1999/xlink" xmlns="http://www.w3.org/2000/svg"><clipPath id="p.0"><path d="m0 0l625.084 0l0 306.16272l-625.084 0l0 -306.16272z" clip-rule="nonzero"/></clipPath><g clip-path="url(#p.0)"><path fill="#000000" fill-opacity="0.0" d="m0 0l625.084 0l0 306.16272l-625.084 0z" fill-rule="evenodd"/><path fill="#283282" d="m19.293968 189.00525l145.82678 0l0 45.826584l-9.165543 9.165543l-136.66122 0z" fill-rule="evenodd"/><path fill="#1f2767" d="m155.9552 243.99738l1.8331146 -7.332428l7.332428 -1.8331146z" fill-rule="evenodd"/><path fill="#000000" fill-opacity="0.0" d="m155.9552 243.99738l1.8331146 -7.332428l7.332428 -1.8331146l-9.165543 9.165543l-136.66122 0l0 -54.992126l145.82678 0l0 45.826584" fill-rule="evenodd"/><path fill="#ffffff" d="m59.99052 215.37854l-1.1875 0l0 -0.703125q-0.296875 0.40625 -0.703125 0.609375q-0.40625 0.203125 -0.8125 0.203125q-0.828125 0 -1.4375 -0.671875q-0.59375 -0.671875 -0.59375 -1.875q0 -1.234375 0.578125 -1.875q0.59375 -0.640625 1.46875 -0.640625q0.8125 0 1.40625 0.6875l0 -2.40625l1.28125 0l0 6.671875zm-3.421875 -2.515625q0 0.765625 0.21875 1.109375q0.3125 0.5 0.859375 0.5q0.453125 0 0.75 -0.375q0.3125 -0.375 0.3125 -1.125q0 -0.828125 -0.296875 -1.1875q-0.296875 -0.375 -0.765625 -0.375q-0.453125 0 -0.765625 0.359375q-0.3125 0.359375 -0.3125 1.09375zm5.635498 -0.84375l-1.15625 -0.21875q0.1875 -0.6875 0.65625 -1.03125q0.484375 -0.34375 1.4375 -0.34375q0.8593788 0 1.2656288 0.203125q0.421875 0.203125 0.59375 0.515625q0.171875 0.3125 0.171875 1.15625l-0.015625 1.484375q0 0.640625 0.0625 0.953125q0.0625 0.296875 0.234375 0.640625l-1.265625 0q-0.046875 -0.125 -0.125 -0.375q-0.03125 -0.109375 -0.046875 -0.15625q-0.3281288 0.328125 -0.7031288 0.484375q-0.375 0.15625 -0.796875 0.15625q-0.75 0 -1.1875 -0.40625q-0.421875 -0.40625 -0.421875 -1.03125q0 -0.40625 0.1875 -0.71875q0.203125 -0.328125 0.5625 -0.5q0.359375 -0.171875 1.015625 -0.296875q0.90625 -0.171875 1.25 -0.3125l0 -0.125q0 -0.375 -0.1875 -0.53125q-0.1875 -0.15625 -0.6875 -0.15625q-0.34375 0 -0.53125 0.140625q-0.1875 0.125 -0.3125 0.46875zm1.71875 1.03125q-0.25 0.09375 -0.78125 0.203125q-0.53125 0.109375 -0.703125 0.21875q-0.25 0.1875 -0.25 0.453125q0 0.265625 0.203125 0.46875q0.203125 0.1875 0.515625 0.1875q0.34375 0 0.65625 -0.21875q0.234375 -0.171875 0.296875 -0.421875q0.0625 -0.171875 0.0625 -0.625l0 -0.265625zm4.734745 -2.515625l0 1.03125l-0.875 0l0 1.9375q0 0.59375 0.015625 0.703125q0.03125 0.09375 0.109375 0.15625q0.09375 0.0625 0.234375 0.0625q0.171875 0 0.515625 -0.125l0.109375 1.0q-0.453125 0.1875 -1.015625 0.1875q-0.34375 0 -0.625 -0.109375q-0.28125 -0.125 -0.421875 -0.296875q-0.125 -0.1875 -0.171875 -0.515625q-0.03125 -0.21875 -0.03125 -0.890625l0 -2.109375l-0.59375 0l0 -1.03125l0.59375 0l0 -0.953125l1.28125 -0.75l0 1.703125l0.875 0zm3.6844635 3.296875l1.28125 0.21875q-0.25 0.703125 -0.78125 1.078125q-0.53125 0.359375 -1.328125 0.359375q-1.265625 0 -1.859375 -0.828125q-0.484375 -0.65625 -0.484375 -1.65625q0 -1.203125 0.625 -1.890625q0.625 -0.6875 1.59375 -0.6875q1.078125 0 1.703125 0.71875q0.625 0.71875 0.59375 2.1875l-3.203125 0q0.015625 0.5625 0.3125 0.890625q0.296875 0.3125 0.734375 0.3125q0.296875 0 0.5 -0.15625q0.203125 -0.171875 0.3125 -0.546875zm0.078125 -1.28125q-0.015625 -0.5625 -0.296875 -0.84375q-0.265625 -0.296875 -0.65625 -0.296875q-0.421875 0 -0.6875 0.3125q-0.28125 0.296875 -0.28125 0.828125l1.921875 0zm1.5472412 4.671875l0 -0.828125l5.328125 0l0 0.828125l-5.328125 0zm8.172241 -6.6875l0 1.03125l-0.875 0l0 1.9375q0 0.59375 0.015625 0.703125q0.03125 0.09375 0.109375 0.15625q0.09375 0.0625 0.234375 0.0625q0.171875 0 0.515625 -0.125l0.109375 1.0q-0.453125 0.1875 -1.015625 0.1875q-0.34375 0 -0.625 -0.109375q-0.28125 -0.125 -0.421875 -0.296875q-0.125 -0.1875 -0.171875 -0.515625q-0.03125 -0.21875 -0.03125 -0.890625l0 -2.109375l-0.59375 0l0 -1.03125l0.59375 0l0 -0.953125l1.28125 -0.75l0 1.703125l0.875 0zm0.5907135 2.359375q0 -0.640625 0.3125 -1.234375q0.31249237 -0.59375 0.8906174 -0.90625q0.578125 -0.328125 1.28125 -0.328125q1.109375 0 1.796875 0.71875q0.703125 0.71875 0.703125 1.796875q0 1.109375 -0.703125 1.828125q-0.703125 0.71875 -1.78125 0.71875q-0.671875 0 -1.28125 -0.296875q-0.59375 -0.296875 -0.9062424 -0.875q-0.3125 -0.59375 -0.3125 -1.421875zm1.3124924 0.0625q0 0.71875 0.34375 1.109375q0.34375 0.375 0.84375 0.375q0.5 0 0.828125 -0.375q0.34375 -0.390625 0.34375 -1.109375q0 -0.71875 -0.34375 -1.09375q-0.328125 -0.390625 -0.828125 -0.390625q-0.5 0 -0.84375 0.390625q-0.34375 0.375 -0.34375 1.09375zm3.916748 4.265625l0 -0.828125l5.328125 0l0 0.828125l-5.328125 0zm5.390991 -6.6875l0.703125 0l0 -0.359375q0 -0.609375 0.125 -0.90625q0.140625 -0.296875 0.484375 -0.484375q0.359375 -0.203125 0.890625 -0.203125q0.546875 0 1.0625 0.171875l-0.171875 0.890625q-0.296875 -0.078125 -0.578125 -0.078125q-0.28125 0 -0.40625 0.140625q-0.125 0.125 -0.125 0.5l0 0.328125l0.96875 0l0 1.015625l-0.96875 0l0 3.828125l-1.28125 0l0 -3.828125l-0.703125 0l0 -1.015625zm3.3719635 2.359375q0 -0.640625 0.3125 -1.234375q0.3125 -0.59375 0.890625 -0.90625q0.578125 -0.328125 1.28125 -0.328125q1.109375 0 1.796875 0.71875q0.703125 0.71875 0.703125 1.796875q0 1.109375 -0.703125 1.828125q-0.703125 0.71875 -1.78125 0.71875q-0.671875 0 -1.28125 -0.296875q-0.59375 -0.296875 -0.90625 -0.875q-0.3125 -0.59375 -0.3125 -1.421875zm1.3125 0.0625q0 0.71875 0.34375 1.109375q0.34375 0.375 0.84375 0.375q0.5 0 0.828125 -0.375q0.34375 -0.390625 0.34375 -1.109375q0 -0.71875 -0.34375 -1.09375q-0.328125 -0.390625 -0.828125 -0.390625q-0.5 0 -0.84375 0.390625q-0.34375 0.375 -0.34375 1.09375zm5.901123 2.421875l-1.28125 0l0 -4.84375l1.1875 0l0 0.6875q0.3125 -0.484375 0.546875 -0.640625q0.25 -0.15625 0.5625 -0.15625q0.4375 0 0.84375 0.25l-0.390625 1.109375q-0.328125 -0.203125 -0.609375 -0.203125q-0.265625 0 -0.453125 0.15625q-0.1875 0.140625 -0.296875 0.53125q-0.109375 0.375 -0.109375 1.609375l0 1.5zm5.208267 -1.546875l1.28125 0.21875q-0.25 0.703125 -0.78125 1.078125q-0.53125 0.359375 -1.328125 0.359375q-1.265625 0 -1.859375 -0.828125q-0.484375 -0.65625 -0.484375 -1.65625q0 -1.203125 0.625 -1.890625q0.625 -0.6875 1.59375 -0.6875q1.078125 0 1.703125 0.71875q0.625 0.71875 0.59375 2.1875l-3.203125 0q0.015625 0.5625 0.3125 0.890625q0.296875 0.3125 0.734375 0.3125q0.296875 0 0.5 -0.15625q0.203125 -0.171875 0.3125 -0.546875zm0.078125 -1.28125q-0.015625 -0.5625 -0.296875 -0.84375q-0.265625 -0.296875 -0.65625 -0.296875q-0.421875 0 -0.6875 0.3125q-0.28125 0.296875 -0.28125 0.828125l1.921875 0zm6.531616 -0.578125l-1.265625 0.234375q-0.0625 -0.390625 -0.296875 -0.578125q-0.21875 -0.1875 -0.578125 -0.1875q-0.484375 0 -0.765625 0.328125q-0.28125 0.328125 -0.28125 1.109375q0 0.859375 0.28125 1.21875q0.296875 0.34375 0.78125 0.34375q0.375 0 0.59375 -0.203125q0.234375 -0.203125 0.328125 -0.71875l1.265625 0.21875q-0.203125 0.859375 -0.765625 1.3125q-0.546875 0.4375 -1.484375 0.4375q-1.046875 0 -1.6875 -0.671875q-0.625 -0.671875 -0.625 -1.84375q0 -1.203125 0.625 -1.875q0.640625 -0.671875 1.71875 -0.671875q0.875 0 1.390625 0.390625q0.53125 0.375 0.765625 1.15625zm1.9222412 0.046875l-1.15625 -0.21875q0.1875 -0.6875 0.65625 -1.03125q0.484375 -0.34375 1.4375 -0.34375q0.859375 0 1.265625 0.203125q0.421875 0.203125 0.59375 0.515625q0.171875 0.3125 0.171875 1.15625l-0.015625 1.484375q0 0.640625 0.0625 0.953125q0.0625 0.296875 0.234375 0.640625l-1.265625 0q-0.046875 -0.125 -0.125 -0.375q-0.03125 -0.109375 -0.046875 -0.15625q-0.328125 0.328125 -0.703125 0.484375q-0.375 0.15625 -0.796875 0.15625q-0.75 0 -1.1875 -0.40625q-0.421875 -0.40625 -0.421875 -1.03125q0 -0.40625 0.1875 -0.71875q0.203125 -0.328125 0.5625 -0.5q0.359375 -0.171875 1.015625 -0.296875q0.90625 -0.171875 1.25 -0.3125l0 -0.125q0 -0.375 -0.1875 -0.53125q-0.1875 -0.15625 -0.6875 -0.15625q-0.34375 0 -0.53125 0.140625q-0.1875 0.125 -0.3125 0.46875zm1.71875 1.03125q-0.25 0.09375 -0.78125 0.203125q-0.53125 0.109375 -0.703125 0.21875q-0.25 0.1875 -0.25 0.453125q0 0.265625 0.203125 0.46875q0.203125 0.1875 0.515625 0.1875q0.34375 0 0.65625 -0.21875q0.234375 -0.171875 0.296875 -0.421875q0.0625 -0.171875 0.0625 -0.625l0 -0.265625zm2.0628662 0.953125l1.28125 -0.203125q0.078125 0.375 0.328125 0.578125q0.265625 0.1875 0.703125 0.1875q0.5 0 0.75 -0.1875q0.171875 -0.125 0.171875 -0.34375q0 -0.140625 -0.09375 -0.234375q-0.09375 -0.09375 -0.421875 -0.171875q-1.546875 -0.34375 -1.96875 -0.625q-0.578125 -0.390625 -0.578125 -1.09375q0 -0.625 0.5 -1.046875q0.5 -0.4375 1.546875 -0.4375q0.984375 0 1.46875 0.328125q0.484375 0.328125 0.671875 0.953125l-1.21875 0.234375q-0.078125 -0.28125 -0.296875 -0.4375q-0.203125 -0.15625 -0.609375 -0.15625q-0.5 0 -0.71875 0.140625q-0.15625 0.109375 -0.15625 0.265625q0 0.140625 0.140625 0.234375q0.171875 0.125 1.1875 0.359375q1.03125 0.234375 1.4375 0.5625q0.390625 0.34375 0.390625 0.953125q0 0.671875 -0.5625 1.15625q-0.546875 0.46875 -1.640625 0.46875q-0.984375 0 -1.5625 -0.390625q-0.578125 -0.40625 -0.75 -1.09375zm7.859749 -3.46875l0 1.03125l-0.875 0l0 1.9375q0 0.59375 0.015625 0.703125q0.03125 0.09375 0.109375 0.15625q0.09375 0.0625 0.234375 0.0625q0.171875 0 0.515625 -0.125l0.109375 1.0q-0.453125 0.1875 -1.015625 0.1875q-0.34375 0 -0.6250076 -0.109375q-0.28125 -0.125 -0.421875 -0.296875q-0.125 -0.1875 -0.171875 -0.515625q-0.03125 -0.21875 -0.03125 -0.890625l0 -2.109375l-0.59375 0l0 -1.03125l0.59375 0l0 -0.953125l1.2812576 -0.75l0 1.703125l0.875 0z" fill-rule="nonzero"/><path fill="#283282" d="m19.293968 54.97638l145.82678 0l0 45.826584l-9.165543 9.165543l-136.66122 0z" fill-rule="evenodd"/><path fill="#1f2767" d="m155.9552 109.968506l1.8331146 -7.3324356l7.332428 -1.833107z" fill-rule="evenodd"/><path fill="#000000" fill-opacity="0.0" d="m155.9552 109.968506l1.8331146 -7.3324356l7.332428 -1.833107l-9.165543 9.165543l-136.66122 0l0 -54.992126l145.82678 0l0 45.826584" fill-rule="evenodd"/><path fill="#ffffff" d="m43.85808 74.677795l0 2.453125q0.625 -0.734375 1.484375 -0.734375q0.4375 0 0.796875 0.171875q0.359375 0.15625 0.53125 0.421875q0.1875 0.25 0.25 0.5625q0.0625 0.3125 0.0625 0.953125l0 2.84375l-1.265625 0l0 -2.5625q0 -0.75 -0.078125 -0.953125q-0.078125 -0.203125 -0.265625 -0.328125q-0.171875 -0.125 -0.453125 -0.125q-0.328125 0 -0.578125 0.15625q-0.25 0.15625 -0.375 0.46875q-0.109375 0.3125 -0.109375 0.921875l0 2.421875l-1.265625 0l0 -6.671875l1.265625 0zm4.432373 1.171875l0 -1.171875l1.28125 0l0 1.171875l-1.28125 0zm0 5.5l0 -4.84375l1.28125 0l0 4.84375l-1.28125 0zm2.1385345 -1.375l1.28125 -0.203125q0.078125 0.375 0.328125 0.578125q0.265625 0.1875 0.703125 0.1875q0.5 0 0.75 -0.1875q0.171875 -0.125 0.171875 -0.34375q0 -0.140625 -0.09375 -0.234375q-0.09375 -0.09375 -0.421875 -0.171875q-1.546875 -0.34375 -1.96875 -0.625q-0.578125 -0.390625 -0.578125 -1.09375q0 -0.625 0.5 -1.046875q0.5 -0.4375 1.546875 -0.4375q0.984375 0 1.46875 0.328125q0.484375 0.328125 0.671875 0.953125l-1.21875 0.234375q-0.078125 -0.28125 -0.296875 -0.4375q-0.203125 -0.15625 -0.609375 -0.15625q-0.5 0 -0.71875 0.140625q-0.15625 0.109375 -0.15625 0.265625q0 0.140625 0.140625 0.234375q0.171875 0.125 1.1875 0.359375q1.03125 0.234375 1.4375 0.5625q0.390625 0.34375 0.390625 0.953125q0 0.671875 -0.5625 1.15625q-0.546875 0.46875 -1.640625 0.46875q-0.984375 0 -1.5625 -0.390625q-0.578125 -0.40625 -0.75 -1.09375zm7.859741 -3.46875l0 1.03125l-0.875 0l0 1.9375q0 0.59375 0.015625 0.703125q0.03125 0.09375 0.109375 0.15625q0.09375 0.0625 0.234375 0.0625q0.171875 0 0.515625 -0.125l0.109375 1.0q-0.453125 0.1875 -1.015625 0.1875q-0.34375 0 -0.625 -0.109375q-0.28125 -0.125 -0.421875 -0.296875q-0.125 -0.1875 -0.171875 -0.515625q-0.03125 -0.21875 -0.03125 -0.890625l0 -2.109375l-0.59375 0l0 -1.03125l0.59375 0l0 -0.953125l1.28125 -0.75l0 1.703125l0.875 0zm0.5907135 2.359375q0 -0.640625 0.3125 -1.234375q0.3125 -0.59375 0.890625 -0.90625q0.578125 -0.328125 1.28125 -0.328125q1.109375 0 1.796875 0.71875q0.703125 0.71875 0.703125 1.796875q0 1.109375 -0.703125 1.828125q-0.703125 0.71875 -1.78125 0.71875q-0.671875 0 -1.28125 -0.296875q-0.59375 -0.296875 -0.90625 -0.875q-0.3125 -0.59375 -0.3125 -1.421875zm1.3125 0.0625q0 0.71875 0.34375 1.109375q0.34375 0.375 0.84375 0.375q0.5 0 0.828125 -0.375q0.34375 -0.390625 0.34375 -1.109375q0 -0.71875 -0.34375 -1.09375q-0.328125 -0.390625 -0.828125 -0.390625q-0.5 0 -0.84375 0.390625q-0.34375 0.375 -0.34375 1.09375zm5.901127 2.421875l-1.28125 0l0 -4.84375l1.1875 0l0 0.6875q0.3125 -0.484375 0.546875 -0.640625q0.25 -0.15625 0.5625 -0.15625q0.4375 0 0.84375 0.25l-0.390625 1.109375q-0.328125 -0.203125 -0.609375 -0.203125q-0.265625 0 -0.453125 0.15625q-0.1875 0.140625 -0.296875 0.53125q-0.109375 0.375 -0.109375 1.609375l0 1.5zm2.4113922 -5.5l0 -1.171875l1.28125 0l0 1.171875l-1.28125 0zm0 5.5l0 -4.84375l1.28125 0l0 4.84375l-1.28125 0zm6.8104095 -3.40625l-1.265625 0.234375q-0.0625 -0.390625 -0.296875 -0.578125q-0.21875 -0.1875 -0.578125 -0.1875q-0.484375 0 -0.765625 0.328125q-0.28125 0.328125 -0.28125 1.109375q0 0.859375 0.28125 1.21875q0.296875 0.34375 0.78125 0.34375q0.375 0 0.59375 -0.203125q0.234375 -0.203125 0.328125 -0.71875l1.265625 0.21875q-0.203125 0.859375 -0.765625 1.3125q-0.546875 0.4375 -1.484375 0.4375q-1.046875 0 -1.6875 -0.671875q-0.625 -0.671875 -0.625 -1.84375q0 -1.203125 0.625 -1.875q0.640625 -0.671875 1.71875 -0.671875q0.875 0 1.390625 0.390625q0.53125 0.375 0.765625 1.15625zm1.9222412 0.046875l-1.15625 -0.21875q0.1875 -0.6875 0.65625 -1.03125q0.484375 -0.34375 1.4375 -0.34375q0.859375 0 1.265625 0.203125q0.421875 0.203125 0.59375 0.515625q0.171875 0.3125 0.171875 1.15625l-0.015625 1.484375q0 0.640625 0.0625 0.953125q0.0625 0.296875 0.234375 0.640625l-1.265625 0q-0.046875 -0.125 -0.125 -0.375q-0.03125 -0.109375 -0.046875 -0.15625q-0.328125 0.328125 -0.703125 0.484375q-0.375 0.15625 -0.796875 0.15625q-0.75 0 -1.1875 -0.40625q-0.421875 -0.40625 -0.421875 -1.03125q0 -0.40625 0.1875 -0.71875q0.203125 -0.328125 0.5625 -0.5q0.359375 -0.171875 1.015625 -0.296875q0.90625 -0.171875 1.25 -0.3125l0 -0.125q0 -0.375 -0.1875 -0.53125q-0.1875 -0.15625 -0.6875 -0.15625q-0.34375 0 -0.53125 0.140625q-0.1875 0.125 -0.3125 0.46875zm1.71875 1.03125q-0.25 0.09375 -0.78125 0.203125q-0.53125 0.109375 -0.703125 0.21875q-0.25 0.1875 -0.25 0.453125q0 0.265625 0.203125 0.46875q0.203125 0.1875 0.515625 0.1875q0.34375 0 0.65625 -0.21875q0.234375 -0.171875 0.296875 -0.421875q0.0625 -0.171875 0.0625 -0.625l0 -0.265625zm2.5159912 2.328125l0 -6.671875l1.28125 0l0 6.671875l-1.28125 0zm1.8260345 1.84375l0 -0.828125l5.328125 0l0 0.828125l-5.328125 0zm8.172241 -6.6875l0 1.03125l-0.875 0l0 1.9375q0 0.59375 0.015625 0.703125q0.03125 0.09375 0.109375 0.15625q0.09375 0.0625 0.234375 0.0625q0.171875 0 0.515625 -0.125l0.109375 1.0q-0.453125 0.1875 -1.015625 0.1875q-0.34375 0 -0.625 -0.109375q-0.28125 -0.125 -0.421875 -0.296875q-0.125 -0.1875 -0.171875 -0.515625q-0.03125 -0.21875 -0.03125 -0.890625l0 -2.109375l-0.59375 0l0 -1.03125l0.59375 0l0 -0.953125l1.28125 -0.75l0 1.703125l0.875 0zm3.6844635 3.296875l1.28125 0.21875q-0.25 0.703125 -0.78125 1.078125q-0.53125 0.359375 -1.328125 0.359375q-1.265625 0 -1.859375 -0.828125q-0.484375 -0.65625 -0.484375 -1.65625q0 -1.203125 0.625 -1.890625q0.625 -0.6875 1.59375 -0.6875q1.078125 0 1.703125 0.71875q0.625 0.71875 0.59375 2.1875l-3.203125 0q0.015625 0.5625 0.3125 0.890625q0.296875 0.3125 0.734375 0.3125q0.296875 0 0.5 -0.15625q0.203125 -0.171875 0.3125 -0.546875zm0.078125 -1.28125q-0.015625 -0.5625 -0.296875 -0.84375q-0.265625 -0.296875 -0.65625 -0.296875q-0.421875 0 -0.6875 0.3125q-0.28125 0.296875 -0.28125 0.828125l1.921875 0zm2.2191162 -2.015625l1.171875 0l0 0.671875q0.640625 -0.78125 1.515625 -0.78125q0.453125 0 0.796875 0.203125q0.34375 0.1875 0.5625 0.578125q0.328125 -0.390625 0.6875 -0.578125q0.375 -0.203125 0.796875 -0.203125q0.53125 0 0.890625 0.21875q0.375 0.21875 0.5625 0.640625q0.125 0.3125 0.125 1.0l0 3.09375l-1.28125 0l0 -2.765625q0 -0.71875 -0.125 -0.921875q-0.1875 -0.28125 -0.546875 -0.28125q-0.265625 0 -0.515625 0.171875q-0.234375 0.15625 -0.34375 0.484375q-0.09375 0.3125 -0.09375 0.984375l0 2.328125l-1.28125 0l0 -2.65625q0 -0.703125 -0.078125 -0.90625q-0.0625 -0.203125 -0.203125 -0.296875q-0.140625 -0.109375 -0.390625 -0.109375q-0.296875 0 -0.53125 0.171875q-0.234375 0.15625 -0.34375 0.453125q-0.09375 0.296875 -0.09375 1.0l0 2.34375l-1.28125 0l0 -4.84375zm8.356705 0l1.1875 0l0 0.71875q0.234375 -0.359375 0.625 -0.59375q0.390625 -0.234375 0.875 -0.234375q0.84375 0 1.4375 0.671875q0.59375 0.65625 0.59375 1.828125q0 1.21875 -0.59375 1.890625q-0.59375 0.671875 -1.4375 0.671875q-0.40625 0 -0.734375 -0.15625q-0.328125 -0.15625 -0.6875 -0.546875l0 2.4375l-1.265625 0l0 -6.6875zm1.265625 2.34375q0 0.8125 0.3125 1.203125q0.328125 0.390625 0.796875 0.390625q0.4375 0 0.734375 -0.359375q0.296875 -0.359375 0.296875 -1.171875q0 -0.765625 -0.3125 -1.125q-0.296875 -0.375 -0.75 -0.375q-0.46875 0 -0.78125 0.359375q-0.296875 0.359375 -0.296875 1.078125zm7.260498 0.953125l1.28125 0.21875q-0.25 0.703125 -0.78125 1.078125q-0.53125 0.359375 -1.328125 0.359375q-1.265625 0 -1.859375 -0.828125q-0.484375 -0.65625 -0.484375 -1.65625q0 -1.203125 0.625 -1.890625q0.625 -0.6875 1.59375 -0.6875q1.078125 0 1.703125 0.71875q0.625 0.71875 0.59375 2.1875l-3.203125 0q0.015625 0.5625 0.3125 0.890625q0.296875 0.3125 0.734375 0.3125q0.296875 0 0.5 -0.15625q0.203125 -0.171875 0.3125 -0.546875zm0.078125 -1.28125q-0.015625 -0.5625 -0.296875 -0.84375q-0.265625 -0.296875 -0.65625 -0.296875q-0.421875 0 -0.6875 0.3125q-0.28125 0.296875 -0.28125 0.828125l1.921875 0zm3.5316162 2.828125l-1.28125 0l0 -4.84375l1.1875 0l0 0.6875q0.3125 -0.484375 0.546875 -0.640625q0.25 -0.15625 0.5625 -0.15625q0.4375 0 0.84375 0.25l-0.390625 1.109375q-0.328125 -0.203125 -0.609375 -0.203125q-0.265625 0 -0.453125 0.15625q-0.1875 0.140625 -0.296875 0.53125q-0.109375 0.375 -0.109375 1.609375l0 1.5zm3.3645172 -3.359375l-1.15625 -0.21875q0.1875 -0.6875 0.65625 -1.03125q0.484375 -0.34375 1.4375 -0.34375q0.859375 0 1.265625 0.203125q0.421875 0.203125 0.59375 0.515625q0.171875 0.3125 0.171875 1.15625l-0.015625 1.484375q0 0.640625 0.0625 0.953125q0.0625 0.296875 0.234375 0.640625l-1.265625 0q-0.046875 -0.125 -0.125 -0.375q-0.03125 -0.109375 -0.046875 -0.15625q-0.328125 0.328125 -0.703125 0.484375q-0.375 0.15625 -0.796875 0.15625q-0.75 0 -1.1875 -0.40625q-0.421875 -0.40625 -0.421875 -1.03125q0 -0.40625 0.1875 -0.71875q0.203125 -0.328125 0.5625 -0.5q0.359375 -0.171875 1.015625 -0.296875q0.90625 -0.171875 1.25 -0.3125l0 -0.125q0 -0.375 -0.1875 -0.53125q-0.1875 -0.15625 -0.6875 -0.15625q-0.34375 0 -0.53125 0.140625q-0.1875 0.125 -0.3125 0.46875zm1.71875 1.03125q-0.25 0.09375 -0.78125 0.203125q-0.53125 0.109375 -0.703125 0.21875q-0.25 0.1875 -0.25 0.453125q0 0.265625 0.203125 0.46875q0.203125 0.1875 0.515625 0.1875q0.34375 0 0.65625 -0.21875q0.234375 -0.171875 0.296875 -0.421875q0.0625 -0.171875 0.0625 -0.625l0 -0.265625zm4.734741 -2.515625l0 1.03125l-0.875 0l0 1.9375q0 0.59375 0.015625 0.703125q0.03125 0.09375 0.109375 0.15625q0.09375 0.0625 0.234375 0.0625q0.171875 0 0.515625 -0.125l0.109375 1.0q-0.453125 0.1875 -1.015625 0.1875q-0.34375 0 -0.625 -0.109375q-0.28125 -0.125 -0.421875 -0.296875q-0.125 -0.1875 -0.171875 -0.515625q-0.03125 -0.21875 -0.03125 -0.890625l0 -2.109375l-0.59375 0l0 -1.03125l0.59375 0l0 -0.953125l1.28125 -0.75l0 1.703125l0.875 0zm4.075096 4.84375l0 -0.71875q-0.265625 0.375 -0.703125 0.609375q-0.421875 0.21875 -0.90625 0.21875q-0.484375 0 -0.875 -0.203125q-0.390625 -0.21875 -0.5625 -0.609375q-0.171875 -0.390625 -0.171875 -1.078125l0 -3.0625l1.28125 0l0 2.234375q0 1.015625 0.0625 1.25q0.078125 0.21875 0.265625 0.359375q0.1875 0.140625 0.46875 0.140625q0.328125 0 0.59375 -0.171875q0.265625 -0.1875 0.359375 -0.453125q0.09375 -0.28125 0.09375 -1.3125l0 -2.046875l1.28125 0l0 4.84375l-1.1875 0zm3.729248 0l-1.28125 0l0 -4.84375l1.1875 0l0 0.6875q0.3125 -0.484375 0.546875 -0.640625q0.25 -0.15625 0.5625 -0.15625q0.4375 0 0.84375 0.25l-0.390625 1.109375q-0.328125 -0.203125 -0.609375 -0.203125q-0.265625 0 -0.453125 0.15625q-0.1875 0.140625 -0.296875 0.53125q-0.109375 0.375 -0.109375 1.609375l0 1.5zm5.208267 -1.546875l1.28125 0.21875q-0.25 0.703125 -0.78125 1.078125q-0.53125 0.359375 -1.328125 0.359375q-1.265625 0 -1.859375 -0.828125q-0.484375 -0.65625 -0.484375 -1.65625q0 -1.203125 0.625 -1.890625q0.625 -0.6875 1.59375 -0.6875q1.078125 0 1.703125 0.71875q0.625 0.71875 0.59375 2.1875l-3.203125 0q0.015625 0.5625 0.3125 0.890625q0.296875 0.3125 0.734375 0.3125q0.296875 0 0.5 -0.15625q0.203125 -0.171875 0.3125 -0.546875zm0.078125 -1.28125q-0.015625 -0.5625 -0.296875 -0.84375q-0.265625 -0.296875 -0.65625 -0.296875q-0.421875 0 -0.6875 0.3125q-0.28125 0.296875 -0.28125 0.828125l1.921875 0z" fill-rule="nonzero"/><path fill="#283282" d="m444.98425 119.12336l145.82678 0l0 45.82659l-9.165527 9.165527l-136.66125 0z" fill-rule="evenodd"/><path fill="#1f2767" d="m581.6455 174.11548l1.8330688 -7.332428l7.3324585 -1.8330994z" fill-rule="evenodd"/><path fill="#000000" fill-opacity="0.0" d="m581.6455 174.11548l1.8330688 -7.332428l7.3324585 -1.8330994l-9.165527 9.165527l-136.66125 0l0 -54.99212l145.82678 0l0 45.82659" fill-rule="evenodd"/><path fill="#ffffff" d="m493.40057 140.65291l1.1875 0l0 0.71875q0.234375 -0.359375 0.625 -0.59375q0.390625 -0.234375 0.875 -0.234375q0.84375 0 1.4375 0.671875q0.59375 0.65625 0.59375 1.828125q0 1.21875 -0.59375 1.890625q-0.59375 0.671875 -1.4375 0.671875q-0.40625 0 -0.734375 -0.15625q-0.328125 -0.15625 -0.6875 -0.546875l0 2.4375l-1.265625 0l0 -6.6875zm1.265625 2.34375q0 0.8125 0.3125 1.203125q0.328125 0.390625 0.796875 0.390625q0.4375 0 0.734375 -0.359375q0.296875 -0.359375 0.296875 -1.171875q0 -0.765625 -0.3125 -1.125q-0.296875 -0.375 -0.75 -0.375q-0.46875 0 -0.78125 0.359375q-0.296875 0.359375 -0.296875 1.078125zm5.682373 2.5l-1.28125 0l0 -4.84375l1.1875 0l0 0.6875q0.3125 -0.484375 0.546875 -0.640625q0.25 -0.15625 0.5625 -0.15625q0.4375 0 0.84375 0.25l-0.390625 1.109375q-0.328125 -0.203125 -0.609375 -0.203125q-0.265625 0 -0.453125 0.15625q-0.1875 0.140625 -0.296875 0.53125q-0.109375 0.375 -0.109375 1.609375l0 1.5zm5.2082825 -1.546875l1.28125 0.21875q-0.25 0.703125 -0.78125 1.078125q-0.53125 0.359375 -1.328125 0.359375q-1.265625 0 -1.859375 -0.828125q-0.484375 -0.65625 -0.484375 -1.65625q0 -1.203125 0.625 -1.890625q0.625 -0.6875 1.59375 -0.6875q1.078125 0 1.703125 0.71875q0.625 0.71875 0.59375 2.1875l-3.203125 0q0.015625 0.5625 0.3125 0.890625q0.296875 0.3125 0.734375 0.3125q0.296875 0 0.5 -0.15625q0.203125 -0.171875 0.3125 -0.546875zm0.078125 -1.28125q-0.015625 -0.5625 -0.296875 -0.84375q-0.265625 -0.296875 -0.65625 -0.296875q-0.421875 0 -0.6875 0.3125q-0.28125 0.296875 -0.28125 0.828125l1.921875 0zm6.7503357 2.828125l-1.1874695 0l0 -0.703125q-0.296875 0.40625 -0.703125 0.609375q-0.40625 0.203125 -0.8125 0.203125q-0.828125 0 -1.4375 -0.671875q-0.59375 -0.671875 -0.59375 -1.875q0 -1.234375 0.578125 -1.875q0.59375 -0.640625 1.46875 -0.640625q0.8125 0 1.40625 0.6875l0 -2.40625l1.2812195 0l0 6.671875zm-3.4218445 -2.515625q0 0.765625 0.21875 1.109375q0.3125 0.5 0.859375 0.5q0.453125 0 0.75 -0.375q0.3125 -0.375 0.3125 -1.125q0 -0.828125 -0.296875 -1.1875q-0.296875 -0.375 -0.765625 -0.375q-0.453125 0 -0.765625 0.359375q-0.3125 0.359375 -0.3125 1.09375zm4.6823425 -2.984375l0 -1.171875l1.28125 0l0 1.171875l-1.28125 0zm0 5.5l0 -4.84375l1.28125 0l0 4.84375l-1.28125 0zm6.810425 -3.40625l-1.265625 0.234375q-0.0625 -0.390625 -0.296875 -0.578125q-0.21875 -0.1875 -0.578125 -0.1875q-0.484375 0 -0.765625 0.328125q-0.28125 0.328125 -0.28125 1.109375q0 0.859375 0.28125 1.21875q0.296875 0.34375 0.78125 0.34375q0.375 0 0.59375 -0.203125q0.234375 -0.203125 0.328125 -0.71875l1.265625 0.21875q-0.203125 0.859375 -0.765625 1.3125q-0.546875 0.4375 -1.484375 0.4375q-1.046875 0 -1.6875 -0.671875q-0.625 -0.671875 -0.625 -1.84375q0 -1.203125 0.625 -1.875q0.640625 -0.671875 1.71875 -0.671875q0.875 0 1.390625 0.390625q0.53125 0.375 0.765625 1.15625zm3.1878662 -1.4375l0 1.03125l-0.875 0l0 1.9375q0 0.59375 0.015625 0.703125q0.03125 0.09375 0.109375 0.15625q0.09375 0.0625 0.234375 0.0625q0.171875 0 0.515625 -0.125l0.109375 1.0q-0.453125 0.1875 -1.015625 0.1875q-0.34375 0 -0.625 -0.109375q-0.28125 -0.125 -0.421875 -0.296875q-0.125 -0.1875 -0.171875 -0.515625q-0.03125 -0.21875 -0.03125 -0.890625l0 -2.109375l-0.59375 0l0 -1.03125l0.59375 0l0 -0.953125l1.28125 -0.75l0 1.703125l0.875 0zm0.88757324 -0.65625l0 -1.171875l1.28125 0l0 1.171875l-1.28125 0zm0 5.5l0 -4.84375l1.28125 0l0 4.84375l-1.28125 0zm2.2947998 -2.484375q0 -0.640625 0.3125 -1.234375q0.3125 -0.59375 0.890625 -0.90625q0.578125 -0.328125 1.28125 -0.328125q1.109375 0 1.796875 0.71875q0.703125 0.71875 0.703125 1.796875q0 1.109375 -0.703125 1.828125q-0.703125 0.71875 -1.78125 0.71875q-0.671875 0 -1.28125 -0.296875q-0.59375 -0.296875 -0.90625 -0.875q-0.3125 -0.59375 -0.3125 -1.421875zm1.3125 0.0625q0 0.71875 0.34375 1.109375q0.34375 0.375 0.84375 0.375q0.5 0 0.828125 -0.375q0.34375 -0.390625 0.34375 -1.109375q0 -0.71875 -0.34375 -1.09375q-0.328125 -0.390625 -0.828125 -0.390625q-0.5 0 -0.84375 0.390625q-0.34375 0.375 -0.34375 1.09375zm9.072998 2.421875l-1.265625 0l0 -2.46875q0 -0.78125 -0.09375 -1.015625q-0.078125 -0.234375 -0.265625 -0.359375q-0.1875 -0.125 -0.4375 -0.125q-0.328125 0 -0.59375 0.1875q-0.265625 0.171875 -0.375 0.484375q-0.09375 0.296875 -0.09375 1.109375l0 2.1875l-1.28125 0l0 -4.84375l1.1875 0l0 0.71875q0.640625 -0.828125 1.59375 -0.828125q0.421875 0 0.765625 0.15625q0.359375 0.15625 0.53125 0.390625q0.1875 0.234375 0.25 0.546875q0.078125 0.296875 0.078125 0.859375l0 3.0zm0.85424805 -1.375l1.28125 -0.203125q0.078125 0.375 0.328125 0.578125q0.265625 0.1875 0.703125 0.1875q0.5 0 0.75 -0.1875q0.171875 -0.125 0.171875 -0.34375q0 -0.140625 -0.09375 -0.234375q-0.09375 -0.09375 -0.421875 -0.171875q-1.546875 -0.34375 -1.96875 -0.625q-0.578125 -0.390625 -0.578125 -1.09375q0 -0.625 0.5 -1.046875q0.5 -0.4375 1.546875 -0.4375q0.984375 0 1.46875 0.328125q0.484375 0.328125 0.671875 0.953125l-1.21875 0.234375q-0.078125 -0.28125 -0.296875 -0.4375q-0.203125 -0.15625 -0.609375 -0.15625q-0.5 0 -0.71875 0.140625q-0.15625 0.109375 -0.15625 0.265625q0 0.140625 0.140625 0.234375q0.171875 0.125 1.1875 0.359375q1.03125 0.234375 1.4375 0.5625q0.390625 0.34375 0.390625 0.953125q0 0.671875 -0.5625 1.15625q-0.546875 0.46875 -1.640625 0.46875q-0.984375 0 -1.5625 -0.390625q-0.578125 -0.40625 -0.75 -1.09375z" fill-rule="nonzero"/><path fill="#000000" fill-opacity="0.0" d="m165.12074 216.50131l72.18898 -70.99213" fill-rule="evenodd"/><path stroke="#0000ff" stroke-width="2.0" stroke-linejoin="round" stroke-linecap="butt" d="m165.12073 216.50131l63.63307 -62.578064" fill-rule="evenodd"/><path fill="#0000ff" stroke="#0000ff" stroke-width="2.0" stroke-linecap="butt" d="m231.0701 156.2786l4.1549683 -8.719315l-8.787567 4.008621z" fill-rule="evenodd"/><path fill="#ff462b" d="m237.2979 145.50165l76.3622 -32.314957l76.36221 32.314957l-76.36221 32.314957z" fill-rule="evenodd"/><path fill="#000000" d="m294.4687 143.8029l1.53125 0l0 0.90625q0.3125 -0.46875 0.8125 -0.75q0.515625 -0.296875 1.140625 -0.296875q1.078125 0 1.828125 0.84375q0.765625 0.84375 0.765625 2.375q0 1.546875 -0.765625 2.421875q-0.765625 0.859375 -1.84375 0.859375q-0.515625 0 -0.9375 -0.203125q-0.421875 -0.203125 -0.875 -0.703125l0 3.140625l-1.65625 0l0 -8.59375zm1.625 3.0q0 1.046875 0.421875 1.546875q0.421875 0.5 1.015625 0.5q0.578125 0 0.953125 -0.453125q0.375 -0.46875 0.375 -1.515625q0 -0.96875 -0.390625 -1.4375q-0.390625 -0.484375 -0.96875 -0.484375q-0.609375 0 -1.015625 0.46875q-0.390625 0.46875 -0.390625 1.375zm7.330078 3.21875l-1.640625 0l0 -6.21875l1.53125 0l0 0.875q0.390625 -0.625 0.703125 -0.8125q0.3125 -0.203125 0.703125 -0.203125q0.5625 0 1.09375 0.3125l-0.515625 1.421875q-0.421875 -0.265625 -0.765625 -0.265625q-0.359375 0 -0.59375 0.203125q-0.234375 0.1875 -0.375 0.6875q-0.140625 0.484375 -0.140625 2.078125l0 1.921875zm6.701172 -1.984375l1.640625 0.28125q-0.3125 0.90625 -1.0 1.375q-0.6875 0.46875 -1.703125 0.46875q-1.625 0 -2.40625 -1.0625q-0.625 -0.84375 -0.625 -2.140625q0 -1.546875 0.8125 -2.421875q0.8125 -0.875 2.046875 -0.875q1.390625 0 2.1875 0.921875q0.8125 0.90625 0.765625 2.796875l-4.125 0q0.03125 0.734375 0.40625 1.140625q0.375 0.40625 0.953125 0.40625q0.375 0 0.640625 -0.203125q0.265625 -0.21875 0.40625 -0.6875zm0.09375 -1.65625q-0.015625 -0.71875 -0.375 -1.09375q-0.34375 -0.375 -0.859375 -0.375q-0.53125 0 -0.890625 0.390625q-0.34375 0.40625 -0.34375 1.078125l2.46875 0zm8.673828 3.640625l-1.515625 0l0 -0.921875q-0.390625 0.546875 -0.90625 0.8125q-0.515625 0.25 -1.046875 0.25q-1.078125 0 -1.84375 -0.859375q-0.75 -0.875 -0.75 -2.421875q0 -1.578125 0.734375 -2.390625q0.75 -0.828125 1.890625 -0.828125q1.03125 0 1.796875 0.859375l0 -3.09375l1.640625 0l0 8.59375zm-4.390625 -3.25q0 1.0 0.28125 1.4375q0.390625 0.65625 1.109375 0.65625q0.5625 0 0.953125 -0.484375q0.40625 -0.484375 0.40625 -1.453125q0 -1.0625 -0.390625 -1.53125q-0.375 -0.484375 -0.984375 -0.484375q-0.578125 0 -0.984375 0.46875q-0.390625 0.46875 -0.390625 1.390625zm6.017578 -3.8125l0 -1.53125l1.65625 0l0 1.53125l-1.65625 0zm0 7.0625l0 -6.21875l1.65625 0l0 6.21875l-1.65625 0zm8.755859 -4.390625l-1.609375 0.296875q-0.09375 -0.484375 -0.390625 -0.71875q-0.28125 -0.25 -0.734375 -0.25q-0.625 0 -1.0 0.421875q-0.359375 0.421875 -0.359375 1.421875q0 1.109375 0.375 1.5625q0.375 0.453125 1.0 0.453125q0.46875 0 0.765625 -0.265625q0.296875 -0.265625 0.421875 -0.921875l1.625 0.28125q-0.25 1.109375 -0.96875 1.6875q-0.71875 0.5625 -1.921875 0.5625q-1.359375 0 -2.171875 -0.859375q-0.8125 -0.859375 -0.8125 -2.390625q0 -1.53125 0.8125 -2.390625q0.8125 -0.859375 2.203125 -0.859375q1.140625 0 1.8125 0.484375q0.671875 0.484375 0.953125 1.484375zm4.111328 -1.828125l0 1.3125l-1.125 0l0 2.5q0 0.765625 0.03125 0.890625q0.03125 0.125 0.140625 0.21875q0.125 0.078125 0.28125 0.078125q0.234375 0 0.65625 -0.171875l0.140625 1.28125q-0.5625 0.25 -1.296875 0.25q-0.4375 0 -0.796875 -0.140625q-0.359375 -0.15625 -0.53125 -0.390625q-0.15625 -0.25 -0.234375 -0.640625q-0.046875 -0.296875 -0.046875 -1.171875l0 -2.703125l-0.75 0l0 -1.3125l0.75 0l0 -1.234375l1.65625 -0.96875l0 2.203125l1.125 0z" fill-rule="nonzero"/><path fill="#000000" fill-opacity="0.0" d="m165.12074 82.47244l72.18898 63.02362" fill-rule="evenodd"/><path stroke="#0000ff" stroke-width="2.0" stroke-linejoin="round" stroke-linecap="butt" d="m165.12073 82.47244l63.14926 55.131622" fill-rule="evenodd"/><path fill="#0000ff" stroke="#0000ff" stroke-width="2.0" stroke-linecap="butt" d="m226.09743 140.09259l9.00975 3.4805908l-4.6645966 -8.457642z" fill-rule="evenodd"/><path fill="#000000" fill-opacity="0.0" d="m390.0223 145.50165l54.960632 1.1023712" fill-rule="evenodd"/><path stroke="#0000ff" stroke-width="2.0" stroke-linejoin="round" stroke-linecap="butt" d="m390.0223 145.50165l42.963043 0.86172485" fill-rule="evenodd"/><path fill="#0000ff" stroke="#0000ff" stroke-width="2.0" stroke-linecap="butt" d="m432.9191 149.66617l9.140625 -3.1207886l-9.008118 -3.4848022z" fill-rule="evenodd"/></g></svg>